<svg width="356mm" height="203mm" viewBox="0 0 356 203" xmlns="http://www.w3.org/2000/svg" version="1.1" preserveAspectRatio="xMidYMid meet"><g id="svgGroup" stroke-linecap="round" fill-rule="evenodd" font-size="9pt" stroke="#000" stroke-width="0.25mm" fill="none" style="stroke:#000;stroke-width:0.25mm;fill:none"><path d="M 0 103 L 0 139.138 L 3 139.138 L 3 166.862 L 0 166.862 L 0 194.586 L 0 203 L 36.138 203 L 36.138 200 L 63.862 200 L 63.862 203 L 91.586 203 L 100 203 L 100 166.862 L 97 166.862 L 97 139.138 L 100 139.138 L 100 111.414 L 100 103 L 0 103 Z" id="front_outsideCutPath" stroke="#FF0000" stroke-width="0.1" style="stroke:#FF0000;stroke-width:0.1" vector-effect="non-scaling-stroke"/><path d="M 106 103 L 106 139.138 L 103 139.138 L 103 166.862 L 106 166.862 L 106 194.586 L 106 203 L 136.414 203 L 136.414 200 L 164.138 200 L 164.138 203 L 191.862 203 L 191.862 200 L 219.586 200 L 219.586 203 L 247.31 203 L 250 203 L 250 166.862 L 253 166.862 L 253 139.138 L 250 139.138 L 250 111.414 L 250 103 L 106 103 Z" id="left_outsideCutPath" stroke="#FF0000" stroke-width="0.1" style="stroke:#FF0000;stroke-width:0.1" vector-effect="non-scaling-stroke"/><path d="M 0 0 L 0 36.138 L 3 36.138 L 3 63.862 L 0 63.862 L 0 91.586 L 0 100 L 36.138 100 L 36.138 97 L 63.862 97 L 63.862 100 L 91.586 100 L 100 100 L 100 63.862 L 97 63.862 L 97 36.138 L 100 36.138 L 100 8.414 L 100 0 L 0 0 Z" id="back_outsideCutPath" stroke="#FF0000" stroke-width="0.1" style="stroke:#FF0000;stroke-width:0.1" vector-effect="non-scaling-stroke"/><path d="M 106 0 L 106 36.138 L 103 36.138 L 103 63.862 L 106 63.862 L 106 91.586 L 106 100 L 136.414 100 L 136.414 97 L 164.138 97 L 164.138 100 L 191.862 100 L 191.862 97 L 219.586 97 L 219.586 100 L 247.31 100 L 250 100 L 250 63.862 L 253 63.862 L 253 36.138 L 250 36.138 L 250 8.414 L 250 0 L 106 0 Z" id="right_outsideCutPath" stroke="#FF0000" stroke-width="0.1" style="stroke:#FF0000;stroke-width:0.1" vector-effect="non-scaling-stroke"/><path d="M 259 56 L 259 86.414 L 256 86.414 L 256 114.138 L 259 114.138 L 259 141.862 L 256 141.862 L 256 169.586 L 259 169.586 L 259 197.31 L 259 200 L 292.138 200 L 292.138 203 L 319.862 203 L 319.862 200 L 347.586 200 L 353 200 L 353 169.586 L 356 169.586 L 356 141.862 L 353 141.862 L 353 114.138 L 356 114.138 L 356 86.414 L 353 86.414 L 353 58.69 L 353 56 L 319.862 56 L 319.862 53 L 292.138 53 L 292.138 56 L 264.414 56 L 259 56 Z" id="bottom_outsideCutPath" stroke="#FF0000" stroke-width="0.1" style="stroke:#FF0000;stroke-width:0.1" vector-effect="non-scaling-stroke"/></g></svg>