<svg width="196mm" height="83mm" viewBox="0 0 196 83" xmlns="http://www.w3.org/2000/svg" version="1.1" preserveAspectRatio="xMidYMid meet"><g id="svgGroup" stroke-linecap="round" fill-rule="evenodd" font-size="9pt" stroke="#000" stroke-width="0.25mm" fill="none" style="stroke:#000;stroke-width:0.25mm;fill:none"><path d="M 0 53 L 0 62.938 L 3 62.938 L 3 73.063 L 0 73.063 L 0 83 L 12.188 83 L 12.188 80 L 22.313 80 L 22.313 83 L 32.438 83 L 32.438 80 L 42.563 80 L 42.563 83 L 52.688 83 L 52.688 80 L 62.813 80 L 62.813 83 L 72.938 83 L 75 83 L 75 73.063 L 72 73.063 L 72 62.938 L 75 62.938 L 75 53 L 62.813 53 L 62.813 56 L 52.688 56 L 52.688 53 L 42.563 53 L 42.563 56 L 32.438 56 L 32.438 53 L 22.313 53 L 22.313 56 L 12.188 56 L 12.188 53 L 2.063 53 L 0 53 Z" id="front_outsideCutPath" stroke="#FF0000" stroke-width="0.1" style="stroke:#FF0000;stroke-width:0.1" vector-effect="non-scaling-stroke"/><path d="M 41.873 70.266 L 41.386 70.266 L 41.386 68.189 A 1.375 1.375 0 0 0 41.37 67.973 Q 41.333 67.739 41.208 67.603 A 0.548 0.548 0 0 0 40.983 67.459 Q 40.894 67.428 40.786 67.417 A 1.289 1.289 0 0 0 40.648 67.41 A 1.472 1.472 0 0 0 40.373 67.434 Q 40.219 67.463 40.101 67.528 A 0.686 0.686 0 0 0 39.91 67.682 A 0.795 0.795 0 0 0 39.771 67.924 Q 39.688 68.145 39.677 68.476 A 3.116 3.116 0 0 0 39.675 68.581 L 39.675 70.266 L 39.189 70.266 L 39.189 67.055 L 39.584 67.055 L 39.664 67.495 L 39.687 67.495 A 0.985 0.985 0 0 1 40.073 67.144 A 1.184 1.184 0 0 1 40.106 67.127 A 1.317 1.317 0 0 1 40.575 67.002 A 1.592 1.592 0 0 1 40.707 66.997 A 1.92 1.92 0 0 1 41.033 67.022 Q 41.21 67.053 41.35 67.12 A 0.874 0.874 0 0 1 41.58 67.276 A 0.843 0.843 0 0 1 41.785 67.599 Q 41.834 67.732 41.856 67.896 A 2.122 2.122 0 0 1 41.873 68.171 L 41.873 70.266 Z M 32.53 67.055 L 32.53 67.433 L 31.712 67.433 L 31.712 70.266 L 31.226 70.266 L 31.226 67.433 L 30.652 67.433 L 30.652 67.213 L 31.226 67.038 L 31.226 66.859 Q 31.226 65.837 31.997 65.697 A 1.478 1.478 0 0 1 32.26 65.675 A 1.566 1.566 0 0 1 32.482 65.692 Q 32.59 65.708 32.71 65.737 A 3.148 3.148 0 0 1 32.858 65.778 L 32.732 66.167 A 2.362 2.362 0 0 0 32.548 66.116 Q 32.382 66.077 32.251 66.077 A 0.656 0.656 0 0 0 32.093 66.094 A 0.421 0.421 0 0 0 31.844 66.26 Q 31.712 66.443 31.712 66.847 L 31.712 67.055 L 32.53 67.055 Z M 44.348 69.865 L 44.348 70.237 A 0.478 0.478 0 0 1 44.291 70.259 Q 44.231 70.279 44.144 70.295 A 1.819 1.819 0 0 1 44.115 70.3 A 2.108 2.108 0 0 1 43.978 70.318 Q 43.904 70.325 43.838 70.325 A 1.27 1.27 0 0 1 43.464 70.274 Q 43.053 70.147 42.945 69.7 A 1.529 1.529 0 0 1 42.907 69.343 L 42.907 67.433 L 42.447 67.433 L 42.447 67.199 L 42.907 66.997 L 43.112 66.311 L 43.393 66.311 L 43.393 67.055 L 44.325 67.055 L 44.325 67.433 L 43.393 67.433 L 43.393 69.323 A 0.979 0.979 0 0 0 43.407 69.495 Q 43.424 69.589 43.461 69.664 A 0.472 0.472 0 0 0 43.531 69.768 A 0.452 0.452 0 0 0 43.808 69.916 A 0.65 0.65 0 0 0 43.909 69.923 Q 44.038 69.923 44.158 69.904 A 2.631 2.631 0 0 0 44.228 69.892 Q 44.295 69.88 44.342 69.867 A 0.726 0.726 0 0 0 44.348 69.865 Z M 34.964 67.032 L 34.897 67.483 Q 34.731 67.446 34.598 67.44 A 1.141 1.141 0 0 0 34.545 67.439 A 0.843 0.843 0 0 0 33.923 67.708 A 1.153 1.153 0 0 0 33.879 67.755 A 1.111 1.111 0 0 0 33.611 68.379 A 1.476 1.476 0 0 0 33.602 68.543 L 33.602 70.266 L 33.116 70.266 L 33.116 67.055 L 33.517 67.055 L 33.573 67.65 L 33.596 67.65 A 1.642 1.642 0 0 1 33.78 67.387 A 1.255 1.255 0 0 1 34.027 67.166 A 0.969 0.969 0 0 1 34.581 66.997 A 2.233 2.233 0 0 1 34.78 67.005 A 1.63 1.63 0 0 1 34.964 67.032 Z M 38.292 69.146 A 2.512 2.512 0 0 0 38.336 68.658 A 2.854 2.854 0 0 0 38.335 68.58 Q 38.316 67.87 37.939 67.445 Q 37.542 66.997 36.869 66.997 A 1.889 1.889 0 0 0 36.529 67.026 A 1.286 1.286 0 0 0 35.779 67.435 A 1.344 1.344 0 0 0 35.614 67.663 Q 35.487 67.885 35.431 68.169 A 2.525 2.525 0 0 0 35.386 68.658 A 2.433 2.433 0 0 0 35.417 69.052 A 1.799 1.799 0 0 0 35.568 69.542 Q 35.75 69.92 36.083 70.122 A 1.354 1.354 0 0 0 36.394 70.261 A 1.562 1.562 0 0 0 36.848 70.325 Q 37.545 70.325 37.941 69.884 Q 38.204 69.591 38.292 69.146 Z M 35.89 68.658 A 2.463 2.463 0 0 0 35.914 69.009 Q 35.966 69.372 36.136 69.595 A 0.797 0.797 0 0 0 36.655 69.901 A 1.208 1.208 0 0 0 36.86 69.917 A 1.13 1.13 0 0 0 37.158 69.88 A 0.786 0.786 0 0 0 37.585 69.597 A 1.044 1.044 0 0 0 37.748 69.28 Q 37.795 69.134 37.816 68.955 A 2.562 2.562 0 0 0 37.833 68.658 A 2.427 2.427 0 0 0 37.81 68.312 Q 37.757 67.948 37.585 67.727 A 0.8 0.8 0 0 0 37.088 67.431 A 1.227 1.227 0 0 0 36.854 67.41 A 1.157 1.157 0 0 0 36.566 67.443 A 0.775 0.775 0 0 0 36.133 67.723 A 1.006 1.006 0 0 0 35.977 68.025 Q 35.931 68.164 35.909 68.334 A 2.57 2.57 0 0 0 35.89 68.658 Z" id="front_labelLayer" stroke="#777777" fill="#777777" style="stroke:#777777;fill:#777777" vector-effect="non-scaling-stroke"/><path d="M 81 53 L 81 62.938 L 78 62.938 L 78 73.063 L 81 73.063 L 81 83 L 92.938 83 L 92.938 80 L 103.063 80 L 103.063 83 L 113.188 83 L 115 83 L 115 73.063 L 118 73.063 L 118 62.938 L 115 62.938 L 115 53 L 103.063 53 L 103.063 56 L 92.938 56 L 92.938 53 L 82.813 53 L 81 53 Z" id="left_outsideCutPath" stroke="#FF0000" stroke-width="0.1" style="stroke:#FF0000;stroke-width:0.1" vector-effect="non-scaling-stroke"/><path d="M 100.134 67.055 L 100.134 67.433 L 99.317 67.433 L 99.317 70.266 L 98.831 70.266 L 98.831 67.433 L 98.256 67.433 L 98.256 67.213 L 98.831 67.038 L 98.831 66.859 Q 98.831 65.837 99.601 65.697 A 1.478 1.478 0 0 1 99.865 65.675 A 1.566 1.566 0 0 1 100.086 65.692 Q 100.194 65.708 100.314 65.737 A 3.148 3.148 0 0 1 100.462 65.778 L 100.336 66.167 A 2.362 2.362 0 0 0 100.153 66.116 Q 99.987 66.077 99.856 66.077 A 0.656 0.656 0 0 0 99.698 66.094 A 0.421 0.421 0 0 0 99.449 66.26 Q 99.317 66.443 99.317 66.847 L 99.317 67.055 L 100.134 67.055 Z M 97.858 68.441 L 97.858 68.748 L 95.646 68.748 A 1.952 1.952 0 0 0 95.68 69.075 Q 95.715 69.253 95.786 69.394 A 0.913 0.913 0 0 0 95.932 69.607 A 0.884 0.884 0 0 0 96.396 69.868 A 1.339 1.339 0 0 0 96.695 69.9 A 2.569 2.569 0 0 0 97.657 69.709 A 2.943 2.943 0 0 0 97.72 69.683 L 97.72 70.117 Q 97.462 70.228 97.232 70.276 Q 97.054 70.314 96.817 70.322 A 3.962 3.962 0 0 1 96.677 70.325 A 1.89 1.89 0 0 1 96.204 70.269 A 1.338 1.338 0 0 1 95.554 69.891 A 1.431 1.431 0 0 1 95.211 69.262 Q 95.142 69.003 95.142 68.687 Q 95.142 68.054 95.396 67.633 A 1.44 1.44 0 0 1 95.524 67.454 A 1.246 1.246 0 0 1 96.433 67.001 A 1.719 1.719 0 0 1 96.551 66.997 A 1.482 1.482 0 0 1 96.968 67.052 A 1.127 1.127 0 0 1 97.506 67.393 A 1.36 1.36 0 0 1 97.814 68.015 A 1.979 1.979 0 0 1 97.858 68.441 Z M 102.197 69.865 L 102.197 70.237 A 0.478 0.478 0 0 1 102.14 70.259 Q 102.08 70.279 101.993 70.295 A 1.819 1.819 0 0 1 101.964 70.3 A 2.108 2.108 0 0 1 101.826 70.318 Q 101.752 70.325 101.687 70.325 A 1.27 1.27 0 0 1 101.313 70.274 Q 100.901 70.147 100.794 69.7 A 1.529 1.529 0 0 1 100.755 69.343 L 100.755 67.433 L 100.295 67.433 L 100.295 67.199 L 100.755 66.997 L 100.96 66.311 L 101.242 66.311 L 101.242 67.055 L 102.173 67.055 L 102.173 67.433 L 101.242 67.433 L 101.242 69.323 A 0.979 0.979 0 0 0 101.256 69.495 Q 101.273 69.589 101.31 69.664 A 0.472 0.472 0 0 0 101.379 69.768 A 0.452 0.452 0 0 0 101.657 69.916 A 0.65 0.65 0 0 0 101.757 69.923 Q 101.886 69.923 102.006 69.904 A 2.631 2.631 0 0 0 102.077 69.892 Q 102.144 69.88 102.19 69.867 A 0.726 0.726 0 0 0 102.197 69.865 Z M 94.29 65.707 L 94.29 70.266 L 93.803 70.266 L 93.803 65.707 L 94.29 65.707 Z M 95.658 68.353 L 97.336 68.353 Q 97.336 68.042 97.243 67.829 A 0.752 0.752 0 0 0 97.131 67.648 A 0.666 0.666 0 0 0 96.73 67.42 A 0.999 0.999 0 0 0 96.545 67.404 A 0.959 0.959 0 0 0 96.268 67.442 A 0.741 0.741 0 0 0 95.929 67.656 A 0.961 0.961 0 0 0 95.738 67.978 Q 95.689 68.11 95.667 68.27 A 1.837 1.837 0 0 0 95.658 68.353 Z" id="left_labelLayer" stroke="#777777" fill="#777777" style="stroke:#777777;fill:#777777" vector-effect="non-scaling-stroke"/><path d="M 124 46 L 124 57.938 L 121 57.938 L 121 68.063 L 124 68.063 L 124 78.188 L 124 80 L 133.188 80 L 133.188 83 L 143.313 83 L 143.313 80 L 153.438 80 L 153.438 83 L 163.563 83 L 163.563 80 L 173.688 80 L 173.688 83 L 183.813 83 L 183.813 80 L 193 80 L 193 68.063 L 196 68.063 L 196 57.938 L 193 57.938 L 193 47.813 L 193 46 L 183.813 46 L 183.813 43 L 173.688 43 L 173.688 46 L 163.563 46 L 163.563 43 L 153.438 43 L 153.438 46 L 143.313 46 L 143.313 43 L 133.188 43 L 133.188 46 L 124 46 Z" id="top_outsideCutPath" stroke="#FF0000" stroke-width="0.1" style="stroke:#FF0000;stroke-width:0.1" vector-effect="non-scaling-stroke"/><path d="M 161.375 64.125 L 161.328 64.125 Q 161.375 64.5 161.375 64.836 L 161.375 66.598 L 160.727 66.598 L 160.727 60.395 L 161.254 60.395 L 161.344 60.98 L 161.375 60.98 Q 161.625 60.629 161.957 60.473 A 1.624 1.624 0 0 1 162.422 60.337 A 2.102 2.102 0 0 1 162.719 60.316 A 1.988 1.988 0 0 1 163.28 60.391 A 1.469 1.469 0 0 1 164.033 60.898 Q 164.412 61.374 164.481 62.163 A 4.222 4.222 0 0 1 164.496 62.531 A 3.802 3.802 0 0 1 164.446 63.171 Q 164.342 63.777 164.025 64.17 Q 163.555 64.754 162.719 64.754 Q 162.301 64.754 161.955 64.6 A 1.436 1.436 0 0 1 161.375 64.125 Z M 155.039 64.141 L 155.039 64.637 A 0.638 0.638 0 0 1 154.963 64.667 Q 154.869 64.698 154.728 64.721 A 2.811 2.811 0 0 1 154.545 64.745 Q 154.447 64.754 154.359 64.754 A 1.694 1.694 0 0 1 153.86 64.687 Q 153.312 64.517 153.168 63.921 A 2.038 2.038 0 0 1 153.117 63.445 L 153.117 60.898 L 152.504 60.898 L 152.504 60.586 L 153.117 60.316 L 153.391 59.402 L 153.766 59.402 L 153.766 60.395 L 155.008 60.395 L 155.008 60.898 L 153.766 60.898 L 153.766 63.418 Q 153.766 63.69 153.856 63.873 A 0.629 0.629 0 0 0 153.949 64.012 A 0.602 0.602 0 0 0 154.319 64.209 A 0.867 0.867 0 0 0 154.453 64.219 A 2.13 2.13 0 0 0 154.765 64.196 A 1.963 1.963 0 0 0 154.785 64.193 A 3.508 3.508 0 0 0 154.879 64.177 Q 154.968 64.161 155.03 64.143 A 0.975 0.975 0 0 0 155.039 64.141 Z M 159.062 64.166 A 1.809 1.809 0 0 0 159.278 63.87 Q 159.59 63.336 159.59 62.531 A 3.806 3.806 0 0 0 159.588 62.428 Q 159.563 61.481 159.061 60.914 A 1.698 1.698 0 0 0 158.272 60.406 A 2.179 2.179 0 0 0 157.633 60.316 A 2.518 2.518 0 0 0 157.18 60.355 A 1.715 1.715 0 0 0 156.18 60.9 A 1.791 1.791 0 0 0 155.96 61.205 Q 155.656 61.734 155.656 62.531 A 3.244 3.244 0 0 0 155.697 63.057 A 2.399 2.399 0 0 0 155.898 63.711 A 2.131 2.131 0 0 0 155.946 63.803 A 1.755 1.755 0 0 0 156.586 64.484 A 1.806 1.806 0 0 0 157 64.669 A 2.082 2.082 0 0 0 157.605 64.754 A 2.518 2.518 0 0 0 158.045 64.717 A 1.729 1.729 0 0 0 159.062 64.166 Z M 156.328 62.531 A 3.284 3.284 0 0 0 156.359 63 Q 156.429 63.484 156.656 63.781 A 1.063 1.063 0 0 0 157.348 64.189 A 1.61 1.61 0 0 0 157.621 64.211 A 1.506 1.506 0 0 0 158.018 64.162 A 1.048 1.048 0 0 0 158.588 63.783 A 1.392 1.392 0 0 0 158.805 63.361 Q 158.868 63.166 158.896 62.928 A 3.416 3.416 0 0 0 158.918 62.531 A 3.235 3.235 0 0 0 158.887 62.07 Q 158.853 61.836 158.782 61.645 A 1.335 1.335 0 0 0 158.588 61.291 A 1.067 1.067 0 0 0 157.925 60.895 A 1.635 1.635 0 0 0 157.613 60.867 Q 156.977 60.867 156.652 61.285 A 1.341 1.341 0 0 0 156.444 61.688 Q 156.328 62.036 156.328 62.531 Z M 161.375 62.387 L 161.375 62.531 Q 161.375 63.434 161.676 63.822 A 0.941 0.941 0 0 0 162.153 64.144 Q 162.366 64.211 162.641 64.211 A 1.093 1.093 0 0 0 163.065 64.131 Q 163.31 64.029 163.485 63.796 A 1.292 1.292 0 0 0 163.51 63.762 Q 163.824 63.313 163.824 62.523 A 3.272 3.272 0 0 0 163.793 62.059 Q 163.726 61.589 163.51 61.295 A 1.009 1.009 0 0 0 162.772 60.875 A 1.395 1.395 0 0 0 162.625 60.867 A 1.868 1.868 0 0 0 162.276 60.898 Q 162.082 60.935 161.932 61.017 A 0.857 0.857 0 0 0 161.676 61.23 A 1.111 1.111 0 0 0 161.502 61.547 Q 161.392 61.846 161.377 62.287 A 4.127 4.127 0 0 0 161.375 62.387 Z" id="top_labelLayer" stroke="#777777" fill="#777777" style="stroke:#777777;fill:#777777" vector-effect="non-scaling-stroke"/><path d="M 0 20 L 0 29.938 L 3 29.938 L 3 40.063 L 0 40.063 L 0 50 L 12.188 50 L 12.188 47 L 22.313 47 L 22.313 50 L 32.438 50 L 32.438 47 L 42.563 47 L 42.563 50 L 52.688 50 L 52.688 47 L 62.813 47 L 62.813 50 L 72.938 50 L 75 50 L 75 40.063 L 72 40.063 L 72 29.938 L 75 29.938 L 75 20 L 62.813 20 L 62.813 23 L 52.688 23 L 52.688 20 L 42.563 20 L 42.563 23 L 32.438 23 L 32.438 20 L 22.313 20 L 22.313 23 L 12.188 23 L 12.188 20 L 2.063 20 L 0 20 Z" id="back_outsideCutPath" stroke="#FF0000" stroke-width="0.1" style="stroke:#FF0000;stroke-width:0.1" vector-effect="non-scaling-stroke"/><path d="M 41.607 35.606 L 41.631 35.606 Q 41.727 35.47 41.901 35.268 A 10.448 10.448 0 0 1 42.015 35.138 L 43.052 34.039 L 43.629 34.039 L 42.328 35.407 L 43.72 37.25 L 43.131 37.25 L 41.997 35.732 L 41.631 36.049 L 41.631 37.25 L 41.15 37.25 L 41.15 32.691 L 41.631 32.691 L 41.631 35.108 Q 41.631 35.269 41.607 35.606 Z M 31.767 36.837 L 31.731 36.837 L 31.629 37.25 L 31.28 37.25 L 31.28 32.691 L 31.767 32.691 L 31.767 33.799 A 10.14 10.14 0 0 1 31.761 34.141 Q 31.756 34.303 31.745 34.448 A 6.057 6.057 0 0 1 31.743 34.467 L 31.767 34.467 Q 32.106 33.986 32.774 33.986 A 1.486 1.486 0 0 1 33.193 34.042 A 1.113 1.113 0 0 1 33.757 34.418 Q 34.038 34.764 34.094 35.341 A 3.122 3.122 0 0 1 34.107 35.642 A 2.851 2.851 0 0 1 34.07 36.121 Q 33.992 36.576 33.754 36.871 Q 33.401 37.309 32.774 37.309 A 1.475 1.475 0 0 1 32.404 37.263 A 1.283 1.283 0 0 1 32.202 37.193 A 1.077 1.077 0 0 1 31.767 36.837 Z M 37.292 37.25 L 36.932 37.25 L 36.835 36.793 L 36.812 36.793 A 2.016 2.016 0 0 1 36.648 36.976 Q 36.561 37.062 36.473 37.122 A 0.896 0.896 0 0 1 36.333 37.202 A 1.121 1.121 0 0 1 36.101 37.275 Q 35.937 37.309 35.736 37.309 A 1.492 1.492 0 0 1 35.433 37.28 Q 35.247 37.241 35.104 37.151 A 0.837 0.837 0 0 1 34.988 37.062 A 0.799 0.799 0 0 1 34.747 36.641 A 1.224 1.224 0 0 1 34.717 36.362 Q 34.717 35.421 36.174 35.347 A 4.751 4.751 0 0 1 36.272 35.343 L 36.817 35.325 L 36.817 35.126 Q 36.817 34.748 36.655 34.568 Q 36.525 34.424 36.271 34.395 A 1.202 1.202 0 0 0 36.135 34.388 Q 35.812 34.388 35.421 34.547 A 3.257 3.257 0 0 0 35.227 34.634 L 35.077 34.262 A 2.242 2.242 0 0 1 35.51 34.084 A 2.552 2.552 0 0 1 35.597 34.06 A 2.252 2.252 0 0 1 36.164 33.986 A 2.054 2.054 0 0 1 36.477 34.008 Q 36.82 34.061 37.015 34.241 A 0.77 0.77 0 0 1 37.214 34.548 Q 37.26 34.674 37.279 34.83 A 1.914 1.914 0 0 1 37.292 35.059 L 37.292 37.25 Z M 40.436 34.147 L 40.286 34.561 A 2.163 2.163 0 0 0 40.051 34.482 A 2.584 2.584 0 0 0 39.935 34.454 A 2.009 2.009 0 0 0 39.782 34.425 Q 39.682 34.411 39.598 34.411 A 1.079 1.079 0 0 0 39.16 34.493 Q 38.619 34.732 38.619 35.659 Q 38.619 36.048 38.722 36.317 A 1.009 1.009 0 0 0 38.858 36.567 A 0.772 0.772 0 0 0 39.358 36.866 A 1.177 1.177 0 0 0 39.565 36.884 Q 39.967 36.884 40.389 36.711 L 40.389 37.142 A 1.383 1.383 0 0 1 40.05 37.261 Q 39.837 37.309 39.577 37.309 A 1.818 1.818 0 0 1 39.135 37.258 A 1.233 1.233 0 0 1 38.498 36.879 A 1.407 1.407 0 0 1 38.205 36.342 Q 38.14 36.129 38.122 35.872 A 2.941 2.941 0 0 1 38.115 35.665 Q 38.115 34.859 38.503 34.42 A 1.259 1.259 0 0 1 39.193 34.023 A 1.909 1.909 0 0 1 39.609 33.98 A 2.195 2.195 0 0 1 40.072 34.03 A 2.428 2.428 0 0 1 40.207 34.063 Q 40.345 34.101 40.436 34.147 Z M 32.704 34.394 A 1.367 1.367 0 0 0 32.439 34.417 Q 32.289 34.447 32.174 34.514 A 0.647 0.647 0 0 0 31.986 34.679 Q 31.793 34.93 31.77 35.483 A 3.747 3.747 0 0 0 31.767 35.642 Q 31.767 36.216 31.929 36.513 A 0.734 0.734 0 0 0 31.992 36.61 A 0.706 0.706 0 0 0 32.35 36.851 Q 32.47 36.889 32.616 36.898 A 1.564 1.564 0 0 0 32.716 36.901 A 0.969 0.969 0 0 0 32.991 36.864 A 0.699 0.699 0 0 0 33.384 36.575 A 1.116 1.116 0 0 0 33.522 36.276 Q 33.565 36.134 33.586 35.962 A 2.787 2.787 0 0 0 33.604 35.636 A 2.873 2.873 0 0 0 33.586 35.308 Q 33.545 34.95 33.406 34.734 A 0.807 0.807 0 0 0 33.384 34.701 A 0.709 0.709 0 0 0 32.932 34.415 A 1.125 1.125 0 0 0 32.704 34.394 Z M 36.806 35.961 L 36.806 35.671 L 36.319 35.691 Q 35.835 35.708 35.576 35.823 A 0.747 0.747 0 0 0 35.483 35.872 Q 35.227 36.031 35.227 36.368 A 0.695 0.695 0 0 0 35.244 36.528 Q 35.273 36.65 35.35 36.734 A 0.433 0.433 0 0 0 35.386 36.769 Q 35.546 36.907 35.833 36.907 Q 36.225 36.907 36.472 36.721 A 0.812 0.812 0 0 0 36.546 36.658 Q 36.806 36.409 36.806 35.961 Z" id="back_labelLayer" stroke="#777777" fill="#777777" style="stroke:#777777;fill:#777777" vector-effect="non-scaling-stroke"/><path d="M 81 20 L 81 29.938 L 78 29.938 L 78 40.063 L 81 40.063 L 81 50 L 92.938 50 L 92.938 47 L 103.063 47 L 103.063 50 L 113.188 50 L 115 50 L 115 40.063 L 118 40.063 L 118 29.938 L 115 29.938 L 115 20 L 103.063 20 L 103.063 23 L 92.938 23 L 92.938 20 L 82.813 20 L 81 20 Z" id="right_outsideCutPath" stroke="#FF0000" stroke-width="0.1" style="stroke:#FF0000;stroke-width:0.1" vector-effect="non-scaling-stroke"/><path d="M 101.731 36.559 L 101.245 36.559 L 101.245 34.481 A 1.375 1.375 0 0 0 101.229 34.266 Q 101.192 34.031 101.066 33.895 A 0.548 0.548 0 0 0 100.841 33.752 Q 100.753 33.721 100.644 33.709 A 1.289 1.289 0 0 0 100.506 33.702 A 1.472 1.472 0 0 0 100.231 33.726 Q 100.079 33.755 99.961 33.82 A 0.681 0.681 0 0 0 99.767 33.978 A 0.809 0.809 0 0 0 99.629 34.221 Q 99.534 34.478 99.534 34.88 L 99.534 36.559 L 99.047 36.559 L 99.047 32 L 99.534 32 L 99.534 33.38 A 4.375 4.375 0 0 1 99.531 33.548 Q 99.528 33.627 99.522 33.694 A 1.902 1.902 0 0 1 99.51 33.793 L 99.54 33.793 A 0.972 0.972 0 0 1 99.88 33.465 A 1.187 1.187 0 0 1 99.948 33.428 A 1.248 1.248 0 0 1 100.358 33.307 A 1.578 1.578 0 0 1 100.553 33.295 A 1.973 1.973 0 0 1 100.885 33.321 Q 101.232 33.38 101.437 33.575 A 0.847 0.847 0 0 1 101.645 33.903 Q 101.696 34.039 101.716 34.208 A 2.103 2.103 0 0 1 101.731 34.464 L 101.731 36.559 Z M 97.278 33.348 L 98.388 33.348 L 98.388 33.655 L 97.793 33.726 A 0.79 0.79 0 0 1 97.862 33.827 Q 97.892 33.88 97.919 33.943 A 1.499 1.499 0 0 1 97.94 33.994 A 0.936 0.936 0 0 1 97.995 34.217 A 1.202 1.202 0 0 1 98.004 34.367 A 1.115 1.115 0 0 1 97.953 34.713 A 0.902 0.902 0 0 1 97.682 35.12 A 1.079 1.079 0 0 1 97.258 35.344 Q 97.052 35.401 96.797 35.401 A 1.563 1.563 0 0 1 96.617 35.391 A 1.32 1.32 0 0 1 96.528 35.378 Q 96.351 35.472 96.274 35.593 A 0.366 0.366 0 0 0 96.217 35.791 Q 96.217 35.923 96.326 35.986 A 0.341 0.341 0 0 0 96.401 36.017 Q 96.481 36.04 96.601 36.046 A 1.85 1.85 0 0 0 96.698 36.049 L 97.266 36.049 A 1.991 1.991 0 0 1 97.568 36.07 Q 97.727 36.095 97.854 36.147 A 0.879 0.879 0 0 1 98.067 36.269 A 0.711 0.711 0 0 1 98.332 36.722 A 1.069 1.069 0 0 1 98.347 36.907 A 1.053 1.053 0 0 1 98.287 37.271 Q 98.187 37.545 97.919 37.72 A 1.458 1.458 0 0 1 97.543 37.891 Q 97.184 38 96.671 38 Q 96.258 38 95.969 37.899 A 1.13 1.13 0 0 1 95.7 37.766 A 0.775 0.775 0 0 1 95.45 37.494 Q 95.359 37.325 95.359 37.103 Q 95.359 36.811 95.546 36.597 A 0.849 0.849 0 0 1 95.838 36.384 A 1.204 1.204 0 0 1 96.074 36.307 A 0.505 0.505 0 0 1 95.878 36.148 A 0.599 0.599 0 0 1 95.867 36.134 A 0.451 0.451 0 0 1 95.784 35.89 A 0.558 0.558 0 0 1 95.784 35.861 A 0.556 0.556 0 0 1 95.812 35.682 A 0.493 0.493 0 0 1 95.877 35.554 Q 95.948 35.454 96.081 35.359 A 1.528 1.528 0 0 1 96.173 35.299 A 0.853 0.853 0 0 1 95.803 35.002 A 1.057 1.057 0 0 1 95.768 34.95 A 1.005 1.005 0 0 1 95.613 34.466 A 1.227 1.227 0 0 1 95.611 34.388 A 1.405 1.405 0 0 1 95.648 34.055 A 0.924 0.924 0 0 1 95.927 33.575 A 1.033 1.033 0 0 1 96.324 33.356 Q 96.481 33.308 96.671 33.294 A 2.148 2.148 0 0 1 96.824 33.289 A 1.864 1.864 0 0 1 97.07 33.305 A 1.42 1.42 0 0 1 97.278 33.348 Z M 104.207 36.157 L 104.207 36.529 A 0.478 0.478 0 0 1 104.15 36.552 Q 104.089 36.572 104.003 36.587 A 1.819 1.819 0 0 1 103.974 36.592 A 2.108 2.108 0 0 1 103.836 36.61 Q 103.762 36.617 103.697 36.617 A 1.27 1.27 0 0 1 103.322 36.567 Q 102.911 36.44 102.803 35.993 A 1.529 1.529 0 0 1 102.765 35.636 L 102.765 33.726 L 102.305 33.726 L 102.305 33.491 L 102.765 33.289 L 102.97 32.603 L 103.251 32.603 L 103.251 33.348 L 104.183 33.348 L 104.183 33.726 L 103.251 33.726 L 103.251 35.615 A 0.979 0.979 0 0 0 103.266 35.787 Q 103.282 35.882 103.319 35.956 A 0.472 0.472 0 0 0 103.389 36.061 A 0.452 0.452 0 0 0 103.667 36.208 A 0.65 0.65 0 0 0 103.767 36.216 Q 103.896 36.216 104.016 36.197 A 2.631 2.631 0 0 0 104.086 36.185 Q 104.153 36.172 104.2 36.159 A 0.726 0.726 0 0 0 104.207 36.157 Z M 93.642 33.324 L 93.575 33.775 Q 93.409 33.739 93.275 33.733 A 1.141 1.141 0 0 0 93.223 33.731 A 0.843 0.843 0 0 0 92.601 34 A 1.153 1.153 0 0 0 92.557 34.048 A 1.111 1.111 0 0 0 92.289 34.671 A 1.476 1.476 0 0 0 92.28 34.836 L 92.28 36.559 L 91.793 36.559 L 91.793 33.348 L 92.195 33.348 L 92.25 33.942 L 92.274 33.942 A 1.642 1.642 0 0 1 92.458 33.68 A 1.255 1.255 0 0 1 92.705 33.459 A 0.969 0.969 0 0 1 93.258 33.289 A 2.233 2.233 0 0 1 93.458 33.298 A 1.63 1.63 0 0 1 93.642 33.324 Z M 94.729 33.348 L 94.729 36.559 L 94.243 36.559 L 94.243 33.348 L 94.729 33.348 Z M 97.111 36.485 L 96.528 36.485 A 1.118 1.118 0 0 0 96.326 36.502 Q 96.136 36.537 96.012 36.644 Q 95.828 36.802 95.828 37.098 A 0.488 0.488 0 0 0 95.86 37.279 Q 95.906 37.396 96.019 37.474 A 0.571 0.571 0 0 0 96.047 37.493 A 0.779 0.779 0 0 0 96.239 37.575 Q 96.419 37.628 96.673 37.628 A 2.498 2.498 0 0 0 96.677 37.628 Q 97.224 37.628 97.518 37.482 A 0.808 0.808 0 0 0 97.584 37.445 A 0.709 0.709 0 0 0 97.749 37.307 A 0.532 0.532 0 0 0 97.878 36.948 A 0.658 0.658 0 0 0 97.866 36.818 Q 97.851 36.742 97.817 36.686 A 0.307 0.307 0 0 0 97.717 36.586 Q 97.595 36.509 97.307 36.491 A 3.094 3.094 0 0 0 97.111 36.485 Z M 96.091 34.376 A 0.949 0.949 0 0 0 96.111 34.575 Q 96.152 34.768 96.282 34.886 Q 96.472 35.059 96.812 35.059 A 1.059 1.059 0 0 0 97.089 35.025 Q 97.524 34.907 97.524 34.367 Q 97.524 33.793 97.07 33.674 A 1.058 1.058 0 0 0 96.803 33.644 Q 96.541 33.644 96.371 33.752 A 0.56 0.56 0 0 0 96.276 33.828 Q 96.119 33.985 96.096 34.27 A 1.279 1.279 0 0 0 96.091 34.376 Z M 94.209 32.388 A 0.539 0.539 0 0 0 94.202 32.478 Q 94.202 32.642 94.284 32.722 A 0.273 0.273 0 0 0 94.382 32.785 A 0.309 0.309 0 0 0 94.489 32.803 Q 94.606 32.803 94.691 32.722 A 0.237 0.237 0 0 0 94.737 32.661 Q 94.758 32.621 94.768 32.57 A 0.503 0.503 0 0 0 94.776 32.478 Q 94.776 32.397 94.756 32.338 A 0.246 0.246 0 0 0 94.691 32.234 Q 94.606 32.155 94.489 32.155 A 0.371 0.371 0 0 0 94.464 32.156 A 0.281 0.281 0 0 0 94.284 32.233 A 0.227 0.227 0 0 0 94.233 32.304 Q 94.216 32.341 94.209 32.388 Z" id="right_labelLayer" stroke="#777777" fill="#777777" style="stroke:#777777;fill:#777777" vector-effect="non-scaling-stroke"/><path d="M 124 3 L 124 14.938 L 121 14.938 L 121 25.063 L 124 25.063 L 124 35.188 L 124 37 L 133.188 37 L 133.188 40 L 143.313 40 L 143.313 37 L 153.438 37 L 153.438 40 L 163.563 40 L 163.563 37 L 173.688 37 L 173.688 40 L 183.813 40 L 183.813 37 L 193 37 L 193 25.063 L 196 25.063 L 196 14.938 L 193 14.938 L 193 4.813 L 193 3 L 183.813 3 L 183.813 0 L 173.688 0 L 173.688 3 L 163.563 3 L 163.563 0 L 153.438 0 L 153.438 3 L 143.313 3 L 143.313 0 L 133.188 0 L 133.188 3 L 124 3 Z" id="bottom_outsideCutPath" stroke="#FF0000" stroke-width="0.1" style="stroke:#FF0000;stroke-width:0.1" vector-effect="non-scaling-stroke"/><path d="M 171.66 23 L 171.012 23 L 171.012 20.215 A 1.913 1.913 0 0 0 170.992 19.933 Q 170.947 19.627 170.793 19.447 Q 170.602 19.223 170.225 19.195 A 1.505 1.505 0 0 0 170.113 19.191 A 1.669 1.669 0 0 0 169.774 19.224 Q 169.42 19.297 169.219 19.539 A 1.072 1.072 0 0 0 169.037 19.868 Q 168.93 20.169 168.93 20.609 L 168.93 23 L 168.281 23 L 168.281 20.215 A 1.913 1.913 0 0 0 168.262 19.933 Q 168.216 19.627 168.062 19.447 A 0.68 0.68 0 0 0 167.75 19.244 Q 167.637 19.207 167.499 19.196 A 1.518 1.518 0 0 0 167.379 19.191 Q 166.77 19.191 166.486 19.557 A 1.087 1.087 0 0 0 166.325 19.863 Q 166.221 20.159 166.206 20.602 A 4.514 4.514 0 0 0 166.203 20.754 L 166.203 23 L 165.555 23 L 165.555 18.719 L 166.082 18.719 L 166.187 19.305 L 166.219 19.305 Q 166.402 18.992 166.736 18.816 A 1.539 1.539 0 0 1 167.344 18.646 A 1.859 1.859 0 0 1 167.484 18.641 A 2.123 2.123 0 0 1 167.962 18.69 Q 168.256 18.758 168.461 18.919 A 1.107 1.107 0 0 1 168.797 19.367 L 168.828 19.367 A 1.354 1.354 0 0 1 169.338 18.861 A 1.627 1.627 0 0 1 169.383 18.836 A 1.641 1.641 0 0 1 169.985 18.653 A 2.046 2.046 0 0 1 170.211 18.641 A 2.254 2.254 0 0 1 170.62 18.675 Q 170.847 18.717 171.024 18.81 A 1.069 1.069 0 0 1 171.299 19.014 Q 171.562 19.285 171.633 19.794 A 2.974 2.974 0 0 1 171.66 20.207 L 171.66 23 Z M 145.988 22.449 L 145.941 22.449 L 145.805 23 L 145.34 23 L 145.34 16.922 L 145.988 16.922 L 145.988 18.398 Q 145.988 18.878 145.959 19.263 A 8.109 8.109 0 0 1 145.957 19.289 L 145.988 19.289 A 1.474 1.474 0 0 1 147.064 18.664 A 2.215 2.215 0 0 1 147.332 18.648 A 1.982 1.982 0 0 1 147.89 18.723 A 1.484 1.484 0 0 1 148.643 19.225 Q 149.016 19.686 149.091 20.454 A 4.162 4.162 0 0 1 149.109 20.855 A 3.802 3.802 0 0 1 149.059 21.495 Q 148.955 22.101 148.639 22.494 Q 148.168 23.078 147.332 23.078 Q 146.914 23.078 146.568 22.924 A 1.436 1.436 0 0 1 145.988 22.449 Z M 157.043 22.465 L 157.043 22.961 A 0.638 0.638 0 0 1 156.967 22.991 Q 156.873 23.022 156.732 23.045 A 2.811 2.811 0 0 1 156.549 23.069 Q 156.45 23.078 156.363 23.078 A 1.694 1.694 0 0 1 155.864 23.011 Q 155.316 22.842 155.172 22.246 A 2.038 2.038 0 0 1 155.121 21.769 L 155.121 19.223 L 154.508 19.223 L 154.508 18.91 L 155.121 18.641 L 155.395 17.726 L 155.77 17.726 L 155.77 18.719 L 157.012 18.719 L 157.012 19.223 L 155.77 19.223 L 155.77 21.742 Q 155.77 22.014 155.86 22.197 A 0.629 0.629 0 0 0 155.953 22.336 A 0.602 0.602 0 0 0 156.323 22.533 A 0.867 0.867 0 0 0 156.457 22.543 A 2.13 2.13 0 0 0 156.769 22.521 A 1.963 1.963 0 0 0 156.789 22.517 A 3.508 3.508 0 0 0 156.883 22.501 Q 156.972 22.485 157.034 22.467 A 0.975 0.975 0 0 0 157.043 22.465 Z M 159.867 22.465 L 159.867 22.961 A 0.638 0.638 0 0 1 159.792 22.991 Q 159.698 23.022 159.557 23.045 A 2.811 2.811 0 0 1 159.373 23.069 Q 159.275 23.078 159.187 23.078 A 1.694 1.694 0 0 1 158.688 23.011 Q 158.14 22.842 157.996 22.246 A 2.038 2.038 0 0 1 157.945 21.769 L 157.945 19.223 L 157.332 19.223 L 157.332 18.91 L 157.945 18.641 L 158.219 17.726 L 158.594 17.726 L 158.594 18.719 L 159.836 18.719 L 159.836 19.223 L 158.594 19.223 L 158.594 21.742 Q 158.594 22.014 158.684 22.197 A 0.629 0.629 0 0 0 158.777 22.336 A 0.602 0.602 0 0 0 159.148 22.533 A 0.867 0.867 0 0 0 159.281 22.543 A 2.13 2.13 0 0 0 159.593 22.521 A 1.963 1.963 0 0 0 159.613 22.517 A 3.508 3.508 0 0 0 159.707 22.501 Q 159.796 22.485 159.858 22.467 A 0.975 0.975 0 0 0 159.867 22.465 Z M 153.41 22.49 A 1.809 1.809 0 0 0 153.626 22.194 Q 153.937 21.661 153.937 20.855 A 3.806 3.806 0 0 0 153.936 20.752 Q 153.91 19.805 153.408 19.238 A 1.698 1.698 0 0 0 152.62 18.73 A 2.179 2.179 0 0 0 151.98 18.641 A 2.518 2.518 0 0 0 151.528 18.679 A 1.715 1.715 0 0 0 150.527 19.225 A 1.791 1.791 0 0 0 150.307 19.53 Q 150.004 20.058 150.004 20.855 A 3.244 3.244 0 0 0 150.045 21.381 A 2.399 2.399 0 0 0 150.246 22.035 A 2.131 2.131 0 0 0 150.293 22.127 A 1.755 1.755 0 0 0 150.934 22.808 A 1.806 1.806 0 0 0 151.348 22.993 A 2.082 2.082 0 0 0 151.953 23.078 A 2.518 2.518 0 0 0 152.393 23.041 A 1.729 1.729 0 0 0 153.41 22.49 Z M 163.891 22.49 A 1.809 1.809 0 0 0 164.106 22.194 Q 164.418 21.661 164.418 20.855 A 3.806 3.806 0 0 0 164.417 20.752 Q 164.391 19.805 163.889 19.238 A 1.698 1.698 0 0 0 163.101 18.73 A 2.179 2.179 0 0 0 162.461 18.641 A 2.518 2.518 0 0 0 162.009 18.679 A 1.715 1.715 0 0 0 161.008 19.225 A 1.791 1.791 0 0 0 160.788 19.53 Q 160.484 20.058 160.484 20.855 A 3.244 3.244 0 0 0 160.525 21.381 A 2.399 2.399 0 0 0 160.727 22.035 A 2.131 2.131 0 0 0 160.774 22.127 A 1.755 1.755 0 0 0 161.414 22.808 A 1.806 1.806 0 0 0 161.828 22.993 A 2.082 2.082 0 0 0 162.434 23.078 A 2.518 2.518 0 0 0 162.873 23.041 A 1.729 1.729 0 0 0 163.891 22.49 Z M 150.676 20.855 A 3.284 3.284 0 0 0 150.707 21.324 Q 150.777 21.808 151.004 22.105 A 1.063 1.063 0 0 0 151.696 22.513 A 1.61 1.61 0 0 0 151.969 22.535 A 1.506 1.506 0 0 0 152.366 22.486 A 1.048 1.048 0 0 0 152.936 22.107 A 1.392 1.392 0 0 0 153.152 21.685 Q 153.216 21.49 153.244 21.252 A 3.416 3.416 0 0 0 153.266 20.855 A 3.235 3.235 0 0 0 153.235 20.394 Q 153.201 20.16 153.13 19.969 A 1.335 1.335 0 0 0 152.936 19.615 A 1.067 1.067 0 0 0 152.272 19.219 A 1.635 1.635 0 0 0 151.961 19.191 Q 151.324 19.191 151 19.609 A 1.341 1.341 0 0 0 150.792 20.012 Q 150.676 20.36 150.676 20.855 Z M 161.156 20.855 A 3.284 3.284 0 0 0 161.187 21.324 Q 161.257 21.808 161.484 22.105 A 1.063 1.063 0 0 0 162.177 22.513 A 1.61 1.61 0 0 0 162.449 22.535 A 1.506 1.506 0 0 0 162.847 22.486 A 1.048 1.048 0 0 0 163.416 22.107 A 1.392 1.392 0 0 0 163.633 21.685 Q 163.696 21.49 163.724 21.252 A 3.416 3.416 0 0 0 163.746 20.855 A 3.235 3.235 0 0 0 163.715 20.394 Q 163.682 20.16 163.61 19.969 A 1.335 1.335 0 0 0 163.416 19.615 A 1.067 1.067 0 0 0 162.753 19.219 A 1.635 1.635 0 0 0 162.441 19.191 Q 161.805 19.191 161.48 19.609 A 1.341 1.341 0 0 0 161.272 20.012 Q 161.156 20.36 161.156 20.855 Z M 147.238 19.191 A 1.822 1.822 0 0 0 146.885 19.223 Q 146.49 19.301 146.281 19.572 A 1.11 1.11 0 0 0 146.121 19.878 Q 145.988 20.249 145.988 20.855 Q 145.988 21.758 146.289 22.146 A 0.941 0.941 0 0 0 146.766 22.468 Q 146.979 22.535 147.254 22.535 A 1.293 1.293 0 0 0 147.621 22.486 A 0.933 0.933 0 0 0 148.145 22.1 Q 148.354 21.788 148.414 21.283 A 3.715 3.715 0 0 0 148.437 20.848 A 3.831 3.831 0 0 0 148.414 20.411 Q 148.359 19.934 148.174 19.645 A 1.076 1.076 0 0 0 148.145 19.601 A 0.946 0.946 0 0 0 147.542 19.22 A 1.5 1.5 0 0 0 147.238 19.191 Z" id="bottom_labelLayer" stroke="#777777" fill="#777777" style="stroke:#777777;fill:#777777" vector-effect="non-scaling-stroke"/></g></svg>