<svg width="170mm" height="63mm" viewBox="0 0 170 63" xmlns="http://www.w3.org/2000/svg" version="1.1" preserveAspectRatio="xMidYMid meet"><g id="svgGroup" stroke-linecap="round" fill-rule="evenodd" font-size="9pt" stroke="#000" stroke-width="0.25mm" fill="none" style="stroke:#000;stroke-width:0.25mm;fill:none"><path d="M 0 33 L 0 40.685 L 3 40.685 L 3 55.315 L 0 55.315 L 0 63 L 11.555 63 L 11.555 60 L 26.185 60 L 26.185 63 L 40.815 63 L 40.815 60 L 55.445 60 L 55.445 63 L 67 63 L 67 55.315 L 64 55.315 L 64 40.685 L 67 40.685 L 67 33 L 55.445 33 L 55.445 36 L 40.815 36 L 40.815 33 L 26.185 33 L 26.185 36 L 11.555 36 L 11.555 33 L 0 33 Z" id="front_outsideCutPath" stroke="#FF0000" stroke-width="0.1" style="stroke:#FF0000;stroke-width:0.1" vector-effect="non-scaling-stroke"/><path d="M 37.873 50.266 L 37.386 50.266 L 37.386 48.189 A 1.375 1.375 0 0 0 37.37 47.973 Q 37.333 47.739 37.208 47.603 A 0.548 0.548 0 0 0 36.983 47.459 Q 36.894 47.428 36.786 47.417 A 1.289 1.289 0 0 0 36.648 47.41 A 1.472 1.472 0 0 0 36.373 47.434 Q 36.219 47.463 36.101 47.528 A 0.686 0.686 0 0 0 35.91 47.682 A 0.795 0.795 0 0 0 35.771 47.924 Q 35.688 48.145 35.677 48.476 A 3.116 3.116 0 0 0 35.675 48.581 L 35.675 50.266 L 35.189 50.266 L 35.189 47.055 L 35.584 47.055 L 35.664 47.495 L 35.687 47.495 A 0.985 0.985 0 0 1 36.073 47.144 A 1.184 1.184 0 0 1 36.106 47.127 A 1.317 1.317 0 0 1 36.575 47.002 A 1.592 1.592 0 0 1 36.707 46.997 A 1.92 1.92 0 0 1 37.033 47.022 Q 37.21 47.053 37.35 47.12 A 0.874 0.874 0 0 1 37.58 47.276 A 0.843 0.843 0 0 1 37.785 47.599 Q 37.834 47.732 37.856 47.896 A 2.122 2.122 0 0 1 37.873 48.171 L 37.873 50.266 Z M 28.53 47.055 L 28.53 47.433 L 27.712 47.433 L 27.712 50.266 L 27.226 50.266 L 27.226 47.433 L 26.652 47.433 L 26.652 47.213 L 27.226 47.038 L 27.226 46.859 Q 27.226 45.837 27.997 45.697 A 1.478 1.478 0 0 1 28.26 45.675 A 1.566 1.566 0 0 1 28.482 45.692 Q 28.59 45.708 28.71 45.737 A 3.148 3.148 0 0 1 28.858 45.778 L 28.732 46.167 A 2.362 2.362 0 0 0 28.548 46.116 Q 28.382 46.077 28.251 46.077 A 0.656 0.656 0 0 0 28.093 46.094 A 0.421 0.421 0 0 0 27.844 46.26 Q 27.712 46.443 27.712 46.847 L 27.712 47.055 L 28.53 47.055 Z M 40.348 49.865 L 40.348 50.237 A 0.478 0.478 0 0 1 40.291 50.259 Q 40.231 50.279 40.144 50.295 A 1.819 1.819 0 0 1 40.115 50.3 A 2.108 2.108 0 0 1 39.978 50.318 Q 39.904 50.325 39.838 50.325 A 1.27 1.27 0 0 1 39.464 50.274 Q 39.053 50.147 38.945 49.7 A 1.529 1.529 0 0 1 38.907 49.343 L 38.907 47.433 L 38.447 47.433 L 38.447 47.199 L 38.907 46.997 L 39.112 46.311 L 39.393 46.311 L 39.393 47.055 L 40.325 47.055 L 40.325 47.433 L 39.393 47.433 L 39.393 49.323 A 0.979 0.979 0 0 0 39.407 49.495 Q 39.424 49.589 39.461 49.664 A 0.472 0.472 0 0 0 39.531 49.768 A 0.452 0.452 0 0 0 39.808 49.916 A 0.65 0.65 0 0 0 39.909 49.923 Q 40.038 49.923 40.158 49.904 A 2.631 2.631 0 0 0 40.228 49.892 Q 40.295 49.88 40.342 49.867 A 0.726 0.726 0 0 0 40.348 49.865 Z M 30.964 47.032 L 30.897 47.483 Q 30.731 47.446 30.598 47.44 A 1.141 1.141 0 0 0 30.545 47.439 A 0.843 0.843 0 0 0 29.923 47.708 A 1.153 1.153 0 0 0 29.879 47.755 A 1.111 1.111 0 0 0 29.611 48.379 A 1.476 1.476 0 0 0 29.602 48.543 L 29.602 50.266 L 29.116 50.266 L 29.116 47.055 L 29.517 47.055 L 29.573 47.65 L 29.596 47.65 A 1.642 1.642 0 0 1 29.78 47.387 A 1.255 1.255 0 0 1 30.027 47.166 A 0.969 0.969 0 0 1 30.581 46.997 A 2.233 2.233 0 0 1 30.78 47.005 A 1.63 1.63 0 0 1 30.964 47.032 Z M 34.292 49.146 A 2.512 2.512 0 0 0 34.336 48.658 A 2.854 2.854 0 0 0 34.335 48.58 Q 34.316 47.87 33.939 47.445 Q 33.542 46.997 32.869 46.997 A 1.889 1.889 0 0 0 32.529 47.026 A 1.286 1.286 0 0 0 31.779 47.435 A 1.344 1.344 0 0 0 31.614 47.663 Q 31.487 47.885 31.431 48.169 A 2.525 2.525 0 0 0 31.386 48.658 A 2.433 2.433 0 0 0 31.417 49.052 A 1.799 1.799 0 0 0 31.568 49.542 Q 31.75 49.92 32.083 50.122 A 1.354 1.354 0 0 0 32.394 50.261 A 1.562 1.562 0 0 0 32.848 50.325 Q 33.545 50.325 33.941 49.884 Q 34.204 49.591 34.292 49.146 Z M 31.89 48.658 A 2.463 2.463 0 0 0 31.914 49.009 Q 31.966 49.372 32.136 49.595 A 0.797 0.797 0 0 0 32.655 49.901 A 1.208 1.208 0 0 0 32.86 49.917 A 1.13 1.13 0 0 0 33.158 49.88 A 0.786 0.786 0 0 0 33.585 49.597 A 1.044 1.044 0 0 0 33.748 49.28 Q 33.795 49.134 33.816 48.955 A 2.562 2.562 0 0 0 33.833 48.658 A 2.427 2.427 0 0 0 33.81 48.312 Q 33.757 47.948 33.585 47.727 A 0.8 0.8 0 0 0 33.088 47.431 A 1.227 1.227 0 0 0 32.854 47.41 A 1.157 1.157 0 0 0 32.566 47.443 A 0.775 0.775 0 0 0 32.133 47.723 A 1.006 1.006 0 0 0 31.977 48.025 Q 31.931 48.164 31.909 48.334 A 2.57 2.57 0 0 0 31.89 48.658 Z" id="front_labelLayer" stroke="#777777" fill="#777777" style="stroke:#777777;fill:#777777" vector-effect="non-scaling-stroke"/><path d="M 73 33 L 73 40.685 L 70 40.685 L 70 55.315 L 73 55.315 L 73 63 L 77.685 63 L 77.685 60 L 92.315 60 L 92.315 63 L 97 63 L 97 55.315 L 100 55.315 L 100 40.685 L 97 40.685 L 97 33 L 92.315 33 L 92.315 36 L 77.685 36 L 77.685 33 L 73 33 Z" id="left_outsideCutPath" stroke="#FF0000" stroke-width="0.1" style="stroke:#FF0000;stroke-width:0.1" vector-effect="non-scaling-stroke"/><path d="M 87.134 47.055 L 87.134 47.433 L 86.317 47.433 L 86.317 50.266 L 85.831 50.266 L 85.831 47.433 L 85.256 47.433 L 85.256 47.213 L 85.831 47.038 L 85.831 46.859 Q 85.831 45.837 86.601 45.697 A 1.478 1.478 0 0 1 86.865 45.675 A 1.566 1.566 0 0 1 87.086 45.692 Q 87.194 45.708 87.314 45.737 A 3.148 3.148 0 0 1 87.462 45.778 L 87.336 46.167 A 2.362 2.362 0 0 0 87.153 46.116 Q 86.987 46.077 86.856 46.077 A 0.656 0.656 0 0 0 86.698 46.094 A 0.421 0.421 0 0 0 86.449 46.26 Q 86.317 46.443 86.317 46.847 L 86.317 47.055 L 87.134 47.055 Z M 84.858 48.441 L 84.858 48.748 L 82.646 48.748 A 1.952 1.952 0 0 0 82.68 49.075 Q 82.715 49.253 82.786 49.394 A 0.913 0.913 0 0 0 82.932 49.607 A 0.884 0.884 0 0 0 83.396 49.868 A 1.339 1.339 0 0 0 83.695 49.9 A 2.569 2.569 0 0 0 84.657 49.709 A 2.943 2.943 0 0 0 84.72 49.683 L 84.72 50.117 Q 84.462 50.228 84.232 50.276 Q 84.054 50.314 83.817 50.322 A 3.962 3.962 0 0 1 83.677 50.325 A 1.89 1.89 0 0 1 83.204 50.269 A 1.338 1.338 0 0 1 82.554 49.891 A 1.431 1.431 0 0 1 82.211 49.262 Q 82.142 49.003 82.142 48.687 Q 82.142 48.054 82.396 47.633 A 1.44 1.44 0 0 1 82.524 47.454 A 1.246 1.246 0 0 1 83.433 47.001 A 1.719 1.719 0 0 1 83.551 46.997 A 1.482 1.482 0 0 1 83.968 47.052 A 1.127 1.127 0 0 1 84.506 47.393 A 1.36 1.36 0 0 1 84.814 48.015 A 1.979 1.979 0 0 1 84.858 48.441 Z M 89.197 49.865 L 89.197 50.237 A 0.478 0.478 0 0 1 89.14 50.259 Q 89.08 50.279 88.993 50.295 A 1.819 1.819 0 0 1 88.964 50.3 A 2.108 2.108 0 0 1 88.826 50.318 Q 88.752 50.325 88.687 50.325 A 1.27 1.27 0 0 1 88.313 50.274 Q 87.901 50.147 87.794 49.7 A 1.529 1.529 0 0 1 87.755 49.343 L 87.755 47.433 L 87.295 47.433 L 87.295 47.199 L 87.755 46.997 L 87.96 46.311 L 88.242 46.311 L 88.242 47.055 L 89.173 47.055 L 89.173 47.433 L 88.242 47.433 L 88.242 49.323 A 0.979 0.979 0 0 0 88.256 49.495 Q 88.273 49.589 88.31 49.664 A 0.472 0.472 0 0 0 88.379 49.768 A 0.452 0.452 0 0 0 88.657 49.916 A 0.65 0.65 0 0 0 88.757 49.923 Q 88.886 49.923 89.006 49.904 A 2.631 2.631 0 0 0 89.077 49.892 Q 89.144 49.88 89.19 49.867 A 0.726 0.726 0 0 0 89.197 49.865 Z M 81.29 45.707 L 81.29 50.266 L 80.803 50.266 L 80.803 45.707 L 81.29 45.707 Z M 82.658 48.353 L 84.336 48.353 Q 84.336 48.042 84.243 47.829 A 0.752 0.752 0 0 0 84.131 47.648 A 0.666 0.666 0 0 0 83.73 47.42 A 0.999 0.999 0 0 0 83.545 47.404 A 0.959 0.959 0 0 0 83.268 47.442 A 0.741 0.741 0 0 0 82.929 47.656 A 0.961 0.961 0 0 0 82.738 47.978 Q 82.689 48.11 82.667 48.27 A 1.837 1.837 0 0 0 82.658 48.353 Z" id="left_labelLayer" stroke="#777777" fill="#777777" style="stroke:#777777;fill:#777777" vector-effect="non-scaling-stroke"/><path d="M 106 36 L 106 40.685 L 103 40.685 L 103 55.315 L 106 55.315 L 106 60 L 114.555 60 L 114.555 63 L 129.185 63 L 129.185 60 L 143.815 60 L 143.815 63 L 158.445 63 L 158.445 60 L 167 60 L 167 55.315 L 170 55.315 L 170 40.685 L 167 40.685 L 167 36 L 158.445 36 L 158.445 33 L 143.815 33 L 143.815 36 L 129.185 36 L 129.185 33 L 114.555 33 L 114.555 36 L 106 36 Z" id="top_outsideCutPath" stroke="#FF0000" stroke-width="0.1" style="stroke:#FF0000;stroke-width:0.1" vector-effect="non-scaling-stroke"/><path d="M 138.656 48.844 L 138.621 48.844 A 4.602 4.602 0 0 1 138.651 49.184 A 3.857 3.857 0 0 1 138.656 49.377 L 138.656 50.698 L 138.17 50.698 L 138.17 46.046 L 138.565 46.046 L 138.633 46.485 L 138.656 46.485 A 1.309 1.309 0 0 1 138.846 46.27 A 1.012 1.012 0 0 1 139.093 46.104 A 1.218 1.218 0 0 1 139.442 46.002 A 1.576 1.576 0 0 1 139.664 45.987 A 1.491 1.491 0 0 1 140.085 46.044 A 1.102 1.102 0 0 1 140.65 46.424 Q 140.934 46.781 140.985 47.372 A 3.167 3.167 0 0 1 140.997 47.648 A 2.851 2.851 0 0 1 140.959 48.128 Q 140.882 48.583 140.644 48.877 Q 140.291 49.315 139.664 49.315 A 1.475 1.475 0 0 1 139.293 49.27 A 1.283 1.283 0 0 1 139.091 49.2 A 1.077 1.077 0 0 1 138.656 48.844 Z M 133.904 48.855 L 133.904 49.228 A 0.478 0.478 0 0 1 133.848 49.25 Q 133.787 49.27 133.7 49.286 A 1.819 1.819 0 0 1 133.671 49.291 A 2.108 2.108 0 0 1 133.534 49.308 Q 133.46 49.315 133.395 49.315 A 1.27 1.27 0 0 1 133.02 49.265 Q 132.609 49.138 132.501 48.691 A 1.529 1.529 0 0 1 132.463 48.334 L 132.463 46.424 L 132.003 46.424 L 132.003 46.189 L 132.463 45.987 L 132.668 45.302 L 132.949 45.302 L 132.949 46.046 L 133.881 46.046 L 133.881 46.424 L 132.949 46.424 L 132.949 48.313 A 0.979 0.979 0 0 0 132.963 48.485 Q 132.98 48.58 133.017 48.655 A 0.472 0.472 0 0 0 133.087 48.759 A 0.452 0.452 0 0 0 133.365 48.907 A 0.65 0.65 0 0 0 133.465 48.914 Q 133.594 48.914 133.714 48.895 A 2.631 2.631 0 0 0 133.784 48.883 Q 133.851 48.87 133.898 48.857 A 0.726 0.726 0 0 0 133.904 48.855 Z M 137.273 48.137 A 2.512 2.512 0 0 0 137.317 47.648 A 2.854 2.854 0 0 0 137.316 47.571 Q 137.297 46.861 136.92 46.436 Q 136.523 45.987 135.85 45.987 A 1.889 1.889 0 0 0 135.51 46.016 A 1.286 1.286 0 0 0 134.76 46.425 A 1.344 1.344 0 0 0 134.595 46.654 Q 134.468 46.876 134.411 47.16 A 2.525 2.525 0 0 0 134.367 47.648 A 2.433 2.433 0 0 0 134.398 48.043 A 1.799 1.799 0 0 0 134.549 48.533 Q 134.73 48.911 135.064 49.113 A 1.354 1.354 0 0 0 135.375 49.251 A 1.562 1.562 0 0 0 135.829 49.315 Q 136.526 49.315 136.922 48.875 Q 137.184 48.582 137.273 48.137 Z M 134.871 47.648 A 2.463 2.463 0 0 0 134.895 48 Q 134.947 48.363 135.117 48.586 A 0.797 0.797 0 0 0 135.636 48.892 A 1.208 1.208 0 0 0 135.841 48.908 A 1.13 1.13 0 0 0 136.139 48.871 A 0.786 0.786 0 0 0 136.566 48.587 A 1.044 1.044 0 0 0 136.728 48.271 Q 136.776 48.124 136.797 47.946 A 2.562 2.562 0 0 0 136.813 47.648 A 2.427 2.427 0 0 0 136.79 47.303 Q 136.738 46.939 136.566 46.718 A 0.8 0.8 0 0 0 136.069 46.422 A 1.227 1.227 0 0 0 135.835 46.4 A 1.157 1.157 0 0 0 135.547 46.434 A 0.775 0.775 0 0 0 135.114 46.714 A 1.006 1.006 0 0 0 134.958 47.016 Q 134.912 47.155 134.89 47.325 A 2.57 2.57 0 0 0 134.871 47.648 Z M 138.656 47.54 L 138.656 47.648 Q 138.656 48.223 138.819 48.52 A 0.734 0.734 0 0 0 138.882 48.617 A 0.706 0.706 0 0 0 139.24 48.858 Q 139.359 48.896 139.505 48.905 A 1.564 1.564 0 0 0 139.605 48.908 Q 140.005 48.908 140.239 48.597 A 0.969 0.969 0 0 0 140.257 48.571 Q 140.493 48.234 140.493 47.643 Q 140.493 47.248 140.392 46.975 A 1.031 1.031 0 0 0 140.257 46.721 Q 140.021 46.4 139.594 46.4 A 1.401 1.401 0 0 0 139.332 46.423 Q 139.038 46.479 138.882 46.673 Q 138.676 46.928 138.658 47.465 A 3.095 3.095 0 0 0 138.656 47.54 Z" id="top_labelLayer" stroke="#777777" fill="#777777" style="stroke:#777777;fill:#777777" vector-effect="non-scaling-stroke"/><path d="M 0 0 L 0 7.685 L 3 7.685 L 3 22.315 L 0 22.315 L 0 30 L 11.555 30 L 11.555 27 L 26.185 27 L 26.185 30 L 40.815 30 L 40.815 27 L 55.445 27 L 55.445 30 L 67 30 L 67 22.315 L 64 22.315 L 64 7.685 L 67 7.685 L 67 0 L 55.445 0 L 55.445 3 L 40.815 3 L 40.815 0 L 26.185 0 L 26.185 3 L 11.555 3 L 11.555 0 L 0 0 Z" id="back_outsideCutPath" stroke="#FF0000" stroke-width="0.1" style="stroke:#FF0000;stroke-width:0.1" vector-effect="non-scaling-stroke"/><path d="M 37.607 15.606 L 37.631 15.606 Q 37.727 15.47 37.901 15.268 A 10.448 10.448 0 0 1 38.015 15.138 L 39.052 14.039 L 39.629 14.039 L 38.328 15.407 L 39.72 17.25 L 39.131 17.25 L 37.997 15.732 L 37.631 16.049 L 37.631 17.25 L 37.15 17.25 L 37.15 12.691 L 37.631 12.691 L 37.631 15.108 Q 37.631 15.269 37.607 15.606 Z M 27.767 16.837 L 27.731 16.837 L 27.629 17.25 L 27.28 17.25 L 27.28 12.691 L 27.767 12.691 L 27.767 13.799 A 10.14 10.14 0 0 1 27.761 14.141 Q 27.756 14.303 27.745 14.448 A 6.057 6.057 0 0 1 27.743 14.467 L 27.767 14.467 Q 28.106 13.986 28.774 13.986 A 1.486 1.486 0 0 1 29.193 14.042 A 1.113 1.113 0 0 1 29.757 14.418 Q 30.038 14.764 30.094 15.341 A 3.122 3.122 0 0 1 30.107 15.642 A 2.851 2.851 0 0 1 30.07 16.121 Q 29.992 16.576 29.754 16.871 Q 29.401 17.309 28.774 17.309 A 1.475 1.475 0 0 1 28.404 17.263 A 1.283 1.283 0 0 1 28.202 17.193 A 1.077 1.077 0 0 1 27.767 16.837 Z M 33.292 17.25 L 32.932 17.25 L 32.835 16.793 L 32.812 16.793 A 2.016 2.016 0 0 1 32.648 16.976 Q 32.561 17.062 32.473 17.122 A 0.896 0.896 0 0 1 32.333 17.202 A 1.121 1.121 0 0 1 32.101 17.275 Q 31.937 17.309 31.736 17.309 A 1.492 1.492 0 0 1 31.433 17.28 Q 31.247 17.241 31.104 17.151 A 0.837 0.837 0 0 1 30.988 17.062 A 0.799 0.799 0 0 1 30.747 16.641 A 1.224 1.224 0 0 1 30.717 16.362 Q 30.717 15.421 32.174 15.347 A 4.751 4.751 0 0 1 32.272 15.343 L 32.817 15.325 L 32.817 15.126 Q 32.817 14.748 32.655 14.568 Q 32.525 14.424 32.271 14.395 A 1.202 1.202 0 0 0 32.135 14.388 Q 31.812 14.388 31.421 14.547 A 3.257 3.257 0 0 0 31.227 14.634 L 31.077 14.262 A 2.242 2.242 0 0 1 31.51 14.084 A 2.552 2.552 0 0 1 31.597 14.06 A 2.252 2.252 0 0 1 32.164 13.986 A 2.054 2.054 0 0 1 32.477 14.008 Q 32.82 14.061 33.015 14.241 A 0.77 0.77 0 0 1 33.214 14.548 Q 33.26 14.674 33.279 14.83 A 1.914 1.914 0 0 1 33.292 15.059 L 33.292 17.25 Z M 36.436 14.147 L 36.286 14.561 A 2.163 2.163 0 0 0 36.051 14.482 A 2.584 2.584 0 0 0 35.935 14.454 A 2.009 2.009 0 0 0 35.782 14.425 Q 35.682 14.411 35.598 14.411 A 1.079 1.079 0 0 0 35.16 14.493 Q 34.619 14.732 34.619 15.659 Q 34.619 16.048 34.722 16.317 A 1.009 1.009 0 0 0 34.858 16.567 A 0.772 0.772 0 0 0 35.358 16.866 A 1.177 1.177 0 0 0 35.565 16.884 Q 35.967 16.884 36.389 16.711 L 36.389 17.142 A 1.383 1.383 0 0 1 36.05 17.261 Q 35.837 17.309 35.577 17.309 A 1.818 1.818 0 0 1 35.135 17.258 A 1.233 1.233 0 0 1 34.498 16.879 A 1.407 1.407 0 0 1 34.205 16.342 Q 34.14 16.129 34.122 15.872 A 2.941 2.941 0 0 1 34.115 15.665 Q 34.115 14.859 34.503 14.42 A 1.259 1.259 0 0 1 35.193 14.023 A 1.909 1.909 0 0 1 35.609 13.98 A 2.195 2.195 0 0 1 36.072 14.03 A 2.428 2.428 0 0 1 36.207 14.063 Q 36.345 14.101 36.436 14.147 Z M 28.704 14.394 A 1.367 1.367 0 0 0 28.439 14.417 Q 28.289 14.447 28.174 14.514 A 0.647 0.647 0 0 0 27.986 14.679 Q 27.793 14.93 27.77 15.483 A 3.747 3.747 0 0 0 27.767 15.642 Q 27.767 16.216 27.929 16.513 A 0.734 0.734 0 0 0 27.992 16.61 A 0.706 0.706 0 0 0 28.35 16.851 Q 28.47 16.889 28.616 16.898 A 1.564 1.564 0 0 0 28.716 16.901 A 0.969 0.969 0 0 0 28.991 16.864 A 0.699 0.699 0 0 0 29.384 16.575 A 1.116 1.116 0 0 0 29.522 16.276 Q 29.565 16.134 29.586 15.962 A 2.787 2.787 0 0 0 29.604 15.636 A 2.873 2.873 0 0 0 29.586 15.308 Q 29.545 14.95 29.406 14.734 A 0.807 0.807 0 0 0 29.384 14.701 A 0.709 0.709 0 0 0 28.932 14.415 A 1.125 1.125 0 0 0 28.704 14.394 Z M 32.806 15.961 L 32.806 15.671 L 32.319 15.691 Q 31.835 15.708 31.576 15.823 A 0.747 0.747 0 0 0 31.483 15.872 Q 31.227 16.031 31.227 16.368 A 0.695 0.695 0 0 0 31.244 16.528 Q 31.273 16.65 31.35 16.734 A 0.433 0.433 0 0 0 31.386 16.769 Q 31.546 16.907 31.833 16.907 Q 32.225 16.907 32.472 16.721 A 0.812 0.812 0 0 0 32.546 16.658 Q 32.806 16.409 32.806 15.961 Z" id="back_labelLayer" stroke="#777777" fill="#777777" style="stroke:#777777;fill:#777777" vector-effect="non-scaling-stroke"/><path d="M 73 0 L 73 7.685 L 70 7.685 L 70 22.315 L 73 22.315 L 73 30 L 77.685 30 L 77.685 27 L 92.315 27 L 92.315 30 L 97 30 L 97 22.315 L 100 22.315 L 100 7.685 L 97 7.685 L 97 0 L 92.315 0 L 92.315 3 L 77.685 3 L 77.685 0 L 73 0 Z" id="right_outsideCutPath" stroke="#FF0000" stroke-width="0.1" style="stroke:#FF0000;stroke-width:0.1" vector-effect="non-scaling-stroke"/><path d="M 88.731 16.559 L 88.245 16.559 L 88.245 14.481 A 1.375 1.375 0 0 0 88.229 14.266 Q 88.192 14.031 88.066 13.895 A 0.548 0.548 0 0 0 87.841 13.752 Q 87.753 13.721 87.644 13.709 A 1.289 1.289 0 0 0 87.506 13.702 A 1.472 1.472 0 0 0 87.231 13.726 Q 87.079 13.755 86.961 13.82 A 0.681 0.681 0 0 0 86.767 13.978 A 0.809 0.809 0 0 0 86.629 14.221 Q 86.534 14.478 86.534 14.88 L 86.534 16.559 L 86.047 16.559 L 86.047 12 L 86.534 12 L 86.534 13.38 A 4.375 4.375 0 0 1 86.531 13.548 Q 86.528 13.627 86.522 13.694 A 1.902 1.902 0 0 1 86.51 13.793 L 86.54 13.793 A 0.972 0.972 0 0 1 86.88 13.465 A 1.187 1.187 0 0 1 86.948 13.428 A 1.248 1.248 0 0 1 87.358 13.307 A 1.578 1.578 0 0 1 87.553 13.295 A 1.973 1.973 0 0 1 87.885 13.321 Q 88.232 13.38 88.437 13.575 A 0.847 0.847 0 0 1 88.645 13.903 Q 88.696 14.039 88.716 14.208 A 2.103 2.103 0 0 1 88.731 14.464 L 88.731 16.559 Z M 84.278 13.348 L 85.388 13.348 L 85.388 13.655 L 84.793 13.726 A 0.79 0.79 0 0 1 84.862 13.827 Q 84.892 13.88 84.919 13.943 A 1.499 1.499 0 0 1 84.94 13.994 A 0.936 0.936 0 0 1 84.995 14.217 A 1.202 1.202 0 0 1 85.004 14.367 A 1.115 1.115 0 0 1 84.953 14.713 A 0.902 0.902 0 0 1 84.682 15.12 A 1.079 1.079 0 0 1 84.258 15.344 Q 84.052 15.401 83.797 15.401 A 1.563 1.563 0 0 1 83.617 15.391 A 1.32 1.32 0 0 1 83.528 15.378 Q 83.351 15.472 83.274 15.593 A 0.366 0.366 0 0 0 83.217 15.791 Q 83.217 15.923 83.326 15.986 A 0.341 0.341 0 0 0 83.401 16.017 Q 83.481 16.04 83.601 16.046 A 1.85 1.85 0 0 0 83.698 16.049 L 84.266 16.049 A 1.991 1.991 0 0 1 84.568 16.07 Q 84.727 16.095 84.854 16.147 A 0.879 0.879 0 0 1 85.067 16.269 A 0.711 0.711 0 0 1 85.332 16.722 A 1.069 1.069 0 0 1 85.347 16.907 A 1.053 1.053 0 0 1 85.287 17.271 Q 85.187 17.545 84.919 17.72 A 1.458 1.458 0 0 1 84.543 17.891 Q 84.184 18 83.671 18 Q 83.258 18 82.969 17.899 A 1.13 1.13 0 0 1 82.7 17.766 A 0.775 0.775 0 0 1 82.45 17.494 Q 82.359 17.325 82.359 17.103 Q 82.359 16.811 82.546 16.597 A 0.849 0.849 0 0 1 82.838 16.384 A 1.204 1.204 0 0 1 83.074 16.307 A 0.505 0.505 0 0 1 82.878 16.148 A 0.599 0.599 0 0 1 82.867 16.134 A 0.451 0.451 0 0 1 82.784 15.89 A 0.558 0.558 0 0 1 82.784 15.861 A 0.556 0.556 0 0 1 82.812 15.682 A 0.493 0.493 0 0 1 82.877 15.554 Q 82.948 15.454 83.081 15.359 A 1.528 1.528 0 0 1 83.173 15.299 A 0.853 0.853 0 0 1 82.803 15.002 A 1.057 1.057 0 0 1 82.768 14.95 A 1.005 1.005 0 0 1 82.613 14.466 A 1.227 1.227 0 0 1 82.611 14.388 A 1.405 1.405 0 0 1 82.648 14.055 A 0.924 0.924 0 0 1 82.927 13.575 A 1.033 1.033 0 0 1 83.324 13.356 Q 83.481 13.308 83.671 13.294 A 2.148 2.148 0 0 1 83.824 13.289 A 1.864 1.864 0 0 1 84.07 13.305 A 1.42 1.42 0 0 1 84.278 13.348 Z M 91.207 16.157 L 91.207 16.529 A 0.478 0.478 0 0 1 91.15 16.552 Q 91.089 16.572 91.003 16.587 A 1.819 1.819 0 0 1 90.974 16.592 A 2.108 2.108 0 0 1 90.836 16.61 Q 90.762 16.617 90.697 16.617 A 1.27 1.27 0 0 1 90.322 16.567 Q 89.911 16.44 89.803 15.993 A 1.529 1.529 0 0 1 89.765 15.636 L 89.765 13.726 L 89.305 13.726 L 89.305 13.491 L 89.765 13.289 L 89.97 12.603 L 90.251 12.603 L 90.251 13.348 L 91.183 13.348 L 91.183 13.726 L 90.251 13.726 L 90.251 15.615 A 0.979 0.979 0 0 0 90.266 15.787 Q 90.282 15.882 90.319 15.956 A 0.472 0.472 0 0 0 90.389 16.061 A 0.452 0.452 0 0 0 90.667 16.208 A 0.65 0.65 0 0 0 90.767 16.216 Q 90.896 16.216 91.016 16.197 A 2.631 2.631 0 0 0 91.086 16.185 Q 91.153 16.172 91.2 16.159 A 0.726 0.726 0 0 0 91.207 16.157 Z M 80.642 13.324 L 80.575 13.775 Q 80.409 13.739 80.275 13.733 A 1.141 1.141 0 0 0 80.223 13.731 A 0.843 0.843 0 0 0 79.601 14 A 1.153 1.153 0 0 0 79.557 14.048 A 1.111 1.111 0 0 0 79.289 14.671 A 1.476 1.476 0 0 0 79.28 14.836 L 79.28 16.559 L 78.793 16.559 L 78.793 13.348 L 79.195 13.348 L 79.25 13.942 L 79.274 13.942 A 1.642 1.642 0 0 1 79.458 13.68 A 1.255 1.255 0 0 1 79.705 13.459 A 0.969 0.969 0 0 1 80.258 13.289 A 2.233 2.233 0 0 1 80.458 13.298 A 1.63 1.63 0 0 1 80.642 13.324 Z M 81.729 13.348 L 81.729 16.559 L 81.243 16.559 L 81.243 13.348 L 81.729 13.348 Z M 84.111 16.485 L 83.528 16.485 A 1.118 1.118 0 0 0 83.326 16.502 Q 83.136 16.537 83.012 16.644 Q 82.828 16.802 82.828 17.098 A 0.488 0.488 0 0 0 82.86 17.279 Q 82.906 17.396 83.019 17.474 A 0.571 0.571 0 0 0 83.047 17.493 A 0.779 0.779 0 0 0 83.239 17.575 Q 83.419 17.628 83.673 17.628 A 2.498 2.498 0 0 0 83.677 17.628 Q 84.224 17.628 84.518 17.482 A 0.808 0.808 0 0 0 84.584 17.445 A 0.709 0.709 0 0 0 84.749 17.307 A 0.532 0.532 0 0 0 84.878 16.948 A 0.658 0.658 0 0 0 84.866 16.818 Q 84.851 16.742 84.817 16.686 A 0.307 0.307 0 0 0 84.717 16.586 Q 84.595 16.509 84.307 16.491 A 3.094 3.094 0 0 0 84.111 16.485 Z M 83.091 14.376 A 0.949 0.949 0 0 0 83.111 14.575 Q 83.152 14.768 83.282 14.886 Q 83.472 15.059 83.812 15.059 A 1.059 1.059 0 0 0 84.089 15.025 Q 84.524 14.907 84.524 14.367 Q 84.524 13.793 84.07 13.674 A 1.058 1.058 0 0 0 83.803 13.644 Q 83.541 13.644 83.371 13.752 A 0.56 0.56 0 0 0 83.276 13.828 Q 83.119 13.985 83.096 14.27 A 1.279 1.279 0 0 0 83.091 14.376 Z M 81.209 12.388 A 0.539 0.539 0 0 0 81.202 12.478 Q 81.202 12.642 81.284 12.722 A 0.273 0.273 0 0 0 81.382 12.785 A 0.309 0.309 0 0 0 81.489 12.803 Q 81.606 12.803 81.691 12.722 A 0.237 0.237 0 0 0 81.737 12.661 Q 81.758 12.621 81.768 12.57 A 0.503 0.503 0 0 0 81.776 12.478 Q 81.776 12.397 81.756 12.338 A 0.246 0.246 0 0 0 81.691 12.234 Q 81.606 12.155 81.489 12.155 A 0.371 0.371 0 0 0 81.464 12.156 A 0.281 0.281 0 0 0 81.284 12.233 A 0.227 0.227 0 0 0 81.233 12.304 Q 81.216 12.341 81.209 12.388 Z" id="right_labelLayer" stroke="#777777" fill="#777777" style="stroke:#777777;fill:#777777" vector-effect="non-scaling-stroke"/><path d="M 106 3 L 106 7.685 L 103 7.685 L 103 22.315 L 106 22.315 L 106 27 L 114.555 27 L 114.555 30 L 129.185 30 L 129.185 27 L 143.815 27 L 143.815 30 L 158.445 30 L 158.445 27 L 167 27 L 167 22.315 L 170 22.315 L 170 7.685 L 167 7.685 L 167 3 L 158.445 3 L 158.445 0 L 143.815 0 L 143.815 3 L 129.185 3 L 129.185 0 L 114.555 0 L 114.555 3 L 106 3 Z" id="bottom_outsideCutPath" stroke="#FF0000" stroke-width="0.1" style="stroke:#FF0000;stroke-width:0.1" vector-effect="non-scaling-stroke"/><path d="M 146.37 17.25 L 145.884 17.25 L 145.884 15.161 A 1.435 1.435 0 0 0 145.869 14.95 Q 145.835 14.72 145.72 14.585 A 0.512 0.512 0 0 0 145.482 14.432 Q 145.397 14.404 145.294 14.396 A 1.129 1.129 0 0 0 145.21 14.393 Q 144.892 14.393 144.69 14.522 A 0.644 0.644 0 0 0 144.539 14.654 A 0.804 0.804 0 0 0 144.403 14.901 Q 144.322 15.127 144.322 15.457 L 144.322 17.25 L 143.836 17.25 L 143.836 15.161 A 1.435 1.435 0 0 0 143.821 14.95 Q 143.787 14.72 143.672 14.585 A 0.51 0.51 0 0 0 143.437 14.433 Q 143.353 14.405 143.25 14.397 A 1.139 1.139 0 0 0 143.159 14.393 Q 142.84 14.393 142.64 14.527 A 0.637 0.637 0 0 0 142.49 14.667 A 0.816 0.816 0 0 0 142.369 14.897 Q 142.29 15.119 142.279 15.451 A 3.386 3.386 0 0 0 142.277 15.565 L 142.277 17.25 L 141.791 17.25 L 141.791 14.039 L 142.187 14.039 L 142.266 14.478 L 142.289 14.478 Q 142.427 14.244 142.677 14.112 Q 142.928 13.98 143.238 13.98 Q 143.705 13.98 143.971 14.189 A 0.83 0.83 0 0 1 144.223 14.525 L 144.246 14.525 A 1.015 1.015 0 0 1 144.629 14.146 A 1.22 1.22 0 0 1 144.662 14.127 A 1.231 1.231 0 0 1 145.114 13.99 A 1.535 1.535 0 0 1 145.283 13.98 A 1.691 1.691 0 0 1 145.59 14.006 Q 145.911 14.066 146.099 14.26 Q 146.296 14.464 146.35 14.845 A 2.231 2.231 0 0 1 146.37 15.155 L 146.37 17.25 Z M 127.116 16.837 L 127.081 16.837 L 126.979 17.25 L 126.63 17.25 L 126.63 12.691 L 127.116 12.691 L 127.116 13.799 A 10.14 10.14 0 0 1 127.111 14.141 Q 127.105 14.303 127.094 14.448 A 6.057 6.057 0 0 1 127.093 14.467 L 127.116 14.467 Q 127.456 13.986 128.124 13.986 A 1.486 1.486 0 0 1 128.542 14.042 A 1.113 1.113 0 0 1 129.107 14.418 Q 129.387 14.764 129.443 15.341 A 3.122 3.122 0 0 1 129.457 15.642 A 2.851 2.851 0 0 1 129.419 16.121 Q 129.342 16.576 129.104 16.871 Q 128.751 17.309 128.124 17.309 A 1.475 1.475 0 0 1 127.753 17.263 A 1.283 1.283 0 0 1 127.551 17.193 A 1.077 1.077 0 0 1 127.116 16.837 Z M 135.407 16.849 L 135.407 17.221 A 0.478 0.478 0 0 1 135.35 17.243 Q 135.29 17.263 135.203 17.279 A 1.819 1.819 0 0 1 135.174 17.284 A 2.108 2.108 0 0 1 135.037 17.301 Q 134.963 17.309 134.897 17.309 A 1.27 1.27 0 0 1 134.523 17.258 Q 134.112 17.131 134.004 16.684 A 1.529 1.529 0 0 1 133.966 16.327 L 133.966 14.417 L 133.506 14.417 L 133.506 14.183 L 133.966 13.98 L 134.171 13.295 L 134.452 13.295 L 134.452 14.039 L 135.384 14.039 L 135.384 14.417 L 134.452 14.417 L 134.452 16.307 A 0.979 0.979 0 0 0 134.466 16.479 Q 134.483 16.573 134.52 16.648 A 0.472 0.472 0 0 0 134.59 16.752 A 0.452 0.452 0 0 0 134.868 16.9 A 0.65 0.65 0 0 0 134.968 16.907 Q 135.097 16.907 135.217 16.888 A 2.631 2.631 0 0 0 135.287 16.876 Q 135.354 16.864 135.401 16.85 A 0.726 0.726 0 0 0 135.407 16.849 Z M 137.525 16.849 L 137.525 17.221 A 0.478 0.478 0 0 1 137.469 17.243 Q 137.408 17.263 137.322 17.279 A 1.819 1.819 0 0 1 137.292 17.284 A 2.108 2.108 0 0 1 137.155 17.301 Q 137.081 17.309 137.016 17.309 A 1.27 1.27 0 0 1 136.641 17.258 Q 136.23 17.131 136.122 16.684 A 1.529 1.529 0 0 1 136.084 16.327 L 136.084 14.417 L 135.624 14.417 L 135.624 14.183 L 136.084 13.98 L 136.289 13.295 L 136.57 13.295 L 136.57 14.039 L 137.502 14.039 L 137.502 14.417 L 136.57 14.417 L 136.57 16.307 A 0.979 0.979 0 0 0 136.584 16.479 Q 136.601 16.573 136.638 16.648 A 0.472 0.472 0 0 0 136.708 16.752 A 0.452 0.452 0 0 0 136.986 16.9 A 0.65 0.65 0 0 0 137.086 16.907 Q 137.215 16.907 137.335 16.888 A 2.631 2.631 0 0 0 137.405 16.876 Q 137.472 16.864 137.519 16.85 A 0.726 0.726 0 0 0 137.525 16.849 Z M 133.033 16.13 A 2.512 2.512 0 0 0 133.078 15.642 A 2.854 2.854 0 0 0 133.077 15.564 Q 133.058 14.854 132.681 14.429 Q 132.284 13.98 131.61 13.98 A 1.889 1.889 0 0 0 131.271 14.01 A 1.286 1.286 0 0 0 130.52 14.418 A 1.344 1.344 0 0 0 130.355 14.647 Q 130.228 14.869 130.172 15.153 A 2.525 2.525 0 0 0 130.128 15.642 A 2.433 2.433 0 0 0 130.158 16.036 A 1.799 1.799 0 0 0 130.31 16.526 Q 130.491 16.904 130.825 17.106 A 1.354 1.354 0 0 0 131.136 17.245 A 1.562 1.562 0 0 0 131.59 17.309 Q 132.287 17.309 132.683 16.868 Q 132.945 16.575 133.033 16.13 Z M 140.894 16.13 A 2.512 2.512 0 0 0 140.938 15.642 A 2.854 2.854 0 0 0 140.937 15.564 Q 140.918 14.854 140.541 14.429 Q 140.145 13.98 139.471 13.98 A 1.889 1.889 0 0 0 139.131 14.01 A 1.286 1.286 0 0 0 138.381 14.418 A 1.344 1.344 0 0 0 138.216 14.647 Q 138.089 14.869 138.033 15.153 A 2.525 2.525 0 0 0 137.988 15.642 A 2.433 2.433 0 0 0 138.019 16.036 A 1.799 1.799 0 0 0 138.17 16.526 Q 138.352 16.904 138.686 17.106 A 1.354 1.354 0 0 0 138.996 17.245 A 1.562 1.562 0 0 0 139.45 17.309 Q 140.147 17.309 140.543 16.868 Q 140.806 16.575 140.894 16.13 Z M 130.632 15.642 A 2.463 2.463 0 0 0 130.655 15.993 Q 130.708 16.356 130.878 16.579 A 0.797 0.797 0 0 0 131.397 16.885 A 1.208 1.208 0 0 0 131.602 16.901 A 1.13 1.13 0 0 0 131.9 16.864 A 0.786 0.786 0 0 0 132.327 16.58 A 1.044 1.044 0 0 0 132.489 16.264 Q 132.537 16.118 132.558 15.939 A 2.562 2.562 0 0 0 132.574 15.642 A 2.427 2.427 0 0 0 132.551 15.296 Q 132.499 14.932 132.327 14.711 A 0.8 0.8 0 0 0 131.829 14.415 A 1.227 1.227 0 0 0 131.596 14.393 A 1.157 1.157 0 0 0 131.308 14.427 A 0.775 0.775 0 0 0 130.875 14.707 A 1.006 1.006 0 0 0 130.719 15.009 Q 130.673 15.148 130.651 15.318 A 2.57 2.57 0 0 0 130.632 15.642 Z M 138.492 15.642 A 2.463 2.463 0 0 0 138.516 15.993 Q 138.568 16.356 138.738 16.579 A 0.797 0.797 0 0 0 139.257 16.885 A 1.208 1.208 0 0 0 139.462 16.901 A 1.13 1.13 0 0 0 139.76 16.864 A 0.786 0.786 0 0 0 140.187 16.58 A 1.044 1.044 0 0 0 140.35 16.264 Q 140.397 16.118 140.418 15.939 A 2.562 2.562 0 0 0 140.435 15.642 A 2.427 2.427 0 0 0 140.412 15.296 Q 140.359 14.932 140.187 14.711 A 0.8 0.8 0 0 0 139.69 14.415 A 1.227 1.227 0 0 0 139.456 14.393 A 1.157 1.157 0 0 0 139.168 14.427 A 0.775 0.775 0 0 0 138.735 14.707 A 1.006 1.006 0 0 0 138.579 15.009 Q 138.533 15.148 138.511 15.318 A 2.57 2.57 0 0 0 138.492 15.642 Z M 128.054 14.393 A 1.367 1.367 0 0 0 127.789 14.417 Q 127.638 14.447 127.524 14.514 A 0.647 0.647 0 0 0 127.336 14.679 Q 127.143 14.93 127.119 15.483 A 3.747 3.747 0 0 0 127.116 15.642 Q 127.116 16.216 127.279 16.513 A 0.734 0.734 0 0 0 127.342 16.61 A 0.706 0.706 0 0 0 127.7 16.851 Q 127.819 16.889 127.965 16.898 A 1.564 1.564 0 0 0 128.065 16.901 A 0.969 0.969 0 0 0 128.341 16.864 A 0.699 0.699 0 0 0 128.733 16.575 A 1.116 1.116 0 0 0 128.872 16.276 Q 128.915 16.134 128.935 15.962 A 2.787 2.787 0 0 0 128.953 15.636 A 2.873 2.873 0 0 0 128.936 15.308 Q 128.895 14.95 128.756 14.734 A 0.807 0.807 0 0 0 128.733 14.701 A 0.709 0.709 0 0 0 128.282 14.415 A 1.125 1.125 0 0 0 128.054 14.393 Z" id="bottom_labelLayer" stroke="#777777" fill="#777777" style="stroke:#777777;fill:#777777" vector-effect="non-scaling-stroke"/></g></svg>