<svg width="246mm" height="203mm" viewBox="0 0 246 203" xmlns="http://www.w3.org/2000/svg" version="1.1" preserveAspectRatio="xMidYMid meet"><g id="svgGroup" stroke-linecap="round" fill-rule="evenodd" font-size="9pt" stroke="#000" stroke-width="0.25mm" fill="none" style="stroke:#000;stroke-width:0.25mm;fill:none"><path d="M 0 103 L 0 139.138 L 3 139.138 L 3 166.862 L 0 166.862 L 0 194.586 L 0 203 L 26.138 203 L 26.138 200 L 53.862 200 L 53.862 203 L 80 203 L 80 166.862 L 77 166.862 L 77 139.138 L 80 139.138 L 80 111.414 L 80 103 L 0 103 Z" id="front_outsideCutPath" stroke="#FF0000" stroke-width="0.1" style="stroke:#FF0000;stroke-width:0.1" vector-effect="non-scaling-stroke"/><path d="M 86 103 L 86 139.138 L 83 139.138 L 83 166.862 L 86 166.862 L 86 194.586 L 86 203 L 109.138 203 L 109.138 200 L 136.862 200 L 136.862 203 L 160 203 L 160 166.862 L 163 166.862 L 163 139.138 L 160 139.138 L 160 111.414 L 160 103 L 86 103 Z" id="left_outsideCutPath" stroke="#FF0000" stroke-width="0.1" style="stroke:#FF0000;stroke-width:0.1" vector-effect="non-scaling-stroke"/><path d="M 0 0 L 0 36.138 L 3 36.138 L 3 63.862 L 0 63.862 L 0 91.586 L 0 100 L 26.138 100 L 26.138 97 L 53.862 97 L 53.862 100 L 80 100 L 80 63.862 L 77 63.862 L 77 36.138 L 80 36.138 L 80 8.414 L 80 0 L 0 0 Z" id="back_outsideCutPath" stroke="#FF0000" stroke-width="0.1" style="stroke:#FF0000;stroke-width:0.1" vector-effect="non-scaling-stroke"/><path d="M 86 0 L 86 36.138 L 83 36.138 L 83 63.862 L 86 63.862 L 86 91.586 L 86 100 L 109.138 100 L 109.138 97 L 136.862 97 L 136.862 100 L 160 100 L 160 63.862 L 163 63.862 L 163 36.138 L 160 36.138 L 160 8.414 L 160 0 L 86 0 Z" id="right_outsideCutPath" stroke="#FF0000" stroke-width="0.1" style="stroke:#FF0000;stroke-width:0.1" vector-effect="non-scaling-stroke"/><path d="M 169 126 L 169 149.138 L 166 149.138 L 166 176.862 L 169 176.862 L 169 200 L 192.138 200 L 192.138 203 L 219.862 203 L 219.862 200 L 243 200 L 243 176.862 L 246 176.862 L 246 149.138 L 243 149.138 L 243 126 L 219.862 126 L 219.862 123 L 192.138 123 L 192.138 126 L 169 126 Z" id="bottom_outsideCutPath" stroke="#FF0000" stroke-width="0.1" style="stroke:#FF0000;stroke-width:0.1" vector-effect="non-scaling-stroke"/></g></svg>