<svg width="306mm" height="203mm" viewBox="0 0 306 203" xmlns="http://www.w3.org/2000/svg" version="1.1" preserveAspectRatio="xMidYMid meet"><g id="svgGroup" stroke-linecap="round" fill-rule="evenodd" font-size="9pt" stroke="#000" stroke-width="0.25mm" fill="none" style="stroke:#000;stroke-width:0.25mm;fill:none"><path d="M 0 103 L 0 139.138 L 3 139.138 L 3 166.862 L 0 166.862 L 0 194.586 L 0 203 L 36.138 203 L 36.138 200 L 63.862 200 L 63.862 203 L 91.586 203 L 100 203 L 100 166.862 L 97 166.862 L 97 139.138 L 100 139.138 L 100 111.414 L 100 103 L 0 103 Z" id="front_outsideCutPath" stroke="#FF0000" stroke-width="0.1" style="stroke:#FF0000;stroke-width:0.1" vector-effect="non-scaling-stroke"/><path d="M 106 103 L 106 139.138 L 103 139.138 L 103 166.862 L 106 166.862 L 106 194.586 L 106 203 L 139.138 203 L 139.138 200 L 166.862 200 L 166.862 203 L 194.586 203 L 200 203 L 200 166.862 L 203 166.862 L 203 139.138 L 200 139.138 L 200 111.414 L 200 103 L 106 103 Z" id="left_outsideCutPath" stroke="#FF0000" stroke-width="0.1" style="stroke:#FF0000;stroke-width:0.1" vector-effect="non-scaling-stroke"/><path d="M 0 0 L 0 36.138 L 3 36.138 L 3 63.862 L 0 63.862 L 0 91.586 L 0 100 L 36.138 100 L 36.138 97 L 63.862 97 L 63.862 100 L 91.586 100 L 100 100 L 100 63.862 L 97 63.862 L 97 36.138 L 100 36.138 L 100 8.414 L 100 0 L 0 0 Z" id="back_outsideCutPath" stroke="#FF0000" stroke-width="0.1" style="stroke:#FF0000;stroke-width:0.1" vector-effect="non-scaling-stroke"/><path d="M 106 0 L 106 36.138 L 103 36.138 L 103 63.862 L 106 63.862 L 106 91.586 L 106 100 L 139.138 100 L 139.138 97 L 166.862 97 L 166.862 100 L 194.586 100 L 200 100 L 200 63.862 L 203 63.862 L 203 36.138 L 200 36.138 L 200 8.414 L 200 0 L 106 0 Z" id="right_outsideCutPath" stroke="#FF0000" stroke-width="0.1" style="stroke:#FF0000;stroke-width:0.1" vector-effect="non-scaling-stroke"/><path d="M 209 106 L 209 139.138 L 206 139.138 L 206 166.862 L 209 166.862 L 209 194.586 L 209 200 L 242.138 200 L 242.138 203 L 269.862 203 L 269.862 200 L 297.586 200 L 303 200 L 303 166.862 L 306 166.862 L 306 139.138 L 303 139.138 L 303 111.414 L 303 106 L 269.862 106 L 269.862 103 L 242.138 103 L 242.138 106 L 214.414 106 L 209 106 Z" id="bottom_outsideCutPath" stroke="#FF0000" stroke-width="0.1" style="stroke:#FF0000;stroke-width:0.1" vector-effect="non-scaling-stroke"/></g></svg>