<svg width="606mm" height="403mm" viewBox="0 0 606 403" xmlns="http://www.w3.org/2000/svg" version="1.1" preserveAspectRatio="xMidYMid meet"><g id="svgGroup" stroke-linecap="round" fill-rule="evenodd" font-size="9pt" stroke="#000" stroke-width="0.25mm" fill="none" style="stroke:#000;stroke-width:0.25mm;fill:none"><path d="M 0 203 L 0 233.69 L 3 233.69 L 3 261.414 L 0 261.414 L 0 289.138 L 3 289.138 L 3 316.862 L 0 316.862 L 0 344.586 L 3 344.586 L 3 372.31 L 0 372.31 L 0 403 L 30.69 403 L 30.69 400 L 58.414 400 L 58.414 403 L 86.138 403 L 86.138 400 L 113.862 400 L 113.862 403 L 141.586 403 L 141.586 400 L 169.31 400 L 169.31 403 L 200 403 L 200 372.31 L 197 372.31 L 197 344.586 L 200 344.586 L 200 316.862 L 197 316.862 L 197 289.138 L 200 289.138 L 200 261.414 L 197 261.414 L 197 233.69 L 200 233.69 L 200 203 L 0 203 Z" id="front_outsideCutPath" stroke="#FF0000" stroke-width="0.1" style="stroke:#FF0000;stroke-width:0.1" vector-effect="non-scaling-stroke"/><path d="M 206 203 L 206 233.69 L 203 233.69 L 203 261.414 L 206 261.414 L 206 289.138 L 203 289.138 L 203 316.862 L 206 316.862 L 206 344.586 L 203 344.586 L 203 372.31 L 206 372.31 L 206 403 L 233.69 403 L 233.69 400 L 261.414 400 L 261.414 403 L 289.138 403 L 289.138 400 L 316.862 400 L 316.862 403 L 344.586 403 L 344.586 400 L 372.31 400 L 372.31 403 L 400 403 L 400 372.31 L 403 372.31 L 403 344.586 L 400 344.586 L 400 316.862 L 403 316.862 L 403 289.138 L 400 289.138 L 400 261.414 L 403 261.414 L 403 233.69 L 400 233.69 L 400 203 L 206 203 Z" id="left_outsideCutPath" stroke="#FF0000" stroke-width="0.1" style="stroke:#FF0000;stroke-width:0.1" vector-effect="non-scaling-stroke"/><path d="M 0 0 L 0 30.69 L 3 30.69 L 3 58.414 L 0 58.414 L 0 86.138 L 3 86.138 L 3 113.862 L 0 113.862 L 0 141.586 L 3 141.586 L 3 169.31 L 0 169.31 L 0 200 L 30.69 200 L 30.69 197 L 58.414 197 L 58.414 200 L 86.138 200 L 86.138 197 L 113.862 197 L 113.862 200 L 141.586 200 L 141.586 197 L 169.31 197 L 169.31 200 L 200 200 L 200 169.31 L 197 169.31 L 197 141.586 L 200 141.586 L 200 113.862 L 197 113.862 L 197 86.138 L 200 86.138 L 200 58.414 L 197 58.414 L 197 30.69 L 200 30.69 L 200 0 L 0 0 Z" id="back_outsideCutPath" stroke="#FF0000" stroke-width="0.1" style="stroke:#FF0000;stroke-width:0.1" vector-effect="non-scaling-stroke"/><path d="M 206 0 L 206 30.69 L 203 30.69 L 203 58.414 L 206 58.414 L 206 86.138 L 203 86.138 L 203 113.862 L 206 113.862 L 206 141.586 L 203 141.586 L 203 169.31 L 206 169.31 L 206 200 L 233.69 200 L 233.69 197 L 261.414 197 L 261.414 200 L 289.138 200 L 289.138 197 L 316.862 197 L 316.862 200 L 344.586 200 L 344.586 197 L 372.31 197 L 372.31 200 L 400 200 L 400 169.31 L 403 169.31 L 403 141.586 L 400 141.586 L 400 113.862 L 403 113.862 L 403 86.138 L 400 86.138 L 400 58.414 L 403 58.414 L 403 30.69 L 400 30.69 L 400 0 L 206 0 Z" id="right_outsideCutPath" stroke="#FF0000" stroke-width="0.1" style="stroke:#FF0000;stroke-width:0.1" vector-effect="non-scaling-stroke"/><path d="M 409 206 L 409 233.69 L 406 233.69 L 406 261.414 L 409 261.414 L 409 289.138 L 406 289.138 L 406 316.862 L 409 316.862 L 409 344.586 L 406 344.586 L 406 372.31 L 409 372.31 L 409 400 L 436.69 400 L 436.69 403 L 464.414 403 L 464.414 400 L 492.138 400 L 492.138 403 L 519.862 403 L 519.862 400 L 547.586 400 L 547.586 403 L 575.31 403 L 575.31 400 L 603 400 L 603 372.31 L 606 372.31 L 606 344.586 L 603 344.586 L 603 316.862 L 606 316.862 L 606 289.138 L 603 289.138 L 603 261.414 L 606 261.414 L 606 233.69 L 603 233.69 L 603 206 L 575.31 206 L 575.31 203 L 547.586 203 L 547.586 206 L 519.862 206 L 519.862 203 L 492.138 203 L 492.138 206 L 464.414 206 L 464.414 203 L 436.69 203 L 436.69 206 L 409 206 Z" id="bottom_outsideCutPath" stroke="#FF0000" stroke-width="0.1" style="stroke:#FF0000;stroke-width:0.1" vector-effect="non-scaling-stroke"/></g></svg>