<svg width="196mm" height="83mm" viewBox="0 0 196 83" xmlns="http://www.w3.org/2000/svg" version="1.1" preserveAspectRatio="xMidYMid meet"><g id="svgGroup" stroke-linecap="round" fill-rule="evenodd" font-size="9pt" stroke="#000" stroke-width="0.25mm" fill="none" style="stroke:#000;stroke-width:0.25mm;fill:none"><path d="M 0 53 L 0 62.938 L 3 62.938 L 3 73.063 L 0 73.063 L 0 83 L 12.188 83 L 12.188 80 L 22.313 80 L 22.313 83 L 32.438 83 L 32.438 80 L 42.563 80 L 42.563 83 L 52.688 83 L 52.688 80 L 62.813 80 L 62.813 83 L 72.938 83 L 75 83 L 75 73.063 L 72 73.063 L 72 62.938 L 75 62.938 L 75 53 L 62.813 53 L 62.813 56 L 52.688 56 L 52.688 53 L 42.563 53 L 42.563 56 L 32.438 56 L 32.438 53 L 22.313 53 L 22.313 56 L 12.188 56 L 12.188 53 L 2.063 53 L 0 53 Z" id="front_outsideCutPath" stroke="#FF0000" stroke-width="0.1" style="stroke:#FF0000;stroke-width:0.1" vector-effect="non-scaling-stroke"/><path d="M 81 53 L 81 62.938 L 78 62.938 L 78 73.063 L 81 73.063 L 81 83 L 92.938 83 L 92.938 80 L 103.063 80 L 103.063 83 L 113.188 83 L 115 83 L 115 73.063 L 118 73.063 L 118 62.938 L 115 62.938 L 115 53 L 103.063 53 L 103.063 56 L 92.938 56 L 92.938 53 L 82.813 53 L 81 53 Z" id="left_outsideCutPath" stroke="#FF0000" stroke-width="0.1" style="stroke:#FF0000;stroke-width:0.1" vector-effect="non-scaling-stroke"/><path d="M 124 46 L 124 57.938 L 121 57.938 L 121 68.063 L 124 68.063 L 124 78.188 L 124 80 L 133.188 80 L 133.188 83 L 143.313 83 L 143.313 80 L 153.438 80 L 153.438 83 L 163.563 83 L 163.563 80 L 173.688 80 L 173.688 83 L 183.813 83 L 183.813 80 L 193 80 L 193 68.063 L 196 68.063 L 196 57.938 L 193 57.938 L 193 47.813 L 193 46 L 183.813 46 L 183.813 43 L 173.688 43 L 173.688 46 L 163.563 46 L 163.563 43 L 153.438 43 L 153.438 46 L 143.313 46 L 143.313 43 L 133.188 43 L 133.188 46 L 124 46 Z" id="top_outsideCutPath" stroke="#FF0000" stroke-width="0.1" style="stroke:#FF0000;stroke-width:0.1" vector-effect="non-scaling-stroke"/><path d="M 0 20 L 0 29.938 L 3 29.938 L 3 40.063 L 0 40.063 L 0 50 L 12.188 50 L 12.188 47 L 22.313 47 L 22.313 50 L 32.438 50 L 32.438 47 L 42.563 47 L 42.563 50 L 52.688 50 L 52.688 47 L 62.813 47 L 62.813 50 L 72.938 50 L 75 50 L 75 40.063 L 72 40.063 L 72 29.938 L 75 29.938 L 75 20 L 62.813 20 L 62.813 23 L 52.688 23 L 52.688 20 L 42.563 20 L 42.563 23 L 32.438 23 L 32.438 20 L 22.313 20 L 22.313 23 L 12.188 23 L 12.188 20 L 2.063 20 L 0 20 Z" id="back_outsideCutPath" stroke="#FF0000" stroke-width="0.1" style="stroke:#FF0000;stroke-width:0.1" vector-effect="non-scaling-stroke"/><path d="M 81 20 L 81 29.938 L 78 29.938 L 78 40.063 L 81 40.063 L 81 50 L 92.938 50 L 92.938 47 L 103.063 47 L 103.063 50 L 113.188 50 L 115 50 L 115 40.063 L 118 40.063 L 118 29.938 L 115 29.938 L 115 20 L 103.063 20 L 103.063 23 L 92.938 23 L 92.938 20 L 82.813 20 L 81 20 Z" id="right_outsideCutPath" stroke="#FF0000" stroke-width="0.1" style="stroke:#FF0000;stroke-width:0.1" vector-effect="non-scaling-stroke"/><path d="M 124 3 L 124 14.938 L 121 14.938 L 121 25.063 L 124 25.063 L 124 35.188 L 124 37 L 133.188 37 L 133.188 40 L 143.313 40 L 143.313 37 L 153.438 37 L 153.438 40 L 163.563 40 L 163.563 37 L 173.688 37 L 173.688 40 L 183.813 40 L 183.813 37 L 193 37 L 193 25.063 L 196 25.063 L 196 14.938 L 193 14.938 L 193 4.813 L 193 3 L 183.813 3 L 183.813 0 L 173.688 0 L 173.688 3 L 163.563 3 L 163.563 0 L 153.438 0 L 153.438 3 L 143.313 3 L 143.313 0 L 133.188 0 L 133.188 3 L 124 3 Z" id="bottom_outsideCutPath" stroke="#FF0000" stroke-width="0.1" style="stroke:#FF0000;stroke-width:0.1" vector-effect="non-scaling-stroke"/></g></svg>