<svg width="486mm" height="363mm" viewBox="0 0 486 363" xmlns="http://www.w3.org/2000/svg" version="1.1" preserveAspectRatio="xMidYMid meet"><g id="svgGroup" stroke-linecap="round" fill-rule="evenodd" font-size="9pt" stroke="#000" stroke-width="0.25mm" fill="none" style="stroke:#000;stroke-width:0.25mm;fill:none"><path d="M 0 183 L 0 203.69 L 3 203.69 L 3 231.414 L 0 231.414 L 0 259.138 L 3 259.138 L 3 286.862 L 0 286.862 L 0 314.586 L 3 314.586 L 3 342.31 L 0 342.31 L 0 363 L 38.414 363 L 38.414 360 L 66.138 360 L 66.138 363 L 93.862 363 L 93.862 360 L 121.586 360 L 121.586 363 L 149.31 363 L 160 363 L 160 342.31 L 157 342.31 L 157 314.586 L 160 314.586 L 160 286.862 L 157 286.862 L 157 259.138 L 160 259.138 L 160 231.414 L 157 231.414 L 157 203.69 L 160 203.69 L 160 183 L 0 183 Z" id="front_outsideCutPath" stroke="#0000FF" stroke-width="0.1" style="stroke:#0000FF;stroke-width:0.1" vector-effect="non-scaling-stroke"/><path d="M 166 183 L 166 203.69 L 163 203.69 L 163 231.414 L 166 231.414 L 166 259.138 L 163 259.138 L 163 286.862 L 166 286.862 L 166 314.586 L 163 314.586 L 163 342.31 L 166 342.31 L 166 363 L 201.414 363 L 201.414 360 L 229.138 360 L 229.138 363 L 256.862 363 L 256.862 360 L 284.586 360 L 284.586 363 L 312.31 363 L 320 363 L 320 342.31 L 323 342.31 L 323 314.586 L 320 314.586 L 320 286.862 L 323 286.862 L 323 259.138 L 320 259.138 L 320 231.414 L 323 231.414 L 323 203.69 L 320 203.69 L 320 183 L 166 183 Z" id="left_outsideCutPath" stroke="#0000FF" stroke-width="0.1" style="stroke:#0000FF;stroke-width:0.1" vector-effect="non-scaling-stroke"/><path d="M 0 0 L 0 20.69 L 3 20.69 L 3 48.414 L 0 48.414 L 0 76.138 L 3 76.138 L 3 103.862 L 0 103.862 L 0 131.586 L 3 131.586 L 3 159.31 L 0 159.31 L 0 180 L 38.414 180 L 38.414 177 L 66.138 177 L 66.138 180 L 93.862 180 L 93.862 177 L 121.586 177 L 121.586 180 L 149.31 180 L 160 180 L 160 159.31 L 157 159.31 L 157 131.586 L 160 131.586 L 160 103.862 L 157 103.862 L 157 76.138 L 160 76.138 L 160 48.414 L 157 48.414 L 157 20.69 L 160 20.69 L 160 0 L 0 0 Z" id="back_outsideCutPath" stroke="#0000FF" stroke-width="0.1" style="stroke:#0000FF;stroke-width:0.1" vector-effect="non-scaling-stroke"/><path d="M 166 0 L 166 20.69 L 163 20.69 L 163 48.414 L 166 48.414 L 166 76.138 L 163 76.138 L 163 103.862 L 166 103.862 L 166 131.586 L 163 131.586 L 163 159.31 L 166 159.31 L 166 180 L 201.414 180 L 201.414 177 L 229.138 177 L 229.138 180 L 256.862 180 L 256.862 177 L 284.586 177 L 284.586 180 L 312.31 180 L 320 180 L 320 159.31 L 323 159.31 L 323 131.586 L 320 131.586 L 320 103.862 L 323 103.862 L 323 76.138 L 320 76.138 L 320 48.414 L 323 48.414 L 323 20.69 L 320 20.69 L 320 0 L 166 0 Z" id="right_outsideCutPath" stroke="#0000FF" stroke-width="0.1" style="stroke:#0000FF;stroke-width:0.1" vector-effect="non-scaling-stroke"/><path d="M 329 206 L 329 241.414 L 326 241.414 L 326 269.138 L 329 269.138 L 329 296.862 L 326 296.862 L 326 324.586 L 329 324.586 L 329 352.31 L 329 360 L 364.414 360 L 364.414 363 L 392.138 363 L 392.138 360 L 419.862 360 L 419.862 363 L 447.586 363 L 447.586 360 L 475.31 360 L 483 360 L 483 324.586 L 486 324.586 L 486 296.862 L 483 296.862 L 483 269.138 L 486 269.138 L 486 241.414 L 483 241.414 L 483 213.69 L 483 206 L 447.586 206 L 447.586 203 L 419.862 203 L 419.862 206 L 392.138 206 L 392.138 203 L 364.414 203 L 364.414 206 L 336.69 206 L 329 206 Z" id="bottom_outsideCutPath" stroke="#0000FF" stroke-width="0.1" style="stroke:#0000FF;stroke-width:0.1" vector-effect="non-scaling-stroke"/></g></svg>