<?xml version="1.0" encoding="UTF-8" standalone="no"?>
<!-- Created with Inkscape (http://www.inkscape.org/) -->

<svg
   xmlns:dc="http://purl.org/dc/elements/1.1/"
   xmlns:cc="http://creativecommons.org/ns#"
   xmlns:rdf="http://www.w3.org/1999/02/22-rdf-syntax-ns#"
   xmlns:svg="http://www.w3.org/2000/svg"
   xmlns="http://www.w3.org/2000/svg"
   xmlns:sodipodi="http://sodipodi.sourceforge.net/DTD/sodipodi-0.dtd"
   xmlns:inkscape="http://www.inkscape.org/namespaces/inkscape"
   width="500mm"
   height="250mm"
   viewBox="0 0 500 250"
   version="1.1"
   id="svg8"
   inkscape:version="0.92.4 (5da689c313, 2019-01-14)"
   sodipodi:docname="holder.svg"
   inkscape:export-xdpi="96.035416"
   inkscape:export-ydpi="96.035416">
  <defs
     id="defs2" />
  <sodipodi:namedview
     id="base"
     pagecolor="#ffffff"
     bordercolor="#666666"
     borderopacity="1.0"
     inkscape:pageopacity="0.0"
     inkscape:pageshadow="2"
     inkscape:zoom="0.32"
     inkscape:cx="988.69123"
     inkscape:cy="444.92071"
     inkscape:document-units="mm"
     inkscape:current-layer="layer1"
     showgrid="false"
     inkscape:window-width="1422"
     inkscape:window-height="733"
     inkscape:window-x="0"
     inkscape:window-y="0"
     inkscape:window-maximized="1"
     showguides="true"
     inkscape:guide-bbox="true" />
  <metadata
     id="metadata5">
    <rdf:RDF>
      <cc:Work
         rdf:about="">
        <dc:format>image/svg+xml</dc:format>
        <dc:type
           rdf:resource="http://purl.org/dc/dcmitype/StillImage" />
        <dc:title />
      </cc:Work>
    </rdf:RDF>
  </metadata>
  <g
     inkscape:label="Layer 1"
     inkscape:groupmode="layer"
     id="layer1"
     transform="translate(0,-47)">
    <path
       style="opacity:0.98999999;fill:none;fill-opacity:1;stroke:#000000;stroke-width:1;stroke-miterlimit:4;stroke-dasharray:none;stroke-opacity:0.50196078"
       d="m 16.709552,82.930813 c -3.12493,-4e-5 -12.5004567,23.020177 -12.5000067,28.778087 v 150.00015 23.00012 c 0,1.10803 0.8918797,1.99991 1.9998791,1.99991 h 8.0000276 v -15.00002 h 4.95008 v 15.00002 H 264.15952 v -15.00002 h 4.95009 v 15.00002 h 8.10027 c 1.108,0 1.99988,-0.89188 1.99988,-1.99991 V 261.70905 111.7089 c 0,-5.89008 -9.37453,-28.778067 -12.4995,-28.778087 v 0 c -3.12494,-4e-5 -12.50047,23.020177 -12.50002,28.778087 v 148.00027 c 0,1.108 -0.89188,1.99988 -1.99988,1.99988 h -21.00027 c -1.108,0 -1.99988,-0.89188 -1.99988,-1.99988 V 111.7089 c 0,-5.89008 -9.37453,-28.778067 -12.4995,-28.778087 h -5.3e-4 c -3.12493,-4e-5 -12.50046,23.020177 -12.50001,28.778087 v 148.00027 c 0,1.108 -0.89188,1.99988 -1.99987,1.99988 h -21.00027 c -1.10801,0 -1.99988,-0.89188 -1.99988,-1.99988 V 111.7089 c 0,-5.89008 -9.37453,-28.778067 -12.4995,-28.778087 h -5.2e-4 c -3.12495,-4e-5 -12.50046,23.020177 -12.50002,28.778087 v 148.00027 c 0,1.108 -0.89188,1.99988 -1.99988,1.99988 h -21.00026 c -1.10801,0 -1.99988,-0.89188 -1.99988,-1.99988 V 111.7089 c 0,-5.89008 -9.37452,-28.778067 -12.49949,-28.778087 h -5.3e-4 c -3.12494,-4e-5 -12.50046,23.020177 -12.50001,28.778087 v 148.00027 c 0,1.108 -0.89188,1.99988 -1.99988,1.99988 H 81.209962 c -1.108,0 -1.99988,-0.89188 -1.99988,-1.99988 V 111.7089 c 0,-5.89008 -9.37453,-28.778067 -12.49949,-28.778087 h -5.3e-4 c -3.12494,-4e-5 -12.50047,23.020177 -12.50002,28.778087 v 148.00027 c 0,1.108 -0.89187,1.99988 -1.99987,1.99988 h -21.00027 c -1.108,0 -1.99988,-0.89188 -1.99988,-1.99988 V 111.7089 c 0,-5.89008 -9.37452,-28.778067 -12.49949,-28.778087 z"
       id="rect4707-4"
       inkscape:connector-curvature="0"
       sodipodi:nodetypes="cccssccccccccsscscccssssscccssssscccssssscccssssscccssssscc" />
    <path
       style="opacity:0.98999999;fill:none;fill-opacity:1;stroke:#000000;stroke-width:1;stroke-miterlimit:4;stroke-dasharray:none;stroke-opacity:0.50196078"
       d="m 469.89997,66.99977 c 0,-11.08 -63.88115,-14.60042 -74.8996,-15.76649 h -5.00023 v 241.53344 h 5.00023 c 11.07998,0 75.06165,-7.93247 74.8996,-15.76697 v -4.9997 H 405 v -4.99981 h 64.89997 V 76.99995 H 405 v -4.99997 h 64.89997 z"
       id="rect4736-4-3"
       inkscape:connector-curvature="0"
       sodipodi:nodetypes="ssccscccccccccs" />
    <path
       style="opacity:0.98999999;fill:none;fill-opacity:1;stroke:#000080;stroke-width:1;stroke-miterlimit:4;stroke-dasharray:none;stroke-opacity:0.50196078"
       d="m 29.209542,232.2911 c 0,5.89006 9.37453,28.77806 12.4995,28.77808 v 0 c 3.12494,3e-5 12.50047,-23.02019 12.50002,-28.77808 m 0,-120.54029 V 84.290824 c 0,-1.108001 0.89188,-1.999881 1.99988,-1.999881 h 21.00027 c 1.108,0 1.99988,0.89188 1.99988,1.999881 V 111.7742 m 0,120.5169 c 0,5.89007 9.37451,28.77806 12.499476,28.77808 h 5.3e-4 c 3.124922,3e-5 12.500412,-23.02018 12.499962,-28.77808 m 0,-120.5169 V 84.290824 c 0,-1.108001 0.89189,-1.999881 1.99988,-1.999881 h 21.00027 c 1.108,0 1.99988,0.89188 1.99988,1.999881 v 27.516306 m 0,120.48397 c 0,5.89006 9.37452,28.77806 12.49949,28.77808 h 5.3e-4 c 3.12494,3e-5 12.50045,-23.02019 12.50001,-28.77808 m 0,-120.56665 V 84.290824 c 0,-1.108001 0.89188,-1.999881 1.99988,-1.999881 h 21.00027 c 1.10801,0 1.99988,0.89188 1.99988,1.999881 v 27.450166 m 0,120.55011 c 0,5.89006 9.37452,28.77806 12.49949,28.77808 h 5.3e-4 c 3.12494,3e-5 12.50046,-23.02019 12.50001,-28.77808 m 0,-120.56367 V 84.290824 c 0,-1.108001 0.89188,-1.999881 1.99988,-1.999881 h 21.00027 c 1.108,0 1.99988,0.89188 1.99988,1.999881 v 27.459986 m 0,120.54029 c 0,5.89006 9.37453,28.77806 12.4995,28.77808 h 5.3e-4 c 3.12493,3e-5 12.50046,-23.02019 12.50001,-28.77808 m 0,-120.54029 V 84.290824 c 0,-1.108001 0.89187,-1.999881 1.99988,-1.999881 h 21.00027 c 1.108,0 1.99988,0.89188 1.99988,1.999881 v 27.413216 m 0,120.58706 c 0,5.89007 9.37454,28.77806 12.4995,28.77808 h 9.8e-4 c 3.12492,3e-5 12.50045,-23.02019 12.5,-28.77808 V 82.290943 59.290803 c 0,-1.108 -0.89188,-1.99988 -1.99988,-1.99988 h -8.00004 v 15 h -4.95007 v -15 H 44.259782 v 15 h -4.95009 v -15 h -8.10027 c -1.108,0 -1.99988,0.89188 -1.99988,1.99988 v 23.00014 29.436487"
       id="rect4707-8-0"
       inkscape:connector-curvature="0"
       sodipodi:nodetypes="cccccssssccccccssssccccccssssccccccssssccccccssssccccccsscccccccccscc" />
    <g
       aria-label="design by janschejbal"
       style="font-style:normal;font-variant:normal;font-weight:normal;font-stretch:normal;font-size:8.49657249px;line-height:1.25;font-family:'product sans';-inkscape-font-specification:'product sans';letter-spacing:0px;word-spacing:0px;fill:#00ff00;fill-opacity:1;stroke:none;stroke-width:0.21241429"
       id="text847"
       transform="translate(-344.90668,224.36664)">
      <path
         d="m 449.89611,51.963081 q 0.57777,0 0.94312,-0.416332 0.38235,-0.416332 0.38235,-1.087561 0,-0.654237 -0.38235,-1.079065 -0.37385,-0.424829 -0.94312,-0.424829 -0.56077,0 -0.94312,0.424829 -0.38235,0.424828 -0.38235,1.079065 0,0.662732 0.38235,1.079064 0.38235,0.424829 0.94312,0.424829 z m -0.12745,0.713712 q -0.81567,0 -1.40193,-0.64574 -0.57777,-0.654236 -0.57777,-1.571865 0,-0.91763 0.57777,-1.571866 0.58626,-0.64574 1.40193,-0.64574 0.45882,0 0.83267,0.195421 0.38234,0.195421 0.58626,0.518291 h 0.034 l -0.034,-0.577767 v -1.920225 h 0.78168 v 6.083546 h -0.74769 v -0.577767 h -0.034 q -0.20392,0.32287 -0.58626,0.518291 -0.37385,0.195421 -0.83267,0.195421 z"
         style="font-style:normal;font-variant:normal;font-weight:normal;font-stretch:normal;font-family:'product sans';-inkscape-font-specification:'product sans';fill:#00ff00;fill-opacity:1;stroke-width:0.21241429"
         id="path825"
         inkscape:connector-curvature="0" />
      <path
         d="m 454.74181,52.676793 q -0.91763,0 -1.51239,-0.628746 -0.59476,-0.628747 -0.59476,-1.588859 0,-0.951617 0.57777,-1.580363 0.57777,-0.637243 1.4784,-0.637243 0.92613,0 1.46991,0.603257 0.55228,0.59476 0.55228,1.673825 l -0.008,0.08496 h -3.27118 q 0.017,0.611753 0.40783,0.985603 0.39085,0.373849 0.93463,0.373849 0.7477,0 1.17252,-0.747699 l 0.69672,0.339863 q -0.28038,0.526788 -0.78168,0.824168 -0.4928,0.29738 -1.12155,0.29738 z m -1.24899,-2.718903 h 2.38753 q -0.034,-0.433325 -0.35685,-0.713712 -0.31438,-0.288884 -0.84966,-0.288884 -0.44182,0 -0.76469,0.271891 -0.31438,0.27189 -0.41633,0.730705 z"
         style="font-style:normal;font-variant:normal;font-weight:normal;font-stretch:normal;font-family:'product sans';-inkscape-font-specification:'product sans';fill:#00ff00;fill-opacity:1;stroke-width:0.21241429"
         id="path827"
         inkscape:connector-curvature="0" />
      <path
         d="m 460.65556,51.385314 q 0,0.543781 -0.47581,0.91763 -0.47581,0.373849 -1.19802,0.373849 -0.62874,0 -1.10455,-0.32287 -0.47581,-0.331366 -0.67973,-0.86665 l 0.69672,-0.29738 q 0.15294,0.373849 0.44182,0.586263 0.29738,0.203918 0.64574,0.203918 0.37385,0 0.62025,-0.161435 0.2549,-0.161435 0.2549,-0.382346 0,-0.399339 -0.61175,-0.586263 l -0.71371,-0.178428 q -1.21501,-0.305877 -1.21501,-1.172527 0,-0.569271 0.45881,-0.909133 0.46731,-0.34836 1.18952,-0.34836 0.55228,0 0.9941,0.263394 0.45032,0.263394 0.62875,0.705215 l -0.69672,0.288884 q -0.11895,-0.263394 -0.39085,-0.407836 -0.26339,-0.152938 -0.59476,-0.152938 -0.30587,0 -0.55227,0.152938 -0.23791,0.152939 -0.23791,0.37385 0,0.356856 0.67123,0.509794 l 0.62875,0.161435 q 1.2405,0.305876 1.2405,1.248996 z"
         style="font-style:normal;font-variant:normal;font-weight:normal;font-stretch:normal;font-family:'product sans';-inkscape-font-specification:'product sans';fill:#00ff00;fill-opacity:1;stroke-width:0.21241429"
         id="path829"
         inkscape:connector-curvature="0" />
      <path
         d="m 462.29726,46.941607 q 0,0.229407 -0.16144,0.390842 -0.16143,0.161435 -0.39084,0.161435 -0.22941,0 -0.39084,-0.161435 -0.16144,-0.161435 -0.16144,-0.390842 0,-0.229408 0.16144,-0.390843 0.16143,-0.161435 0.39084,-0.161435 0.22941,0 0.39084,0.161435 0.16144,0.161435 0.16144,0.390843 z m -0.16144,1.43592 v 4.163321 h -0.78168 v -4.163321 z"
         style="font-style:normal;font-variant:normal;font-weight:normal;font-stretch:normal;font-family:'product sans';-inkscape-font-specification:'product sans';fill:#00ff00;fill-opacity:1;stroke-width:0.21241429"
         id="path831"
         inkscape:connector-curvature="0" />
      <path
         d="m 464.98084,51.963081 q 0.57777,0 0.94312,-0.416332 0.38235,-0.416332 0.38235,-1.087561 0,-0.654237 -0.38235,-1.079065 -0.37384,-0.424829 -0.94312,-0.424829 -0.56077,0 -0.94311,0.424829 -0.38235,0.424828 -0.38235,1.079065 0,0.662732 0.38235,1.079064 0.38234,0.424829 0.94311,0.424829 z m -0.0255,2.548972 q -0.34836,0 -0.65424,-0.09346 -0.30588,-0.08497 -0.56077,-0.2464 -0.24641,-0.161435 -0.42483,-0.382346 -0.17843,-0.220911 -0.27189,-0.492801 l 0.7392,-0.305877 q 0.12745,0.365353 0.44182,0.586264 0.31437,0.220911 0.73071,0.220911 0.63724,0 0.99409,-0.382346 0.35686,-0.382346 0.35686,-1.053575 v -0.399339 h -0.034 q -0.22091,0.331366 -0.60325,0.526787 -0.37385,0.186925 -0.81567,0.186925 -0.81567,0 -1.40194,-0.637243 -0.57777,-0.654236 -0.57777,-1.580362 0,-0.926127 0.57777,-1.571866 0.58627,-0.64574 1.40194,-0.64574 0.44182,0 0.81567,0.195421 0.38234,0.186925 0.60325,0.518291 h 0.034 V 48.37753 h 0.7477 v 3.984893 q 0,1.002595 -0.56927,1.571866 -0.57777,0.577767 -1.52938,0.577767 z"
         style="font-style:normal;font-variant:normal;font-weight:normal;font-stretch:normal;font-family:'product sans';-inkscape-font-specification:'product sans';fill:#00ff00;fill-opacity:1;stroke-width:0.21241429"
         id="path833"
         inkscape:connector-curvature="0" />
      <path
         d="m 468.00708,48.377527 h 0.7477 v 0.577767 h 0.034 q 0.17843,-0.305876 0.54378,-0.509794 0.37385,-0.203918 0.77319,-0.203918 0.76469,0 1.17253,0.441822 0.41633,0.433325 0.41633,1.240499 v 2.616945 h -0.78169 v -2.565965 q -0.0255,-1.019589 -1.02808,-1.019589 -0.46731,0 -0.78169,0.382346 -0.31437,0.373849 -0.31437,0.900637 v 2.302571 h -0.78169 z"
         style="font-style:normal;font-variant:normal;font-weight:normal;font-stretch:normal;font-family:'product sans';-inkscape-font-specification:'product sans';fill:#00ff00;fill-opacity:1;stroke-width:0.21241429"
         id="path835"
         inkscape:connector-curvature="0" />
      <path
         d="m 476.69629,52.676793 q -0.45881,0 -0.84116,-0.195421 -0.37385,-0.195421 -0.57777,-0.518291 h -0.034 v 0.577767 h -0.7477 v -6.083546 h 0.78168 v 1.920225 l -0.034,0.577767 h 0.034 q 0.20392,-0.32287 0.57777,-0.518291 0.38235,-0.195421 0.84116,-0.195421 0.82417,0 1.39344,0.64574 0.58626,0.654236 0.58626,1.571866 0,0.926126 -0.58626,1.571865 -0.56927,0.64574 -1.39344,0.64574 z m -0.12745,-0.713712 q 0.56078,0 0.94312,-0.424829 0.38235,-0.416332 0.38235,-1.079064 0,-0.654237 -0.38235,-1.079065 -0.38234,-0.424829 -0.94312,-0.424829 -0.56927,0 -0.95161,0.424829 -0.37385,0.424828 -0.37385,1.079065 0,0.662732 0.37385,1.087561 0.38234,0.416332 0.95161,0.416332 z"
         style="font-style:normal;font-variant:normal;font-weight:normal;font-stretch:normal;font-family:'product sans';-inkscape-font-specification:'product sans';fill:#00ff00;fill-opacity:1;stroke-width:0.21241429"
         id="path837"
         inkscape:connector-curvature="0" />
      <path
         d="m 482.94672,48.377527 -2.60845,5.99858 h -0.80718 l 0.96861,-2.098653 -1.7163,-3.899927 h 0.84965 l 1.2405,2.990794 h 0.017 l 1.20652,-2.990794 z"
         style="font-style:normal;font-variant:normal;font-weight:normal;font-stretch:normal;font-family:'product sans';-inkscape-font-specification:'product sans';fill:#00ff00;fill-opacity:1;stroke-width:0.21241429"
         id="path839"
         inkscape:connector-curvature="0" />
      <path
         d="m 486.34322,46.941607 q 0,0.229407 -0.16144,0.390842 -0.16143,0.161435 -0.39084,0.161435 -0.22941,0 -0.39084,-0.161435 -0.16143,-0.161435 -0.16143,-0.390842 0,-0.229408 0.16143,-0.390843 0.16143,-0.161435 0.39084,-0.161435 0.22941,0 0.39084,0.161435 0.16144,0.161435 0.16144,0.390843 z m -1.41043,7.519466 q -0.2549,0 -0.45882,-0.08497 l 0.20392,-0.679725 q 0.13595,0.05098 0.22941,0.05098 0.47581,0 0.4928,-0.586263 v -4.783571 h 0.78168 v 4.664619 q 0,1.418927 -1.24899,1.418927 z"
         style="font-style:normal;font-variant:normal;font-weight:normal;font-stretch:normal;font-family:'product sans';-inkscape-font-specification:'product sans';fill:#00ff00;fill-opacity:1;stroke-width:0.21241429"
         id="path841"
         inkscape:connector-curvature="0" />
      <path
         d="m 487.72683,51.266362 q 0,0.305877 0.2549,0.509794 0.26339,0.203918 0.61175,0.203918 0.49281,0 0.87515,-0.365353 0.39084,-0.365352 0.39084,-0.858153 -0.36535,-0.288884 -1.01959,-0.288884 -0.4758,0 -0.79867,0.229408 -0.31438,0.229407 -0.31438,0.56927 z m 1.0111,-3.02478 q 0.86665,0 1.36794,0.467312 0.5013,0.458814 0.5013,1.265989 v 2.565965 h -0.7477 v -0.577767 h -0.034 q -0.48431,0.713712 -1.29148,0.713712 -0.68822,0 -1.15554,-0.407836 -0.45881,-0.407835 -0.45881,-1.019588 0,-0.64574 0.4843,-1.028086 0.4928,-0.382345 1.30848,-0.382345 0.69671,0 1.14703,0.254897 v -0.178428 q 0,-0.407836 -0.32287,-0.688222 -0.32287,-0.288884 -0.75619,-0.288884 -0.65424,0 -1.03658,0.552277 l -0.68823,-0.433325 q 0.56927,-0.815671 1.68233,-0.815671 z"
         style="font-style:normal;font-variant:normal;font-weight:normal;font-stretch:normal;font-family:'product sans';-inkscape-font-specification:'product sans';fill:#00ff00;fill-opacity:1;stroke-width:0.21241429"
         id="path843"
         inkscape:connector-curvature="0" />
      <path
         d="m 491.48882,48.377527 h 0.7477 v 0.577767 h 0.034 q 0.17843,-0.305876 0.54378,-0.509794 0.37385,-0.203918 0.77319,-0.203918 0.76469,0 1.17252,0.441822 0.41634,0.433325 0.41634,1.240499 v 2.616945 h -0.78169 v -2.565965 q -0.0255,-1.019589 -1.02808,-1.019589 -0.46732,0 -0.78169,0.382346 -0.31437,0.373849 -0.31437,0.900637 v 2.302571 h -0.78169 z"
         style="font-style:normal;font-variant:normal;font-weight:normal;font-stretch:normal;font-family:'product sans';-inkscape-font-specification:'product sans';fill:#00ff00;fill-opacity:1;stroke-width:0.21241429"
         id="path845"
         inkscape:connector-curvature="0" />
      <path
         d="m 499.23863,51.385314 q 0,0.543781 -0.47581,0.91763 -0.47581,0.373849 -1.19802,0.373849 -0.62875,0 -1.10455,-0.32287 -0.47581,-0.331366 -0.67973,-0.86665 l 0.69672,-0.29738 q 0.15294,0.373849 0.44182,0.586263 0.29738,0.203918 0.64574,0.203918 0.37385,0 0.62025,-0.161435 0.2549,-0.161435 0.2549,-0.382346 0,-0.399339 -0.61176,-0.586263 l -0.71371,-0.178428 q -1.21501,-0.305877 -1.21501,-1.172527 0,-0.569271 0.45882,-0.909133 0.46731,-0.34836 1.18952,-0.34836 0.55227,0 0.9941,0.263394 0.45032,0.263394 0.62874,0.705215 l -0.69672,0.288884 q -0.11895,-0.263394 -0.39084,-0.407836 -0.26339,-0.152938 -0.59476,-0.152938 -0.30587,0 -0.55228,0.152938 -0.2379,0.152939 -0.2379,0.37385 0,0.356856 0.67123,0.509794 l 0.62875,0.161435 q 1.2405,0.305876 1.2405,1.248996 z"
         style="font-style:normal;font-variant:normal;font-weight:normal;font-stretch:normal;font-family:'product sans';-inkscape-font-specification:'product sans';fill:#00ff00;fill-opacity:1;stroke-width:0.21241429"
         id="path847"
         inkscape:connector-curvature="0" />
      <path
         d="m 501.87203,52.676793 q -0.92612,0 -1.53788,-0.628746 -0.60325,-0.64574 -0.60325,-1.588859 0,-0.960113 0.60325,-1.58886 0.61176,-0.628746 1.53788,-0.628746 0.63725,0 1.11305,0.32287 0.47581,0.314373 0.71372,0.875147 l -0.71372,0.29738 q -0.33136,-0.781685 -1.16403,-0.781685 -0.53528,0 -0.92612,0.433325 -0.38235,0.433326 -0.38235,1.070569 0,0.637242 0.38235,1.070568 0.39084,0.433325 0.92612,0.433325 0.85816,0 1.20652,-0.781685 l 0.69672,0.29738 q -0.22941,0.560774 -0.72221,0.883644 -0.48431,0.314373 -1.13005,0.314373 z"
         style="font-style:normal;font-variant:normal;font-weight:normal;font-stretch:normal;font-family:'product sans';-inkscape-font-specification:'product sans';fill:#00ff00;fill-opacity:1;stroke-width:0.21241429"
         id="path849"
         inkscape:connector-curvature="0" />
      <path
         d="m 504.39963,46.457302 h 0.78169 v 1.920225 l -0.034,0.577767 h 0.034 q 0.17843,-0.305876 0.54378,-0.509794 0.37385,-0.203918 0.77319,-0.203918 0.76469,0 1.17252,0.441822 0.41633,0.433325 0.41633,1.240499 v 2.616945 h -0.78168 v -2.464006 q 0,-1.121548 -0.9941,-1.121548 -0.47581,0 -0.80717,0.399339 -0.32287,0.390842 -0.32287,0.91763 v 2.268585 h -0.78169 z"
         style="font-style:normal;font-variant:normal;font-weight:normal;font-stretch:normal;font-family:'product sans';-inkscape-font-specification:'product sans';fill:#00ff00;fill-opacity:1;stroke-width:0.21241429"
         id="path851"
         inkscape:connector-curvature="0" />
      <path
         d="m 510.88225,52.676793 q -0.91763,0 -1.51239,-0.628746 -0.59476,-0.628747 -0.59476,-1.588859 0,-0.951617 0.57777,-1.580363 0.57777,-0.637243 1.4784,-0.637243 0.92613,0 1.46991,0.603257 0.55228,0.59476 0.55228,1.673825 l -0.009,0.08496 h -3.27118 q 0.017,0.611753 0.40783,0.985603 0.39085,0.373849 0.93463,0.373849 0.7477,0 1.17252,-0.747699 l 0.69672,0.339863 q -0.28038,0.526788 -0.78168,0.824168 -0.4928,0.29738 -1.12155,0.29738 z m -1.249,-2.718903 h 2.38754 q -0.034,-0.433325 -0.35685,-0.713712 -0.31438,-0.288884 -0.84966,-0.288884 -0.44182,0 -0.76469,0.271891 -0.31438,0.27189 -0.41634,0.730705 z"
         style="font-style:normal;font-variant:normal;font-weight:normal;font-stretch:normal;font-family:'product sans';-inkscape-font-specification:'product sans';fill:#00ff00;fill-opacity:1;stroke-width:0.21241429"
         id="path853"
         inkscape:connector-curvature="0" />
      <path
         d="m 514.57109,46.941607 q 0,0.229407 -0.16143,0.390842 -0.16144,0.161435 -0.39085,0.161435 -0.2294,0 -0.39084,-0.161435 -0.16143,-0.161435 -0.16143,-0.390842 0,-0.229408 0.16143,-0.390843 0.16144,-0.161435 0.39084,-0.161435 0.22941,0 0.39085,0.161435 0.16143,0.161435 0.16143,0.390843 z m -1.41043,7.519466 q -0.2549,0 -0.45882,-0.08497 l 0.20392,-0.679725 q 0.13595,0.05098 0.22941,0.05098 0.47581,0 0.4928,-0.586263 v -4.783571 h 0.78169 v 4.664619 q 0,1.418927 -1.249,1.418927 z"
         style="font-style:normal;font-variant:normal;font-weight:normal;font-stretch:normal;font-family:'product sans';-inkscape-font-specification:'product sans';fill:#00ff00;fill-opacity:1;stroke-width:0.21241429"
         id="path855"
         inkscape:connector-curvature="0" />
      <path
         d="m 517.63583,52.676793 q -0.45881,0 -0.84116,-0.195421 -0.37385,-0.195421 -0.57777,-0.518291 h -0.034 v 0.577767 h -0.7477 v -6.083546 h 0.78168 v 1.920225 l -0.034,0.577767 h 0.034 q 0.20392,-0.32287 0.57777,-0.518291 0.38235,-0.195421 0.84116,-0.195421 0.82417,0 1.39344,0.64574 0.58626,0.654236 0.58626,1.571866 0,0.926126 -0.58626,1.571865 -0.56927,0.64574 -1.39344,0.64574 z m -0.12745,-0.713712 q 0.56078,0 0.94312,-0.424829 0.38235,-0.416332 0.38235,-1.079064 0,-0.654237 -0.38235,-1.079065 -0.38234,-0.424829 -0.94312,-0.424829 -0.56927,0 -0.95161,0.424829 -0.37385,0.424828 -0.37385,1.079065 0,0.662732 0.37385,1.087561 0.38234,0.416332 0.95161,0.416332 z"
         style="font-style:normal;font-variant:normal;font-weight:normal;font-stretch:normal;font-family:'product sans';-inkscape-font-specification:'product sans';fill:#00ff00;fill-opacity:1;stroke-width:0.21241429"
         id="path857"
         inkscape:connector-curvature="0" />
      <path
         d="m 520.89997,51.266362 q 0,0.305877 0.2549,0.509794 0.2634,0.203918 0.61176,0.203918 0.4928,0 0.87514,-0.365353 0.39084,-0.365352 0.39084,-0.858153 -0.36535,-0.288884 -1.01958,-0.288884 -0.47581,0 -0.79868,0.229408 -0.31438,0.229407 -0.31438,0.56927 z m 1.0111,-3.02478 q 0.86665,0 1.36795,0.467312 0.50129,0.458814 0.50129,1.265989 v 2.565965 h -0.7477 v -0.577767 h -0.034 q -0.48431,0.713712 -1.29148,0.713712 -0.68822,0 -1.15553,-0.407836 -0.45882,-0.407835 -0.45882,-1.019588 0,-0.64574 0.48431,-1.028086 0.4928,-0.382345 1.30847,-0.382345 0.69672,0 1.14703,0.254897 v -0.178428 q 0,-0.407836 -0.32287,-0.688222 -0.32286,-0.288884 -0.75619,-0.288884 -0.65424,0 -1.03658,0.552277 l -0.68822,-0.433325 q 0.56927,-0.815671 1.68232,-0.815671 z"
         style="font-style:normal;font-variant:normal;font-weight:normal;font-stretch:normal;font-family:'product sans';-inkscape-font-specification:'product sans';fill:#00ff00;fill-opacity:1;stroke-width:0.21241429"
         id="path859"
         inkscape:connector-curvature="0" />
      <path
         d="m 525.44365,46.457302 v 6.083546 h -0.78168 v -6.083546 z"
         style="font-style:normal;font-variant:normal;font-weight:normal;font-stretch:normal;font-family:'product sans';-inkscape-font-specification:'product sans';fill:#00ff00;fill-opacity:1;stroke-width:0.21241429"
         id="path861"
         inkscape:connector-curvature="0" />
    </g>
    <path
       style="opacity:0.98999999;fill:none;fill-opacity:1;stroke:#000000;stroke-width:1;stroke-miterlimit:4;stroke-dasharray:none;stroke-opacity:0.50196078"
       d="m 390.00014,292.76672 h -5.00023 c -11.07998,0 -75.06165,-7.93247 -74.8996,-15.76697 v -4.9997 H 375 v -4.99981 H 310.10031 V 76.99995 H 375 v -4.99997 h -64.89969 v -5.00021 c 0,-11.08 63.88115,-14.60042 74.8996,-15.76649 h 5.00023"
       id="rect4736-4-3-4"
       inkscape:connector-curvature="0"
       sodipodi:nodetypes="cscccccccccssc" />
  </g>
</svg>
