<?xml version="1.0" encoding="UTF-8" standalone="no"?>
<!-- Created with Inkscape (http://www.inkscape.org/) -->

<svg
   width="600mm"
   height="400mm"
   viewBox="0 0 600 400"
   version="1.1"
   id="svg19"
   sodipodi:docname="Caixa Interna.svg"
   inkscape:version="1.2-alpha1 (unknown)"
   xmlns:inkscape="http://www.inkscape.org/namespaces/inkscape"
   xmlns:sodipodi="http://sodipodi.sourceforge.net/DTD/sodipodi-0.dtd"
   xmlns="http://www.w3.org/2000/svg"
   xmlns:svg="http://www.w3.org/2000/svg">
  <sodipodi:namedview
     id="namedview21"
     pagecolor="#ffffff"
     bordercolor="#999999"
     borderopacity="1"
     inkscape:pageshadow="0"
     inkscape:pageopacity="0"
     inkscape:pagecheckerboard="0"
     inkscape:deskcolor="#d1d1d1"
     inkscape:document-units="mm"
     showgrid="false"
     inkscape:zoom="0.26921354"
     inkscape:cx="440.17103"
     inkscape:cy="224.72867"
     inkscape:window-width="1920"
     inkscape:window-height="1001"
     inkscape:window-x="-9"
     inkscape:window-y="-9"
     inkscape:window-maximized="1"
     inkscape:current-layer="layer1" />
  <defs
     id="defs16" />
  <g
     inkscape:label="CORTE"
     inkscape:groupmode="layer"
     id="layer1"
     inkscape:power="100"
     inkscape:feed="10"
     inkscape:engrave="0"
     inkscape:highlight-color="#e13535">
    <path
       d="m 7.6142501,187.74079 v 20.69 H 10.61425 v 27.724 H 7.6142501 v 27.724 H 10.61425 v 27.724 H 7.6142501 v 27.724 H 10.61425 v 27.724 H 7.6142501 v 20.69 H 46.02825 v -3 h 27.724 v 3 h 27.724 v -3 h 27.724 v 3 h 27.724 10.69 v -20.69 h -3 v -27.724 h 3 v -27.724 h -3 v -27.724 h 3 v -27.724 h -3 v -27.724 h 3 v -20.69 z"
       id="front_outsideCutPath"
       stroke="#0000FF"
       stroke-width="0.1"
       style="font-size:12px;fill:none;fill-rule:evenodd;stroke:#0000ff;stroke-width:0.1;stroke-linecap:round"
       vector-effect="non-scaling-stroke"
       inkscape:power="50"
       inkscape:feed="50"
       inkscape:engrave="0" />
    <path
       d="m 173.61425,187.74079 v 20.69 h -3 v 27.724 h 3 v 27.724 h -3 v 27.724 h 3 v 27.724 h -3 v 27.724 h 3 v 20.69 h 35.414 v -3 h 27.724 v 3 h 27.724 v -3 h 27.724 v 3 h 27.724 7.69 v -20.69 h 3 v -27.724 h -3 v -27.724 h 3 v -27.724 h -3 v -27.724 h 3 v -27.724 h -3 v -20.69 z"
       id="left_outsideCutPath"
       stroke="#0000FF"
       stroke-width="0.1"
       style="font-size:12px;fill:none;fill-rule:evenodd;stroke:#0000ff;stroke-width:0.1;stroke-linecap:round"
       vector-effect="non-scaling-stroke"
       inkscape:power="50"
       inkscape:feed="50"
       inkscape:engrave="0" />
    <path
       d="M 7.6142501,4.7407872 V 25.430787 H 10.61425 v 27.724 H 7.6142501 v 27.724 H 10.61425 V 108.60279 H 7.6142501 v 27.724 H 10.61425 v 27.724 H 7.6142501 v 20.69 H 46.02825 v -3 h 27.724 v 3 h 27.724 v -3 h 27.724 v 3 h 27.724 10.69 v -20.69 h -3 v -27.724 h 3 v -27.724 h -3 V 80.878787 h 3 v -27.724 h -3 v -27.724 h 3 V 4.7407872 Z"
       id="back_outsideCutPath"
       stroke="#0000FF"
       stroke-width="0.1"
       style="font-size:12px;fill:none;fill-rule:evenodd;stroke:#0000ff;stroke-width:0.1;stroke-linecap:round"
       vector-effect="non-scaling-stroke"
       inkscape:power="50"
       inkscape:feed="50"
       inkscape:engrave="0" />
    <path
       d="M 173.61425,4.7407872 V 25.430787 h -3 v 27.724 h 3 v 27.724 h -3 v 27.724003 h 3 v 27.724 h -3 v 27.724 h 3 v 20.69 h 35.414 v -3 h 27.724 v 3 h 27.724 v -3 h 27.724 v 3 h 27.724 7.69 v -20.69 h 3 v -27.724 h -3 v -27.724 h 3 V 80.878787 h -3 v -27.724 h 3 v -27.724 h -3 V 4.7407872 Z"
       id="right_outsideCutPath"
       stroke="#0000FF"
       stroke-width="0.1"
       style="font-size:12px;fill:none;fill-rule:evenodd;stroke:#0000ff;stroke-width:0.1;stroke-linecap:round"
       vector-effect="non-scaling-stroke"
       inkscape:power="50"
       inkscape:feed="50"
       inkscape:engrave="0" />
    <path
       d="M 332.91009,7.0115511 V 42.425531 h -3 v 27.723985 h 3 v 27.723982 h -3 v 27.724012 h 3 v 27.724 7.69 h 35.414 v 3 h 27.724 v -3 h 27.724 v 3 h 27.724 v -3 h 27.724 7.69 v -35.414 h 3 V 97.873498 h -3 V 70.149516 h 3 V 42.425531 h -3 V 14.701546 7.0115511 h -35.414 V 4.011551 h -27.724 v 3.0000001 h -27.724 V 4.011551 h -27.724 v 3.0000001 h -27.724 z"
       id="bottom_outsideCutPath"
       stroke="#0000FF"
       stroke-width="0.1"
       style="font-size:12px;fill:none;fill-rule:evenodd;stroke:#0000ff;stroke-width:0.1;stroke-linecap:round"
       vector-effect="non-scaling-stroke"
       inkscape:power="50"
       inkscape:feed="50"
       inkscape:engrave="0" />
  </g>
  <g
     inkscape:groupmode="layer"
     id="layer2"
     inkscape:power="20"
     inkscape:feed="40"
     inkscape:engrave="2"
     inkscape:label="CONTORNO" />
  <g
     inkscape:groupmode="layer"
     id="layer3"
     inkscape:power="15"
     inkscape:feed="100"
     inkscape:engrave="1"
     inkscape:label="PREENCHIMENTO"
     inkscape:highlight-color="#818181" />
</svg>
