<?xml version="1.0" encoding="UTF-8" standalone="no"?>
<svg baseProfile='full' viewBox="0 0 1726.38 2165.35" id="templatemaker-counterdisplay" xmlns="http://www.w3.org/2000/svg" width="43.85cm" height="55.0cm">
<title>Counter Display</title>
<defs>
	<style type='text/css'>
		text{  font-family: -apple-system, BlinkMacSystemFont, "Segoe UI", Roboto, Helvetica, Arial, sans-serif, "Segoe UI Symbol"; }
	</style>
</defs>
<g class="page" id="page" >
	<g class="pagetext" font-size="13.89">
<svg width="98.4251968503937" height="98.4251968503937" x="0" y="0"  xmlns="http://www.w3.org/2000/svg" xml:space="preserve" viewBox="-20 -20 280 280"><path fill="#5F459F" d="m167.3 42.2-40.6-23.5c-7.6-4.4-16.8-4.4-24.4 0L56.9 44.9c36.8 2.7 73.6.2 110.4-2.7z"/>
    <path fill="#7D3F8E" stroke="#7D3F8E" stroke-width="0.1"
          d="M167.3 42.2c-36.8 2.9-73.6 5.4-110.3 2.6l-14.8 8.6C34.6 57.8 30 65.8 30 74.6v14.8c50-3 100.1-20.4 150.2-39.7l-12.9-7.5z"/>
    <path fill="#9E2E66" stroke="#9E2E66" stroke-width="0.1"
          d="M87.5 113.3c32.9-16.1 65.6-37.4 98.4-60.4l-5.6-3.2C130.1 69 80 86.3 29.9 89.3v46.2c.8-.1 1.6-.2 2.3-.4 18.4-5.4 36.9-12.7 55.3-21.8z"/>
    <path fill="#BE3233" stroke="#BE3233" stroke-width="0.1"
          d="M158.3 87.8c10.3-10.6 20.6-21.5 30.8-32.8-.8-.6-1.6-1.1-2.5-1.7l-.8-.4c-32.8 22.9-65.6 44.3-98.3 60.4-18.5 9.1-36.9 16.4-55.2 21.7-.8.2-1.5.3-2.3.4v8.4c0 3 .6 5.9 1.6 8.7 1.1 2.2 2.3 4.3 3.6 6.4 1.9 2.4 4.2 4.4 7 6l16.6 9.6c33.2-22.3 66.3-52.5 99.5-86.7z"/>
    <path fill="#D73733" stroke="#D73733" stroke-width="0.1"
          d="M182.5 76.9c3.5-6 7-12.2 10.4-18.3-1.1-1.4-2.4-2.6-3.8-3.6-10.3 11.3-20.5 22.2-30.8 32.8-33.1 34.2-66.4 64.4-99.6 86.8l43.5 25.1c.3.2.5.3.8.4.3-.4.5-.8.8-1.1 26.3-36.1 52.5-77.4 78.7-122.1z"/>
    <path fill="#EB4730" stroke="#EB4730" stroke-width="0.1"
          d="M195.7 62.6c-.8-1.4-1.7-2.7-2.8-3.9-3.5 6.2-6.9 12.2-10.4 18.3-26.2 44.6-52.4 85.9-78.7 122.1-.3.4-.5.8-.8 1.1 7.4 3.9 16.3 3.8 23.6-.5l33.6-19.3c3-9.7 6.1-19.4 9.1-29.3 8.8-28.8 17.7-58.3 26.4-88.5z"/>
    <path fill="#F3762D" stroke="#F3762D" stroke-width="0.1"
          d="M198.8 74.6c0-4.3-1.1-8.4-3.1-11.9-8.8 30.2-17.6 59.8-26.5 88.4-3.1 9.9-6.1 19.6-9.1 29.3l26.5-15.3c7.6-4.4 12.2-12.4 12.2-21.1V74.6z"/>
    <path fill="#FFF"
          d="M48.2 79.7c0-11.6 9.2-20.9 20.8-20.9 11.6 0 20.8 9.3 20.8 20.9 0 4.8 0 6.6 3.7 8.6l12.5 6.8v.3c-2.9 1.9-4.5 4.6-5.6 8.5h-.3c-.7-.4-1.4-.9-2.4-1.4l-10-5.3c-1.2-.6-1.9-.8-2.9-.8-4.3 0-6.2 4.3-15.9 4.3-11.6-.3-20.7-9.5-20.7-21zm0 59.1c0-11.6 9.2-20.8 20.8-20.8 9.6 0 11.6 4.4 15.9 4.4.9 0 1.7-.2 2.9-.8l9.2-4.9c3.8-1.9 4.8-3.3 5.5-5.9l1-3.8c1.6-5.6 4.2-8.5 10.2-10.7L158.1 80c11.8-4.2 20.1-3.2 22.5 3.9l-87.8 46.7c-3.2 1.8-3.2 3.7-3.2 8.2 0 11.6-9.2 20.9-20.8 20.9-11.5.1-20.6-9.3-20.6-20.9zm33.6-59.1c0-7.3-5.8-13-13-13-7.1 0-12.8 5.7-12.8 13 0 7.1 5.8 13 12.8 13 7.3-.1 13-5.9 13-13zm0 59.1c0-7.1-5.8-13-13-13-7.1 0-12.8 5.8-12.8 13 0 7.3 5.8 13 12.8 13 7.3 0 13-5.8 13-13zm37-32.2c0-2.3-1.9-4.1-4.2-4.1s-4.1 1.8-4.1 4.1c0 2.2 1.9 4.1 4.1 4.1 2.3 0 4.2-1.9 4.2-4.1zm-1.8 16.2v-.5l20.1-10.6 43.6 22.9c-2.4 7.3-10.6 8.5-22.5 4L117 122.8zm0 0"/>
    <path d="M20.6 217.7v-7h-1.9V208h1.9v-3.3h3.8v3.3h2.5v2.8h-2.5v6.6c0 1.3.6 1.7 1.6 1.7.3 0 .6-.1.8-.1v2.7c-.5.1-1 .1-1.8.1-3 0-4.4-1.1-4.4-4.1zm7.5-3c0-4.3 2.6-7 6.5-7 4 0 6.4 2.7 6.4 6.8v1.1h-9.4c.1 2.2 1.2 3.4 3.1 3.4 1.5 0 2.5-.8 2.7-1.6v-.1h3.4l-.1.2c-.4 2-2.2 4.3-6.1 4.3-4 0-6.5-2.7-6.5-7.1zm3.7-1.4h5.8c-.2-1.9-1.3-2.9-2.8-2.9-1.6.1-2.8 1-3 2.9zM43 208h3.7v2.2h.1c.5-1.6 1.9-2.5 3.8-2.5s3.3 1 3.8 2.8h.1c.6-1.7 2.2-2.8 4.2-2.8 2.6 0 4.4 1.8 4.4 4.6v9.2h-3.7v-8.3c0-1.6-.8-2.4-2.2-2.4-1.4 0-2.3 1.1-2.3 2.6v8.2h-3.5v-8.5c0-1.4-.8-2.3-2.2-2.3-1.4 0-2.3 1.1-2.3 2.6v8.2h-3.7V208H43zm22.3 0H69v2.4c.8-1.7 2.2-2.6 4.1-2.6 3.4 0 5.6 2.6 5.6 7.1 0 4.4-2.1 7-5.5 7-1.9 0-3.4-1-4.2-2.6h-.1v6.8h-3.7V208zm9.7 6.7c0-2.5-1.2-4-3-4s-3 1.6-3 4c0 2.5 1.2 4 3 4s3-1.5 3-4zm5.7 6.8h3.7v-18.2h-3.7v18.2zm5.7-3.8c0-2.5 1.9-3.9 5.2-4.1l3.4-.2v-.8c0-1.2-.8-1.9-2.2-1.9-1.4 0-2.2.7-2.4 1.5v.2H87v-.4c.2-2.5 2.3-4.3 5.9-4.3 3.5 0 5.8 1.8 5.8 4.5v9.3H95v-2.1c-.8 1.4-2.2 2.2-4 2.2-2.8.1-4ееееееееееееееееееееееееееееееееееееееееееееееееееееееееееееееееееееееееееееееееееееееееееееееееееееееееееееееееееееееееееееееееееееееееееееееееееееееееееееееееееееееееееееееееееееееееееееееееееееееееееееееееееееееееееееееееееееееееееееееееееееееееееееееееееееееееееееееееееееееееееееееееееееееееееееееееееееееееееееееееееееееееееееееееееееееееееееееееееееееееееееееееееееееееееееееееееееееееееееееееееееееееееееееееееееееееееееееееееееееееееееееееееееееееееееееееееееееееееееееееееееееееееееееееееееееееееееееееееееееееееееееееееееееееееееееееееееееееееееееееееееееееееееееееееееееееееееееееееееееееееееееееееееееееееееееееееееееееееееееееееееееееееееееееееееееееееееееееееееееееееееееееееееееееееееееееееееееееееееееееееееееееееееееееееееееееееееееееееееееееееееееееееееееееееееееееееееееееееееееееееееееееееееееееееееееееееееееееееееееееееееееееееееееееееееееееееееееееееееееееееееееееееееееееееееееееееееееееееееееееееееееееееееееееееееееееееееееееееееееееееееееееееееееееееееееееееееееееееееееееееееееееееееееееееееееееееееееееееееееееееееееееееееееееееееееееееееееееееееееееееееееееееееееееееееееееееееееееееееееееееееееееееееееееееееееееееееееееееееееееееееееееееееееееееееееееееееееееееееееееееееееееееееееееееееееееееееееееееееееееееееееееееееееееееееееееееееееееееееееееееееееееееееееееееееееееееееееееееееееееееееееееееееееееееееееееееееееееееееееееееееееееееееееееееееееееееееееееееееееееееееееееееееееееееееееееееееееееееееееееееееееееееееееееееееееееееееееееееееееееееееееееееееееееееееееееееееееееееееееееееееееееееееееееееееееееееееееееееееееееееееееееееееееееееееееееееееееееееееееееееееееееееееееееееееееееееееееееееееееееееееееееееееееееееееееееееееееееееееееееееееееееееееееееееееееееееееееееееееееееееееееееееееееееееееееееееееееееееееееееееееееееееееееееееееееееееееееееееееееееееееееееееееееееееееееееееееееееееееееееееееееееееееееееееееееееееееееееееееееееееееееееееееееееееееееееееееееееееееееееееееееееееееееееееееееееееееееееееееееееееееееееееееееееееееееееееееееееееееееееееееееееееееееееееееееееееееееееееееееееееееееееееееееееееееееееееееееееееееееееееееееееееееееееееееееееееееееееееееееееееееееееееееееееееееееееееееееееееееееееееееееееееееееееееееееееееееееееееееееееееееееееееееееееееееееееееееееееееееееееееееееееееееееееееееееееееееееееееееееееееееееееееееееееееееееееееееееееееееееееееееееееееееееееееееееееееееееееееееееееееееееееееееееееееееееееееееееееееееееееееееееееееееееееееееееееееееееееееееееееееееееееееееееееееееееееееееееееееееееееееееееееееееееееееееееееееееееееееееееееееееееееееееееееееееееееееееееееееееееееееееееееееееееееееееееееееееееееееееееееееееееееееееееееееееееееееееееееееееееееееееееееееееееееееееееееееееееееееееееееееееееееееееееееееееееееееееееееееееееееееееееееееееееееееееееееееееееееееееееееееееееееееееееееееееееееееееееееееееееееееееееееееееееееееееееееееееееееееееееееееееееееееееееееееееееееееееееееееееееееееееееееееееееееееееееееееееееееееееееееееееееееееееееееееееееееееееееееееееееееееееееееееееееееееееееееееееееееееееееееееееееееееееееееееееееееееееееееееееееееееееееееееееееееееееееееееееееееееееееееееееееееееееееееееееееееееееееееееееееееееееееееееееееееееееееееееееееееееееееееееееееееееееееееееееееееееееееееееееееееееееееееееееееееееееееееееееееееееееееееееееееееееееееееееееееееееееееееееееееееееееееееееееееееееееееееееееееееееееееееееееееееееееееееееееееееееееееееееееееееееееееееееееееееееееееееееееееееееееееееееееееееееееееееееееееееееееееееееееееееееееееееееееееееееееееееееееееееееееееееееееееееееееееееееееееееееееееееееееееееееееееееееееееееееееееееееееееееееееееееееееееееееееееееееееееееееееееееееееееееееееееееееееееееееееееееееееееееееееееееееееееееееееееееееееееееееееееееееееееееееееееееееееееееееееееееееееееееееееееееееееееееееееееееееееееееееееееееееееееееееееееееееееееееееееееееееееееееееееееееееееееееееееееееееееееееееееееееееееееееееееееееееееееееееееееееееееееееееееееееееееееееееееееееееееееееееееееееееееееееееееееееееееееееееееееееееееееееееееееееееееееееееееееееееееееееееееееееееееееееееееееееееееееееееееееееееееееееееееееееееееееееееееееееееееееееееееееееееееееееееееееееееееееее2 5.6.9.7 1.9 1.5 2.7 2.4zm8.7 46c0 10.1-5.9 19.4-15.2 23.5-4.8 2.2-10.8 3.3-18.1 3.3-12.8 0-21.7-2.6-26.6-7.7-4.9-5.1-7.7-11.6-8.4-19.5h22.1c.3 1.6 1.5 5.1 2.9 7.1 2.4 3.2 5.8 4.8 10.3 4.7 3.3 0 5.9-.8 7.7-2.4 1.7-1.3 2.7-3.4 2.7-5.5s-.9-4.2-2.6-5.6c-1.7-1.6-5.7-3.1-11.9-4.5-10.2-2.4-17.5-5.5-21.8-9.5-4.3-3.9-6.5-9-6.6-15.1 0-3 .6-6 1.9-8.7l57.8-1.9c1.8 3.4 2.9 7.2 3.3 11.1h-21.9c-.6-3.5-1.8-4.7-3.7-6.3-1.9-1.6-4.4-2.4-7.7-2.4-2.7 0-4.7.6-6.1 1.8-1.3 1.1-2.1 2.7-2.1 4.3 0 1.3.7 2.5 1.7 3.4 1.1 1 3.7 2 7.8 2.9 10.2 2.3 17.4 4.6 21.8 6.9 4.4 2.3 7.6 5.2 9.6 8.6 2.1 3.4 3.2 7.4 3.1 11.5zm0 0"/><path d="M45.9 29.9h5.2V29c0-1.2-.2-2-.6-2.5-.4-.4-1-.6-2-.6s-1.7.2-2 .7c-.4.4-.5 1.2-.5 2.4v.9zm0 1.6v1.2c0 1.5.2 2.5.5 2.9.3.4 1 .6 2 .6 1.1 0 1.8-.2 2.2-.5.4-.3.6-.9.6-1.7v-.4h1.6v.4c0 1.4-.3 2.3-1 3-.7.6-1.8.9-3.3.9-1.6 0-2.7-.4-3.4-1.2-.6-.8-1-2.1-1-4.1v-3.1c0-1.9.3-3.3 1-4.1.6-.8 1.8-1.2 3.4-1.2 1.6 0 2.7.4 3.3 1.1.6.8.9 2.1.9 4.1v1.9h-6.8zm7.9 6.2 3.8-6.8-3.5-6.3H56l2.6 4.8 2.6-4.8H63l-3.5 6.1 3.9 6.9h-1.9l-3-5.3-3 5.3h-1.7zm19.4-4.8v.5c0 1.6-.3 2.7-1 3.5-.6.7-1.7 1.1-3.1 1.1-1.6 0-2.7-.4-3.4-1.1-.6-.8-1-2.1-1-4.1v-3.1c0-1.9.3-3.3 1-4.1.6-.8 1.8-1.2 3.4-1.2 1.4 0 2.3.3 2.9.9.6.6.9 1.6.9 3v.7h-1.7v-.2c0-1-.2-1.6-.5-2-.3-.4-.9-.6-1.8-.6s-1.6.2-1.9.6c-.3.4-.5 1.4-.5 2.9v3.1c0 1.5.2 2.5.5 2.9.3.4 1 .7 1.9.7.9 0 1.6-.2 1.9-.6.4-.4.5-1.2.5-2.3V33h1.9zm2.2-14.2h1.7v19.1h-1.7zm6.2 5.9v8.3c0 1.3.2 2.2.5 2.7s.9.8 1.7.8c1 0 1.7-.3 2.1-1 .4-.7.6-1.8.6-3.5v-7.3h1.7v13.1h-1.6v-1.5c-.3.6-.8 1-1.3 1.3-.5.3-1.2.4-1.9.4-1.2 0-2.1-.3-2.6-1S80 35 80 33.4v-8.8h1.6zm17.2 8.6V35c0 1-.3 1.8-.9 2.3-.6.5-1.4.7-2.6.7h-1.5c-1.2 0-2-.2-2.5-.7-.5-.4-.7-1.2-.7-2.4v-1.3h1.7v.8c0 .9.1 1.4.4 1.7.2.3.7.4 1.4.4h1.2c.7 0 1.2-.1 1.4-.4.3-.3.4-.7.4-1.3v-1.2c0-.9-.8-1.5-2.3-1.8-.3 0-.5-.1-.6-.1-1.5-.3-2.5-.6-2.8-.9-.4-.3-.5-.9-.5-1.6v-1.8c0-1 .3-1.8.9-2.3.6-.5 1.4-.7 2.6-.7h1.2c1.2 0 2.1.2 2.5.7.5.4.7 1.2.7 2.4v.5H97v-.4c0-.6-.1-1.1-.4-1.3-.3-.3-.7-.4-1.3-.4h-.9c-.7 0-1.2.1-1.4.4-.3.2-.4.7-.4 1.3v1.3c0 .7.9 1.2 2.6 1.4.5.1.8.1 1.1.2.9.1 1.5.4 1.9.9.5.3.6.9.6 1.8zm2.5 4.5V24.6h1.7v13.1h-1.7zm0-16.5V19h1.7v2.2h-1.7zm6.9 16.5-3.4-13.1h1.8l2.8 11.5 2.9-11.5h1.7l-3.4 13.1h-2.4zm9.2-7.8h5.2V29c0-1.2-.2-2-.6-2.5-.4-.4-1-.6-2-.6s-1.7.2-2 .7c-.4.4-.5 1.2-.5 2.4v.9zm0 1.6v1.2c0 1.5.2 2.5.5 2.9.3.4 1 .6 2 .6 1.1 0 1.8-.2 2.2-.5.4-.3.6-.9.6-1.7v-.4h1.6v.4c0 1.4-.3 2.3-1 3-.7.6-1.8.9-3.3.9-1.6 0-2.7-.4-3.4-1.2-.6-.8-1-2.1-1-4.1v-3.1c0-1.9.3-3.3 1-4.1.6-.8 1.8-1.2 3.4-1.2 1.6 0 2.7.4 3.3 1.1.6.8.9 2.1.9 4.1v1.9h-6.8zm9.3-12.8h1.7v19.1h-1.7zm6.9 19-3.4-13.1h1.8l2.8 11.5 2.9-11.5h1.7L136 37.7c-.5 1.9-1 3.2-1.5 3.8-.5.7-1.2 1-2.1 1h-.6c-.2 0-.4 0-.6-.1v-1.6h.6c.6 0 1.1-.2 1.4-.5.4-.3.6-.9.8-1.7l.2-1h-.6zm21.8-4.5V35c0 1-.3 1.8-.9 2.3-.6.5-1.4.7-2.6.7h-1.5c-1.2 0-2.1-.2-2.5-.7-.5-.4-.7-1.2-.7-2.4v-1.3h1.7v.8c0 .9.1 1.4.4 1.7.2.3.7.4 1.3.4h1.2c.7 0 1.2-.1 1.5-.4.3-.3.4-.7.4-1.3v-1.2c0-.9-.8-1.5-2.3-1.8-.3 0-.5-.1-.6-.1-1.5-.3-2.5-.6-2.8-.9-.4-.3-.5-.9-.5-1.6v-1.8c0-1 .3-1.8.9-2.3.6-.5 1.4-.7 2.6-.7h1.2c1.2 0 2 .2 2.5.7.5.4.7 1.2.7 2.4v.5h-1.7v-.4c0-.6-.1-1.1-.4-1.3-.2-.3-.7-.4-1.3-.4h-1c-.7 0-1.2.1-1.4.4-.3.2-.4.7-.4 1.3v1.3c0 .7.9 1.2 2.6 1.4.5.1.8.1 1.1.2.9.1 1.5.4 1.9.9.4.3.6.9.6 1.8zm4.3-3.1v2.1c0 1.6.2 2.7.6 3.3.4.6 1.1.9 2.1.9.8 0 1.4-.3 1.7-.9s.5-1.6.5-3.2v-2.2c0-1.5-.2-2.6-.5-3.2-.3-.6-.9-.9-1.7-.9-1 0-1.7.3-2.1.9-.4.6-.6 1.6-.6 3.2zm6.7 2.3c0 2-.3 3.4-.8 4.3-.6.8-1.5 1.3-2.7 1.3-.7 0-1.3-.1-1.8-.4-.5-.3-1-.7-1.3-1.2v6.3H158V24.6h1.6v1.6c.4-.6.9-1.1 1.4-1.4.5-.3 1.2-.4 1.9-.4 1.3 0 2.2.4 2.7 1.3s.8 2.4.8 4.6v2.1zm4.2-2.8v3.1c0 1.5.2 2.5.5 2.9.3.4 1 .7 2 .7s1.7-.2 2-.7c.4-.4.5-1.4.5-2.9v-3.1c0-1.5-.2-2.5-.5-2.9-.3-.4-1-.7-2-.7s-1.7.2-2 .7c-.4.5-.5 1.4-.5 2.9zm6.8 3.1c0 2-.3 3.3-1 4.1-.6.8-1.8 1.1-3.4 1.1-1.6 0-2.7-.4-3.4-1.2-.6-.8-1-2.1-1-4.1v-3.1c0-1.9.3-3.3 1-4.1.6-.8 1.8-1.2 3.4-1.2 1.6 0 2.7.4 3.3 1.1.6.8.9 2.1.9 4.1v3.3zm9.2 5v-8.3c0-1.3-.2-2.2-.5-2.7s-.9-.8-1.6-.8c-1 0-1.7.3-2.1 1-.4.7-.6 1.8-.6 3.5v7.3h-1.7V24.6h1.6v1.5c.3-.6.8-1 1.3-1.3.5-.3 1.2-.4 1.9-.4 1.2 0 2.1.4 2.6 1.1.5.7.8 1.9.8 3.5v8.8h-1.7zm12.3-4.5V35c0 1-.3 1.8-.9 2.3-.6.5-1.4.7-2.6.7H194c-1.2 0-2-.2-2.5-.7-.5-.4-.7-1.2-.7-2.4v-1.3h1.7v.8c0 .9.1 1.4.4 1.7.2.3.7.4 1.4.4h1.2c.7 0 1.2-.1 1.4-.4.3-.3.4-.7.4-1.3v-1.2c0-.9-.8-1.5-2.3-1.8-.3 0-.5-.1-.6-.1-1.5-.3-2.5-.6-2.8-.9-.4-.3-.5-.9-.5-1.6v-1.8c0-1 .3-1.8.9-2.3.6-.5 1.4-.7 2.6-.7h1.2c1.2 0 2 .2 2.5.7.5.4.7 1.2.7 2.4v.5h-1.7v-.4c0-.6-.1-1.1-.4-1.3-.3-.3-.7-.4-1.3-.4h-.9c-.7 0-1.2.1-1.4.4-.3.2-.4.7-.4 1.3v1.3c0 .7.9 1.2 2.6 1.4.5.1.8.1 1.1.2.9.1 1.5.4 1.9.9.2.3.4.9.4 1.8zm4.1-3.6v3.1c0 1.5.2 2.5.5 2.9.3.4 1 .7 2 .7s1.7-.2 2-.7c.4-.4.5-1.4.5-2.9v-3.1c0-1.5-.2-2.5-.5-2.9-.3-.4-1-.7-2-.7s-1.7.2-2 .7c-.3.5-.5 1.4-.5 2.9zm6.9 3.1c0 2-.3 3.3-1 4.1-.6.8-1.8 1.1-3.4 1.1-1.6 0-2.7-.4-3.4-1.2-.6-.8-1-2.1-1-4.1v-3.1c0-1.9.3-3.3 1-4.1.6-.8 1.8-1.2 3.4-1.2 1.6 0 2.7.4 3.3 1.1.6.8.9 2.1.9 4.1v3.3zm4.3 5h-1.7V24.6h1.6v1.7c.3-.7.7-1.2 1.2-1.5.5-.3 1.1-.5 1.9-.5 1 0 1.6.3 2.1.8.4.6.6 1.5.6 2.7v1h-1.6v-.6c0-.9-.1-1.6-.4-1.9-.3-.4-.7-.6-1.3-.6-.9 0-1.5.3-1.9.8-.4.5-.6 1.5-.6 2.8v8.4zm9.3-7.8h5.2V29c0-1.2-.2-2-.6-2.5-.4-.4-1-.6-2-.6s-1.7.2-2 .7c-.4.4-.5 1.2-.5 2.4v.9zm0 1.6v1.2c0 1.5.2 2.5.5 2.9.3.4 1 .6 2 .6 1.1 0 1.8-.2 2.2-.5.4-.3.6-.9.6-1.7v-.4h1.6v.4c0 1.4-.3 2.3-1 3-.7.6-1.8.9-3.3.9-1.6 0-2.7-.4-3.4-1.2-.6-.8-1-2.1-1-4.1v-3.1c0-1.9.3-3.3 1-4.1.6-.8 1.8-1.2 3.4-1.2 1.6 0 2.7.4 3.3 1.1.6.8.9 2.1.9 4.1v1.9h-6.8zm15.7-1.4c0-1.6-.2-2.7-.6-3.3-.4-.6-1.1-.9-2.1-.9-.8 0-1.4.3-1.7.9-.3.6-.5 1.6-.5 3.2v2.2c0 1.5.2 2.6.5 3.2.3.6.9.9 1.7.9 1 0 1.7-.3 2.1-.9.4-.6.6-1.7.6-3.3v-2zm1.7 7.6h-1.6v-1.5c-.4.6-.9 1.1-1.4 1.3-.5.3-1.2.4-1.9.4-1.3 0-2.2-.4-2.7-1.3s-.8-2.4-.8-4.6v-2c0-2 .3-3.4.8-4.3.6-.9 1.5-1.3 2.8-1.3.7 0 1.3.1 1.8.4.5.3 1 .7 1.3 1.2v-7.4h1.7v19.1zm9.5 0v-19h1.7V26c.4-.5.8-1 1.3-1.2.5-.3 1.1-.4 1.8-.4 1.3 0 2.2.4 2.7 1.3.6.9.8 2.3.8 4.3v2c0 2.2-.3 3.7-.8 4.6-.5.9-1.4 1.3-2.7 1.3-.7 0-1.3-.1-1.9-.4-.5-.3-1-.7-1.4-1.3v1.5h-1.5zm1.7-7.6v2.1c0 1.6.2 2.7.6 3.3.4.6 1.1.9 2.1.9.8 0 1.4-.3 1.7-.9s.5-1.6.5-3.2v-2.2c0-1.5-.2-2.6-.5-3.2-.3-.6-.9-.9-1.7-.9-1 0-1.7.3-2.1.9-.4.6-.6 1.6-.6 3.2zm11.6 7.6-3.4-13.1h1.8l2.8 11.5 2.9-11.5h1.7l-3.4 13.1c-.5 1.9-1 3.2-1.5 3.8-.5.7-1.2 1-2.1 1h-.6c-.2 0-.4 0-.6-.1v-1.6h.6c.6 0 1.1-.2 1.4-.5.4-.3.6-.9.8-1.7l.2-1h-.6zm9.7 0v-2.5h1.9v2.5h-1.9zm0-10.6v-2.5h1.9v2.5h-1.9zM42.9 58H48c.1.6.3 1 .5 1.2.3.2.8.3 1.5.3h.7c.8 0 1.3-.1 1.6-.3.3-.2.4-.6.4-1.2 0-.5-.1-.9-.4-1.1-.3-.2-.8-.4-1.7-.5l-3.2-.3c-1.3-.1-2.4-.6-3.2-1.3-.8-.7-1.2-1.6-1.2-2.7v-1.2c0-1.4.5-2.4 1.5-3.1 1-.7 2.4-1.1 4.3-1.1h3c1.8 0 3.1.3 4 1 .9.7 1.3 1.7 1.3 3v.3h-4.9c0-.4-.2-.8-.5-1-.3-.2-.8-.3-1.4-.3h-.6c-.7 0-1.2.1-1.4.3-.3.2-.4.6-.4 1.1 0 .4.1.8.3.9.2.2.6.3 1.1.4l3.5.3c1.6.1 2.8.5 3.6 1.1.8.6 1.2 1.5 1.2 2.6V58c0 1.4-.5 2.6-1.5 3.4-1 .8-2.3 1.2-4.1 1.2h-3.3c-2 0-3.5-.4-4.4-1.1-1-.7-1.5-1.8-1.5-3.3V58zm18-13.6v-3.9h5v3.9h-5zm0 18V46.9h5v15.5h-5zm13.6-8.9v2.4c0 1.2.1 2 .4 2.4.3.4.8.5 1.5.5h.6c.7 0 1.2-.2 1.5-.5.3-.4.4-1.1.4-2.3v-2.4c0-1.2-.1-2-.4-2.4-.3-.4-.8-.5-1.5-.5h-.6c-.7 0-1.2.2-1.5.5-.3.3-.4 1.1-.4 2.3zm9.1-6.6v14.5c0 1.6-.1 2.8-.3 3.5-.2.8-.6 1.4-1.1 1.9-.5.4-1.1.8-1.9 1.1-.8.3-1.7.4-2.6.4H76c-1.9 0-3.3-.3-4.3-1s-1.5-1.7-1.5-3v-.9h4.7c0 .5.1.8.3 1 .2.2.6.3 1.1.3h.7c.7 0 1.2-.2 1.4-.5.3-.4.4-1.1.4-2.1v-2.3c-.4.7-.9 1.3-1.6 1.6-.7.3-1.6.5-2.9.5-1.7 0-3-.5-3.8-1.4-.8-1-1.2-2.4-1.2-4.5v-3.1c0-2.2.4-3.8 1.2-4.8.8-1 2.1-1.5 3.9-1.5 1 0 1.8.2 2.5.5.7.4 1.2.9 1.5 1.6v-1.9h5.2zm4.2 15.5V46.9h4.8l-.1 2.2c.4-.9 1-1.5 1.7-1.8.7-.4 1.6-.6 2.7-.6 1.8 0 3.1.4 3.8 1.2.7.8 1.1 2.3 1.1 4.4v10.1h-4.9v-9c0-1.1-.1-1.9-.4-2.2-.3-.3-.9-.5-1.8-.5-.8 0-1.3.2-1.6.6-.3.4-.4 1.2-.4 2.4v8.7h-4.9zm31.6-6.1v.8c0 2-.5 3.4-1.4 4.3-.9.9-2.5 1.3-4.8 1.3h-2.1c-2.3 0-3.9-.5-4.8-1.4-.9-.9-1.4-2.6-1.4-4.9v-3.2c0-2.3.5-4 1.4-4.9.9-.9 2.5-1.4 4.8-1.4h2.1c2.2 0 3.8.4 4.7 1.3.9.9 1.4 2.3 1.4 4.3v.4h-4.9v-.1c0-.8-.1-1.3-.4-1.6-.3-.3-.8-.5-1.5-.5h-.5c-.7 0-1.2.2-1.5.5-.2.3-.4 1.2-.4 2.5v2.5c0 1.3.1 2.2.4 2.5.3.3.8.5 1.5.5h.7c.7 0 1.2-.2 1.5-.5.3-.3.4-.9.4-1.8v-.4h4.8zm17.5-9.4v15.5h-4.8l.1-2.2c-.4.9-1 1.5-1.7 1.9-.7.4-1.6.6-2.7.6-1.9 0-3.2-.4-3.9-1.2-.7-.8-1.1-2.3-1.1-4.4V46.9h4.9v9c0 1.1.1 1.9.4 2.2.3.3.9.5 1.8.5.8 0 1.3-.2 1.6-.5.3-.4.4-1.2.4-2.4V47h5zm9.1 15.7c-.9 0-1.7-.1-2.4-.4-.7-.3-1.2-.6-1.6-1.2-.3-.4-.5-.8-.6-1.3-.1-.5-.2-1.2-.2-2.2v-7.1h-1.8v-3.6h1.8v-3h4.9v3h6.6v3.6h-6.6v6.3c0 .9.1 1.5.3 1.8.2.3.6.4 1.3.4.6 0 1-.1 1.2-.3.2-.2.3-.7.3-1.3V56h4.1v1.8c0 1.6-.4 2.9-1.2 3.6-.8.8-2 1.2-3.6 1.2H146zm17.3-3.9h.6c.7 0 1.2-.2 1.4-.5.3-.4.4-1.1.4-2.3v-2.4c0-1.2-.1-2-.4-2.4-.3-.4-.7-.5-1.4-.5h-.6c-.7 0-1.2.2-1.4.5-.3.4-.4 1.1-.4 2.4v2.4c0 1.2.1 2 .4 2.3.2.3.7.5 1.4.5zm-6.7 9.6V46.9h4.8l-.1 2.2c.4-.8 1-1.4 1.7-1.8.7-.4 1.6-.6 2.6-.6 1.8 0 3.1.5 3.9 1.5.8 1 1.2 2.6 1.2 4.8v3.2c0 2.2-.4 3.8-1.3 4.8-.8 1-2.1 1.5-3.9 1.5-1 0-1.8-.2-2.5-.5-.7-.4-1.2-.9-1.5-1.6v7.8h-4.9zm17.7-5.9V46.9h4.8l-.1 2.2c.4-.9.9-1.5 1.5-1.8.6-.4 1.4-.6 2.3-.6 1.6 0 2.6.4 3.3 1.2.6.8.9 2.3.9 4.4v1.4h-4.6v-1c0-.7-.1-1.3-.3-1.6-.2-.3-.6-.4-1.2-.4s-1 .2-1.2.5c-.2.3-.3 1.2-.3 2.5v8.7h-5.1zm19.5-9v2.5c0 1.3.1 2.2.4 2.5.3.3.8.5 1.5.5h.6c.7 0 1.2-.2 1.5-.5.2-.3.4-1.2.4-2.5v-2.5c0-1.4-.1-2.2-.4-2.5-.2-.3-.7-.5-1.5-.5h-.6c-.7 0-1.2.2-1.5.5-.3.4-.4 1.2-.4 2.5zm-5-.3c0-2.3.5-4 1.4-4.9.9-.9 2.5-1.4 4.8-1.4h2.1c2.3 0 3.9.5 4.8 1.4.9.9 1.4 2.6 1.4 4.9v3.2c0 2.4-.5 4-1.4 4.9-.9.9-2.5 1.4-4.8 1.4H195c-2.3 0-3.9-.5-4.8-1.4-.9-.9-1.4-2.6-1.4-4.9v-3.2zm18.6 4.1h4.8v5.2h-4.8zm23.4-.9v.8c0 2-.5 3.4-1.4 4.3-.9.9-2.5 1.3-4.8 1.3h-2.1c-2.3 0-3.9-.5-4.8-1.4-.9-.9-1.4-2.6-1.4-4.9v-3.2c0-2.3.5-4 1.4-4.9.9-.9 2.5-1.4 4.8-1.4h2.1c2.2 0 3.8.4 4.7 1.3.9.9 1.4 2.3 1.4 4.3v.4h-4.9v-.1c0-.8-.1-1.3-.4-1.6-.3-.3-.8-.5-1.5-.5h-.7c-.7 0-1.2.2-1.5.5-.2.3-.4 1.2-.4 2.5v2.5c0 1.3.1 2.2.4 2.5.3.3.8.5 1.5.5h.7c.7 0 1.2-.2 1.5-.5.3-.3.4-.9.4-1.8v-.4h5zm7.7-2.9v2.5c0 1.3.1 2.2.4 2.5.3.3.8.5 1.5.5h.6c.7 0 1.2-.2 1.5-.5.2-.3.4-1.2.4-2.5v-2.5c0-1.4-.1-2.2-.4-2.5-.2-.3-.7-.5-1.5-.5h-.6c-.7 0-1.2.2-1.5.5-.2.4-.4 1.2-.4 2.5zm-5-.3c0-2.3.5-4 1.4-4.9.9-.9 2.5-1.4 4.8-1.4h2.1c2.3 0 3.9.5 4.8 1.4.9.9 1.4 2.6 1.4 4.9v3.2c0 2.4-.5 4-1.4 4.9-.9.9-2.5 1.4-4.8 1.4h-2.1c-2.3 0-3.9-.5-4.8-1.4-.9-.9-1.4-2.6-1.4-4.9v-3.2zm17.9 9.3V46.9h4.7l-.1 2.2c.4-.8.9-1.5 1.5-1.8.7-.4 1.5-.6 2.6-.6 1.2 0 2.1.2 2.7.6.6.4 1.1 1 1.5 1.9.3-.9.8-1.5 1.5-1.9.7-.4 1.6-.6 2.7-.6 1.7 0 2.8.4 3.5 1.2.7.8 1 2.3 1 4.4v10.1h-4.9v-9c0-1.1-.1-1.9-.4-2.2-.2-.3-.7-.5-1.5-.5-.6 0-1.1.2-1.3.6-.2.4-.4 1.2-.4 2.4v8.7h-4.8v-9c0-1.1-.1-1.9-.4-2.2-.2-.3-.7-.5-1.5-.5-.6 0-1.1.2-1.3.6-.2.4-.4 1.2-.4 2.4v8.7h-4.7zm0 0"/></svg>	</g>
	<g id="page-cut" class="cut" fill='none' stroke='#d41a5a' stroke-width='2.78' stroke-color-name='Cut' >
		<path id="page-cut-outline" d="M 848.43 1318.54 L 612.2 1318.54 L 612.2 2066.57 L 848.43 2066.57 L 1391.73 1476.02 L 1627.95 1476.02 L 1627.95 1318.54 L 1391.73 1318.54 L 1551.18 1318.54 L 1551.18 846.1 L 1391.73 846.1 L 1627.95 846.1 L 1627.95 688.62 L 1391.73 688.62 L 848.43 98.07 L 612.2 98.07 L 612.2 846.1 L 848.43 846.1"/>
		<path id="page-cut-back" d="M 612.2 846.1 L 98.43 846.1 L 98.43 1318.54 L 612.2 1318.54"/>
	</g>
	<g id="page-fold" class="fold" fill='none' stroke='#00adee' stroke-width='1.04' stroke-color-name='Crease' >
		<path id="page-fold-outline-flap-1" d="M 848.43 1318.54 L 848.43 2066.57"/>
		<path id="page-fold-outline-flap-2" d="M 1391.73 1476.02 L 1391.73 1318.54"/>
		<path id="page-fold-outline-flap-3" d="M 1391.73 846.1 L 1391.73 688.62"/>
		<path id="page-fold-outline-flap-4" d="M 848.43 98.07 L 848.43 846.1"/>
		<path id="page-fold-base-rectangle-1" d="M 1120.08 1318.54 L 1393.7 1318.54 L 1393.7 846.1 L 846.46 846.1 L 846.46 1318.54 L 1120.08 1318.54"/>
	</g>
	<g id="page-pagetext" class="pagetext" fill='#000000' stroke='None' stroke-width='0.0' >
<text dominant-baseline="middle" text-anchor="start" font-family="sans-serif" font-size="15.7" text-decoration="none" transform="translate(98.43,48.86) rotate(0.0)">Counter Display 13.8Г—12Г—19 (cm)</text><text dominant-baseline="middle" text-anchor="start" font-family="sans-serif" font-size="15.7" text-decoration="none" transform="translate(98.43,2115.79) rotate(0.0)">templatemaker.nl В© Please, refer to the very permissive license!</text>	</g>
	<g id="page-labels" class="labels" fill='#97989a' stroke='None' stroke-width='0.0' >
	</g>
</g>
</svg>