<?xml version="1.0" encoding="UTF-8" standalone="no"?>
<!-- Created with Inkscape (http://www.inkscape.org/) -->

<svg
   width="297mm"
   height="210mm"
   viewBox="0 0 297 210"
   version="1.1"
   id="svg19"
   sodipodi:docname="Engrenagens.svg"
   inkscape:version="1.2-alpha1 (unknown)"
   xmlns:inkscape="http://www.inkscape.org/namespaces/inkscape"
   xmlns:sodipodi="http://sodipodi.sourceforge.net/DTD/sodipodi-0.dtd"
   xmlns="http://www.w3.org/2000/svg"
   xmlns:svg="http://www.w3.org/2000/svg">
  <sodipodi:namedview
     id="namedview21"
     pagecolor="#ffffff"
     bordercolor="#999999"
     borderopacity="1"
     inkscape:pageshadow="0"
     inkscape:pageopacity="0"
     inkscape:pagecheckerboard="0"
     inkscape:deskcolor="#d1d1d1"
     inkscape:document-units="mm"
     showgrid="false"
     inkscape:zoom="0.53842708"
     inkscape:cx="372.38097"
     inkscape:cy="314.80586"
     inkscape:window-width="1920"
     inkscape:window-height="1001"
     inkscape:window-x="-9"
     inkscape:window-y="-9"
     inkscape:window-maximized="1"
     inkscape:current-layer="layer1" />
  <defs
     id="defs16" />
  <g
     inkscape:label="CORTE"
     inkscape:groupmode="layer"
     id="layer1"
     inkscape:power="100"
     inkscape:feed="50"
     inkscape:engrave="0"
     inkscape:highlight-color="#e13535">
    <path
       style="fill:none;stroke:#000000;stroke-width:0.417331;stroke-opacity:1"
       d="m 33.180295,12.07117 c 0.282178,0.126508 2.545458,2.145822 5.029503,4.487363 l 4.516444,4.25734 3.090334,-1.524445 c 1.699675,-0.838455 4.248496,-1.89333 5.664043,-2.344169 l 2.573709,-0.819725 -0.04774,-6.611668 -0.04774,-6.6116663 12.833067,-0.1534002 12.833079,-0.1533932 0.006,6.5398573 0.006,6.5398514 4.05447,1.394856 c 2.22996,0.767174 4.85895,1.847778 5.84221,2.401344 l 1.78773,1.006479 4.60388,-4.716162 4.603876,-4.716162 9.10067,8.883996 9.10066,8.883997 -4.48252,4.756392 -4.48253,4.756384 1.30071,2.550891 c 0.7154,1.402993 1.84693,4.007696 2.51454,5.788243 l 1.21382,3.237345 6.60179,-0.03763 6.60179,-0.03763 0.15452,12.826181 0.15452,12.826181 -6.64068,0.08944 -6.64068,0.08943 -1.17291,3.513757 c -0.6451,1.932565 -1.68417,4.523728 -2.30904,5.75814 l -1.13613,2.244387 4.72356,4.611104 4.72357,4.611105 -9.03717,9.257567 -9.03716,9.25757 -4.723556,-4.61111 -4.72357,-4.6111 -2.19207,1.1751 c -1.20565,0.6463 -3.66583,1.72209 -5.46708,2.39064 -1.80125,0.66855 -3.38964,1.31685 -3.52978,1.44066 -0.14011,0.12383 -0.21516,3.13764 -0.16674,6.6974 l 0.088,6.47228 -12.822632,0.15449 -12.822624,0.15447 -0.118521,-6.60376 -0.118516,-6.60376 -3.170696,-1.06696 c -1.743886,-0.58685 -4.380782,-1.64948 -5.859774,-2.36142 l -2.689077,-1.29445 -4.63729,4.58586 -4.637298,4.58585 -9.100666,-8.88399 -9.100667,-8.883999 4.603885,-4.716167 4.603877,-4.71616 -1.049256,-1.76297 c -0.577097,-0.969633 -1.709743,-3.54222 -2.516991,-5.716856 l -1.467735,-3.953873 -6.414457,0.08723 c -3.52795,0.04798 -6.4886412,-0.05678 -6.5793252,-0.232783 -0.221341,-0.42969 -0.520782,-24.981363 -0.30733,-25.200021 0.09224,-0.09448 3.045086,-0.201998 6.5618832,-0.2389 l 6.394192,-0.06711 0.957171,-2.981583 c 0.526446,-1.639871 1.554163,-4.222979 2.283815,-5.740249 l 1.326651,-2.75866 -4.605227,-4.787191 -4.605226,-4.787191 8.746976,-9.118448 c 6.843728,-7.134892 8.85777,-9.068641 9.259459,-8.888419 z m 13.74765,39.93524 c -3.949396,7.20439 -3.793484,16.491673 0.393417,23.434858 1.645388,2.728564 5.784179,6.783939 8.466352,8.295752 5.918927,3.336159 12.916753,3.932906 19.327451,1.648164 7.484971,-2.667602 12.531671,-7.914977 14.724381,-15.309853 1.21218,-4.088016 1.35276,-7.501775 0.47745,-11.593666 -2.31901,-10.84091 -11.47018,-18.326243 -22.638133,-18.517191 -8.736716,-0.149377 -16.554845,4.387557 -20.750931,12.04195 z m -25.984539,67.68692 c 3.115138,-1.44976 5.785311,-2.5174 5.933707,-2.37254 0.148396,0.14487 0.910458,1.53013 1.693456,3.07838 l 1.423656,2.81498 3.395134,-0.13581 c 3.724384,-0.14897 3.70081,-0.13052 4.870543,-3.81196 0.366927,-1.15479 0.839406,-2.27609 1.049959,-2.49178 0.282817,-0.28972 8.944671,2.47098 12.893585,4.10941 0.161161,0.0669 -0.250141,1.6337 -0.914062,3.4818 l -1.207143,3.3602 2.607204,2.35944 2.607202,2.35945 3.173488,-1.52789 c 1.745415,-0.84034 3.206878,-1.49529 3.247698,-1.45544 0.127906,0.12486 4.59044,9.62734 5.246343,11.17154 l 0.624373,1.46996 -3.105407,1.42375 c -1.707979,0.78307 -3.139358,1.45852 -3.180844,1.50102 -0.04149,0.0425 0.04122,1.65338 0.183788,3.57975 l 0.259204,3.50249 3.187198,1.12593 c 1.752969,0.61926 3.188268,1.2142 3.189571,1.32207 0.0052,0.43423 -4.352503,12.4372 -4.611821,12.70284 -0.153483,0.15723 -1.714124,-0.25315 -3.468109,-0.91193 l -3.189059,-1.19779 -2.043669,2.42641 c -1.124021,1.33452 -2.142543,2.61358 -2.263376,2.84236 -0.120834,0.22877 0.424697,1.75777 1.2123,3.39777 l 1.432002,2.98182 -5.904014,2.81165 c -3.2472,1.54639 -6.13239,2.81663 -6.411523,2.82274 -0.285703,0.006 -1.086539,-1.24331 -1.832341,-2.85905 -0.72865,-1.57859 -1.486373,-2.93988 -1.683824,-3.0251 -0.197415,-0.0853 -1.79901,-0.0695 -3.559024,0.035 l -3.200022,0.18994 -1.260838,3.19447 c -0.693467,1.75696 -1.378687,3.19589 -1.522714,3.19762 -0.144027,0.002 -3.054871,-1.00153 -6.468543,-2.22948 -4.676483,-1.6822 -6.173443,-2.3834 -6.071881,-2.84416 0.07413,-0.33632 0.577376,-1.81268 1.118321,-3.28079 l 0.983532,-2.66928 -2.553512,-2.50837 -2.55351,-2.50837 -3.163825,1.5772 c -1.7401052,0.86746 -3.2395122,1.50331 -3.3320212,1.413 -0.0925,-0.0903 -1.482426,-2.92301 -3.088725,-6.2949 l -2.920532,-6.13072 3.211508,-1.54148 3.211508,-1.54149 -0.189121,-3.51004 -0.189122,-3.51003 -3.209058,-1.15599 c -1.764989,-0.63579 -3.198421,-1.35431 -3.185416,-1.59671 0.03636,-0.67783 4.179673,-12.05229 4.512683,-12.3885 0.161766,-0.16285 1.739441,0.23258 3.506464,0.87923 l 3.2127542,1.17574 2.058917,-2.4449 c 1.132401,-1.34469 2.155949,-2.62784 2.274533,-2.85141 0.118605,-0.22357 -0.42185,-1.66364 -1.201001,-3.20015 -0.938875,-1.8515 -1.262149,-2.94244 -0.958567,-3.23481 0.251944,-0.24263 3.006826,-1.62733 6.121972,-3.07708 z m 1.432147,26.69075 c -0.767027,2.71936 -0.635057,5.22515 0.431233,8.18799 1.021238,2.83765 4.664053,6.36663 7.573645,7.33701 2.733413,0.91161 6.038608,0.89093 8.710711,-0.0545 3.060679,-1.08293 6.832619,-4.92197 7.726128,-7.8636 1.523482,-5.01561 0.378306,-9.75813 -3.199704,-13.25095 -2.81609,-2.74904 -5.61696,-3.78648 -9.608056,-3.55883 -3.978714,0.22695 -5.846986,1.14715 -8.695073,4.2827 -1.858812,2.04644 -2.369455,2.90131 -2.938898,4.92018 z m 68.629123,-27.11653 c 3.47484,-1.74016 6.39952,-3.17695 6.49928,-3.19286 0.0998,-0.0159 0.91289,1.39005 1.80692,3.12437 0.894044,1.73432 1.784364,3.22104 1.978504,3.30384 0.19414,0.0828 1.89881,-0.0133 3.78815,-0.21354 l 3.43517,-0.36406 1.14597,-3.46148 c 0.63029,-1.90381 1.26668,-3.46293 1.4142,-3.46471 0.14751,-0.002 3.34035,1.04261 7.09519,2.32085 l 6.82697,2.32408 -1.149,3.47062 c -1.28121,3.86993 -1.42002,3.50149 2.51651,6.67932 l 2.13848,1.72632 3.30191,-1.6778 c 1.89315,-0.96197 3.38525,-1.48523 3.49725,-1.22643 0.10744,0.24826 1.59353,3.1862 3.30243,6.52877 1.70889,3.34256 3.11485,6.13407 3.12434,6.20334 0.009,0.0693 -1.4688,0.8867 -3.2851,1.8165 l -3.30236,1.69056 0.18112,3.75292 0.18111,3.75294 3.43938,1.09359 c 1.89167,0.60148 3.50872,1.16128 3.59346,1.24401 0.19852,0.19379 -4.0064,13.38137 -4.39298,13.77737 -0.16056,0.16448 -1.86233,-0.19964 -3.78173,-0.80914 l -3.48982,-1.10817 -2.29089,2.61595 c -1.25998,1.43877 -2.28502,2.78149 -2.27785,2.98383 0.007,0.20232 0.69047,1.75746 1.51845,3.45586 0.82798,1.69839 1.38112,3.21532 1.22921,3.37094 -0.20975,0.21487 -8.75888,4.62732 -12.30574,6.35134 -0.34363,0.16702 -0.9749,-0.73762 -2.22295,-3.18559 l -1.74304,-3.41886 -1.11718,0.21658 c -0.61445,0.11913 -2.26802,0.27417 -3.67458,0.34453 l -2.55741,0.12794 -1.27678,3.61324 -1.27679,3.61323 -6.796994,-2.30921 c -3.73835,-1.27005 -6.8564,-2.36719 -6.92901,-2.43807 -0.0726,-0.0709 0.38332,-1.75174 1.01318,-3.73525 1.00413,-3.1622 1.04363,-3.66338 0.32061,-4.06908 -0.45352,-0.25447 -1.70543,-1.31899 -2.78203,-2.36557 l -1.95767,-1.90267 -3.35783,1.67942 c -1.8468,0.92368 -3.49606,1.54892 -3.66502,1.38941 -0.41505,-0.3912 -6.24251,-12.01423 -6.287235,-12.53904 -0.01947,-0.22856 1.268074,-1.07703 2.861223,-1.88549 1.593152,-0.80846 3.033262,-1.61865 3.200242,-1.80042 0.16697,-0.18178 0.19968,-1.95013 0.0727,-3.92968 l -0.2309,-3.59919 -3.57851,-1.13634 -3.578511,-1.13634 2.27739,-7.13129 2.277396,-7.13131 3.482445,1.23175 3.48245,1.23175 2.50021,-2.80821 2.50022,-2.80822 -1.52375,-3.2371 c -0.83806,-1.78041 -1.51581,-3.36058 -1.50611,-3.5115 0.01,-0.15092 2.86067,-1.69817 6.3355,-3.43832 z m 3.19536,26.84715 c -1.63092,4.55229 -1.04152,8.71282 1.79401,12.66376 3.0099,4.1939 8.016854,6.20377 13.317574,5.34588 3.12833,-0.5063 5.09905,-1.57799 7.58593,-4.12527 3.45226,-3.53611 4.51491,-8.44354 2.92587,-13.51203 -0.81024,-2.58441 -1.12069,-3.06762 -3.4226,-5.32715 -2.93064,-2.87666 -5.08339,-3.84891 -8.84431,-3.9943 -6.07539,-0.23486 -11.326754,3.28366 -13.356474,8.94911 z"
       id="path659"
       inkscape:power="50"
       inkscape:feed="50"
       inkscape:engrave="0" />
    <path
       style="fill:none;stroke:#000000;stroke-width:0.417331;stroke-opacity:1"
       d="m 178.89226,11.77113 c 0.28218,0.126508 2.54546,2.145822 5.0295,4.487363 l 4.51645,4.25734 3.09033,-1.524445 c 1.69967,-0.838455 4.2485,-1.89333 5.66404,-2.344169 l 2.57371,-0.819725 -0.0477,-6.6116681 -0.0477,-6.611666 12.83307,-0.153401 12.83308,-0.153393 0.006,6.539858 0.006,6.5398511 4.05447,1.394856 c 2.22996,0.767174 4.85895,1.847778 5.84221,2.401344 l 1.78773,1.006479 4.60388,-4.716162 4.60388,-4.716162 9.10067,8.883996 9.10066,8.883997 -4.48252,4.756392 -4.48253,4.756384 1.30071,2.550891 c 0.7154,1.402993 1.84693,4.007696 2.51454,5.788243 l 1.21382,3.237345 6.60179,-0.03763 6.60179,-0.03763 0.15452,12.826181 0.15452,12.82618 -6.64068,0.0894 -6.64068,0.0894 -1.17291,3.51376 c -0.6451,1.93256 -1.68417,4.52373 -2.30904,5.75814 l -1.13613,2.24438 4.72356,4.61111 4.72357,4.6111 -9.03717,9.257571 -9.03716,9.25757 -4.72356,-4.61111 -4.72357,-4.6111 -2.19207,1.1751 c -1.20565,0.6463 -3.66583,1.72209 -5.46708,2.39064 -1.80125,0.66855 -3.38964,1.31685 -3.52978,1.44066 -0.14011,0.12383 -0.21516,3.13764 -0.16674,6.6974 l 0.088,6.47228 -12.82263,0.15449 -12.82263,0.15447 -0.11852,-6.60376 -0.11852,-6.60376 -3.17069,-1.06696 c -1.74389,-0.58685 -4.38078,-1.64948 -5.85978,-2.36142 l -2.68907,-1.29445 -4.63729,4.58586 -4.6373,4.58585 -9.10067,-8.88399 -9.10066,-8.884001 4.60388,-4.71616 4.60388,-4.71616 -1.04926,-1.76297 c -0.57709,-0.96964 -1.70974,-3.54222 -2.51699,-5.71686 l -1.46773,-3.95387 -6.41446,0.0872 c -3.52795,0.048 -6.48864,-0.0568 -6.57933,-0.23279 -0.22134,-0.42969 -0.52078,-24.98136 -0.30733,-25.200018 0.0922,-0.09448 3.04509,-0.201998 6.56189,-0.2389 l 6.39419,-0.06711 0.95717,-2.981583 c 0.52645,-1.639871 1.55416,-4.222979 2.28382,-5.740249 l 1.32665,-2.75866 -4.60523,-4.787191 -4.60523,-4.787191 8.74698,-9.118448 c 6.84373,-7.134892 8.85777,-9.068641 9.25946,-8.888419 z m 13.74765,39.93524 c -3.9494,7.20439 -3.79349,16.491673 0.39342,23.434859 1.64538,2.72856 5.78417,6.78394 8.46635,8.29575 5.91892,3.33616 12.91675,3.93291 19.32745,1.64816 7.48497,-2.6676 12.53167,-7.91497 14.72438,-15.30985 1.21218,-4.088014 1.35276,-7.501773 0.47745,-11.593664 -2.31901,-10.84091 -11.47018,-18.326243 -22.63813,-18.517191 -8.73672,-0.149377 -16.55485,4.387557 -20.75093,12.04195 z m -25.98454,67.68692 c 3.11514,-1.44976 5.78531,-2.5174 5.93371,-2.37254 0.14839,0.14487 0.91045,1.53013 1.69345,3.07838 l 1.42366,2.81498 3.39513,-0.13581 c 3.72439,-0.14897 3.70081,-0.13052 4.87055,-3.81196 0.36692,-1.15479 0.8394,-2.27609 1.04995,-2.49178 0.28282,-0.28972 8.94468,2.47098 12.89359,4.10941 0.16116,0.0669 -0.25014,1.6337 -0.91406,3.4818 l -1.20715,3.3602 2.60721,2.35944 2.6072,2.35945 3.17349,-1.52789 c 1.74541,-0.84034 3.20688,-1.49529 3.2477,-1.45544 0.1279,0.12486 4.59044,9.62734 5.24634,11.17154 l 0.62437,1.46996 -3.1054,1.42375 c -1.70798,0.78307 -3.13936,1.45852 -3.18085,1.50102 -0.0415,0.0425 0.0412,1.65338 0.18379,3.57975 l 0.2592,3.50249 3.1872,1.12593 c 1.75297,0.61926 3.18827,1.2142 3.18957,1.32207 0.005,0.43423 -4.3525,12.4372 -4.61182,12.70284 -0.15348,0.15723 -1.71412,-0.25315 -3.46811,-0.91193 l -3.18906,-1.19779 -2.04367,2.42641 c -1.12402,1.33452 -2.14254,2.61358 -2.26337,2.84236 -0.12084,0.22877 0.4247,1.75777 1.2123,3.39777 l 1.432,2.98182 -5.90401,2.81165 c -3.2472,1.54639 -6.13239,2.81663 -6.41153,2.82274 -0.2857,0.006 -1.08654,-1.24331 -1.83234,-2.85905 -0.72865,-1.57859 -1.48637,-2.93988 -1.68382,-3.0251 -0.19742,-0.0853 -1.79901,-0.0695 -3.55903,0.035 l -3.20002,0.18994 -1.26084,3.19447 c -0.69346,1.75696 -1.37868,3.19589 -1.52271,3.19762 -0.14403,0.002 -3.05487,-1.00153 -6.46854,-2.22948 -4.67649,-1.6822 -6.17345,-2.3834 -6.07188,-2.84416 0.0741,-0.33632 0.57737,-1.81268 1.11832,-3.28079 l 0.98353,-2.66928 -2.55351,-2.50837 -2.55351,-2.50837 -3.16383,1.5772 c -1.7401,0.86746 -3.23951,1.50331 -3.33202,1.413 -0.0925,-0.0903 -1.48242,-2.92301 -3.08872,-6.2949 l -2.92054,-6.13072 3.21151,-1.54148 3.21151,-1.54149 -0.18912,-3.51004 -0.18912,-3.51003 -3.20906,-1.15599 c -1.76499,-0.63579 -3.19842,-1.35431 -3.18542,-1.59671 0.0364,-0.67783 4.17968,-12.05229 4.51269,-12.3885 0.16176,-0.16285 1.73944,0.23258 3.50646,0.87923 l 3.21275,1.17574 2.05892,-2.4449 c 1.1324,-1.34469 2.15595,-2.62784 2.27453,-2.85141 0.11861,-0.22357 -0.42185,-1.66364 -1.201,-3.20015 -0.93887,-1.8515 -1.26215,-2.94244 -0.95856,-3.23481 0.25194,-0.24263 3.00682,-1.62733 6.12197,-3.07708 z m 1.43215,26.69075 c -0.76703,2.71936 -0.63506,5.22515 0.43123,8.18799 1.02124,2.83765 4.66405,6.36663 7.57364,7.33701 2.73342,0.91161 6.03861,0.89093 8.71072,-0.0545 3.06067,-1.08293 6.83261,-4.92197 7.72612,-7.8636 1.52349,-5.01561 0.37831,-9.75813 -3.1997,-13.25095 -2.81609,-2.74904 -5.61696,-3.78648 -9.60806,-3.55883 -3.97871,0.22695 -5.84698,1.14715 -8.69507,4.2827 -1.85881,2.04644 -2.36945,2.90131 -2.9389,4.92018 z m 68.62912,-27.11653 c 3.47484,-1.74016 6.39952,-3.17695 6.49928,-3.19286 0.0998,-0.0159 0.91289,1.39005 1.80692,3.12437 0.89405,1.73432 1.78437,3.22104 1.97851,3.30384 0.19414,0.0828 1.89881,-0.0133 3.78815,-0.21354 l 3.43517,-0.36406 1.14597,-3.46148 c 0.63029,-1.90381 1.26668,-3.46293 1.4142,-3.46471 0.14751,-0.002 3.34035,1.04261 7.09519,2.32085 l 6.82697,2.32408 -1.149,3.47062 c -1.28121,3.86993 -1.42002,3.50149 2.51651,6.67932 l 2.13848,1.72632 3.30191,-1.6778 c 1.89315,-0.96197 3.38525,-1.48523 3.49725,-1.22643 0.10744,0.24826 1.59353,3.1862 3.30243,6.52877 1.70889,3.34256 3.11485,6.13407 3.12434,6.20334 0.009,0.0693 -1.4688,0.8867 -3.2851,1.8165 l -3.30236,1.69056 0.18112,3.75292 0.18111,3.75294 3.43938,1.09359 c 1.89167,0.60148 3.50872,1.16128 3.59346,1.24401 0.19852,0.19379 -4.0064,13.38137 -4.39298,13.77737 -0.16056,0.16448 -1.86233,-0.19964 -3.78173,-0.80914 l -3.48982,-1.10817 -2.29089,2.61595 c -1.25998,1.43877 -2.28502,2.78149 -2.27785,2.98383 0.007,0.20232 0.69047,1.75746 1.51845,3.45586 0.82798,1.69839 1.38112,3.21532 1.22921,3.37094 -0.20975,0.21487 -8.75888,4.62732 -12.30574,6.35134 -0.34363,0.16702 -0.9749,-0.73762 -2.22295,-3.18559 l -1.74304,-3.41886 -1.11718,0.21658 c -0.61445,0.11913 -2.26802,0.27417 -3.67458,0.34453 l -2.55741,0.12794 -1.27678,3.61324 -1.27679,3.61323 -6.797,-2.30921 c -3.73835,-1.27005 -6.8564,-2.36719 -6.92901,-2.43807 -0.0726,-0.0709 0.38332,-1.75174 1.01318,-3.73525 1.00413,-3.1622 1.04363,-3.66338 0.32061,-4.06908 -0.45352,-0.25447 -1.70543,-1.31899 -2.78203,-2.36557 l -1.95767,-1.90267 -3.35783,1.67942 c -1.8468,0.92368 -3.49606,1.54892 -3.66502,1.38941 -0.41505,-0.3912 -6.24251,-12.01423 -6.28723,-12.53904 -0.0195,-0.22856 1.26807,-1.07703 2.86122,-1.88549 1.59315,-0.80846 3.03326,-1.61865 3.20024,-1.80042 0.16697,-0.18178 0.19968,-1.95013 0.0727,-3.92968 l -0.2309,-3.59919 -3.57851,-1.13634 -3.57851,-1.13634 2.27739,-7.13129 2.2774,-7.13131 3.48244,1.23175 3.48245,1.23175 2.50021,-2.80821 2.50022,-2.80822 -1.52375,-3.2371 c -0.83806,-1.78041 -1.51581,-3.36058 -1.50611,-3.5115 0.01,-0.15092 2.86067,-1.69817 6.3355,-3.43832 z m 3.19536,26.84715 c -1.63092,4.55229 -1.04152,8.71282 1.79401,12.66376 3.0099,4.1939 8.01686,6.20377 13.31758,5.34588 3.12833,-0.5063 5.09905,-1.57799 7.58593,-4.12527 3.45226,-3.53611 4.51491,-8.44354 2.92587,-13.51203 -0.81024,-2.58441 -1.12069,-3.06762 -3.4226,-5.32715 -2.93064,-2.87666 -5.08339,-3.84891 -8.84431,-3.9943 -6.07539,-0.23486 -11.32676,3.28366 -13.35648,8.94911 z"
       id="path659-1"
       inkscape:power="50"
       inkscape:feed="50"
       inkscape:engrave="0" />
  </g>
  <g
     inkscape:groupmode="layer"
     id="layer2"
     inkscape:power="20"
     inkscape:feed="40"
     inkscape:engrave="2"
     inkscape:label="CONTORNO" />
  <g
     inkscape:groupmode="layer"
     id="layer3"
     inkscape:power="15"
     inkscape:feed="100"
     inkscape:engrave="1"
     inkscape:label="PREENCHIMENTO"
     inkscape:highlight-color="#818181" />
</svg>
