<?xml version="1.0" encoding="UTF-8" standalone="no"?>
<!-- Created with Inkscape (http://www.inkscape.org/) -->

<svg
   width="67.555809mm"
   height="18.599737mm"
   viewBox="0 0 67.555809 18.599737"
   version="1.1"
   id="svg1"
   xmlns="http://www.w3.org/2000/svg"
   xmlns:svg="http://www.w3.org/2000/svg">
  <defs
     id="defs1" />
  <g
     id="layer1"
     transform="translate(-39.767242,-74.599997)">
    <g
       id="g15">
      <circle
         style="fill:none;stroke:#000000;stroke-width:0.457733;stroke-linecap:round;stroke-linejoin:round;stroke-opacity:1;paint-order:stroke fill markers"
         id="path3-8-7"
         cx="51.051277"
         cy="83.915886"
         r="9.0338411" />
      <circle
         style="fill:none;stroke:#000000;stroke-width:0.457733;stroke-linecap:round;stroke-linejoin:round;stroke-opacity:1;paint-order:stroke fill markers"
         id="path3-5-6"
         cx="97.968246"
         cy="83.915886"
         r="9.0338411" />
      <path
         style="fill:#000000;fill-opacity:1;fill-rule:evenodd;stroke:#000000;stroke-width:0;stroke-linecap:butt;stroke-linejoin:miter;stroke-dasharray:none;stroke-opacity:1;paint-order:stroke fill markers"
         id="path8-9-1"
         d="m 53.672415,9.1110348 0.03568,0.6077367 -0.480943,-0.3732442 -0.04077,0.6074163 -0.43037,-0.4305792 -0.11658,0.5975166 L 52.266421,9.6387575 52.075872,10.216951 51.766103,9.6928709 51.50459,10.242623 51.262949,9.6838511 50.934595,10.196492 50.764892,9.6118405 50.374877,10.079286 50.279789,9.4779748 49.834262,9.8928521 49.815288,9.2843649 49.321277,9.6401316 49.378715,9.0340643 48.84401,9.3251097 48.976956,8.7310204 48.40999,8.9527545 48.616347,8.3800124 48.026061,8.5289383 48.302574,7.9865758 47.698277,8.0603449 48.040586,7.5569154 47.431808,7.5543642 47.834515,7.0978072 47.230857,7.0189761 47.68761,6.6164916 47.098592,6.4626237 47.602188,6.1205593 47.0371,5.8940812 47.579597,5.6178313 47.047349,5.3223147 47.620192,5.116236 47.12918,4.7563415 47.723333,4.6236839 47.2813,4.2050871 l 0.606095,-0.057144 -0.386084,-0.4706975 0.608478,0.01927 -0.324045,-0.5153751 0.601264,0.095381 -0.256896,-0.5519249 0.584569,0.1699871 -0.185696,-0.5797705 0.558654,0.2419127 -0.111567,-0.5984728 0.523929,0.3100231 -0.03568,-0.6077367 0.480942,0.3732443 0.04077,-0.6074164 0.43037,0.4305792 0.116579,-0.5975167 0.373011,0.4811236 0.190549,-0.5781938 0.309768,0.5240804 0.261514,-0.5497524 0.241641,0.5587722 0.328353,-0.5126412 0.169703,0.5846518 0.390016,-0.4674453 0.09509,0.6013111 0.445527,-0.4148774 0.01897,0.6084872 0.494011,-0.3557667 -0.05744,0.6060673 0.534705,-0.2910454 -0.132946,0.5940893 0.566967,-0.2217341 -0.206357,0.5727421 0.590286,-0.1489259 -0.276513,0.5423625 0.604297,-0.073769 -0.342309,0.5034294 0.608777,0.00255 -0.402706,0.456557 0.603658,0.078831 -0.456753,0.4024845 0.589018,0.1538679 -0.503596,0.3420644 0.565088,0.2264781 -0.542497,0.2762499 0.532247,0.2955166 -0.572842,0.2060787 0.491012,0.3598946 -0.594154,0.1326575 0.442034,0.4185968 -0.606095,0.057144 0.386084,0.4706975 -0.608478,-0.01927 0.324045,0.5153751 -0.601265,-0.095381 0.256897,0.5519249 -0.584569,-0.1699871 0.185696,0.5797705 -0.558655,-0.2419127 0.111568,0.5984728 z"
         transform="matrix(1.9026979,0,0,1.9026979,-0.18472382,73.090191)" />
      <path
         style="fill:#000000;fill-opacity:1;fill-rule:evenodd;stroke:#000000;stroke-width:0;stroke-linecap:butt;stroke-linejoin:miter;stroke-dasharray:none;stroke-opacity:1;paint-order:stroke fill markers"
         id="path8-9-4"
         d="m 53.672415,9.1110348 0.03568,0.6077367 -0.480943,-0.3732442 -0.04077,0.6074163 -0.43037,-0.4305792 -0.11658,0.5975166 L 52.266421,9.6387575 52.075872,10.216951 51.766103,9.6928709 51.50459,10.242623 51.262949,9.6838511 50.934595,10.196492 50.764892,9.6118405 50.374877,10.079286 50.279789,9.4779748 49.834262,9.8928521 49.815288,9.2843649 49.321277,9.6401316 49.378715,9.0340643 48.84401,9.3251097 48.976956,8.7310204 48.40999,8.9527545 48.616347,8.3800124 48.026061,8.5289383 48.302574,7.9865758 47.698277,8.0603449 48.040586,7.5569154 47.431808,7.5543642 47.834515,7.0978072 47.230857,7.0189761 47.68761,6.6164916 47.098592,6.4626237 47.602188,6.1205593 47.0371,5.8940812 47.579597,5.6178313 47.047349,5.3223147 47.620192,5.116236 47.12918,4.7563415 47.723333,4.6236839 47.2813,4.2050871 l 0.606095,-0.057144 -0.386084,-0.4706975 0.608478,0.01927 -0.324045,-0.5153751 0.601264,0.095381 -0.256896,-0.5519249 0.584569,0.1699871 -0.185696,-0.5797705 0.558654,0.2419127 -0.111567,-0.5984728 0.523929,0.3100231 -0.03568,-0.6077367 0.480942,0.3732443 0.04077,-0.6074164 0.43037,0.4305792 0.116579,-0.5975167 0.373011,0.4811236 0.190549,-0.5781938 0.309768,0.5240804 0.261514,-0.5497524 0.241641,0.5587722 0.328353,-0.5126412 0.169703,0.5846518 0.390016,-0.4674453 0.09509,0.6013111 0.445527,-0.4148774 0.01897,0.6084872 0.494011,-0.3557667 -0.05744,0.6060673 0.534705,-0.2910454 -0.132946,0.5940893 0.566967,-0.2217341 -0.206357,0.5727421 0.590286,-0.1489259 -0.276513,0.5423625 0.604297,-0.073769 -0.342309,0.5034294 0.608777,0.00255 -0.402706,0.456557 0.603658,0.078831 -0.456753,0.4024845 0.589018,0.1538679 -0.503596,0.3420644 0.565088,0.2264781 -0.542497,0.2762499 0.532247,0.2955166 -0.572842,0.2060787 0.491012,0.3598946 -0.594154,0.1326575 0.442034,0.4185968 -0.606095,0.057144 0.386084,0.4706975 -0.608478,-0.01927 0.324045,0.5153751 -0.601265,-0.095381 0.256897,0.5519249 -0.584569,-0.1699871 0.185696,0.5797705 -0.558655,-0.2419127 0.111568,0.5984728 z"
         transform="matrix(1.9026979,0,0,1.9026979,-47.101693,73.090191)" />
      <path
         style="opacity:1;fill:none;fill-opacity:1;fill-rule:evenodd;stroke:#f40000;stroke-width:0.5;stroke-linecap:round;stroke-linejoin:round;stroke-dasharray:none;stroke-opacity:1;paint-order:stroke fill markers"
         d="m 51.051277,74.882043 h 46.916969 c 9.491574,-0.869339 14.529814,16.148159 0,18.067684 H 51.051277 c -12.983867,-0.557722 -10.907972,-18.296549 0,-18.067684 z"
         id="path9" />
      <path
         style="opacity:1;fill:none;fill-opacity:1;fill-rule:evenodd;stroke:#00ebfa;stroke-width:0.499999;stroke-linecap:round;stroke-linejoin:round;stroke-dasharray:none;stroke-opacity:1;paint-order:stroke fill markers"
         d="m 40.017242,86.283766 66.984848,0.277953"
         id="path12" />
    </g>
  </g>
</svg>
