<?xml version="1.0" encoding="UTF-8" standalone="no"?>
<!-- Created with Inkscape (http://www.inkscape.org/) -->

<svg
   width="600mm"
   height="400mm"
   viewBox="0 0 600 400"
   version="1.1"
   id="svg19"
   sodipodi:docname="Jogo_programação.svg"
   inkscape:version="1.2-alpha1 (unknown)"
   xmlns:inkscape="http://www.inkscape.org/namespaces/inkscape"
   xmlns:sodipodi="http://sodipodi.sourceforge.net/DTD/sodipodi-0.dtd"
   xmlns="http://www.w3.org/2000/svg"
   xmlns:svg="http://www.w3.org/2000/svg">
  <sodipodi:namedview
     id="namedview21"
     pagecolor="#ffffff"
     bordercolor="#999999"
     borderopacity="1"
     inkscape:pageshadow="0"
     inkscape:pageopacity="0"
     inkscape:pagecheckerboard="0"
     inkscape:deskcolor="#d1d1d1"
     inkscape:document-units="mm"
     showgrid="false"
     inkscape:zoom="0.64"
     inkscape:cx="525"
     inkscape:cy="233.59375"
     inkscape:window-width="1920"
     inkscape:window-height="1001"
     inkscape:window-x="-9"
     inkscape:window-y="-9"
     inkscape:window-maximized="1"
     inkscape:current-layer="layer1" />
  <defs
     id="defs16" />
  <g
     inkscape:label="CORTE"
     inkscape:groupmode="layer"
     id="layer1"
     inkscape:power="100"
     inkscape:feed="10"
     inkscape:engrave="0"
     inkscape:highlight-color="#e13535">
    <path
       id="rect333-1"
       style="fill:none;fill-rule:evenodd;stroke:#000000;stroke-width:0.503083;stroke-linecap:butt;stroke-linejoin:miter;stroke-opacity:1;paint-order:normal"
       d="m 6.3515493,117.94628 v 92.40984 c 0,-0.33252 -0.06363,3.76878 3.7957487,3.76878 h 96.204332 v -30.23588 c -10.818587,-0.13761 -19.517671,-8.94469 -19.521791,-19.76416 0.004,-10.81927 8.703394,-19.62606 19.521791,-19.76366 V 114.12481 H 10.120311 c -2.1898757,0 -3.7687617,1.91685 -3.7687617,3.82147 z"
       sodipodi:nodetypes="cccccccccc"
       inkscape:power="50"
       inkscape:feed="50"
       inkscape:engrave="0"
       inkscape:label="Peça-1" />
    <path
       id="rect333"
       style="fill:none;fill-rule:evenodd;stroke:#000000;stroke-width:0.503083;stroke-opacity:1"
       d="M 6.3515493,6.2378613 V 36.464957 A 19.773285,19.773283 0 0 1 26.125019,56.23791 19.773285,19.773283 0 0 1 6.3515493,76.01138 v 30.22657 H 106.35163 V 76.002078 a 19.773285,19.773283 0 0 0 0.25167,0.0093 19.773285,19.773283 0 0 0 19.77347,-19.77347 19.773285,19.773283 0 0 0 -19.77347,-19.772953 19.773285,19.773283 0 0 0 -0.25167,0.0093 V 6.2378613 Z"
       inkscape:power="50"
       inkscape:feed="50"
       inkscape:engrave="0" />
    <path
       id="rect333-4"
       style="fill:none;fill-rule:evenodd;stroke:#000000;stroke-width:0.503083;stroke-opacity:1"
       d="M 128.48273,6.2378613 V 36.464957 A 19.773285,19.773283 0 0 1 148.2562,56.23791 19.773285,19.773283 0 0 1 128.48273,76.01138 v 30.22657 H 228.48281 V 76.002078 a 19.773285,19.773283 0 0 0 0.25167,0.0093 19.773285,19.773283 0 0 0 19.77347,-19.77347 19.773285,19.773283 0 0 0 -19.77347,-19.772953 19.773285,19.773283 0 0 0 -0.25167,0.0093 V 6.2378613 Z"
       inkscape:power="50"
       inkscape:feed="50"
       inkscape:engrave="0" />
    <path
       id="rect333-5"
       style="fill:none;fill-rule:evenodd;stroke:#000000;stroke-width:0.503083;stroke-opacity:1"
       d="M 250.6139,6.2378613 V 36.464957 A 19.773285,19.773283 0 0 1 270.38737,56.23791 19.773285,19.773283 0 0 1 250.6139,76.01138 v 30.22657 H 350.61398 V 76.002078 a 19.773285,19.773283 0 0 0 0.25167,0.0093 19.773285,19.773283 0 0 0 19.77347,-19.77347 19.773285,19.773283 0 0 0 -19.77347,-19.772953 19.773285,19.773283 0 0 0 -0.25167,0.0093 V 6.2378613 Z"
       inkscape:power="50"
       inkscape:feed="50"
       inkscape:engrave="0" />
    <path
       id="rect333-4-9"
       style="fill:none;fill-rule:evenodd;stroke:#000000;stroke-width:0.503083;stroke-opacity:1"
       d="M 372.74508,6.2378613 V 36.464957 a 19.773285,19.773283 0 0 1 19.77347,19.772953 19.773285,19.773283 0 0 1 -19.77347,19.77347 v 30.22657 H 472.74516 V 76.002078 a 19.773285,19.773283 0 0 0 0.25167,0.0093 19.773285,19.773283 0 0 0 19.77347,-19.77347 19.773285,19.773283 0 0 0 -19.77347,-19.772953 19.773285,19.773283 0 0 0 -0.25167,0.0093 V 6.2378613 Z"
       inkscape:power="50"
       inkscape:feed="50"
       inkscape:engrave="0" />
    <path
       id="rect333-1-3"
       style="fill:none;fill-rule:evenodd;stroke:#000000;stroke-width:0.503083;stroke-linecap:butt;stroke-linejoin:miter;stroke-opacity:1;paint-order:normal"
       d="m 220.2507,117.94628 v 92.40984 c 0,-0.33252 0.0636,3.76878 -3.79575,3.76878 h -96.20434 v -30.23588 c 10.81859,-0.13761 19.51767,-8.94469 19.52179,-19.76416 -0.004,-10.81927 -8.70339,-19.62606 -19.52179,-19.76366 v -30.23639 h 96.23132 c 2.18988,0 3.76877,1.91685 3.76877,3.82147 z"
       sodipodi:nodetypes="cccccccccc"
       inkscape:power="50"
       inkscape:feed="50"
       inkscape:engrave="0"
       inkscape:label="Peça-6" />
  </g>
  <g
     inkscape:groupmode="layer"
     id="layer2"
     inkscape:power="20"
     inkscape:feed="40"
     inkscape:engrave="2"
     inkscape:label="CONTORNO">
    <path
       style="fill:none;fill-rule:evenodd;stroke:#000000;stroke-width:0.625311;stroke-linecap:butt;stroke-linejoin:miter;stroke-opacity:1;paint-order:normal"
       d="m 31.876954,134.6572 v 58.9624 l 48.658378,-28.09293 z"
       id="path44441-6"
       inkscape:power="50"
       inkscape:feed="50"
       inkscape:engrave="0"
       inkscape:label="Play-path" />
    <path
       style="fill:none;stroke:#000000;stroke-width:0.208203;stroke-opacity:1"
       d="m 193.67057,71.48884 -3e-5,-5.589308 11.5752,0.05538 11.57521,0.05538 v -9.769044 -9.769044 h -11.57517 -11.57517 v -5.537265 c 0,-3.263587 -0.038,-5.9338 -0.0845,-5.9338 -0.0713,0 -5.54147,3.251964 -13.74115,8.553274 -6.08335,3.933052 -19.39524,12.488042 -19.57113,12.577547 -0.1388,0.07066 -0.1388,0.141099 0,0.211412 0.2271,0.115036 8.53707,5.436864 10.72248,6.866833 0.74433,0.487038 5.47576,3.535159 10.51428,6.773612 5.03853,3.238453 10.09109,6.248708 10.74325,6.689473 0.65216,0.440756 1.23774,0.801383 1.30127,0.801383 0.0635,0 0.11549,-5.366446 0.11549,-5.985852 z"
       id="path63566-0-2"
       inkscape:power="50"
       inkscape:feed="50"
       inkscape:engrave="0"
       sodipodi:nodetypes="ccccccccssssssssssc" />
    <path
       style="fill:none;stroke:#000000;stroke-width:0.208203;stroke-opacity:1"
       d="m 417.5068,51.062676 5.5893,3e-5 -0.0554,-11.5752 -0.0554,-11.57521 h 9.76905 9.76904 v 11.57517 11.57517 h 5.53727 c 3.26358,0 5.9338,0.038 5.9338,0.0845 0,0.0713 -3.25197,5.54147 -8.55328,13.74115 -3.93305,6.08335 -12.48804,19.39524 -12.57754,19.57113 -0.0707,0.1388 -0.1411,0.1388 -0.21142,0 -0.11503,-0.2271 -5.43686,-8.53707 -6.86683,-10.72248 -0.48704,-0.74433 -3.53516,-5.47576 -6.77361,-10.51428 -3.23845,-5.03853 -6.24871,-10.09109 -6.68947,-10.74325 -0.44076,-0.65216 -0.80139,-1.23774 -0.80139,-1.30127 0,-0.0635 5.36645,-0.11549 5.98586,-0.11549 z"
       id="path63566-0-2-4-2"
       inkscape:power="50"
       inkscape:feed="50"
       inkscape:engrave="0"
       sodipodi:nodetypes="ccccccccssssssssssc" />
    <path
       style="fill:none;stroke:#000000;stroke-width:0.208203;stroke-opacity:1"
       d="m 295.37558,61.413136 5.5893,-3e-5 -0.0554,11.5752 -0.0554,11.57521 h 9.76905 9.76904 v -11.57517 -11.57517 h 5.53727 c 3.26358,0 5.9338,-0.038 5.9338,-0.0845 0,-0.0713 -3.25197,-5.54147 -8.55328,-13.74115 -3.93305,-6.08335 -12.48804,-19.39524 -12.57754,-19.57113 -0.0707,-0.1388 -0.1411,-0.1388 -0.21142,0 -0.11503,0.2271 -5.43686,8.53707 -6.86683,10.72248 -0.48704,0.74433 -3.53516,5.47576 -6.77361,10.51428 -3.23845,5.03853 -6.24871,10.09109 -6.68947,10.74325 -0.44076,0.65216 -0.80139,1.23774 -0.80139,1.30127 0,0.0635 5.36645,0.11549 5.98586,0.11549 z"
       id="path63566-0-2-4"
       inkscape:power="50"
       inkscape:feed="50"
       inkscape:engrave="0"
       sodipodi:nodetypes="ccccccccssssssssssc" />
    <path
       style="opacity:1;fill:none;fill-opacity:1;fill-rule:evenodd;stroke:#000000;stroke-width:0.349001;stroke-linecap:square;stroke-linejoin:miter;stroke-miterlimit:4;stroke-dasharray:none;stroke-opacity:1;paint-order:normal"
       d="m 126.62641,194.55893 v 13.19017 h 83.93677 c 2.73033,-0.10785 3.16798,-1.54815 3.31178,-3.30494 l -5e-5,-80.60938 c -0.0276,-2.12903 -1.06457,-3.29673 -3.28819,-3.33418 h -83.96031 v 17.37212"
       id="path110869"
       inkscape:power="50"
       inkscape:feed="50"
       inkscape:engrave="0"
       sodipodi:nodetypes="cccccccc" />
    <path
       style="fill:none;stroke:#000000;stroke-width:0.208203;stroke-opacity:1"
       d="m 61.387176,71.488835 3.7e-5,-5.589308 -11.575204,0.05538 -11.575205,0.05538 v -9.769044 -9.769044 h 11.575167 11.575168 v -5.537265 c 0,-3.263587 0.03799,-5.9338 0.08453,-5.9338 0.07126,0 5.541469,3.251964 13.741146,8.553274 6.083352,3.933052 19.395246,12.488042 19.571139,12.577547 0.138798,0.07066 0.138798,0.141099 0,0.211412 -0.227097,0.115036 -8.537069,5.436864 -10.722486,6.866833 -0.744326,0.487038 -5.475756,3.535159 -10.514277,6.773612 -5.038529,3.238453 -10.091094,6.248708 -10.743255,6.689473 -0.652161,0.440756 -1.237734,0.801383 -1.301265,0.801383 -0.06347,0 -0.115493,-5.366446 -0.115493,-5.985852 z"
       id="path63566-0"
       inkscape:power="50"
       inkscape:feed="50"
       inkscape:engrave="0"
       sodipodi:nodetypes="ccccccccssssssssssc" />
  </g>
  <g
     inkscape:groupmode="layer"
     id="layer3"
     inkscape:power="15"
     inkscape:feed="100"
     inkscape:engrave="1"
     inkscape:label="PREENCHIMENTO"
     inkscape:highlight-color="#818181">
    <path
       style="fill:#000000;fill-opacity:1;fill-rule:evenodd;stroke:none;stroke-width:0.499999;stroke-linecap:butt;stroke-linejoin:miter;stroke-opacity:1;paint-order:normal"
       d="m 35.194165,140.56251 v 47.14634 l 38.90724,-22.46311 z"
       id="path44441"
       inkscape:power="50"
       inkscape:feed="50"
       inkscape:engrave="0"
       inkscape:label="Play-preen" />
    <path
       style="fill:#000000;stroke-width:0.19827"
       d="m 62.002236,70.761213 3.8e-5,-5.700283 -11.400602,0.05276 -11.400602,0.05276 v -8.925359 -8.925367 h 11.400564 11.400572 v -5.650719 c 0,-3.10789 0.03619,-5.650711 0.0805,-5.650711 0.06789,0 4.899469,3.096815 12.70796,8.145213 5.793129,3.745416 18.469948,11.89227 18.637447,11.977504 0.132181,0.06729 0.132181,0.134369 0,0.201325 -0.216261,0.109551 -8.129787,5.177485 -10.210943,6.539239 -0.708814,0.4638 -5.214519,3.366506 -10.012665,6.450454 -4.798153,3.083955 -9.232046,5.950601 -9.853093,6.370338 -0.621048,0.41973 -1.178684,0.763151 -1.239188,0.763151 -0.06047,0 -0.11,-2.56513 -0.109985,-5.700282 z"
       id="path63566"
       inkscape:power="50"
       inkscape:feed="50"
       inkscape:engrave="0" />
    <path
       style="fill:#000000;stroke-width:0.19827"
       d="m 193.05551,70.761218 -3e-5,-5.700283 11.4006,0.05276 11.4006,0.05276 V 56.241096 47.315729 H 204.45612 193.05554 V 41.66501 c 0,-3.10789 -0.0362,-5.650711 -0.0805,-5.650711 -0.0679,0 -4.89947,3.096815 -12.70796,8.145213 -5.79313,3.745416 -18.46994,11.89227 -18.63744,11.977504 -0.13218,0.06729 -0.13218,0.134369 0,0.201325 0.21626,0.109551 8.12978,5.177485 10.21094,6.539239 0.70881,0.4638 5.21452,3.366506 10.01266,6.450454 4.79816,3.083955 9.23205,5.950601 9.8531,6.370338 0.62105,0.41973 1.17868,0.763151 1.23919,0.763151 0.0605,0 0.11,-2.56513 0.10998,-5.700282 z"
       id="path63566-8"
       inkscape:power="50"
       inkscape:feed="50"
       inkscape:engrave="0" />
    <path
       style="fill:#000000;stroke-width:0.19827"
       d="m 296.30146,60.599829 5.70028,-3e-5 -0.0528,11.4006 -0.0528,11.4006 h 8.92536 8.92536 v -11.40056 -11.40058 h 5.65072 c 3.10789,0 5.65071,-0.0362 5.65071,-0.0805 0,-0.0679 -3.09681,-4.89947 -8.14521,-12.70796 -3.74541,-5.79313 -11.89227,-18.46994 -11.9775,-18.637441 -0.0673,-0.13218 -0.13437,-0.13218 -0.20133,0 -0.10955,0.21626 -5.17748,8.12978 -6.53924,10.21094 -0.4638,0.708811 -3.3665,5.21452 -6.45045,10.01266 -3.08396,4.79816 -5.9506,9.23205 -6.37034,9.8531 -0.41973,0.62105 -0.76315,1.17868 -0.76315,1.23919 0,0.0605 2.56513,0.11 5.70028,0.10998 z"
       id="path63566-8-7"
       inkscape:power="50"
       inkscape:feed="50"
       inkscape:engrave="0" />
    <path
       style="fill:#000000;stroke-width:0.19827"
       d="m 418.43268,51.875983 5.70028,3e-5 -0.0528,-11.4006 -0.0528,-11.4006 h 8.92536 8.92536 v 11.40056 11.40058 h 5.65072 c 3.10789,0 5.65071,0.0362 5.65071,0.0805 0,0.0679 -3.09681,4.89947 -8.14521,12.70796 -3.74541,5.79313 -11.89227,18.46994 -11.9775,18.637441 -0.0673,0.13218 -0.13437,0.13218 -0.20133,0 -0.10955,-0.21626 -5.17748,-8.12978 -6.53924,-10.21094 -0.4638,-0.708811 -3.3665,-5.21452 -6.45045,-10.01266 -3.08396,-4.79816 -5.9506,-9.23205 -6.37034,-9.8531 -0.41973,-0.62105 -0.76315,-1.17868 -0.76315,-1.23919 0,-0.0605 2.56513,-0.11 5.70028,-0.10998 z"
       id="path63566-8-7-3"
       inkscape:power="50"
       inkscape:feed="50"
       inkscape:engrave="0" />
  </g>
</svg>
