<?xml version="1.0" encoding="UTF-8" standalone="no"?>
<!-- Created with Inkscape (http://www.inkscape.org/) -->

<svg
   width="600mm"
   height="400mm"
   viewBox="0 0 600 400"
   version="1.1"
   id="svg19"
   sodipodi:docname="Medalhas.svg"
   inkscape:version="1.2-alpha1 (unknown)"
   xmlns:inkscape="http://www.inkscape.org/namespaces/inkscape"
   xmlns:sodipodi="http://sodipodi.sourceforge.net/DTD/sodipodi-0.dtd"
   xmlns="http://www.w3.org/2000/svg"
   xmlns:svg="http://www.w3.org/2000/svg">
  <sodipodi:namedview
     id="namedview21"
     pagecolor="#ffffff"
     bordercolor="#999999"
     borderopacity="1"
     inkscape:pageshadow="0"
     inkscape:pageopacity="0"
     inkscape:pagecheckerboard="0"
     inkscape:deskcolor="#d1d1d1"
     inkscape:document-units="mm"
     showgrid="false"
     inkscape:zoom="1.5229018"
     inkscape:cx="296.80181"
     inkscape:cy="142.49114"
     inkscape:window-width="1920"
     inkscape:window-height="1001"
     inkscape:window-x="-9"
     inkscape:window-y="-9"
     inkscape:window-maximized="1"
     inkscape:current-layer="g95939" />
  <defs
     id="defs16" />
  <g
     inkscape:label="CORTE"
     inkscape:groupmode="layer"
     id="layer1"
     inkscape:power="100"
     inkscape:feed="10"
     inkscape:engrave="0"
     inkscape:highlight-color="#e13535" />
  <g
     inkscape:groupmode="layer"
     id="layer2"
     inkscape:power="20"
     inkscape:feed="40"
     inkscape:engrave="2"
     inkscape:label="CONTORNO" />
  <g
     inkscape:groupmode="layer"
     id="layer3"
     inkscape:power="15"
     inkscape:feed="100"
     inkscape:engrave="1"
     inkscape:label="PREENCHIMENTO"
     inkscape:highlight-color="#818181">
    <g
       id="g95939"
       inkscape:power="50"
       inkscape:feed="50"
       inkscape:engrave="0"
       transform="translate(-2.0848357,-1.93066)">
      <path
         id="path9936-6"
         style="fill:none;fill-rule:evenodd;stroke:#000000;stroke-width:0.322221;stroke-linecap:butt;stroke-linejoin:miter;stroke-opacity:1"
         d="m 33.443884,9.2205972 a 1.5562692,1.4615229 0 0 0 -0.01144,4.61e-4 h -0.0015 l -15.212627,0.01337 h -4.08e-4 a 1.5562692,1.4615229 0 0 0 -0.196712,-0.01156 1.5562692,1.4615229 0 0 0 -0.191278,0.01194 h -0.09095 v 0.01289 a 1.5562692,1.4615229 0 0 0 -1.274185,1.4364928 1.5562692,1.4615229 0 0 0 1.274185,1.436493 v 0.0152 h 0.109733 a 1.5562692,1.4615229 0 0 0 0.172496,0.0102 1.5562692,1.4615229 0 0 0 0.171999,-0.0102 h 15.100432 a 1.5562692,1.4615229 0 0 0 0.150254,0.008 1.5562692,1.4615229 0 0 0 1.556404,-1.461364 1.5562692,1.4615229 0 0 0 -1.556404,-1.4618228 z"
         inkscape:power="50"
         inkscape:feed="50"
         inkscape:engrave="0" />
      <text
         xml:space="preserve"
         style="font-weight:bold;font-size:22.1696px;font-family:Arial;-inkscape-font-specification:'Arial Bold';fill:none;fill-rule:evenodd;stroke:#000000;stroke-width:0.522195;stroke-linecap:round;stroke-linejoin:miter;stroke-opacity:1;paint-order:normal"
         x="17.992661"
         y="34.033436"
         id="text43830"
         inkscape:power="50"
         inkscape:feed="50"
         inkscape:engrave="0"><tspan
           sodipodi:role="line"
           id="tspan43828"
           style="font-style:normal;font-variant:normal;font-weight:bold;font-stretch:normal;font-family:Impact;-inkscape-font-specification:'Impact Bold';stroke:#000000;stroke-width:0.522194;stroke-opacity:1"
           x="17.992661"
           y="34.033436">1ยบ</tspan></text>
      <text
         xml:space="preserve"
         style="font-weight:bold;font-size:17.9155px;font-family:Arial;-inkscape-font-specification:'Arial Bold';letter-spacing:-1.80458px;word-spacing:0px;fill:none;fill-rule:evenodd;stroke:#000000;stroke-width:0.421993;stroke-linecap:round;stroke-linejoin:miter;stroke-opacity:1;paint-order:normal"
         x="24.557693"
         y="77.728981"
         id="text43830-0"
         inkscape:power="50"
         inkscape:feed="50"
         inkscape:engrave="0"><tspan
           sodipodi:role="line"
           id="tspan43828-3"
           style="font-style:italic;font-variant:normal;font-weight:bold;font-stretch:normal;font-family:sans-serif;-inkscape-font-specification:'sans-serif Bold Italic';stroke:#000000;stroke-width:0.421992;stroke-opacity:1"
           x="24.557693"
           y="77.728981"
           dx="0">1ยบ</tspan></text>
      <path
         id="path54002"
         style="fill:#000000;stroke-width:0.0803796"
         d="m 29.080556,6.7957582 c -0.01523,1.28e-4 -0.03061,1.66e-4 -0.04599,5.16e-4 -0.184551,0.004 -0.380301,0.02258 -0.587044,0.05219 -3.217061,0.413436 -2.616216,0.413539 -0.145728,2.300118 0.380653,0.261342 2.80673,0.473495 2.75177,-0.06046 -0.175345,-1.703484 -0.815574,-2.256344 -1.838131,-2.290816 -0.04424,-0.0015 -0.08918,-0.0019 -0.134875,-0.0015 z m 3.185335,1.489831 c -0.221723,0 -0.355077,0.413444 -0.411344,1.009241 a 1.05021,1.4791214 0 0 1 0.357084,-0.100252 1.05021,1.4791214 0 0 1 0.235128,0.03927 c 0.117177,-0.242127 0.270204,-0.383723 0.456302,-0.368453 0.02864,0.0023 0.05816,0.0086 0.08837,0.0186 0.527388,0.174545 0.779984,0.274014 1.615405,0.637171 0.263284,0.114445 0.273834,0.155258 0.334864,1.3084468 0.02587,0.488677 0.06757,1.091633 0.09302,1.339453 0.04627,0.450583 0.04641,0.450113 -0.796333,1.029395 -1.006204,0.691638 -0.791218,0.689014 -1.449008,0.01964 -0.227189,-0.231195 -0.389171,-0.623856 -0.490409,-1.081588 a 1.05021,1.4791214 0 0 1 -0.08733,0.01654 1.05021,1.4791214 0 0 1 -0.196371,-0.03669 c 0.119514,0.620681 0.291676,1.134931 0.507463,1.361157 0.810194,0.849393 0.746753,0.8478 1.902209,0.05064 1.142121,-0.787952 1.049271,-0.549434 0.914157,-2.34456 -0.06146,-0.816475 -0.112782,-1.5507948 -0.113689,-1.6314248 -0.0028,-0.230533 -2.423831,-1.266589 -2.959509,-1.266589 z m 6.226493,3.9434288 c -0.317277,0.0068 -0.639287,0.14452 -0.996321,0.390673 -1.54326,1.063981 -1.509476,1.225241 0.888318,4.227649 2.139045,2.678417 1.856983,2.573169 2.941939,1.095541 1.009327,-1.374624 0.977628,-1.179259 0.362769,-2.230872 -1.427714,-2.441855 -2.269677,-3.453231 -3.133143,-3.482475 -0.02112,-7.15e-4 -0.04241,-9.7e-4 -0.06356,-5.16e-4 z m -0.01137,0.360701 c 0.588114,-0.01439 1.163667,0.675407 2.417423,2.561601 1.001705,1.507006 0.99223,1.37958 0.190686,2.489254 -0.862636,1.19425 -0.529031,1.335171 -2.404504,-1.015442 -2.271183,-2.846577 -2.261096,-2.805728 -0.941028,-3.724838 0.275328,-0.191696 0.50729,-0.304945 0.737423,-0.310575 z m -1.613339,4.215763 c -0.0028,-1.4e-5 -0.0056,2.93e-4 -0.0083,5.17e-4 -0.11676,0.0098 -0.121372,0.248122 -0.08423,0.674378 0.0258,0.296096 0.08485,1.119575 0.131258,1.830379 0.05134,0.786173 0.162503,1.640771 0.283187,2.181262 0.109112,0.488681 0.215391,0.967328 0.236161,1.064018 0.02076,0.09671 0.10029,0.190466 0.17725,0.208256 0.176247,0.04075 0.08197,0.148586 1.133264,-1.290877 1.088053,-1.489808 1.128469,-1.190396 -0.422713,-3.121774 -0.859118,-1.069685 -1.270484,-1.54527 -1.445907,-1.546159 z m 5.82135,1.202511 c -0.212145,-0.0011 -1.586466,1.796359 -1.586466,2.078943 0,0.08794 0.592569,0.903426 1.316716,1.812292 1.28684,1.615119 1.384203,1.713396 1.576131,1.590084 0.366899,-0.235707 -0.862926,-5.413762 -1.30173,-5.480802 -0.0015,-2.33e-4 -0.003,-5.09e-4 -0.0047,-5.17e-4 z m -2.306835,3.160531 c -0.514782,0 -2.752405,3.406433 -2.759005,4.20026 -0.0034,0.39983 -0.05429,1.10863 -0.113172,1.575098 -0.130942,1.03743 -0.179264,0.974947 0.993221,1.280542 1.277297,0.332856 1.184184,0.358478 1.422653,-0.391708 0.53897,-1.695527 1.643035,-5.142976 1.671215,-5.218286 0.06381,-0.170436 -1.007903,-1.445906 -1.214912,-1.445906 z m 0.137459,0.386023 c 0.416541,-0.002 0.615971,1.241462 0.293005,2.251542 -0.218018,0.681848 -0.612629,1.921376 -0.877466,2.754354 -0.264833,0.832973 -0.506518,1.511735 -0.536918,1.508435 -0.12876,-0.01378 -1.489134,-0.40516 -1.521354,-0.4377 -0.01941,-0.01961 0.0054,-0.469483 0.05529,-0.999939 0.04987,-0.530454 0.09203,-1.177041 0.09353,-1.436605 0.0025,-0.420411 1.834958,-3.233173 2.333708,-3.58221 0.04882,-0.03416 0.09555,-0.05243 0.140043,-0.05684 0.0067,-6.66e-4 0.01354,-0.001 0.02015,-0.001 z M 7.5490521,23.271238 c -0.0063,-6.5e-5 -0.01255,2.5e-5 -0.0186,5.16e-4 -0.0848,0.0069 -0.146436,0.07466 -0.173116,0.219109 -0.363284,1.966891 -0.157204,2.93651 0.798918,3.75791 v -5.17e-4 c 1.260408,1.082949 1.419687,1.083992 1.200443,0.0078 -0.06663,-0.32709 -0.164558,-0.940154 -0.217558,-1.36219 -0.135091,-1.075804 -1.119367,-2.570913 -1.570963,-2.621546 -0.0065,-7.5e-4 -0.01283,-9.69e-4 -0.01912,-0.001 z M 42.549499,24.07739 c -0.237251,-2.21e-4 -0.434276,0.126091 -0.528133,0.42323 -0.136818,0.433148 -0.485354,1.530168 -0.774113,2.438094 -0.629659,1.979782 -0.695774,1.803058 0.817521,2.18798 1.375246,0.349766 1.323072,0.340767 1.465544,0.249597 0.189838,-0.121473 0.572058,-2.410142 0.572058,-3.426664 0,-0.956233 -0.897115,-1.849691 -1.529622,-1.87172 -0.0077,-2.69e-4 -0.0156,-5.1e-4 -0.02326,-5.17e-4 z m -0.0078,0.251147 c 0.88432,0.126867 1.300245,1.866358 0.932759,3.902088 -0.0756,0.418813 -0.172354,0.770211 -0.214974,0.780831 -0.08577,0.02146 -2.01371,-0.479808 -2.06499,-0.536918 -0.0544,-0.06058 1.276415,-4.156178 1.347205,-4.146001 z M 7.5918941,28.177398 c -0.03932,0.0022 -0.07016,0.02346 -0.112655,0.05064 -0.285875,0.182909 0.476778,3.177382 1.23145,4.834847 0.450502,0.989436 0.514205,0.911709 1.005106,-1.22008 0.4344059,-1.886437 0.5551549,-1.544555 -0.997355,-2.832903 -0.81438,-0.67581 -1.008574,-0.839071 -1.126546,-0.832507 z m 29.7077469,0.733289 c -0.132578,0.006 -0.263676,0.290451 -0.445967,0.804085 -0.304207,0.857139 -0.871497,2.05749 -1.267106,2.682007 -0.189329,0.298872 -0.272603,0.51069 -0.240813,0.611849 0.0603,0.191862 -0.02844,0.196672 1.583883,-0.07803 1.775214,-0.302463 1.673123,-0.111492 1.124479,-2.114082 C 37.689913,29.487132 37.49341,28.9019 37.299641,28.910689 Z m 1.604037,0.550354 c -0.03129,-2.6e-5 -0.05138,0.0033 -0.05788,0.0098 -0.121881,0.12308 0.544458,2.78267 0.727604,2.904216 0.171341,0.113707 3.060812,-0.360316 3.228744,-0.529684 0.333627,-0.336476 0.498646,-1.316677 0.240295,-1.428336 -0.582727,-0.251843 -3.669479,-0.95563 -4.138765,-0.956014 z m -28.027747,2.33164 c -0.006,0 -0.0119,6.51e-4 -0.01757,0.0016 -0.07932,0.01276 -0.135909,0.114629 -0.183968,0.299206 -0.14792,0.56812 -0.7270869,3.157388 -0.7270869,3.250448 0,0.05102 0.2069579,0.39906 0.4599199,0.773596 0.614488,0.909826 0.653885,0.905625 1.318783,-0.146761 1.207129,-1.91062 1.143951,-1.66537 0.600996,-2.335775 -0.23096,-0.285176 -0.613569,-0.816684 -0.850077,-1.181323 -0.277116,-0.427244 -0.456498,-0.640534 -0.58291,-0.659391 -0.0061,-9e-4 -0.01212,-0.0016 -0.01809,-0.0016 z m 31.121098,1.291394 c -0.43905,0.0052 -6.170756,1.059173 -6.224426,1.144633 -0.105955,0.168726 -0.115404,0.147104 0.879533,2.069125 0.52193,1.008273 1.027035,1.987806 1.121895,2.176611 0.243312,0.484277 0.376805,0.445544 1.082621,-0.312126 1.964755,-2.109067 3.805854,-5.086043 3.140377,-5.078243 z m -0.434082,0.538469 c 0.03875,-1.29e-4 0.05943,0.003 0.05943,0.0098 0,0.143499 -0.98525,1.735358 -1.540475,2.488737 -1.787194,2.425022 -1.84772,2.431364 -2.931087,0.321428 -0.541134,-1.053907 -0.965971,-1.934397 -0.943611,-1.956987 0.120227,-0.121414 4.774448,-0.861068 5.355745,-0.862996 z m -7.273975,0.750342 c -0.0053,1.23e-4 -0.01068,5.47e-4 -0.01602,10e-4 -0.205222,0.01867 -0.426674,0.302912 -0.841809,0.707967 -0.443926,0.433149 -0.977334,0.914731 -1.184941,1.070219 -0.633341,0.47435 -0.618923,0.49204 1.317749,1.667599 0.934851,0.567453 2.041349,1.241294 2.459281,1.497066 1.054404,0.645288 1.401329,0.605278 1.009758,-0.116272 -0.102166,-0.188261 -0.573397,-1.105702 -1.047481,-2.038635 -1.056788,-2.079615 -1.361036,-2.796756 -1.696538,-2.788977 z m 0.03514,0.486792 c 0.0029,1.22e-4 0.0055,6.09e-4 0.0083,10e-4 0.05255,0.0081 0.08527,0.07117 0.136942,0.172599 0.07579,0.148768 0.584368,1.138138 1.130164,2.198316 0.545794,1.060178 0.981209,1.936438 0.967899,1.947168 -0.02756,0.02231 -4.069897,-2.435486 -4.167187,-2.533696 -0.03492,-0.03525 0.109501,-0.204056 0.320394,-0.375687 0.210884,-0.17163 0.659268,-0.581125 0.996838,-0.909506 0.371615,-0.361495 0.518257,-0.504016 0.606681,-0.500227 z m -3.688147,2.446362 c -0.005,6.4e-5 -0.01,2.48e-4 -0.01499,5.17e-4 -0.125243,0.0067 -0.251518,0.07652 -0.476456,0.200504 -0.366251,0.201869 -1.128635,5.249913 -0.888318,5.882329 0.05911,0.155542 0.290198,0.14236 1.028877,-0.05891 0.763399,-0.20801 0.673204,-0.02617 1.138949,-2.291333 0.200958,-0.977356 0.419711,-2.026613 0.485758,-2.331123 0.142239,-0.655758 0.148414,-0.644086 -0.604097,-1.095541 -0.353272,-0.21194 -0.513657,-0.308425 -0.669727,-0.306441 z m -0.02119,0.511597 c 0.01271,-1.02e-4 0.02544,2.3e-4 0.03824,5.16e-4 0.450557,0.01007 0.949743,0.257317 0.915189,0.571542 -0.0145,0.131825 -0.768916,3.871978 -0.861446,4.271057 -0.02916,0.125737 -0.159557,0.201806 -0.519348,0.302824 -0.575175,0.161491 -0.563147,0.160885 -0.56224,0.03411 0.0015,-0.20307 0.477871,-5.013124 0.498161,-5.030184 0.121987,-0.102551 0.300819,-0.148339 0.491443,-0.149861 z m -12.962462,0.146244 c -0.391178,0.0039 -1.158143,0.118361 -2.447913,0.329179 -1.221936,0.19973 -2.234252,0.363285 -2.249992,0.363285 -0.416203,0 0.196228,0.701452 1.40715,1.611788 0.825832,0.620836 0.707706,0.649978 1.891874,-0.467155 0.556966,-0.525438 1.168315,-1.098361 1.358056,-1.27279 0.425967,-0.391592 0.543775,-0.569268 0.04082,-0.564307 z m 15.37994,0.836641 c -0.01142,4.09e-4 -0.02054,0.0025 -0.02739,0.0062 -0.207106,0.112409 -0.891214,3.503285 -0.743107,3.683496 0.13563,0.165025 0.05619,0.190842 1.236617,-0.394808 1.514039,-0.751172 2.36523,-1.301666 2.36523,-1.529623 0,-0.24591 -2.477244,-1.777936 -2.831351,-1.765267 z m -8.241358,0.456303 c -0.229493,0.0093 -0.718729,0.227579 -2.405538,0.93276 -2.649248,1.107534 -2.432745,0.911211 -2.204516,1.997294 0.262901,1.251092 0.150827,1.132819 1.324983,1.39113 1.330445,0.292694 1.144114,0.419007 2.60966,-1.768368 1.380378,-2.060257 1.4204,-2.159155 0.975651,-2.424141 -0.110717,-0.06597 -0.160864,-0.119238 -0.257348,-0.127641 -0.01327,-0.0012 -0.02759,-0.0017 -0.04289,-0.001 z m 0.07235,0.42168 c 0.0035,-2.4e-4 0.0057,-6.3e-5 0.0072,5.17e-4 0.172029,0.06667 0.172271,0.06574 -1.049548,1.900142 -0.600993,0.902304 -1.133588,1.681301 -1.183908,1.731161 -0.08112,0.0804 -1.749733,-0.202988 -1.861901,-0.31626 -0.04858,-0.04905 -0.358712,-1.528202 -0.327112,-1.560112 0.12071,-0.121891 4.196486,-1.740319 4.415234,-1.755448 z m 1.545125,0.674894 c -0.283994,-0.0023 -2.383376,3.317229 -2.222086,3.513481 0.190852,0.232223 3.649555,0.09795 3.90002,-0.151412 0.112572,-0.112079 0.312815,-1.891879 0.235645,-2.094963 -0.06062,-0.159514 -1.731151,-1.265606 -1.913579,-1.267106 z"
         inkscape:power="50"
         inkscape:feed="50"
         inkscape:engrave="0" />
      <circle
         style="fill:none;fill-rule:evenodd;stroke:#000000;stroke-width:0.349343;stroke-linecap:round;stroke-linejoin:miter;stroke-opacity:1;paint-order:normal"
         id="path57974"
         inkscape:power="50"
         inkscape:feed="50"
         inkscape:engrave="0"
         cx="25.732536"
         cy="25.124458"
         r="19.825329" />
    </g>
    <g
       id="g94678"
       inkscape:power="50"
       inkscape:feed="50"
       inkscape:engrave="0"
       transform="translate(-2.1619231,-0.17373631)">
      <path
         id="path9936-6-6"
         style="fill:none;fill-rule:evenodd;stroke:#000000;stroke-width:0.322221;stroke-linecap:butt;stroke-linejoin:miter;stroke-opacity:1"
         d="m 75.468513,7.4636732 a 1.5562692,1.4615229 0 0 0 -0.0114,4.61e-4 h -0.001 l -15.21263,0.01337 h -4.1e-4 a 1.5562692,1.4615229 0 0 0 -0.19671,-0.01156 1.5562692,1.4615229 0 0 0 -0.19128,0.01194 h -0.0909 v 0.01289 a 1.5562692,1.4615229 0 0 0 -1.27418,1.436493 1.5562692,1.4615229 0 0 0 1.27418,1.4364928 v 0.0152 h 0.10974 a 1.5562692,1.4615229 0 0 0 0.17249,0.0102 1.5562692,1.4615229 0 0 0 0.172,-0.0102 h 15.10043 a 1.5562692,1.4615229 0 0 0 0.15026,0.008 1.5562692,1.4615229 0 0 0 1.5564,-1.4613638 1.5562692,1.4615229 0 0 0 -1.5564,-1.461823 z"
         inkscape:power="50"
         inkscape:feed="50"
         inkscape:engrave="0" />
      <text
         xml:space="preserve"
         style="font-weight:bold;font-size:22.1696px;font-family:Arial;-inkscape-font-specification:'Arial Bold';fill:none;fill-rule:evenodd;stroke:#000000;stroke-width:0.522195;stroke-linecap:round;stroke-linejoin:miter;stroke-opacity:1;paint-order:normal"
         x="58.447662"
         y="32.276512"
         id="text43830-6"
         inkscape:power="50"
         inkscape:feed="50"
         inkscape:engrave="0"><tspan
           sodipodi:role="line"
           id="tspan43828-0"
           style="font-style:normal;font-variant:normal;font-weight:bold;font-stretch:normal;font-family:Impact;-inkscape-font-specification:'Impact Bold';stroke:#000000;stroke-width:0.522194;stroke-opacity:1"
           x="58.447662"
           y="32.276512">2ยบ</tspan></text>
      <path
         id="path54002-9"
         style="fill:#000000;stroke-width:0.0803796"
         d="m 71.105183,5.0388337 c -0.0152,1.28e-4 -0.0306,1.66e-4 -0.046,5.16e-4 -0.18455,0.004 -0.3803,0.02258 -0.58704,0.05219 -3.21707,0.413436 -2.61622,0.413539 -0.14573,2.3001185 0.38065,0.261342 2.80673,0.473495 2.75177,-0.06046 -0.17535,-1.7034845 -0.81558,-2.2563445 -1.83813,-2.2908165 -0.0442,-0.0015 -0.0892,-0.0019 -0.13488,-0.0015 z m 3.18534,1.4898315 c -0.22173,0 -0.35508,0.413444 -0.41135,1.009241 a 1.05021,1.4791214 0 0 1 0.35709,-0.100252 1.05021,1.4791214 0 0 1 0.23512,0.03927 c 0.11718,-0.242127 0.27021,-0.383723 0.45631,-0.368453 0.0286,0.0023 0.0582,0.0086 0.0884,0.0186 0.52738,0.174545 0.77998,0.274014 1.6154,0.637171 0.26328,0.114445 0.27383,0.155258 0.33486,1.308447 0.0259,0.488677 0.0676,1.0916328 0.093,1.3394528 0.0463,0.450583 0.0464,0.450113 -0.79633,1.029395 -1.0062,0.691638 -0.79122,0.689014 -1.44901,0.01964 -0.22719,-0.231195 -0.38917,-0.623856 -0.49041,-1.081588 a 1.05021,1.4791214 0 0 1 -0.0873,0.01654 1.05021,1.4791214 0 0 1 -0.19637,-0.03669 c 0.11952,0.620681 0.29168,1.134931 0.50747,1.361157 0.81019,0.849393 0.74675,0.8478 1.90221,0.05064 1.14212,-0.787952 1.04927,-0.549434 0.91415,-2.3445598 -0.0615,-0.816475 -0.11278,-1.550795 -0.11369,-1.631425 -0.003,-0.230533 -2.42383,-1.266589 -2.95951,-1.266589 z m 6.22649,3.9434288 c -0.31728,0.0068 -0.63929,0.14452 -0.99632,0.390673 -1.54326,1.063981 -1.50948,1.225241 0.88832,4.227649 2.13904,2.678416 1.85698,2.573169 2.94194,1.095541 1.00932,-1.374624 0.97762,-1.179259 0.36276,-2.230872 -1.42771,-2.441855 -2.26967,-3.453231 -3.13314,-3.482475 -0.0211,-7.15e-4 -0.0424,-9.7e-4 -0.0636,-5.16e-4 z m -0.0114,0.360701 c 0.58811,-0.01439 1.16367,0.675407 2.41742,2.561601 1.00171,1.507005 0.99223,1.379579 0.19069,2.489253 -0.86264,1.19425 -0.52903,1.335171 -2.40451,-1.015442 -2.27118,-2.846576 -2.26109,-2.805727 -0.94102,-3.724837 0.27532,-0.191696 0.50729,-0.304945 0.73742,-0.310575 z m -1.61334,4.215762 c -0.003,-1.4e-5 -0.006,2.93e-4 -0.008,5.17e-4 -0.11676,0.0098 -0.12137,0.248122 -0.0842,0.674378 0.0258,0.296096 0.0848,1.119575 0.13126,1.830379 0.0513,0.786174 0.1625,1.640771 0.28318,2.181262 0.10912,0.488681 0.2154,0.967328 0.23617,1.064018 0.0208,0.09671 0.10029,0.190466 0.17725,0.208256 0.17624,0.04075 0.082,0.148586 1.13326,-1.290876 1.08805,-1.489808 1.12847,-1.190396 -0.42271,-3.121774 -0.85912,-1.069685 -1.27049,-1.54527 -1.44591,-1.546159 z m 5.82135,1.202511 c -0.21214,-0.0011 -1.58647,1.796359 -1.58647,2.078943 0,0.08794 0.59257,0.903426 1.31672,1.812292 1.28684,1.615119 1.3842,1.713396 1.57613,1.590084 0.3669,-0.235707 -0.86293,-5.413762 -1.30173,-5.480802 -10e-4,-2.33e-4 -0.003,-5.09e-4 -0.005,-5.17e-4 z m -2.30684,3.160531 c -0.51478,0 -2.7524,3.406433 -2.759,4.20026 -0.003,0.39983 -0.0543,1.10863 -0.11317,1.575098 -0.13094,1.03743 -0.17927,0.974947 0.99322,1.280542 1.2773,0.332856 1.18418,0.358478 1.42265,-0.391708 0.53897,-1.695527 1.64304,-5.142976 1.67122,-5.218286 0.0638,-0.170436 -1.00791,-1.445906 -1.21492,-1.445906 z m 0.13746,0.386024 c 0.41654,-0.002 0.61597,1.241461 0.29301,2.251541 -0.21802,0.681848 -0.61263,1.921376 -0.87747,2.754354 -0.26483,0.832973 -0.50652,1.511736 -0.53691,1.508435 -0.12876,-0.01378 -1.48914,-0.40516 -1.52136,-0.4377 -0.0194,-0.01961 0.005,-0.469483 0.0553,-0.999939 0.0499,-0.530454 0.092,-1.177041 0.0935,-1.436605 0.002,-0.420411 1.83496,-3.233173 2.33371,-3.58221 0.0488,-0.03416 0.0956,-0.05243 0.14004,-0.05684 0.007,-6.66e-4 0.0135,-0.001 0.0202,-0.001 z m -32.97059,1.71669 c -0.006,-6.4e-5 -0.0125,2.6e-5 -0.0186,5.17e-4 -0.0848,0.0069 -0.14644,0.07466 -0.17312,0.219109 -0.36328,1.966891 -0.1572,2.936509 0.79892,3.757909 v -5.16e-4 c 1.26041,1.082948 1.41968,1.083992 1.20044,0.0078 -0.0666,-0.32709 -0.16456,-0.940154 -0.21756,-1.362191 -0.13509,-1.075804 -1.11936,-2.570913 -1.57096,-2.621546 -0.007,-7.5e-4 -0.0128,-9.69e-4 -0.0191,-0.001 z m 35.00044,0.806153 c -0.23725,-2.21e-4 -0.43427,0.12609 -0.52813,0.42323 -0.13682,0.433147 -0.48535,1.530168 -0.77411,2.438094 -0.62966,1.979782 -0.69578,1.803058 0.81752,2.18798 1.37525,0.349766 1.32307,0.340767 1.46554,0.249597 0.18984,-0.121473 0.57206,-2.410142 0.57206,-3.426664 0,-0.956233 -0.89711,-1.849691 -1.52962,-1.87172 -0.008,-2.69e-4 -0.0156,-5.1e-4 -0.0233,-5.17e-4 z m -0.008,0.251146 c 0.88432,0.126868 1.30025,1.866358 0.93276,3.902088 -0.0756,0.418813 -0.17235,0.770212 -0.21497,0.780831 -0.0858,0.02146 -2.01371,-0.479808 -2.06499,-0.536918 -0.0544,-0.06058 1.27641,-4.156178 1.3472,-4.146001 z m -34.9498,3.848861 c -0.0393,0.0022 -0.0702,0.02346 -0.11266,0.05064 -0.28587,0.182909 0.47678,3.177382 1.23145,4.834847 0.4505,0.989436 0.51421,0.911709 1.00511,-1.22008 0.4344,-1.886437 0.55515,-1.544556 -0.99736,-2.832904 -0.81438,-0.675809 -1.00857,-0.839071 -1.12654,-0.832507 z m 29.70775,0.733289 c -0.13258,0.006 -0.26368,0.290451 -0.44597,0.804085 -0.30421,0.857139 -0.8715,2.057491 -1.26711,2.682007 -0.18933,0.298873 -0.2726,0.51069 -0.24081,0.611849 0.0603,0.191862 -0.0284,0.196672 1.58388,-0.07803 1.77522,-0.302463 1.67313,-0.111491 1.12448,-2.114081 -0.3642,-1.329384 -0.5607,-1.914616 -0.75447,-1.905827 z m 1.60403,0.550354 c -0.0313,-2.6e-5 -0.0514,0.0033 -0.0579,0.0098 -0.12188,0.12308 0.54446,2.78267 0.72761,2.904216 0.17134,0.113707 3.06081,-0.360316 3.22874,-0.529684 0.33363,-0.336476 0.49865,-1.316677 0.2403,-1.428336 -0.58273,-0.251843 -3.66948,-0.95563 -4.13877,-0.956014 z m -28.02775,2.33164 c -0.006,0 -0.0119,6.51e-4 -0.0176,0.0016 -0.0793,0.01276 -0.1359,0.114629 -0.18396,0.299205 -0.14792,0.56812 -0.72709,3.157388 -0.72709,3.250448 0,0.05102 0.20696,0.39906 0.45992,0.773596 0.61449,0.909826 0.65388,0.905625 1.31878,-0.146761 1.20713,-1.91062 1.14395,-1.66537 0.601,-2.335775 -0.23096,-0.285176 -0.61357,-0.816684 -0.85008,-1.181322 -0.27711,-0.427245 -0.4565,-0.640535 -0.58291,-0.659391 -0.006,-9.01e-4 -0.0121,-0.0016 -0.0181,-0.0016 z m 31.1211,1.291394 c -0.43905,0.0052 -6.17075,1.059173 -6.22442,1.144633 -0.10596,0.168726 -0.11541,0.147104 0.87953,2.069125 0.52193,1.008273 1.02704,1.987806 1.1219,2.176611 0.24331,0.484277 0.3768,0.445544 1.08262,-0.312126 1.96475,-2.109067 3.80585,-5.086043 3.14037,-5.078243 z m -0.43408,0.538469 c 0.0388,-1.29e-4 0.0594,0.003 0.0594,0.0098 0,0.143499 -0.98525,1.735358 -1.54047,2.488737 -1.7872,2.425022 -1.84772,2.431364 -2.93109,0.321428 -0.54113,-1.053907 -0.96597,-1.934397 -0.94361,-1.956987 0.12023,-0.121414 4.77445,-0.861068 5.35574,-0.862996 z m -7.27397,0.750342 c -0.005,1.23e-4 -0.0107,5.47e-4 -0.016,0.001 -0.20522,0.01867 -0.42668,0.302912 -0.84181,0.707967 -0.44393,0.433149 -0.97734,0.914731 -1.18494,1.070219 -0.63334,0.47435 -0.61893,0.49204 1.31775,1.667599 0.93485,0.567453 2.04135,1.241294 2.45928,1.497066 1.0544,0.645288 1.40133,0.605278 1.00976,-0.116272 -0.10217,-0.188261 -0.5734,-1.105702 -1.04749,-2.038635 -1.05678,-2.079615 -1.36103,-2.796756 -1.69653,-2.788977 z m 0.0351,0.486792 c 0.003,1.22e-4 0.005,6.09e-4 0.008,10e-4 0.0525,0.0081 0.0853,0.07117 0.13694,0.172599 0.0758,0.148768 0.58437,1.138138 1.13016,2.198316 0.5458,1.060178 0.98121,1.936438 0.9679,1.947168 -0.0276,0.02231 -4.06989,-2.435486 -4.16718,-2.533696 -0.0349,-0.03525 0.1095,-0.204056 0.32039,-0.375687 0.21088,-0.17163 0.65927,-0.581125 0.99684,-0.909506 0.37161,-0.361495 0.51825,-0.504016 0.60668,-0.500227 z m -3.68815,2.446362 c -0.005,6.5e-5 -0.01,2.48e-4 -0.015,5.18e-4 -0.12524,0.0067 -0.25152,0.07652 -0.47646,0.200504 -0.36625,0.201869 -1.12863,5.249912 -0.88832,5.882329 0.0591,0.155542 0.2902,0.14236 1.02888,-0.05891 0.7634,-0.20801 0.67321,-0.02617 1.13895,-2.291334 0.20096,-0.977356 0.41971,-2.026612 0.48576,-2.331122 0.14224,-0.655758 0.14841,-0.644086 -0.6041,-1.095541 -0.35327,-0.21194 -0.51365,-0.308425 -0.66972,-0.306441 z m -0.0212,0.511598 c 0.0127,-1.02e-4 0.0254,2.3e-4 0.0382,5.15e-4 0.45056,0.01007 0.94974,0.257317 0.91519,0.571543 -0.0145,0.131824 -0.76892,3.871978 -0.86145,4.271057 -0.0292,0.125737 -0.15955,0.201805 -0.51934,0.302824 -0.57518,0.161491 -0.56315,0.160884 -0.56225,0.03411 0.001,-0.20307 0.47788,-5.013125 0.49817,-5.030185 0.12198,-0.10255 0.30082,-0.148338 0.49144,-0.149861 z m -12.96246,0.146243 c -0.39118,0.0039 -1.15815,0.118361 -2.44792,0.329179 -1.22193,0.19973 -2.23425,0.363286 -2.24999,0.363286 -0.4162,0 0.19623,0.701452 1.40715,1.611787 0.82583,0.620836 0.70771,0.649978 1.89188,-0.467155 0.55696,-0.525438 1.16831,-1.09836 1.35805,-1.27279 0.42597,-0.391592 0.54378,-0.569268 0.0408,-0.564307 z m 15.37994,0.836642 c -0.0114,4.08e-4 -0.0205,0.0025 -0.0274,0.0062 -0.20711,0.112409 -0.89122,3.503285 -0.74311,3.683496 0.13563,0.165025 0.0562,0.190843 1.23662,-0.394807 1.51404,-0.751172 2.36523,-1.301666 2.36523,-1.529624 0,-0.24591 -2.47725,-1.777935 -2.83135,-1.765267 z m -8.24136,0.456302 c -0.22949,0.0093 -0.71873,0.227579 -2.40554,0.93276 -2.64925,1.107534 -2.43274,0.911212 -2.20452,1.997294 0.26291,1.251092 0.15083,1.132819 1.32499,1.39113 1.33044,0.292694 1.14411,0.419007 2.60966,-1.768368 1.38038,-2.060257 1.4204,-2.159155 0.97565,-2.424141 -0.11072,-0.06597 -0.16087,-0.119238 -0.25735,-0.127641 -0.0133,-0.0012 -0.0276,-0.0017 -0.0429,-10e-4 z m 0.0724,0.421681 c 0.004,-2.41e-4 0.006,-6.3e-5 0.007,5.17e-4 0.17203,0.06667 0.17227,0.06574 -1.04955,1.900142 -0.60099,0.902304 -1.13359,1.6813 -1.18391,1.731161 -0.0811,0.0804 -1.74973,-0.202988 -1.8619,-0.31626 -0.0486,-0.04905 -0.35871,-1.528203 -0.32711,-1.560112 0.12071,-0.121891 4.19649,-1.740319 4.41523,-1.755448 z m 1.54512,0.674893 c -0.28399,-0.0023 -2.38337,3.317229 -2.22208,3.513481 0.19085,0.232223 3.64955,0.09795 3.90002,-0.151411 0.11257,-0.11208 0.31281,-1.89188 0.23564,-2.094964 -0.0606,-0.159514 -1.73115,-1.265605 -1.91358,-1.267106 z"
         inkscape:power="50"
         inkscape:feed="50"
         inkscape:engrave="0" />
      <circle
         style="fill:none;fill-rule:evenodd;stroke:#000000;stroke-width:0.349343;stroke-linecap:round;stroke-linejoin:miter;stroke-opacity:1;paint-order:normal"
         id="path57974-2"
         inkscape:power="50"
         inkscape:feed="50"
         inkscape:engrave="0"
         cx="67.757164"
         cy="23.367535"
         r="19.825329" />
    </g>
    <g
       id="g94151"
       inkscape:power="50"
       inkscape:feed="50"
       inkscape:engrave="0"
       transform="translate(-2.0848357,1.3898909)">
      <path
         id="path9936-6-67"
         style="fill:none;fill-rule:evenodd;stroke:#000000;stroke-width:0.322221;stroke-linecap:butt;stroke-linejoin:miter;stroke-opacity:1"
         d="m 117.33896,5.9000459 a 1.5562692,1.4615229 0 0 0 -0.0114,4.61e-4 h -0.002 l -15.21263,0.01337 h -4.1e-4 a 1.5562692,1.4615229 0 0 0 -0.19671,-0.01156 1.5562692,1.4615229 0 0 0 -0.19128,0.01194 h -0.091 v 0.01289 a 1.5562692,1.4615229 0 0 0 -1.27418,1.4364933 1.5562692,1.4615229 0 0 0 1.27418,1.436493 v 0.0152 h 0.10974 a 1.5562692,1.4615229 0 0 0 0.17249,0.0102 1.5562692,1.4615229 0 0 0 0.172,-0.0102 h 15.10043 a 1.5562692,1.4615229 0 0 0 0.15026,0.008 1.5562692,1.4615229 0 0 0 1.5564,-1.461364 1.5562692,1.4615229 0 0 0 -1.5564,-1.4618233 z"
         inkscape:power="50"
         inkscape:feed="50"
         inkscape:engrave="0" />
      <text
         xml:space="preserve"
         style="font-weight:bold;font-size:22.1696px;font-family:Arial;-inkscape-font-specification:'Arial Bold';fill:none;fill-rule:evenodd;stroke:#000000;stroke-width:0.522195;stroke-linecap:round;stroke-linejoin:miter;stroke-opacity:1;paint-order:normal"
         x="99.971718"
         y="30.712881"
         id="text43830-2"
         inkscape:power="50"
         inkscape:feed="50"
         inkscape:engrave="0"><tspan
           sodipodi:role="line"
           id="tspan43828-8"
           style="font-style:normal;font-variant:normal;font-weight:bold;font-stretch:normal;font-family:Impact;-inkscape-font-specification:'Impact Bold';stroke:#000000;stroke-width:0.522194;stroke-opacity:1"
           x="99.971718"
           y="30.712881">3ยบ</tspan></text>
      <path
         id="path54002-0"
         style="fill:#000000;stroke-width:0.0803796"
         d="m 112.97563,3.4752069 c -0.0152,1.28e-4 -0.0306,1.66e-4 -0.046,5.16e-4 -0.18455,0.004 -0.3803,0.02258 -0.58704,0.05219 -3.21707,0.413436 -2.61622,0.413539 -0.14573,2.300118 0.38065,0.261342 2.80673,0.4734953 2.75177,-0.06046 -0.17535,-1.703484 -0.81558,-2.256344 -1.83813,-2.290816 -0.0442,-0.0015 -0.0892,-0.0019 -0.13488,-0.0015 z m 3.18534,1.489831 c -0.22173,0 -0.35508,0.413444 -0.41135,1.009241 a 1.05021,1.4791214 0 0 1 0.35709,-0.100252 1.05021,1.4791214 0 0 1 0.23512,0.03927 c 0.11718,-0.242127 0.27021,-0.383723 0.45631,-0.368453 0.0286,0.0023 0.0582,0.0086 0.0884,0.0186 0.52739,0.174545 0.77999,0.274014 1.61541,0.6371713 0.26328,0.114445 0.27383,0.155258 0.33486,1.308447 0.0259,0.488677 0.0676,1.091633 0.093,1.339453 0.0463,0.450583 0.0464,0.450113 -0.79633,1.029395 -1.0062,0.6916378 -0.79122,0.6890138 -1.44901,0.01964 -0.22719,-0.231195 -0.38917,-0.623856 -0.49041,-1.081588 a 1.05021,1.4791214 0 0 1 -0.0873,0.01654 1.05021,1.4791214 0 0 1 -0.19637,-0.03669 c 0.11952,0.620681 0.29168,1.134931 0.50747,1.3611568 0.81019,0.849393 0.74675,0.8478 1.9022,0.05064 1.14213,-0.7879518 1.04928,-0.5494338 0.91416,-2.3445598 -0.0615,-0.816475 -0.11278,-1.550795 -0.11369,-1.631425 -0.003,-0.2305333 -2.42383,-1.2665893 -2.95951,-1.2665893 z m 6.22649,3.9434293 c -0.31728,0.0068 -0.63929,0.14452 -0.99632,0.390673 -1.54326,1.0639808 -1.50948,1.2252408 0.88832,4.2276488 2.13904,2.678417 1.85698,2.573169 2.94193,1.095541 1.00933,-1.374624 0.97763,-1.179259 0.36277,-2.230872 -1.42771,-2.4418548 -2.26967,-3.4532308 -3.13314,-3.4824748 -0.0211,-7.15e-4 -0.0424,-9.7e-4 -0.0636,-5.16e-4 z m -0.0114,0.360701 c 0.58811,-0.01439 1.16367,0.675407 2.41742,2.5616008 1.00171,1.507006 0.99223,1.37958 0.19069,2.489254 -0.86264,1.19425 -0.52903,1.335171 -2.40451,-1.015442 -2.27118,-2.846577 -2.26109,-2.805728 -0.94102,-3.7248378 0.27532,-0.191696 0.50728,-0.304945 0.73742,-0.310575 z m -1.61334,4.2157628 c -0.003,-1.4e-5 -0.006,2.93e-4 -0.008,5.17e-4 -0.11676,0.0098 -0.12137,0.248122 -0.0842,0.674378 0.0258,0.296096 0.0849,1.119575 0.13126,1.830379 0.0513,0.786173 0.1625,1.640771 0.28318,2.181262 0.10912,0.488681 0.21539,0.967328 0.23616,1.064018 0.0208,0.09671 0.10029,0.190466 0.17725,0.208256 0.17625,0.04075 0.082,0.148586 1.13327,-1.290877 1.08805,-1.489808 1.12847,-1.190396 -0.42271,-3.121774 -0.85912,-1.069685 -1.27049,-1.54527 -1.44591,-1.546159 z m 5.82135,1.202511 c -0.21215,-0.0011 -1.58647,1.796359 -1.58647,2.078943 0,0.08794 0.59257,0.903426 1.31672,1.812292 1.28684,1.615119 1.3842,1.713396 1.57613,1.590084 0.3669,-0.235707 -0.86293,-5.413762 -1.30173,-5.480802 -10e-4,-2.33e-4 -0.003,-5.09e-4 -0.005,-5.17e-4 z m -2.30684,3.160531 c -0.51478,0 -2.7524,3.406433 -2.759,4.20026 -0.003,0.39983 -0.0543,1.10863 -0.11317,1.575098 -0.13095,1.03743 -0.17927,0.974947 0.99322,1.280542 1.2773,0.332856 1.18418,0.358478 1.42265,-0.391708 0.53897,-1.695527 1.64304,-5.142976 1.67122,-5.218286 0.0638,-0.170436 -1.00791,-1.445906 -1.21492,-1.445906 z m 0.13746,0.386023 c 0.41654,-0.002 0.61597,1.241462 0.29301,2.251542 -0.21802,0.681848 -0.61263,1.921376 -0.87747,2.754354 -0.26483,0.832973 -0.50652,1.511735 -0.53692,1.508435 -0.12876,-0.01378 -1.48913,-0.40516 -1.52135,-0.4377 -0.0194,-0.01961 0.005,-0.469483 0.0553,-0.999939 0.0499,-0.530454 0.092,-1.177041 0.0935,-1.436605 0.002,-0.420411 1.83496,-3.233173 2.33371,-3.58221 0.0488,-0.03416 0.0956,-0.05243 0.14004,-0.05684 0.007,-6.66e-4 0.0135,-0.001 0.0202,-0.001 z m -32.970557,1.716691 c -0.006,-6.5e-5 -0.0126,2.5e-5 -0.0186,5.16e-4 -0.0848,0.0069 -0.14644,0.07466 -0.17312,0.219109 -0.36328,1.966891 -0.1572,2.93651 0.79892,3.75791 v -5.17e-4 c 1.26041,1.082949 1.41968,1.083992 1.20044,0.0078 -0.0666,-0.32709 -0.16456,-0.940154 -0.21756,-1.36219 -0.13509,-1.075804 -1.11936,-2.570913 -1.57096,-2.621546 -0.006,-7.5e-4 -0.0128,-9.69e-4 -0.0191,-10e-4 z m 35.000437,0.806152 c -0.23725,-2.21e-4 -0.43427,0.126091 -0.52813,0.42323 -0.13682,0.433148 -0.48535,1.530168 -0.77411,2.438094 -0.62966,1.979782 -0.69578,1.803058 0.81752,2.18798 1.37524,0.349766 1.32307,0.340767 1.46554,0.249597 0.18984,-0.121473 0.57206,-2.410142 0.57206,-3.426664 0,-0.956233 -0.89712,-1.849691 -1.52962,-1.87172 -0.008,-2.69e-4 -0.0156,-5.1e-4 -0.0233,-5.17e-4 z m -0.008,0.251147 c 0.88432,0.126867 1.30025,1.866358 0.93276,3.902088 -0.0756,0.418813 -0.17235,0.770211 -0.21497,0.780831 -0.0858,0.02146 -2.01371,-0.479808 -2.06499,-0.536918 -0.0544,-0.06058 1.27641,-4.156178 1.3472,-4.146001 z m -34.949597,3.848861 c -0.0393,0.0022 -0.0702,0.02346 -0.11266,0.05064 -0.28587,0.182909 0.47678,3.177382 1.23145,4.834847 0.4505,0.989436 0.51421,0.911709 1.00511,-1.22008 0.4344,-1.886437 0.55515,-1.544555 -0.99736,-2.832903 -0.81438,-0.67581 -1.00857,-0.839071 -1.12654,-0.832507 z m 29.707747,0.733289 c -0.13258,0.006 -0.26368,0.290451 -0.44597,0.804085 -0.30421,0.857139 -0.8715,2.05749 -1.26711,2.682007 -0.18933,0.298872 -0.2726,0.51069 -0.24081,0.611849 0.0603,0.191862 -0.0284,0.196672 1.58388,-0.07803 1.77522,-0.302463 1.67313,-0.111492 1.12448,-2.114082 -0.3642,-1.329384 -0.56071,-1.914616 -0.75447,-1.905827 z m 1.60403,0.550354 c -0.0313,-2.6e-5 -0.0514,0.0033 -0.0579,0.0098 -0.12188,0.12308 0.54446,2.78267 0.72761,2.904216 0.17134,0.113707 3.06081,-0.360316 3.22874,-0.529684 0.33363,-0.336476 0.49865,-1.316677 0.2403,-1.428336 -0.58273,-0.251843 -3.66948,-0.95563 -4.13877,-0.956014 z m -28.027747,2.33164 c -0.006,0 -0.0119,6.51e-4 -0.0176,0.0016 -0.0793,0.01276 -0.1359,0.114629 -0.18396,0.299206 -0.14792,0.56812 -0.72709,3.157388 -0.72709,3.250448 0,0.05102 0.20696,0.39906 0.45992,0.773596 0.61449,0.909826 0.65388,0.905625 1.31878,-0.146761 1.20713,-1.91062 1.14395,-1.66537 0.601,-2.335775 -0.23096,-0.285176 -0.61357,-0.816684 -0.85008,-1.181323 -0.27711,-0.427244 -0.4565,-0.640534 -0.58291,-0.659391 -0.006,-9e-4 -0.0121,-0.0016 -0.0181,-0.0016 z m 31.121097,1.291394 c -0.43905,0.0052 -6.17075,1.059173 -6.22442,1.144633 -0.10596,0.168726 -0.11541,0.147104 0.87953,2.069125 0.52193,1.008273 1.02704,1.987806 1.1219,2.176611 0.24331,0.484277 0.3768,0.445544 1.08262,-0.312126 1.96475,-2.109067 3.80585,-5.086043 3.14037,-5.078243 z m -0.43408,0.538469 c 0.0387,-1.29e-4 0.0594,0.003 0.0594,0.0098 0,0.143499 -0.98525,1.735358 -1.54047,2.488737 -1.7872,2.425022 -1.84772,2.431364 -2.93109,0.321428 -0.54113,-1.053907 -0.96597,-1.934397 -0.94361,-1.956987 0.12023,-0.121414 4.77445,-0.861068 5.35574,-0.862996 z m -7.27397,0.750342 c -0.005,1.23e-4 -0.0107,5.47e-4 -0.016,0.001 -0.20523,0.01867 -0.42668,0.302912 -0.84181,0.707967 -0.44393,0.433149 -0.97734,0.914731 -1.18494,1.070219 -0.63334,0.47435 -0.61893,0.49204 1.31775,1.667599 0.93485,0.567453 2.04134,1.241294 2.45928,1.497066 1.0544,0.645288 1.40133,0.605278 1.00975,-0.116272 -0.10216,-0.188261 -0.57339,-1.105702 -1.04748,-2.038635 -1.05678,-2.079615 -1.36103,-2.796756 -1.69653,-2.788977 z m 0.0351,0.486792 c 0.003,1.22e-4 0.006,6.09e-4 0.008,10e-4 0.0525,0.0081 0.0853,0.07117 0.13694,0.172599 0.0758,0.148768 0.58437,1.138138 1.13016,2.198316 0.5458,1.060178 0.98121,1.936438 0.9679,1.947168 -0.0276,0.02231 -4.0699,-2.435486 -4.16719,-2.533696 -0.0349,-0.03525 0.10951,-0.204056 0.3204,-0.375687 0.21088,-0.17163 0.65927,-0.581125 0.99684,-0.909506 0.37161,-0.361495 0.51825,-0.504016 0.60668,-0.500227 z m -3.68815,2.446362 c -0.005,6.4e-5 -0.01,2.48e-4 -0.015,5.17e-4 -0.12524,0.0067 -0.25152,0.07652 -0.47646,0.200504 -0.36625,0.201869 -1.12863,5.249913 -0.88831,5.882329 0.0591,0.155542 0.29019,0.14236 1.02887,-0.05891 0.7634,-0.20801 0.67321,-0.02617 1.13895,-2.291333 0.20096,-0.977356 0.41971,-2.026613 0.48576,-2.331123 0.14224,-0.655758 0.14841,-0.644086 -0.6041,-1.095541 -0.35327,-0.21194 -0.51365,-0.308425 -0.66972,-0.306441 z m -0.0212,0.511597 c 0.0127,-1.02e-4 0.0254,2.3e-4 0.0382,5.16e-4 0.45056,0.01007 0.94974,0.257317 0.91519,0.571542 -0.0145,0.131825 -0.76892,3.871978 -0.86145,4.271057 -0.0292,0.125737 -0.15955,0.201806 -0.51935,0.302824 -0.57517,0.161491 -0.56314,0.160885 -0.56224,0.03411 0.002,-0.20307 0.47788,-5.013124 0.49817,-5.030184 0.12198,-0.102551 0.30081,-0.148339 0.49144,-0.149861 z m -12.96246,0.146244 c -0.39118,0.0039 -1.15815,0.118361 -2.447917,0.329179 -1.22193,0.19973 -2.23425,0.363285 -2.24999,0.363285 -0.4162,0 0.19623,0.701452 1.40715,1.611788 0.82583,0.620836 0.70771,0.649978 1.891877,-0.467155 0.55696,-0.525438 1.16831,-1.098361 1.35805,-1.27279 0.42597,-0.391592 0.54378,-0.569268 0.0408,-0.564307 z m 15.37994,0.836641 c -0.0114,4.09e-4 -0.0205,0.0025 -0.0274,0.0062 -0.20711,0.112409 -0.89122,3.503285 -0.74311,3.683496 0.13563,0.165025 0.0562,0.190842 1.23662,-0.394808 1.51404,-0.751172 2.36523,-1.301666 2.36523,-1.529623 0,-0.24591 -2.47725,-1.777936 -2.83135,-1.765267 z m -8.24136,0.456303 c -0.22949,0.0093 -0.71873,0.227579 -2.40554,0.93276 -2.64925,1.107534 -2.43274,0.911211 -2.20452,1.997294 0.26291,1.251092 0.15083,1.132819 1.32499,1.39113 1.33044,0.292694 1.14411,0.419007 2.60966,-1.768368 1.38038,-2.060257 1.4204,-2.159155 0.97565,-2.424141 -0.11072,-0.06597 -0.16087,-0.119238 -0.25735,-0.127641 -0.0133,-0.0012 -0.0276,-0.0017 -0.0429,-0.001 z m 0.0724,0.42168 c 0.004,-2.4e-4 0.006,-6.3e-5 0.007,5.17e-4 0.17203,0.06667 0.17227,0.06574 -1.04955,1.900142 -0.60099,0.902304 -1.13359,1.681301 -1.18391,1.731161 -0.0811,0.0804 -1.74973,-0.202988 -1.8619,-0.31626 -0.0486,-0.04905 -0.35871,-1.528202 -0.32711,-1.560112 0.12071,-0.121891 4.19649,-1.740319 4.41523,-1.755448 z m 1.54512,0.674894 c -0.28399,-0.0023 -2.38337,3.317229 -2.22208,3.513481 0.19085,0.232223 3.64955,0.09795 3.90002,-0.151412 0.11257,-0.112079 0.31281,-1.891879 0.23564,-2.094963 -0.0606,-0.159514 -1.73115,-1.265606 -1.91358,-1.267106 z"
         inkscape:power="50"
         inkscape:feed="50"
         inkscape:engrave="0" />
      <circle
         style="fill:none;fill-rule:evenodd;stroke:#000000;stroke-width:0.349343;stroke-linecap:round;stroke-linejoin:miter;stroke-opacity:1;paint-order:normal"
         id="path57974-3"
         inkscape:power="50"
         inkscape:feed="50"
         inkscape:engrave="0"
         cx="109.62762"
         cy="21.803907"
         r="19.825329" />
    </g>
    <path
       id="path9936-6-67-8"
       style="fill:none;fill-rule:evenodd;stroke:#000000;stroke-width:0.277826;stroke-linecap:butt;stroke-linejoin:miter;stroke-opacity:1"
       d="m 32.873616,53.684631 a 1.341848,1.2601557 0 0 0 -0.0098,3.97e-4 h -0.0017 l -13.116649,0.01155 h -3.53e-4 a 1.341848,1.2601557 0 0 0 -0.169608,-0.01 1.341848,1.2601557 0 0 0 -0.164925,0.01026 h -0.07846 v 0.01112 a 1.341848,1.2601557 0 0 0 -1.098625,1.23858 1.341848,1.2601557 0 0 0 1.098625,1.238572 v 0.01311 h 0.09462 a 1.341848,1.2601557 0 0 0 0.148724,0.0088 1.341848,1.2601557 0 0 0 0.148302,-0.0088 h 13.019908 a 1.341848,1.2601557 0 0 0 0.129557,0.0069 1.341848,1.2601557 0 0 0 1.341961,-1.260015 1.341848,1.2601557 0 0 0 -1.341961,-1.260421 z"
       inkscape:power="50"
       inkscape:feed="50"
       inkscape:engrave="0" />
    <path
       style="fill:none;fill-rule:evenodd;stroke:#000000;stroke-width:0.190946;stroke-linecap:round;stroke-linejoin:round;stroke-opacity:1;paint-order:normal"
       d="M 49.376164,74.999566 38.62732,83.625424 c 0,0 7.590296,-1.752844 7.590296,-1.868166 0,-0.115322 3.158548,-6.757692 3.158548,-6.757692 z"
       id="path108377"
       inkscape:power="50"
       inkscape:feed="50"
       inkscape:engrave="0" />
    <path
       id="path108377-2"
       style="fill:none;fill-rule:evenodd;stroke:#000000;stroke-width:0.25318;stroke-linecap:round;stroke-linejoin:round;stroke-opacity:1;paint-order:normal"
       d="m 17.043704,51.500149 -4.382583,4.373667 -7.7915985,-0.241051 5.2304915,2.797703 -4.8535371,4.843738 -0.00345,3.09445 -1.9988007,1.103218 1.9979126,-0.05971 -0.00888,8.851594 -3.4838729,8.183693 4.3099583,-3.67457 2.432334,2.43724 -0.059666,6.456684 2.2643568,-4.247579 2.308476,2.312934 4.150878,6.467824 -0.09713,-2.461305 c 0.06337,0.0069 1.05322,8.62e-4 5.516093,0.006 l 1.598247,2.705915 10.139271,1.10366 -5.968337,-3.80379 5.327172,0.0052 2.352139,-2.347241 7.174938,0.440224 -4.939095,-2.67206 3.557843,-3.550704 c 2.419487,-0.613039 4.817444,-1.239925 4.817444,-1.317982 0,-0.157545 4.064889,-9.232111 4.064889,-9.232111 L 45.470493,77.530113 45.484719,63.314364 33.71066,51.517138 Z"
       inkscape:power="50"
       inkscape:feed="50"
       inkscape:engrave="0" />
    <path
       style="fill:none;fill-rule:evenodd;stroke:#000000;stroke-width:0.25318;stroke-linecap:round;stroke-linejoin:round;stroke-opacity:1;paint-order:normal"
       d="m 23.174113,79.315034 c 0.150052,0.258546 5.492891,6.327995 5.492891,6.327995 l 1.066628,5.152753 -3.971537,-1.313835 z"
       id="path108505"
       inkscape:power="50"
       inkscape:feed="50"
       inkscape:engrave="0" />
    <path
       style="fill:none;fill-rule:evenodd;stroke:#000000;stroke-width:0.231192;stroke-linecap:round;stroke-linejoin:round;stroke-opacity:1;paint-order:normal"
       d="m 26.424996,81.266801 5.351651,7.394484 9.379792,0.575455 z"
       id="path108761"
       inkscape:power="50"
       inkscape:feed="50"
       inkscape:engrave="0" />
    <path
       style="fill:none;fill-rule:evenodd;stroke:#000000;stroke-width:0.177005;stroke-linecap:round;stroke-linejoin:round;stroke-opacity:1;paint-order:normal"
       d="m 21.134822,87.789399 3.548729,6.007895 7.088716,0.77142 z"
       id="path108889"
       inkscape:power="50"
       inkscape:feed="50"
       inkscape:engrave="0" />
    <path
       style="fill:none;fill-rule:evenodd;stroke:#000000;stroke-width:0.25318;stroke-linecap:round;stroke-linejoin:round;stroke-opacity:1;paint-order:normal"
       d="m 23.048556,87.499676 -0.283576,-5.734615 -3.907094,-6.71139 0.567161,10.019827 z"
       id="path109017"
       inkscape:power="50"
       inkscape:feed="50"
       inkscape:engrave="0" />
    <path
       style="fill:none;fill-rule:evenodd;stroke:#000000;stroke-width:0.229776;stroke-linecap:round;stroke-linejoin:round;stroke-opacity:1;paint-order:normal"
       d="m 16.616577,92.408066 -0.602468,-15.229167 -4.06664,7.953903 z"
       id="path109145"
       inkscape:power="50"
       inkscape:feed="50"
       inkscape:engrave="0" />
    <path
       style="fill:none;fill-rule:evenodd;stroke:#000000;stroke-width:0.216212;stroke-linecap:round;stroke-linejoin:round;stroke-opacity:1;paint-order:normal"
       d="M 8.9613737,87.646512 16.334208,73.815737 9.0420948,78.928276 Z"
       id="path109273"
       inkscape:power="50"
       inkscape:feed="50"
       inkscape:engrave="0" />
    <path
       style="fill:none;fill-rule:evenodd;stroke:#000000;stroke-width:0.225696;stroke-linecap:round;stroke-linejoin:round;stroke-opacity:1;paint-order:normal"
       d="M 3.1235681,82.573962 15.510563,72.012724 6.6627094,74.259798 Z"
       id="path109401"
       inkscape:power="50"
       inkscape:feed="50"
       inkscape:engrave="0" />
    <path
       style="fill:none;fill-rule:evenodd;stroke:#000000;stroke-width:0.25318;stroke-linecap:round;stroke-linejoin:round;stroke-opacity:1;paint-order:normal"
       d="m 10.045798,71.644675 2.520703,-3.686541 9.956816,-0.504143 -7.278559,4.064645 z"
       id="path109529"
       inkscape:power="50"
       inkscape:feed="50"
       inkscape:engrave="0" />
    <path
       style="fill:none;fill-rule:evenodd;stroke:#000000;stroke-width:0.230648;stroke-linecap:round;stroke-linejoin:round;stroke-opacity:1;paint-order:normal"
       d="M 4.8888621,67.032941 21.193091,66.544964 12.639117,62.755952 Z"
       id="path109657"
       inkscape:power="50"
       inkscape:feed="50"
       inkscape:engrave="0" />
    <path
       style="fill:none;fill-rule:evenodd;stroke:#000000;stroke-width:0.180079;stroke-linecap:round;stroke-linejoin:round;stroke-opacity:1;paint-order:normal"
       d="m 6.889508,56.179687 7.238837,0.224113 4.325375,5.961396 z"
       id="path109785"
       inkscape:power="50"
       inkscape:feed="50"
       inkscape:engrave="0" />
    <path
       style="fill:none;fill-rule:evenodd;stroke:#000000;stroke-width:0.300916;stroke-linecap:round;stroke-linejoin:round;stroke-opacity:1;paint-order:normal"
       d="m 6.1457303,68.182306 0.1498023,4.531426 4.3441714,-3.894779 z"
       id="path183951"
       inkscape:power="50"
       inkscape:feed="50"
       inkscape:engrave="0" />
    <path
       style="fill:none;fill-rule:evenodd;stroke:#000000;stroke-width:0.300916;stroke-linecap:round;stroke-linejoin:round;stroke-opacity:1;paint-order:normal"
       d="m 17.418115,82.600467 0.112356,8.08915 c 0,0 3.744971,0 3.632623,-0.149794 -0.112347,-0.149802 -3.744979,-7.939356 -3.744979,-7.939356 z"
       id="path185390"
       inkscape:power="50"
       inkscape:feed="50"
       inkscape:engrave="0" />
    <path
       style="fill:none;fill-rule:evenodd;stroke:#000000;stroke-width:0.300916;stroke-linecap:round;stroke-linejoin:round;stroke-opacity:1;paint-order:normal"
       d="m 6.1457303,63.313835 c 0.4868531,-0.224698 4.4939737,-3.932226 4.4939737,-3.932226 l 3.557731,1.83504 z"
       id="path195905"
       inkscape:power="50"
       inkscape:feed="50"
       inkscape:engrave="0" />
  </g>
</svg>
