<?xml version="1.0" encoding="UTF-8" standalone="no"?>
<!-- Created with Inkscape (http://www.inkscape.org/) -->

<svg
   width="297mm"
   height="210mm"
   viewBox="0 0 297 210"
   version="1.1"
   id="svg19"
   sodipodi:docname="organizador_jumpers-ORG01.svg"
   inkscape:version="1.2-alpha1 (unknown)"
   xmlns:inkscape="http://www.inkscape.org/namespaces/inkscape"
   xmlns:sodipodi="http://sodipodi.sourceforge.net/DTD/sodipodi-0.dtd"
   xmlns="http://www.w3.org/2000/svg"
   xmlns:svg="http://www.w3.org/2000/svg">
  <sodipodi:namedview
     id="namedview21"
     pagecolor="#ffffff"
     bordercolor="#999999"
     borderopacity="1"
     inkscape:pageshadow="0"
     inkscape:pageopacity="0"
     inkscape:pagecheckerboard="0"
     inkscape:deskcolor="#d1d1d1"
     inkscape:document-units="mm"
     showgrid="false"
     inkscape:zoom="0.73432303"
     inkscape:cx="310.49006"
     inkscape:cy="411.94405"
     inkscape:window-width="1920"
     inkscape:window-height="1001"
     inkscape:window-x="-9"
     inkscape:window-y="-9"
     inkscape:window-maximized="1"
     inkscape:current-layer="layer1" />
  <defs
     id="defs16" />
  <g
     inkscape:label="CORTE"
     inkscape:groupmode="layer"
     id="layer1"
     inkscape:power="100"
     inkscape:feed="7"
     inkscape:engrave="0"
     inkscape:highlight-color="#e13535">
    <path
       id="path283"
       style="fill:none;fill-rule:evenodd;stroke:#000000;stroke-width:0.29822"
       d="m 1.9873951,1.080732 v 5.53713 H 4.7603522 V 26.617674 H 1.9987641 V 32.15532 H 89.908127 v -5.53713 h -2.77347 V 6.617862 h 2.77347 v -5.53713 h -9.99991 V 6.8225 a 1.4390132,1.7307824 0 0 0 -1.38596,1.72806 1.4390132,1.7307824 0 0 0 1.38596,1.728576 v 15.480709 h -3.60959 V 10.004734 a 2.3508086,2.1245549 0 0 0 0.83457,-1.620572 2.3508086,2.1245549 0 0 0 -0.83199,-1.621606 l -1.58182,-5.165576 -1.44074,5.155757 a 2.3508086,2.1245549 0 0 0 -0.84749,1.631425 2.3508086,2.1245549 0 0 0 0.74569,1.5477083 V 25.759845 h -3.24683 V 10.004734 a 2.3508086,2.1245549 0 0 0 0.83406,-1.620572 2.3508086,2.1245549 0 0 0 -0.83147,-1.621606 l -1.58182,-5.165576 -1.44074,5.155757 a 2.3508086,2.1245549 0 0 0 -0.84749,1.631425 2.3508086,2.1245549 0 0 0 0.74569,1.5477083 V 25.759845 h -3.24735 V 10.004734 a 2.3508086,2.1245549 0 0 0 0.83458,-1.620572 2.3508086,2.1245549 0 0 0 -0.83199,-1.621606 l -1.58182,-5.165576 -1.44022,5.155757 a 2.3508086,2.1245549 0 0 0 -0.8475,1.631425 2.3508086,2.1245549 0 0 0 0.74569,1.5477083 V 25.759845 h -3.24734 V 10.004734 a 2.3508086,2.1245549 0 0 0 0.83457,-1.620572 2.3508086,2.1245549 0 0 0 -0.83199,-1.621606 l -1.58181,-5.165576 -1.44074,5.155757 a 2.3508086,2.1245549 0 0 0 -0.8475,1.631425 2.3508086,2.1245549 0 0 0 0.74569,1.5477083 V 25.759845 h -3.24734 V 10.004734 a 2.3508086,2.1245549 0 0 0 0.83457,-1.620572 2.3508086,2.1245549 0 0 0 -0.83199,-1.621606 l -1.58181,-5.165576 -1.44023,5.155757 a 2.3508086,2.1245549 0 0 0 -0.84749,1.631425 2.3508086,2.1245549 0 0 0 0.74569,1.5477083 V 25.759845 h -3.24735 V 10.004734 a 2.3508086,2.1245549 0 0 0 0.83458,-1.620572 2.3508086,2.1245549 0 0 0 -0.83199,-1.621606 l -1.58182,-5.165576 -1.44074,5.155757 a 2.3508086,2.1245549 0 0 0 -0.84749,1.631425 2.3508086,2.1245549 0 0 0 0.74569,1.5477083 V 25.759845 h -3.24683 V 10.004734 a 2.3508086,2.1245549 0 0 0 0.83458,-1.620572 2.3508086,2.1245549 0 0 0 -0.832,-1.621606 l -1.58181,-5.165576 -1.44074,5.155757 a 2.3508086,2.1245549 0 0 0 -0.84749,1.631425 2.3508086,2.1245549 0 0 0 0.74569,1.5477083 V 25.759845 h -3.24735 V 10.004734 A 2.3508086,2.1245549 0 0 0 32.551422,8.384162 2.3508086,2.1245549 0 0 0 31.719431,6.762556 L 30.137616,1.59698 28.697393,6.752737 A 2.3508086,2.1245549 0 0 0 27.8499,8.384162 2.3508086,2.1245549 0 0 0 28.595591,9.9318703 V 25.759845 H 25.348244 V 10.004734 A 2.3508086,2.1245549 0 0 0 26.182818,8.384162 2.3508086,2.1245549 0 0 0 25.350828,6.762556 L 23.769012,1.59698 22.328273,6.752737 A 2.3508086,2.1245549 0 0 0 21.48078,8.384162 2.3508086,2.1245549 0 0 0 22.226471,9.9318703 V 25.759845 H 18.979124 V 10.004734 A 2.3508086,2.1245549 0 0 0 19.813698,8.384162 2.3508086,2.1245549 0 0 0 18.981707,6.762556 L 17.399892,1.59698 15.95967,6.752737 a 2.3508086,2.1245549 0 0 0 -0.847494,1.631425 2.3508086,2.1245549 0 0 0 0.745691,1.5477083 V 25.759845 H 11.987302 V 10.279136 A 1.4390132,1.7307824 0 0 0 13.373264,8.55056 1.4390132,1.7307824 0 0 0 11.987302,6.8225 V 1.080732 Z"
       inkscape:power="50"
       inkscape:feed="50"
       inkscape:engrave="0" />
    <rect
       style="fill:none;fill-rule:evenodd;stroke:#000000;stroke-width:0.513935;stroke-miterlimit:4;stroke-dasharray:none"
       id="rect54397-0-7"
       inkscape:power="50"
       inkscape:feed="50"
       inkscape:engrave="0"
       width="118.36131"
       height="19.486065"
       x="92.149208"
       y="2.1857536" />
    <path
       id="path283-3"
       style="fill:none;fill-rule:evenodd;stroke:#000000;stroke-width:0.29822"
       d="m 1.9873971,33.408868 v 5.53713 H 4.7603533 V 58.945811 H 1.9987661 v 5.537646 H 89.908125 v -5.53713 h -2.77347 V 38.945998 h 2.77347 v -5.53713 h -9.99991 v 5.741768 a 1.4390132,1.7307824 0 0 0 -1.38596,1.72806 1.4390132,1.7307824 0 0 0 1.38596,1.728577 v 15.480709 h -3.60959 V 42.332871 a 2.3508086,2.1245549 0 0 0 0.83457,-1.620573 2.3508086,2.1245549 0 0 0 -0.83199,-1.621606 l -1.58182,-5.165576 -1.44074,5.155757 a 2.3508086,2.1245549 0 0 0 -0.84749,1.631425 2.3508086,2.1245549 0 0 0 0.74569,1.547709 v 15.827975 h -3.24683 V 42.332871 a 2.3508086,2.1245549 0 0 0 0.83406,-1.620573 2.3508086,2.1245549 0 0 0 -0.83147,-1.621606 l -1.58182,-5.165576 -1.44074,5.155757 a 2.3508086,2.1245549 0 0 0 -0.84749,1.631425 2.3508086,2.1245549 0 0 0 0.74569,1.547709 v 15.827975 h -3.24735 V 42.332871 a 2.3508086,2.1245549 0 0 0 0.83458,-1.620573 2.3508086,2.1245549 0 0 0 -0.83199,-1.621606 l -1.58182,-5.165576 -1.44022,5.155757 a 2.3508086,2.1245549 0 0 0 -0.8475,1.631425 2.3508086,2.1245549 0 0 0 0.74569,1.547709 v 15.827975 h -3.24734 V 42.332871 a 2.3508086,2.1245549 0 0 0 0.83457,-1.620573 2.3508086,2.1245549 0 0 0 -0.83199,-1.621606 l -1.58181,-5.165576 -1.44074,5.155757 a 2.3508086,2.1245549 0 0 0 -0.8475,1.631425 2.3508086,2.1245549 0 0 0 0.74569,1.547709 v 15.827975 h -3.24734 V 42.332871 a 2.3508086,2.1245549 0 0 0 0.83457,-1.620573 2.3508086,2.1245549 0 0 0 -0.83199,-1.621606 l -1.58181,-5.165576 -1.44023,5.155757 a 2.3508086,2.1245549 0 0 0 -0.84749,1.631425 2.3508086,2.1245549 0 0 0 0.74569,1.547709 v 15.827975 h -3.24735 V 42.332871 a 2.3508086,2.1245549 0 0 0 0.83458,-1.620573 2.3508086,2.1245549 0 0 0 -0.83199,-1.621606 l -1.581821,-5.165576 -1.44074,5.155757 a 2.3508086,2.1245549 0 0 0 -0.84749,1.631425 2.3508086,2.1245549 0 0 0 0.74569,1.547709 v 15.827975 h -3.24683 V 42.332871 a 2.3508086,2.1245549 0 0 0 0.83458,-1.620573 2.3508086,2.1245549 0 0 0 -0.832,-1.621606 l -1.58181,-5.165576 -1.44074,5.155757 a 2.3508086,2.1245549 0 0 0 -0.84749,1.631425 2.3508086,2.1245549 0 0 0 0.74569,1.547709 v 15.827975 h -3.24735 V 42.332871 a 2.3508086,2.1245549 0 0 0 0.834575,-1.620573 2.3508086,2.1245549 0 0 0 -0.831991,-1.621606 l -1.581815,-5.165576 -1.440223,5.155757 a 2.3508086,2.1245549 0 0 0 -0.847493,1.631425 2.3508086,2.1245549 0 0 0 0.745691,1.547709 V 58.087982 H 25.348241 V 42.332871 a 2.3508086,2.1245549 0 0 0 0.834574,-1.620573 2.3508086,2.1245549 0 0 0 -0.83199,-1.621606 l -1.581816,-5.165576 -1.440739,5.155757 a 2.3508086,2.1245549 0 0 0 -0.847493,1.631425 2.3508086,2.1245549 0 0 0 0.745691,1.547709 V 58.087982 H 18.979121 V 42.332871 a 2.3508086,2.1245549 0 0 0 0.834574,-1.620573 2.3508086,2.1245549 0 0 0 -0.831991,-1.621606 l -1.581815,-5.165576 -1.440222,5.155757 a 2.3508086,2.1245549 0 0 0 -0.847494,1.631425 2.3508086,2.1245549 0 0 0 0.745691,1.547709 V 58.087982 H 11.987299 V 42.607273 a 1.4390132,1.7307824 0 0 0 1.385962,-1.728577 1.4390132,1.7307824 0 0 0 -1.385962,-1.72806 v -5.741768 z"
       inkscape:power="50"
       inkscape:feed="50"
       inkscape:engrave="0" />
    <path
       id="path283-7"
       style="fill:none;fill-rule:evenodd;stroke:#000000;stroke-width:0.29822"
       d="m 1.9873976,65.424557 v 5.53713 h 2.772957 V 90.9615 h -2.761588 v 5.537646 H 89.908124 v -5.53713 h -2.77346 V 70.961687 h 2.77346 v -5.53713 h -9.999899 v 5.741768 a 1.4390132,1.7307824 0 0 0 -1.38596,1.728061 1.4390132,1.7307824 0 0 0 1.38596,1.728576 v 15.480709 h -3.60959 V 74.34856 a 2.3508086,2.1245549 0 0 0 0.83457,-1.620572 2.3508086,2.1245549 0 0 0 -0.831991,-1.621607 l -1.581819,-5.165576 -1.44074,5.155757 a 2.3508086,2.1245549 0 0 0 -0.84749,1.631426 2.3508086,2.1245549 0 0 0 0.74569,1.547708 v 15.827975 h -3.24683 V 74.34856 a 2.3508086,2.1245549 0 0 0 0.83405,-1.620572 2.3508086,2.1245549 0 0 0 -0.831461,-1.621607 l -1.581819,-5.165576 -1.440741,5.155757 a 2.3508086,2.1245549 0 0 0 -0.847489,1.631426 2.3508086,2.1245549 0 0 0 0.74569,1.547708 v 15.827975 h -3.24735 V 74.34856 a 2.3508086,2.1245549 0 0 0 0.83458,-1.620572 2.3508086,2.1245549 0 0 0 -0.83199,-1.621607 l -1.58182,-5.165576 -1.44022,5.155757 a 2.3508086,2.1245549 0 0 0 -0.8475,1.631426 2.3508086,2.1245549 0 0 0 0.74569,1.547708 V 90.103671 H 57.192299 V 74.34856 a 2.3508086,2.1245549 0 0 0 0.834575,-1.620572 2.3508086,2.1245549 0 0 0 -0.831995,-1.621607 l -1.581809,-5.165576 -1.44074,5.155757 a 2.3508086,2.1245549 0 0 0 -0.8475,1.631426 2.3508086,2.1245549 0 0 0 0.74569,1.547708 V 90.103671 H 50.82318 V 74.34856 a 2.3508086,2.1245549 0 0 0 0.83457,-1.620572 2.3508086,2.1245549 0 0 0 -0.83199,-1.621607 l -1.58181,-5.165576 -1.44023,5.155757 a 2.3508086,2.1245549 0 0 0 -0.84749,1.631426 2.3508086,2.1245549 0 0 0 0.74569,1.547708 V 90.103671 H 44.45457 V 74.34856 a 2.3508086,2.1245549 0 0 0 0.83458,-1.620572 2.3508086,2.1245549 0 0 0 -0.83199,-1.621607 l -1.58182,-5.165576 -1.44074,5.155757 a 2.3508086,2.1245549 0 0 0 -0.84749,1.631426 2.3508086,2.1245549 0 0 0 0.74569,1.547708 V 90.103671 H 38.08597 V 74.34856 a 2.3508086,2.1245549 0 0 0 0.83458,-1.620572 2.3508086,2.1245549 0 0 0 -0.832,-1.621607 L 36.50674,65.940805 35.066,71.096562 a 2.3508086,2.1245549 0 0 0 -0.84749,1.631426 2.3508086,2.1245549 0 0 0 0.74569,1.547708 V 90.103671 H 31.71685 V 74.34856 a 2.3508086,2.1245549 0 0 0 0.834575,-1.620572 2.3508086,2.1245549 0 0 0 -0.831991,-1.621607 l -1.581815,-5.165576 -1.440223,5.155757 a 2.3508086,2.1245549 0 0 0 -0.847493,1.631426 2.3508086,2.1245549 0 0 0 0.745691,1.547708 V 90.103671 H 25.348246 V 74.34856 a 2.3508086,2.1245549 0 0 0 0.834574,-1.620572 2.3508086,2.1245549 0 0 0 -0.83199,-1.621607 l -1.581816,-5.165576 -1.440739,5.155757 a 2.3508086,2.1245549 0 0 0 -0.847493,1.631426 2.3508086,2.1245549 0 0 0 0.745691,1.547708 V 90.103671 H 18.979126 V 74.34856 A 2.3508086,2.1245549 0 0 0 19.8137,72.727988 2.3508086,2.1245549 0 0 0 18.981709,71.106381 l -1.581815,-5.165576 -1.440221,5.155757 a 2.3508086,2.1245549 0 0 0 -0.847494,1.631426 2.3508086,2.1245549 0 0 0 0.745691,1.547708 V 90.103671 H 11.987305 V 74.622962 a 1.4390132,1.7307824 0 0 0 1.385962,-1.728576 1.4390132,1.7307824 0 0 0 -1.385962,-1.728061 v -5.741768 z"
       inkscape:power="50"
       inkscape:feed="50"
       inkscape:engrave="0" />
    <path
       id="path283-3-0"
       style="fill:none;fill-rule:evenodd;stroke:#000000;stroke-width:0.29822"
       d="m 1.9873966,97.752694 v 5.537126 h 2.772957 v 19.99981 h -2.761588 v 5.53765 H 89.908125 v -5.53713 h -2.77347 v -20.00033 h 2.77347 v -5.537126 h -9.99991 v 5.741766 a 1.4390132,1.7307824 0 0 0 -1.38596,1.72806 1.4390132,1.7307824 0 0 0 1.38596,1.72857 v 15.48071 h -3.60959 v -15.75511 a 2.3508086,2.1245549 0 0 0 0.83457,-1.62057 2.3508086,2.1245549 0 0 0 -0.83199,-1.62161 l -1.581819,-5.165568 -1.440741,5.155748 a 2.3508086,2.1245549 0 0 0 -0.847489,1.63143 2.3508086,2.1245549 0 0 0 0.745689,1.54771 v 15.82797 h -3.24683 v -15.75511 a 2.3508086,2.1245549 0 0 0 0.83406,-1.62057 2.3508086,2.1245549 0 0 0 -0.83147,-1.62161 l -1.58182,-5.165568 -1.44074,5.155748 a 2.3508086,2.1245549 0 0 0 -0.847489,1.63143 2.3508086,2.1245549 0 0 0 0.745689,1.54771 v 15.82797 h -3.24735 v -15.75511 a 2.3508086,2.1245549 0 0 0 0.834581,-1.62057 2.3508086,2.1245549 0 0 0 -0.83199,-1.62161 l -1.58182,-5.165568 -1.44022,5.155748 a 2.3508086,2.1245549 0 0 0 -0.8475,1.63143 2.3508086,2.1245549 0 0 0 0.74569,1.54771 v 15.82797 h -3.247341 v -15.75511 a 2.3508086,2.1245549 0 0 0 0.834571,-1.62057 2.3508086,2.1245549 0 0 0 -0.831991,-1.62161 l -1.58181,-5.165568 -1.44074,5.155748 a 2.3508086,2.1245549 0 0 0 -0.8475,1.63143 2.3508086,2.1245549 0 0 0 0.74569,1.54771 v 15.82797 h -3.24734 v -15.75511 a 2.3508086,2.1245549 0 0 0 0.83457,-1.62057 2.3508086,2.1245549 0 0 0 -0.83199,-1.62161 l -1.58181,-5.165568 -1.44023,5.155748 a 2.3508086,2.1245549 0 0 0 -0.84749,1.63143 2.3508086,2.1245549 0 0 0 0.74569,1.54771 v 15.82797 h -3.24735 v -15.75511 a 2.3508086,2.1245549 0 0 0 0.83458,-1.62057 2.3508086,2.1245549 0 0 0 -0.83199,-1.62161 l -1.581821,-5.165568 -1.44074,5.155748 a 2.3508086,2.1245549 0 0 0 -0.84749,1.63143 2.3508086,2.1245549 0 0 0 0.74569,1.54771 v 15.82797 h -3.24683 v -15.75511 a 2.3508086,2.1245549 0 0 0 0.83458,-1.62057 2.3508086,2.1245549 0 0 0 -0.832,-1.62161 l -1.58181,-5.165568 -1.44074,5.155748 a 2.3508086,2.1245549 0 0 0 -0.84749,1.63143 2.3508086,2.1245549 0 0 0 0.74569,1.54771 v 15.82797 h -3.24735 v -15.75511 a 2.3508086,2.1245549 0 0 0 0.834575,-1.62057 2.3508086,2.1245549 0 0 0 -0.831991,-1.62161 l -1.581815,-5.165568 -1.440223,5.155748 a 2.3508086,2.1245549 0 0 0 -0.847493,1.63143 2.3508086,2.1245549 0 0 0 0.745691,1.54771 v 15.82797 h -3.247347 v -15.75511 a 2.3508086,2.1245549 0 0 0 0.834574,-1.62057 2.3508086,2.1245549 0 0 0 -0.83199,-1.62161 l -1.581816,-5.165568 -1.440739,5.155748 a 2.3508086,2.1245549 0 0 0 -0.847493,1.63143 2.3508086,2.1245549 0 0 0 0.745691,1.54771 v 15.82797 h -3.247347 v -15.75511 a 2.3508086,2.1245549 0 0 0 0.834574,-1.62057 2.3508086,2.1245549 0 0 0 -0.831991,-1.62161 l -1.581815,-5.165568 -1.440222,5.155748 a 2.3508086,2.1245549 0 0 0 -0.847494,1.63143 2.3508086,2.1245549 0 0 0 0.745691,1.54771 v 15.82797 h -3.870565 v -15.48071 a 1.4390132,1.7307824 0 0 0 1.385962,-1.72857 1.4390132,1.7307824 0 0 0 -1.385962,-1.72806 v -5.741766 z"
       inkscape:power="50"
       inkscape:feed="50"
       inkscape:engrave="0" />
    <path
       id="path283-7-7"
       style="fill:none;fill-rule:evenodd;stroke:#000000;stroke-width:0.29822"
       d="m 1.9873971,130.42648 v 5.53713 h 2.772957 v 19.99982 h -2.761588 v 5.53764 H 89.908125 v -5.53713 h -2.77346 v -20.00033 h 2.77346 v -5.53713 h -9.9999 v 5.74177 a 1.4390132,1.7307824 0 0 0 -1.38596,1.72806 1.4390132,1.7307824 0 0 0 1.38596,1.72858 v 15.48071 h -3.60959 v -15.75511 a 2.3508086,2.1245549 0 0 0 0.83457,-1.62057 2.3508086,2.1245549 0 0 0 -0.83199,-1.62161 l -1.58182,-5.16558 -1.44074,5.15576 a 2.3508086,2.1245549 0 0 0 -0.84749,1.63143 2.3508086,2.1245549 0 0 0 0.74569,1.5477 v 15.82798 h -3.24683 v -15.75511 a 2.3508086,2.1245549 0 0 0 0.83405,-1.62057 2.3508086,2.1245549 0 0 0 -0.83146,-1.62161 l -1.58182,-5.16558 -1.44074,5.15576 a 2.3508086,2.1245549 0 0 0 -0.84749,1.63143 2.3508086,2.1245549 0 0 0 0.74569,1.5477 v 15.82798 h -3.24735 v -15.75511 a 2.3508086,2.1245549 0 0 0 0.83458,-1.62057 2.3508086,2.1245549 0 0 0 -0.83199,-1.62161 l -1.58182,-5.16558 -1.44022,5.15576 a 2.3508086,2.1245549 0 0 0 -0.8475,1.63143 2.3508086,2.1245549 0 0 0 0.74569,1.5477 V 155.1056 H 57.1923 v -15.75511 a 2.3508086,2.1245549 0 0 0 0.834575,-1.62057 2.3508086,2.1245549 0 0 0 -0.831995,-1.62161 l -1.58181,-5.16558 -1.44074,5.15576 a 2.3508086,2.1245549 0 0 0 -0.8475,1.63143 2.3508086,2.1245549 0 0 0 0.74569,1.5477 v 15.82798 h -3.24734 v -15.75511 a 2.3508086,2.1245549 0 0 0 0.83457,-1.62057 2.3508086,2.1245549 0 0 0 -0.83199,-1.62161 l -1.58181,-5.16558 -1.44023,5.15576 a 2.3508086,2.1245549 0 0 0 -0.84749,1.63143 2.3508086,2.1245549 0 0 0 0.74569,1.5477 v 15.82798 h -3.24735 v -15.75511 a 2.3508086,2.1245549 0 0 0 0.83458,-1.62057 2.3508086,2.1245549 0 0 0 -0.83199,-1.62161 l -1.58182,-5.16558 -1.44074,5.15576 a 2.3508086,2.1245549 0 0 0 -0.84749,1.63143 2.3508086,2.1245549 0 0 0 0.74569,1.5477 v 15.82798 h -3.24683 v -15.75511 a 2.3508086,2.1245549 0 0 0 0.83458,-1.62057 2.3508086,2.1245549 0 0 0 -0.832,-1.62161 l -1.58181,-5.16558 -1.44074,5.15576 a 2.3508086,2.1245549 0 0 0 -0.84749,1.63143 2.3508086,2.1245549 0 0 0 0.74569,1.5477 v 15.82798 h -3.24735 v -15.75511 a 2.3508086,2.1245549 0 0 0 0.834575,-1.62057 2.3508086,2.1245549 0 0 0 -0.831991,-1.62161 l -1.581815,-5.16558 -1.440223,5.15576 a 2.3508086,2.1245549 0 0 0 -0.847493,1.63143 2.3508086,2.1245549 0 0 0 0.745691,1.5477 v 15.82798 h -3.247347 v -15.75511 a 2.3508086,2.1245549 0 0 0 0.834574,-1.62057 2.3508086,2.1245549 0 0 0 -0.83199,-1.62161 l -1.581816,-5.16558 -1.440739,5.15576 a 2.3508086,2.1245549 0 0 0 -0.847493,1.63143 2.3508086,2.1245549 0 0 0 0.745691,1.5477 v 15.82798 h -3.247347 v -15.75511 a 2.3508086,2.1245549 0 0 0 0.834574,-1.62057 2.3508086,2.1245549 0 0 0 -0.831991,-1.62161 l -1.581815,-5.16558 -1.440222,5.15576 a 2.3508086,2.1245549 0 0 0 -0.847494,1.63143 2.3508086,2.1245549 0 0 0 0.745691,1.5477 v 15.82798 h -3.870565 v -15.48071 a 1.4390132,1.7307824 0 0 0 1.385962,-1.72858 1.4390132,1.7307824 0 0 0 -1.385962,-1.72806 v -5.74177 z"
       inkscape:power="50"
       inkscape:feed="50"
       inkscape:engrave="0" />
    <path
       id="path283-3-0-1"
       style="fill:none;fill-rule:evenodd;stroke:#000000;stroke-width:0.29822"
       d="m 1.9873961,162.75462 v 5.53712 h 2.772957 v 19.99981 h -2.761588 v 5.53765 H 89.908126 v -5.53713 h -2.77347 v -20.00033 h 2.77347 v -5.53712 h -9.99991 v 5.74177 a 1.4390132,1.7307824 0 0 0 -1.38596,1.72805 1.4390132,1.7307824 0 0 0 1.38596,1.72857 v 15.48072 h -3.60959 v -15.75511 a 2.3508086,2.1245549 0 0 0 0.83457,-1.62058 2.3508086,2.1245549 0 0 0 -0.83199,-1.62161 l -1.58182,-5.16556 -1.44074,5.15575 a 2.3508086,2.1245549 0 0 0 -0.84749,1.63142 2.3508086,2.1245549 0 0 0 0.74569,1.54771 v 15.82797 h -3.24683 v -15.75511 a 2.3508086,2.1245549 0 0 0 0.83406,-1.62057 2.3508086,2.1245549 0 0 0 -0.83147,-1.62161 l -1.58182,-5.16556 -1.44074,5.15574 a 2.3508086,2.1245549 0 0 0 -0.84749,1.63143 2.3508086,2.1245549 0 0 0 0.74569,1.54771 v 15.82797 h -3.24735 v -15.75511 a 2.3508086,2.1245549 0 0 0 0.83458,-1.62057 2.3508086,2.1245549 0 0 0 -0.83199,-1.62161 l -1.58182,-5.16556 -1.44022,5.15574 a 2.3508086,2.1245549 0 0 0 -0.8475,1.63143 2.3508086,2.1245549 0 0 0 0.74569,1.54771 v 15.82797 h -3.247341 v -15.75511 a 2.3508086,2.1245549 0 0 0 0.834571,-1.62057 2.3508086,2.1245549 0 0 0 -0.831991,-1.62161 l -1.58181,-5.16556 -1.44074,5.15574 a 2.3508086,2.1245549 0 0 0 -0.8475,1.63143 2.3508086,2.1245549 0 0 0 0.74569,1.54771 v 15.82797 h -3.24734 v -15.75511 a 2.3508086,2.1245549 0 0 0 0.83457,-1.62057 2.3508086,2.1245549 0 0 0 -0.83199,-1.62161 l -1.58181,-5.16556 -1.44023,5.15574 a 2.3508086,2.1245549 0 0 0 -0.84749,1.63143 2.3508086,2.1245549 0 0 0 0.74569,1.54771 v 15.82797 h -3.24735 v -15.75511 a 2.3508086,2.1245549 0 0 0 0.83458,-1.62057 2.3508086,2.1245549 0 0 0 -0.83199,-1.62161 l -1.581821,-5.16556 -1.44074,5.15574 a 2.3508086,2.1245549 0 0 0 -0.84749,1.63143 2.3508086,2.1245549 0 0 0 0.74569,1.54771 v 15.82797 h -3.24683 v -15.75511 a 2.3508086,2.1245549 0 0 0 0.83458,-1.62057 2.3508086,2.1245549 0 0 0 -0.832,-1.62161 l -1.58181,-5.16556 -1.44074,5.15574 a 2.3508086,2.1245549 0 0 0 -0.84749,1.63143 2.3508086,2.1245549 0 0 0 0.74569,1.54771 v 15.82797 h -3.24735 v -15.75511 a 2.3508086,2.1245549 0 0 0 0.834575,-1.62057 2.3508086,2.1245549 0 0 0 -0.831991,-1.62161 l -1.581815,-5.16556 -1.440223,5.15574 a 2.3508086,2.1245549 0 0 0 -0.847493,1.63143 2.3508086,2.1245549 0 0 0 0.745691,1.54771 v 15.82797 h -3.247347 v -15.75511 a 2.3508086,2.1245549 0 0 0 0.834574,-1.62057 2.3508086,2.1245549 0 0 0 -0.83199,-1.62161 l -1.581816,-5.16556 -1.440739,5.15574 a 2.3508086,2.1245549 0 0 0 -0.847493,1.63143 2.3508086,2.1245549 0 0 0 0.745691,1.54771 v 15.82797 h -3.247347 v -15.75511 a 2.3508086,2.1245549 0 0 0 0.834574,-1.62057 2.3508086,2.1245549 0 0 0 -0.831991,-1.62161 l -1.581815,-5.16556 -1.440222,5.15574 a 2.3508086,2.1245549 0 0 0 -0.847494,1.63143 2.3508086,2.1245549 0 0 0 0.745691,1.54771 v 15.82797 h -3.870565 v -15.48071 a 1.4390132,1.7307824 0 0 0 1.385962,-1.72857 1.4390132,1.7307824 0 0 0 -1.385962,-1.72806 v -5.74176 z"
       inkscape:power="50"
       inkscape:feed="50"
       inkscape:engrave="0" />
    <rect
       style="fill:none;fill-rule:evenodd;stroke:#000000;stroke-width:0.513935;stroke-miterlimit:4;stroke-dasharray:none"
       id="rect54397-0-7-3"
       inkscape:power="50"
       inkscape:feed="50"
       inkscape:engrave="0"
       width="118.36131"
       height="19.486065"
       x="92.149208"
       y="24.116606" />
    <rect
       style="fill:none;fill-rule:evenodd;stroke:#000000;stroke-width:0.513935;stroke-miterlimit:4;stroke-dasharray:none"
       id="rect54397-0-7-9"
       inkscape:power="50"
       inkscape:feed="50"
       inkscape:engrave="0"
       width="118.36131"
       height="19.486065"
       x="92.149208"
       y="46.047459" />
    <rect
       style="fill:none;fill-rule:evenodd;stroke:#000000;stroke-width:0.513935;stroke-miterlimit:4;stroke-dasharray:none"
       id="rect54397-0-7-3-2"
       inkscape:power="50"
       inkscape:feed="50"
       inkscape:engrave="0"
       width="118.36131"
       height="19.486065"
       x="92.149208"
       y="67.97831" />
    <rect
       style="fill:none;fill-rule:evenodd;stroke:#000000;stroke-width:0.513935;stroke-miterlimit:4;stroke-dasharray:none"
       id="rect54397-0-7-37"
       inkscape:power="50"
       inkscape:feed="50"
       inkscape:engrave="0"
       width="118.36131"
       height="19.486065"
       x="92.149208"
       y="89.909157" />
    <rect
       style="fill:none;fill-rule:evenodd;stroke:#000000;stroke-width:0.513935;stroke-miterlimit:4;stroke-dasharray:none"
       id="rect54397-0-7-3-4"
       inkscape:power="50"
       inkscape:feed="50"
       inkscape:engrave="0"
       width="118.36131"
       height="19.486065"
       x="92.149208"
       y="111.84001" />
  </g>
  <g
     inkscape:groupmode="layer"
     id="layer2"
     inkscape:power="20"
     inkscape:feed="40"
     inkscape:engrave="2"
     inkscape:label="CONTORNO" />
  <g
     inkscape:groupmode="layer"
     id="layer3"
     inkscape:power="15"
     inkscape:feed="100"
     inkscape:engrave="1"
     inkscape:label="PREENCHIMENTO"
     inkscape:highlight-color="#818181" />
</svg>
