<?xml version="1.0" encoding="UTF-8" standalone="no"?>
<!-- Created with Inkscape (http://www.inkscape.org/) -->

<svg
   width="600mm"
   height="400mm"
   viewBox="0 0 600 400"
   version="1.1"
   id="svg19"
   sodipodi:docname="Stand Microbit.svg"
   inkscape:version="1.2-alpha1 (unknown)"
   xmlns:inkscape="http://www.inkscape.org/namespaces/inkscape"
   xmlns:sodipodi="http://sodipodi.sourceforge.net/DTD/sodipodi-0.dtd"
   xmlns="http://www.w3.org/2000/svg"
   xmlns:svg="http://www.w3.org/2000/svg">
  <sodipodi:namedview
     id="namedview21"
     pagecolor="#ffffff"
     bordercolor="#999999"
     borderopacity="1"
     inkscape:pageshadow="0"
     inkscape:pageopacity="0"
     inkscape:pagecheckerboard="0"
     inkscape:deskcolor="#d1d1d1"
     inkscape:document-units="mm"
     showgrid="false"
     inkscape:zoom="1.0768542"
     inkscape:cx="270.69589"
     inkscape:cy="344.52205"
     inkscape:window-width="1920"
     inkscape:window-height="1001"
     inkscape:window-x="-9"
     inkscape:window-y="-9"
     inkscape:window-maximized="1"
     inkscape:current-layer="svg19" />
  <defs
     id="defs16" />
  <g
     inkscape:groupmode="layer"
     id="layer4"
     inkscape:power="100"
     inkscape:feed="10"
     inkscape:engrave="0"
     inkscape:label="Frente/Trás"
     style="display:inline">
    <path
       id="rect3495"
       style="fill:none;fill-rule:evenodd;stroke:#000000;stroke-width:0.349001;stroke-linecap:round;stroke-linejoin:round"
       d="M 84.582434,2.7827759 76.034119,21.364071 H 66.686886 L 2.3626465,4.0421305 v 17.3219405 1.73271 H 67.01193 v 2.62568 H 2.3626465 V 36.364189 H 167.36239 V 25.722978 h -64.66117 v -2.626713 h 64.66117 V 21.364071 4.0421305 L 103.03816,21.364071 h -9.418551 z"
       inkscape:power="50"
       inkscape:feed="50"
       inkscape:engrave="0" />
    <rect
       style="fill:none;fill-rule:evenodd;stroke:#000000;stroke-width:0.332385;stroke-linecap:round;stroke-linejoin:round"
       id="rect95871"
       inkscape:power="50"
       inkscape:feed="50"
       inkscape:engrave="0"
       width="2.7166164"
       height="10.016616"
       x="83.354073"
       y="9.9305725" />
    <path
       id="rect3495-5"
       style="fill:none;fill-rule:evenodd;stroke:#000000;stroke-width:0.349001;stroke-linecap:round;stroke-linejoin:round"
       d="M 85.153975,39.152132 76.60566,57.733427 H 67.258427 L 2.9341878,40.411487 v 17.32194 1.732711 H 67.583472 v 2.625679 H 2.9341878 V 72.733545 H 167.93394 V 62.092334 h -64.66117 v -2.626713 h 64.66117 V 57.733427 40.412004 L 103.6097,57.733427 h -9.41855 z"
       inkscape:power="50"
       inkscape:feed="50"
       inkscape:engrave="0" />
    <rect
       style="fill:none;fill-rule:evenodd;stroke:#000000;stroke-width:0.332385;stroke-linecap:round;stroke-linejoin:round"
       id="rect95871-1"
       inkscape:power="50"
       inkscape:feed="50"
       inkscape:engrave="0"
       width="2.7166164"
       height="10.016616"
       x="83.925507"
       y="46.300411" />
  </g>
  <g
     inkscape:groupmode="layer"
     id="layer5"
     inkscape:power="15"
     inkscape:feed="100"
     inkscape:engrave="1"
     inkscape:label="Frente/Trás Pree"
     style="display:inline">
    <g
       style="fill:#000000;fill-opacity:1"
       transform="matrix(0.15202613,0,0,0.15202613,75.908043,24.599556)"
       id="g119"
       inkscape:power="50"
       inkscape:feed="50"
       inkscape:engrave="0">
      <g
         style="fill:#000000;fill-opacity:1"
         id="g11"
         inkscape:power="50"
         inkscape:feed="50"
         inkscape:engrave="0">
        <linearGradient
           gradientTransform="matrix(1,0,0,-1,0,419.89)"
           y2="357.53589"
           x2="62.249199"
           y1="405.86911"
           x1="96.915901"
           gradientUnits="userSpaceOnUse"
           id="SVGID_1_">
          <stop
             id="stop4"
             style="stop-color:#02EC00"
             offset="0" />
          <stop
             id="stop6"
             style="stop-color:#3EDCFD"
             offset="1" />
        </linearGradient>
        <path
           style="fill:#000000;fill-opacity:1"
           id="path9"
           d="m 77.1,43.9 c -1.3,0 -2.3,-1 -2.3,-2.3 0,-1.3 1,-2.3 2.3,-2.3 1.3,0 2.3,1 2.3,2.3 0.1,1.2 -1,2.3 -2.3,2.3 z"
           class="st0" />
      </g>
      <g
         style="fill:#000000;fill-opacity:1"
         id="g34"
         inkscape:power="50"
         inkscape:feed="50"
         inkscape:engrave="0">
        <linearGradient
           gradientTransform="matrix(1,0,0,-1,0,419.89)"
           y2="371.64981"
           x2="42.570301"
           y1="419.98349"
           x1="77.237396"
           gradientUnits="userSpaceOnUse"
           id="SVGID_2_">
          <stop
             id="stop13"
             style="stop-color:#02EC00"
             offset="0" />
          <stop
             id="stop15"
             style="stop-color:#3EDCFD"
             offset="1" />
        </linearGradient>
        <path
           style="fill:#000000;fill-opacity:1"
           id="path18"
           d="m 67.1,16.8 c 1.5,0 2.8,-1.2 2.8,-2.8 0,-1.5 -1.2,-2.8 -2.8,-2.8 -1.5,0 -2.8,1.2 -2.8,2.8 0,1.6 1.2,2.8 2.8,2.8"
           class="st1" />
        <linearGradient
           gradientTransform="matrix(1,0,0,-1,0,419.89)"
           y2="381.23019"
           x2="29.213499"
           y1="429.56351"
           x1="63.880199"
           gradientUnits="userSpaceOnUse"
           id="SVGID_3_">
          <stop
             id="stop20"
             style="stop-color:#02EC00"
             offset="0" />
          <stop
             id="stop22"
             style="stop-color:#3EDCFD"
             offset="1" />
        </linearGradient>
        <path
           style="fill:#000000;fill-opacity:1"
           id="path25"
           d="m 46.8,11.3 c -1.5,0 -2.8,1.2 -2.8,2.8 0,1.6 1.2,2.8 2.8,2.8 1.5,0 2.8,-1.2 2.8,-2.8 0,-1.6 -1.3,-2.8 -2.8,-2.8"
           class="st2" />
        <linearGradient
           gradientTransform="matrix(1,0,0,-1,0,419.89)"
           y2="376.40961"
           x2="35.934399"
           y1="424.7431"
           x1="70.601196"
           gradientUnits="userSpaceOnUse"
           id="SVGID_4_">
          <stop
             id="stop27"
             style="stop-color:#02EC00"
             offset="0" />
          <stop
             id="stop29"
             style="stop-color:#3EDCFD"
             offset="1" />
        </linearGradient>
        <path
           style="fill:#000000;fill-opacity:1"
           id="path32"
           d="m 46.8,5.8 c -4.5,0 -8.2,3.7 -8.2,8.2 0,4.5 3.7,8.2 8.2,8.2 h 20.5 c 4.5,0 8.2,-3.7 8.2,-8.2 0,-4.5 -3.7,-8.2 -8.2,-8.2 H 46.8 M 67.3,27.7 H 46.8 C 39.2,27.7 33.1,21.6 33.1,14 33.1,6.4 39.2,0.3 46.8,0.3 H 67.3 C 74.9,0.3 81,6.4 81,14 81,21.6 74.9,27.7 67.3,27.7"
           class="st3" />
      </g>
      <g
         style="fill:#000000;fill-opacity:1"
         id="g117"
         inkscape:power="50"
         inkscape:feed="50"
         inkscape:engrave="0">
        <g
           style="fill:#000000;fill-opacity:1"
           id="g43">
          <linearGradient
             gradientTransform="matrix(1,0,0,-1,0,419.89)"
             y2="386.20959"
             x2="22.271"
             y1="434.543"
             x1="56.937801"
             gradientUnits="userSpaceOnUse"
             id="SVGID_5_">
            <stop
               id="stop36"
               style="stop-color:#02EC00"
               offset="0" />
            <stop
               id="stop38"
               style="stop-color:#3EDCFD"
               offset="1" />
          </linearGradient>
          <path
             style="fill:#000000;fill-opacity:1"
             id="path41"
             d="m 21.4,55.4 h -3.3 v -9.3 c 0,-2.1 -1.2,-3.6 -2.8,-3.6 -1.7,0 -2.8,1.5 -2.8,3.6 v 9.3 H 9.2 v -9.3 c 0,-2.3 -1.4,-3.6 -2.8,-3.6 -1.7,0 -2.8,1.5 -2.8,3.6 v 9.3 H 0.3 v -9.1 c 0,-4.1 2.5,-7 6.1,-7 1.7,0 3.2,0.7 4.5,2.1 1.2,-1.4 2.8,-2.1 4.5,-2.1 3.6,0 6.1,2.9 6.1,7 v 9.1 z"
             class="st4" />
        </g>
        <g
           style="fill:#000000;fill-opacity:1"
           id="g52">
          <linearGradient
             gradientTransform="matrix(1,0,0,-1,0,419.89)"
             y2="380.8335"
             x2="29.766899"
             y1="429.16681"
             x1="64.433601"
             gradientUnits="userSpaceOnUse"
             id="SVGID_6_">
            <stop
               id="stop45"
               style="stop-color:#02EC00"
               offset="0" />
            <stop
               id="stop47"
               style="stop-color:#3EDCFD"
               offset="1" />
          </linearGradient>
          <path
             style="fill:#000000;fill-opacity:1"
             id="path50"
             d="M 27.4,55.4 H 24.1 V 39.6 h 3.3 z M 25.8,37.3 c -1.2,0 -2.1,-1 -2.1,-2.2 0,-1.2 0.9,-2.1 2.1,-2.1 1.2,0 2.2,0.9 2.2,2.1 -0.1,1.3 -1,2.2 -2.2,2.2 z"
             class="st5" />
        </g>
        <g
           style="fill:#000000;fill-opacity:1"
           id="g61">
          <linearGradient
             gradientTransform="matrix(1,0,0,-1,0,419.89)"
             y2="373.94421"
             x2="39.372101"
             y1="422.2774"
             x1="74.038902"
             gradientUnits="userSpaceOnUse"
             id="SVGID_7_">
            <stop
               id="stop54"
               style="stop-color:#02EC00"
               offset="0" />
            <stop
               id="stop56"
               style="stop-color:#3EDCFD"
               offset="1" />
          </linearGradient>
          <path
             style="fill:#000000;fill-opacity:1"
             id="path59"
             d="m 38.1,55.8 c -2.2,0 -4.2,-0.9 -5.7,-2.4 -1.5,-1.5 -2.3,-3.6 -2.3,-5.8 0,-2.3 0.8,-4.3 2.3,-5.8 1.5,-1.5 3.6,-2.4 5.7,-2.4 2.4,0 4.3,0.8 5.8,2.3 l 0.4,0.4 -2.4,2.4 -0.4,-0.4 c -1.1,-1 -2.2,-1.5 -3.4,-1.5 -2.7,0 -4.8,2.2 -4.8,4.9 0,2.7 2.2,5 4.8,5 1.3,0 2.3,-0.5 3.4,-1.5 l 0.4,-0.4 2.5,2.3 -0.5,0.5 c -1.8,1.6 -3.8,2.4 -5.8,2.4 z"
             class="st6" />
        </g>
        <g
           style="fill:#000000;fill-opacity:1"
           id="g70">
          <linearGradient
             gradientTransform="matrix(1,0,0,-1,0,419.89)"
             y2="368.35269"
             x2="47.1679"
             y1="416.6861"
             x1="81.834602"
             gradientUnits="userSpaceOnUse"
             id="SVGID_8_">
            <stop
               id="stop63"
               style="stop-color:#02EC00"
               offset="0" />
            <stop
               id="stop65"
               style="stop-color:#3EDCFD"
               offset="1" />
          </linearGradient>
          <path
             style="fill:#000000;fill-opacity:1"
             id="path68"
             d="m 50.2,55.4 h -3.6 v -7.9 c 0,-5 2.2,-7.5 7.1,-7.9 l 0.7,-0.1 v 3.3 l -0.6,0.1 c -2.7,0.3 -3.7,1.5 -3.7,4.4 v 8.1 z"
             class="st7" />
        </g>
        <g
           style="fill:#000000;fill-opacity:1"
           id="g79">
          <linearGradient
             gradientTransform="matrix(1,0,0,-1,0,419.89)"
             y2="361.8941"
             x2="56.172501"
             y1="410.22739"
             x1="90.839203"
             gradientUnits="userSpaceOnUse"
             id="SVGID_9_">
            <stop
               id="stop72"
               style="stop-color:#02EC00"
               offset="0" />
            <stop
               id="stop74"
               style="stop-color:#3EDCFD"
               offset="1" />
          </linearGradient>
          <path
             style="fill:#000000;fill-opacity:1"
             id="path77"
             d="m 63.6,55.8 c -2.2,0 -4.2,-0.9 -5.7,-2.4 -1.5,-1.6 -2.4,-3.6 -2.4,-5.8 0,-2.2 0.8,-4.3 2.4,-5.8 1.5,-1.6 3.6,-2.4 5.7,-2.4 2.1,0 4.2,0.9 5.7,2.4 1.5,1.5 2.4,3.6 2.4,5.8 0,2.2 -0.8,4.3 -2.4,5.8 -1.5,1.5 -3.6,2.4 -5.7,2.4 z m 0,-13.3 c -2.6,0 -4.6,2.2 -4.6,5 0,2.7 2.1,4.9 4.6,4.9 2.6,0 4.7,-2.2 4.7,-4.9 -0.1,-2.7 -2.2,-5 -4.7,-5 z"
             class="st8" />
        </g>
        <g
           style="fill:#000000;fill-opacity:1"
           id="g88">
          <linearGradient
             gradientTransform="matrix(1,0,0,-1,0,419.89)"
             y2="353.62961"
             x2="67.695801"
             y1="401.96259"
             x1="102.3624"
             gradientUnits="userSpaceOnUse"
             id="SVGID_10_">
            <stop
               id="stop81"
               style="stop-color:#02EC00"
               offset="0" />
            <stop
               id="stop83"
               style="stop-color:#3EDCFD"
               offset="1" />
          </linearGradient>
          <path
             style="fill:#000000;fill-opacity:1"
             id="path86"
             d="m 77.1,55.4 c -1.3,0 -2.3,-1 -2.3,-2.3 0,-1.3 1,-2.3 2.3,-2.3 1.3,0 2.3,1 2.3,2.3 0.1,1.2 -1,2.3 -2.3,2.3 z"
             class="st9" />
        </g>
        <g
           style="fill:#000000;fill-opacity:1"
           id="g97">
          <linearGradient
             gradientTransform="matrix(1,0,0,-1,0,419.89)"
             y2="351.20111"
             x2="71.081596"
             y1="399.53421"
             x1="105.7482"
             gradientUnits="userSpaceOnUse"
             id="SVGID_11_">
            <stop
               id="stop90"
               style="stop-color:#02EC00"
               offset="0" />
            <stop
               id="stop92"
               style="stop-color:#3EDCFD"
               offset="1" />
          </linearGradient>
          <path
             style="fill:#000000;fill-opacity:1"
             id="path95"
             d="m 90.7,55.8 c -4.8,0 -8.1,-3.7 -8.1,-9 0,-0.3 0,-0.7 0,-1 V 32.3 h 3.3 v 8.6 c 1.4,-1 3,-1.5 4.8,-1.5 2.2,0 4.2,0.9 5.7,2.4 1.5,1.6 2.4,3.6 2.4,5.8 0,2.2 -0.8,4.3 -2.4,5.8 -1.5,1.5 -3.5,2.4 -5.7,2.4 z m 0,-13.2 c -2.7,0 -4.8,2.2 -4.8,5 0,2.8 2.1,4.9 4.8,4.9 2.7,0 4.8,-2.2 4.8,-4.9 0,-2.8 -2.1,-5 -4.8,-5 z"
             class="st10" />
        </g>
        <g
           style="fill:#000000;fill-opacity:1"
           id="g106">
          <linearGradient
             gradientTransform="matrix(1,0,0,-1,0,419.89)"
             y2="344.10559"
             x2="80.974098"
             y1="392.4389"
             x1="115.6408"
             gradientUnits="userSpaceOnUse"
             id="SVGID_12_">
            <stop
               id="stop99"
               style="stop-color:#02EC00"
               offset="0" />
            <stop
               id="stop101"
               style="stop-color:#3EDCFD"
               offset="1" />
          </linearGradient>
          <path
             style="fill:#000000;fill-opacity:1"
             id="path104"
             d="m 105,55.4 h -3.3 V 39.6 h 3.3 z m -1.7,-18.1 c -1.2,0 -2.1,-1 -2.1,-2.2 0,-1.2 0.9,-2.1 2.1,-2.1 1.2,0 2.2,0.9 2.2,2.1 0,1.3 -1,2.2 -2.2,2.2 z"
             class="st11" />
        </g>
        <g
           style="fill:#000000;fill-opacity:1"
           id="g115">
          <linearGradient
             gradientTransform="matrix(1,0,0,-1,0,419.89)"
             y2="338.6525"
             x2="88.576797"
             y1="386.98599"
             x1="123.2436"
             gradientUnits="userSpaceOnUse"
             id="SVGID_13_">
            <stop
               id="stop108"
               style="stop-color:#02EC00"
               offset="0" />
            <stop
               id="stop110"
               style="stop-color:#3EDCFD"
               offset="1" />
          </linearGradient>
          <path
             style="fill:#000000;fill-opacity:1"
             id="path113"
             d="m 117.5,55.8 -0.7,-0.1 C 111.9,54.7 110,52.4 110,47 v -3.9 h -1.4 v -3.2 h 1.4 v -3.5 h 3.4 v 3.5 h 4.1 v 3.2 h -4.1 v 4.5 c 0,2.9 1.1,4.4 3.6,4.8 l 0.5,0.1 z"
             class="st12" />
        </g>
      </g>
    </g>
  </g>
  <g
     inkscape:groupmode="layer"
     id="layer6"
     inkscape:power="100"
     inkscape:feed="10"
     inkscape:engrave="0"
     inkscape:label="Suportes"
     style="display:none">
    <path
       id="rect10811"
       style="fill:none;fill-rule:evenodd;stroke:#000000;stroke-width:0.460819;stroke-linecap:round;stroke-linejoin:round"
       d="M 1.4025967,1.2887428 V 4.4048309 H 35.902299 v 2.476852 H 1.4025967 V 10.087689 H 35.902299 v 2.476852 H 1.4025967 v 3.206006 H 35.902299 v 2.476851 H 1.4025967 v 3.206526 H 35.902299 v 2.476847 H 1.4025967 v 3.206 H 35.902299 v 2.47686 H 1.4025967 v 3.20652 H 35.902299 v 2.47685 H 1.4025967 v 3.20601 H 35.902299 v 2.47685 H 1.4025967 v 3.206 H 35.902299 v 2.47685 H 1.4025967 v 3.20653 H 35.902299 v 2.47685 H 1.4025967 v 3.206 H 35.902299 v 2.47686 H 1.4025967 v 3.20652 H 35.902299 v 2.47633 H 1.4025967 v 3.11609 H 66.303545 V 1.2887428 Z"
       inkscape:power="50"
       inkscape:feed="50"
       inkscape:engrave="0" />
    <path
       id="rect10811-4"
       style="fill:none;fill-rule:evenodd;stroke:#000000;stroke-width:0.460819;stroke-linecap:round;stroke-linejoin:round"
       d="m 67.363562,1.2887428 v 3.11609 h 34.499698 v 2.47685 H 67.363562 v 3.2060002 h 34.499698 v 2.47686 H 67.363562 v 3.206 h 34.499698 v 2.47685 H 67.363562 v 3.20653 h 34.499698 v 2.47685 H 67.363562 v 3.206 h 34.499698 v 2.47686 H 67.363562 v 3.20652 h 34.499698 v 2.47685 H 67.363562 v 3.20601 h 34.499698 v 2.47684 H 67.363562 v 3.206 h 34.499698 v 2.47685 H 67.363562 v 3.20653 h 34.499698 v 2.47685 H 67.363562 v 3.206 h 34.499698 v 2.47686 H 67.363562 v 3.20652 h 34.499698 v 2.47633 H 67.363562 v 3.11609 H 132.26451 V 1.2887428 Z"
       inkscape:power="50"
       inkscape:feed="50"
       inkscape:engrave="0" />
  </g>
  <style
     id="style2"
     type="text/css">
	.st0{fill:url(#SVGID_1_);}
	.st1{fill:url(#SVGID_2_);}
	.st2{fill:url(#SVGID_3_);}
	.st3{fill:url(#SVGID_4_);}
	.st4{fill:url(#SVGID_5_);}
	.st5{fill:url(#SVGID_6_);}
	.st6{fill:url(#SVGID_7_);}
	.st7{fill:url(#SVGID_8_);}
	.st8{fill:url(#SVGID_9_);}
	.st9{fill:url(#SVGID_10_);}
	.st10{fill:url(#SVGID_11_);}
	.st11{fill:url(#SVGID_12_);}
	.st12{fill:url(#SVGID_13_);}
</style>
  <g
     inkscape:groupmode="layer"
     id="layer7"
     inkscape:power="100"
     inkscape:feed="10"
     inkscape:engrave="0"
     inkscape:label="Suportes Trangular"
     style="display:none">
    <g
       id="g51271"
       inkscape:power="50"
       inkscape:feed="50"
       inkscape:engrave="0"
       transform="rotate(90,173.45436,82.083846)">
      <path
         style="fill:none;fill-rule:evenodd;stroke:#000000;stroke-width:0.349001;stroke-linecap:round;stroke-linejoin:round"
         d="m 91.54502,95.460336 v -13.92152 l 34.47754,13.92152 z"
         id="path13350"
         inkscape:power="50"
         inkscape:feed="50"
         inkscape:engrave="0" />
      <path
         style="fill:none;fill-rule:evenodd;stroke:#000000;stroke-width:0.349001;stroke-linecap:round;stroke-linejoin:round"
         d="M 91.54502,113.22738 V 99.305858 l 34.47754,13.921522 z"
         id="path13350-6"
         inkscape:power="50"
         inkscape:feed="50"
         inkscape:engrave="0" />
      <path
         style="fill:none;fill-rule:evenodd;stroke:#000000;stroke-width:0.349001;stroke-linecap:round;stroke-linejoin:round"
         d="m 91.54502,148.76146 v -13.92152 l 34.47754,13.92152 z"
         id="path13350-6-8"
         inkscape:power="50"
         inkscape:feed="50"
         inkscape:engrave="0" />
      <path
         style="fill:none;fill-rule:evenodd;stroke:#000000;stroke-width:0.349001;stroke-linecap:round;stroke-linejoin:round"
         d="m 91.54502,166.5285 v -13.92152 l 34.47754,13.92152 z"
         id="path13350-6-8-18"
         inkscape:power="50"
         inkscape:feed="50"
         inkscape:engrave="0" />
      <path
         style="fill:none;fill-rule:evenodd;stroke:#000000;stroke-width:0.349001;stroke-linecap:round;stroke-linejoin:round"
         d="m 91.54502,202.06259 v -13.92152 l 34.47754,13.92152 z"
         id="path13350-6-8-18-8"
         inkscape:power="50"
         inkscape:feed="50"
         inkscape:engrave="0" />
      <path
         style="fill:none;fill-rule:evenodd;stroke:#000000;stroke-width:0.349001;stroke-linecap:round;stroke-linejoin:round"
         d="m 91.54502,219.82963 v -13.92152 l 34.47754,13.92152 z"
         id="path13350-6-8-18-8-6"
         inkscape:power="50"
         inkscape:feed="50"
         inkscape:engrave="0" />
      <path
         style="fill:none;fill-rule:evenodd;stroke:#000000;stroke-width:0.349001;stroke-linecap:round;stroke-linejoin:round"
         d="m 91.54502,237.59667 v -13.92152 l 34.47754,13.92152 z"
         id="path13350-6-8-18-8-6-2"
         inkscape:power="50"
         inkscape:feed="50"
         inkscape:engrave="0" />
      <path
         style="fill:none;fill-rule:evenodd;stroke:#000000;stroke-width:0.349001;stroke-linecap:round;stroke-linejoin:round"
         d="m 91.54502,184.29554 v -13.92152 l 34.47754,13.92152 z"
         id="path13350-6-8-18-8-6-2-0"
         inkscape:power="50"
         inkscape:feed="50"
         inkscape:engrave="0" />
      <path
         style="fill:none;fill-rule:evenodd;stroke:#000000;stroke-width:0.349001;stroke-linecap:round;stroke-linejoin:round"
         d="m 91.54502,255.36371 v -13.92152 l 34.47755,13.92152 z"
         id="path13350-6-8-18-8-6-2-3"
         inkscape:power="50"
         inkscape:feed="50"
         inkscape:engrave="0" />
      <path
         style="fill:none;fill-rule:evenodd;stroke:#000000;stroke-width:0.349001;stroke-linecap:round;stroke-linejoin:round"
         d="M 91.54502,130.99442 V 117.0729 l 34.47754,13.92152 z"
         id="path13350-6-8-1"
         inkscape:power="50"
         inkscape:feed="50"
         inkscape:engrave="0" />
      <path
         style="fill:none;fill-rule:evenodd;stroke:#000000;stroke-width:0.349001;stroke-linecap:round;stroke-linejoin:round"
         d="m 130.75231,81.051383 v 13.92152 L 96.274771,81.051383 Z"
         id="path13350-9"
         inkscape:power="50"
         inkscape:feed="50"
         inkscape:engrave="0" />
      <path
         style="fill:none;fill-rule:evenodd;stroke:#000000;stroke-width:0.349001;stroke-linecap:round;stroke-linejoin:round"
         d="M 130.75231,98.818426 V 112.73995 L 96.274771,98.818426 Z"
         id="path13350-6-3"
         inkscape:power="50"
         inkscape:feed="50"
         inkscape:engrave="0" />
      <path
         style="fill:none;fill-rule:evenodd;stroke:#000000;stroke-width:0.349001;stroke-linecap:round;stroke-linejoin:round"
         d="m 130.75231,134.35251 v 13.92152 L 96.274771,134.35251 Z"
         id="path13350-6-8-9"
         inkscape:power="50"
         inkscape:feed="50"
         inkscape:engrave="0" />
      <path
         style="fill:none;fill-rule:evenodd;stroke:#000000;stroke-width:0.349001;stroke-linecap:round;stroke-linejoin:round"
         d="m 130.75231,152.11955 v 13.92152 L 96.274771,152.11955 Z"
         id="path13350-6-8-18-4"
         inkscape:power="50"
         inkscape:feed="50"
         inkscape:engrave="0" />
      <path
         style="fill:none;fill-rule:evenodd;stroke:#000000;stroke-width:0.349001;stroke-linecap:round;stroke-linejoin:round"
         d="m 130.75231,187.65364 v 13.92152 L 96.274771,187.65364 Z"
         id="path13350-6-8-18-8-0"
         inkscape:power="50"
         inkscape:feed="50"
         inkscape:engrave="0" />
      <path
         style="fill:none;fill-rule:evenodd;stroke:#000000;stroke-width:0.349001;stroke-linecap:round;stroke-linejoin:round"
         d="M 130.75231,205.42068 V 219.3422 L 96.274771,205.42068 Z"
         id="path13350-6-8-18-8-6-9"
         inkscape:power="50"
         inkscape:feed="50"
         inkscape:engrave="0" />
      <path
         style="fill:none;fill-rule:evenodd;stroke:#000000;stroke-width:0.349001;stroke-linecap:round;stroke-linejoin:round"
         d="m 130.75231,223.18772 v 13.92152 L 96.274771,223.18772 Z"
         id="path13350-6-8-18-8-6-2-7"
         inkscape:power="50"
         inkscape:feed="50"
         inkscape:engrave="0" />
      <path
         style="fill:none;fill-rule:evenodd;stroke:#000000;stroke-width:0.349001;stroke-linecap:round;stroke-linejoin:round"
         d="m 130.75231,169.88659 v 13.92152 L 96.274771,169.88659 Z"
         id="path13350-6-8-18-8-6-2-0-4"
         inkscape:power="50"
         inkscape:feed="50"
         inkscape:engrave="0" />
      <path
         style="fill:none;fill-rule:evenodd;stroke:#000000;stroke-width:0.349001;stroke-linecap:round;stroke-linejoin:round"
         d="m 130.75233,240.95476 v 13.92152 L 96.274771,240.95476 Z"
         id="path13350-6-8-18-8-6-2-3-6"
         inkscape:power="50"
         inkscape:feed="50"
         inkscape:engrave="0" />
      <path
         style="fill:none;fill-rule:evenodd;stroke:#000000;stroke-width:0.349001;stroke-linecap:round;stroke-linejoin:round"
         d="m 130.75231,116.58547 v 13.92152 L 96.274771,116.58547 Z"
         id="path13350-6-8-1-1"
         inkscape:power="50"
         inkscape:feed="50"
         inkscape:engrave="0" />
    </g>
  </g>
  <g
     inkscape:groupmode="layer"
     id="layer3"
     inkscape:power="100"
     inkscape:feed="10"
     inkscape:engrave="0"
     inkscape:label="Suporte Central"
     inkscape:highlight-color="#818181"
     style="display:none">
    <rect
       style="fill:none;fill-rule:evenodd;stroke:#000000;stroke-width:0.46;stroke-linecap:round;stroke-linejoin:round;stroke-miterlimit:4;stroke-dasharray:none"
       id="rect95871-8"
       inkscape:power="50"
       inkscape:feed="50"
       inkscape:engrave="0"
       width="8.5073175"
       height="64.507286"
       x="0.23"
       y="0.23" />
  </g>
</svg>
