<?xml version="1.0" encoding="UTF-8" standalone="no"?>
<!-- Created with Inkscape (http://www.inkscape.org/) -->

<svg
   width="600mm"
   height="400mm"
   viewBox="0 0 600 400"
   version="1.1"
   id="svg19"
   sodipodi:docname="Toten-entre_conexões.svg"
   inkscape:version="1.2-alpha1 (unknown)"
   xmlns:inkscape="http://www.inkscape.org/namespaces/inkscape"
   xmlns:sodipodi="http://sodipodi.sourceforge.net/DTD/sodipodi-0.dtd"
   xmlns="http://www.w3.org/2000/svg"
   xmlns:svg="http://www.w3.org/2000/svg">
  <sodipodi:namedview
     id="namedview21"
     pagecolor="#ffffff"
     bordercolor="#999999"
     borderopacity="1"
     inkscape:pageshadow="0"
     inkscape:pageopacity="0"
     inkscape:pagecheckerboard="0"
     inkscape:deskcolor="#d1d1d1"
     inkscape:document-units="mm"
     showgrid="false"
     inkscape:zoom="0.76145088"
     inkscape:cx="458.33554"
     inkscape:cy="151.02747"
     inkscape:window-width="1920"
     inkscape:window-height="1001"
     inkscape:window-x="-9"
     inkscape:window-y="-9"
     inkscape:window-maximized="1"
     inkscape:current-layer="svg19" />
  <defs
     id="defs16" />
  <g
     inkscape:label="CORTE"
     inkscape:groupmode="layer"
     id="layer1"
     inkscape:power="100"
     inkscape:feed="10"
     inkscape:engrave="0"
     inkscape:highlight-color="#e13535">
    <path
       d="m 121.05001,33.049999 v 9.938 h 3 v 10.125 h -3 v 9.937 h 12.18801 v -3 h 10.125 v 3 h 10.125 v -3 h 10.125 v 3 h 10.125 v -3 h 10.125 v 3 h 10.125 2.062 v -9.937 h -3 v -10.125 h 3 v -9.938 h -12.187 v 3 h -10.125 v -3 h -10.125 v 3 h -10.125 v -3 h -10.125 v 3 h -10.125 v -3 h -10.12501 z"
       id="back_outsideCutPath"
       stroke="#FF0000"
       stroke-width="0.1"
       style="font-size:12px;fill:none;fill-rule:evenodd;stroke:#ff0000;stroke-width:0.1;stroke-linecap:round"
       vector-effect="non-scaling-stroke"
       inkscape:power="50"
       inkscape:feed="50"
       inkscape:engrave="0" />
    <path
       d="m 81.05,33.049999 v 9.938 h -3 v 10.125 h 3 v 9.937 h 11.938 v -3 h 10.125 v 3 h 10.125 1.812 v -9.937 h 3 v -10.125 h -3 v -9.938 h -11.937 v 3 H 92.988 v -3 H 82.863 Z"
       id="right_outsideCutPath"
       stroke="#FF0000"
       stroke-width="0.1"
       style="font-size:12px;fill:none;fill-rule:evenodd;stroke:#ff0000;stroke-width:0.1;stroke-linecap:round"
       vector-effect="non-scaling-stroke"
       inkscape:power="50"
       inkscape:feed="50"
       inkscape:engrave="0" />
    <path
       d="m 3.05,46.049999 v 11.938 h -3 v 10.125 h 3 v 10.125 1.812 h 9.188 v 3 h 10.125 v -3 h 10.125 v 3 h 10.125 v -3 h 10.125 v 3 h 10.125 v -3 h 9.187 v -11.937 h 3 v -10.125 h -3 v -10.125 -1.813 h -9.187 v -3 H 52.738 v 3 H 42.613 v -3 H 32.488 v 3 H 22.363 v -3 H 12.238 v 3 z"
       id="bottom_outsideCutPath"
       stroke="#FF0000"
       stroke-width="0.1"
       style="font-size:12px;fill:none;fill-rule:evenodd;stroke:#ff0000;stroke-width:0.1;stroke-linecap:round"
       vector-effect="non-scaling-stroke"
       inkscape:power="50"
       inkscape:feed="50"
       inkscape:engrave="0" />
    <path
       d="m 121.05,0.050007 v 9.9380001 h 3 V 20.113007 h -3 v 9.93699 h 12.18801 v -3 h 10.125 v 3 h 10.125 v -3 h 10.125 v 3 h 10.125 v -3 h 10.125 v 3 h 10.125 2.062 v -9.93699 h -3 V 9.9880071 h 3 V 0.050007 h -12.187 v 3 h -10.125 v -3 h -10.125 v 3 h -10.125 v -3 h -10.125 v 3 h -10.125 v -3 H 123.113 Z"
       id="front_outsideCutPath"
       stroke="#FF0000"
       stroke-width="0.1"
       style="font-size:12px;fill:none;fill-rule:evenodd;stroke:#ff0000;stroke-width:0.1;stroke-linecap:round"
       vector-effect="non-scaling-stroke"
       inkscape:power="50"
       inkscape:feed="50"
       inkscape:engrave="0" />
    <path
       d="m 81.05,0.050002 v 9.9380001 h -3 V 20.113002 h 3 v 9.937 h 11.938 v -3 h 10.125 v 3 h 10.125 1.812 v -9.937 h 3 V 9.9880021 h -3 V 0.050002 h -11.937 v 3 H 92.988 v -3 H 82.863 Z"
       id="left_outsideCutPath"
       stroke="#FF0000"
       stroke-width="0.1"
       style="font-size:12px;fill:none;fill-rule:evenodd;stroke:#ff0000;stroke-width:0.1;stroke-linecap:round"
       vector-effect="non-scaling-stroke"
       inkscape:power="50"
       inkscape:feed="50"
       inkscape:engrave="0" />
    <path
       d="m 3.05,3.05 v 11.938 h -3 v 10.125 h 3 V 35.23801 37.05 h 9.188 v 3 h 10.125 v -3 h 10.125 v 3 h 10.125 v -3 h 10.125 v 3 h 10.125 v -3 H 72.05 V 25.113 h 3 V 14.988 h -3 V 4.863 3.05 h -9.187 v -3 H 52.738 v 3 H 42.613 v -3 H 32.488 v 3 H 22.363 v -3 H 12.238 v 3 z"
       id="top_outsideCutPath"
       stroke="#FF0000"
       stroke-width="0.1"
       style="font-size:12px;fill:none;fill-rule:evenodd;stroke:#ff0000;stroke-width:0.1;stroke-linecap:round"
       vector-effect="non-scaling-stroke"
       inkscape:power="50"
       inkscape:feed="50"
       inkscape:engrave="0" />
  </g>
  <g
     inkscape:groupmode="layer"
     id="layer3"
     inkscape:power="15"
     inkscape:feed="100"
     inkscape:engrave="1"
     inkscape:label="PREENCHIMENTO"
     inkscape:highlight-color="#818181">
    <path
       style="fill:#000000;stroke-width:0.0494245"
       d="m 144.69461,54.813086 c -0.50872,-0.183142 -0.89113,-0.539752 -1.12684,-1.050807 -0.0824,-0.178569 -0.10319,-0.325034 -0.10567,-0.743017 -0.003,-0.489023 0.007,-0.539921 0.15463,-0.839001 0.0867,-0.175116 0.15227,-0.323849 0.1456,-0.330513 -0.007,-0.0067 -0.12225,0.0052 -0.25686,0.02658 -0.3154,0.04984 -0.54795,-0.0099 -0.59678,-0.15339 -0.0207,-0.06085 -0.0337,-0.126055 -0.0288,-0.144954 0.005,-0.01889 -0.0525,-0.07807 -0.12756,-0.131508 -0.12734,-0.09067 -0.15441,-0.0925 -0.40526,-0.02743 -0.57138,0.148218 -1.10768,0.02651 -1.27952,-0.290449 -0.0439,-0.08095 -0.16649,-0.249472 -0.27245,-0.374479 -0.26293,-0.310226 -0.33125,-0.498032 -0.35136,-0.965949 -0.0188,-0.436164 -0.10833,-1.399345 -0.29566,-3.178811 -0.0981,-0.931943 -0.14148,-1.187624 -0.23059,-1.35917 -0.13939,-0.268351 -0.14459,-0.803373 -0.0107,-1.100929 0.0489,-0.108734 0.092,-0.302207 0.0957,-0.429937 0.01,-0.34549 0.11756,-0.466105 0.63152,-0.708542 1.22798,-0.579236 3.23742,-1.11633 4.46982,-1.194712 0.39918,-0.02541 0.46682,-0.01805 0.52133,0.05648 0.0578,0.07899 0.0842,0.08 0.34066,0.01303 0.31574,-0.08245 0.60495,-0.04873 0.94367,0.110055 0.34277,0.160667 0.47589,0.306344 0.57149,0.625378 l 0.0877,0.292651 0.0356,-0.185344 c 0.0195,-0.101939 0.0568,-0.185337 0.0827,-0.185337 0.026,0 0.0474,-0.02782 0.0476,-0.06176 2e-4,-0.03394 0.0773,-0.114172 0.17131,-0.17821 0.094,-0.06404 0.1838,-0.15683 0.19947,-0.20621 0.0465,-0.146654 0.39845,-0.432907 0.60151,-0.489296 0.26425,-0.07338 0.37448,-0.06656 0.65654,0.04065 0.47149,0.179148 0.87166,0.564943 1.41365,1.362831 0.15724,0.231486 0.29358,0.413188 0.30299,0.403788 0.009,-0.0094 -0.008,-0.133124 -0.0382,-0.274924 -0.0979,-0.456653 0.0481,-0.842129 0.46468,-1.226067 0.42197,-0.38896 0.92303,-0.410745 1.44197,-0.06267 0.10874,0.07293 0.27201,0.157918 0.36285,0.188861 0.18008,0.06137 0.11423,0.0978 0.74152,-0.410321 0.11811,-0.09567 0.24043,-0.176119 0.27184,-0.17879 0.0314,-0.0026 0.8689,-0.0013 1.8611,0.0033 1.71604,0.0079 3.03741,-0.04261 3.94708,-0.151195 0.49228,-0.05876 1.63168,-0.113013 2.08481,-0.09929 0.44667,0.01355 0.81588,0.104239 1.48447,0.364733 1.06306,0.414198 1.78714,0.807967 3.24012,1.762066 l 0.79749,0.523661 0.003,-0.183064 c 0.004,-0.29411 0.13376,-0.431637 0.62548,-0.66324 1.21816,-0.573764 3.24488,-1.114441 4.46907,-1.192243 0.41129,-0.02612 0.47204,-0.01935 0.52977,0.05967 0.0612,0.08365 0.0818,0.08445 0.33288,0.01303 0.40882,-0.116303 0.8835,-3.71e-4 1.25583,0.306423 0.19737,0.162686 0.28422,0.38227 0.33808,0.854759 0.0301,0.264111 0.0416,0.284456 0.16193,0.287954 0.15665,0.0046 0.38918,0.09072 0.54259,0.20107 0.0837,0.06019 0.12711,0.163767 0.16744,0.399188 0.03,0.174862 0.0406,0.353841 0.0238,0.397736 -0.018,0.04684 -0.17978,0.124042 -0.39161,0.186855 -0.19854,0.05889 -0.37656,0.116407 -0.39561,0.127853 -0.0191,0.0114 0.0202,0.101574 0.0872,0.200288 0.067,0.09871 0.1348,0.260762 0.15068,0.360115 0.0253,0.15797 0.0545,0.189539 0.23279,0.251583 0.15153,0.0527 0.23214,0.121723 0.31381,0.268638 0.0605,0.108733 0.16668,0.259238 0.23606,0.334467 0.23379,0.253446 0.11845,0.73632 -0.20819,0.871613 l -0.14834,0.06143 0.0995,0.255877 c 0.0547,0.140726 0.11745,0.303829 0.13933,0.362453 0.0233,0.06234 0.10038,0.119893 0.18571,0.138635 0.41621,0.09142 0.79948,0.879006 0.79948,1.642902 0,0.44638 -0.18375,0.621209 -0.79432,0.755766 -1.0583,0.233225 -2.32702,0.607502 -3.18435,0.939396 l -0.14827,0.05739 0.28403,0.116082 c 0.15621,0.06384 0.35026,0.163253 0.43121,0.220893 l 0.14719,0.104806 -0.25148,0.34575 c -0.13831,0.190164 -0.26563,0.338108 -0.28293,0.328766 -0.34716,-0.187298 -0.65806,-0.298721 -0.893,-0.320024 -0.24765,-0.02248 -0.30189,-0.01153 -0.3925,0.07909 -0.22544,0.22544 -0.0863,0.361014 0.54331,0.529296 0.49618,0.132628 0.94544,0.318734 1.09939,0.455441 0.14053,0.124772 0.27624,0.453213 0.27748,0.67154 0.003,0.471779 -0.26033,0.874551 -0.70107,1.073698 -0.22555,0.10192 -0.3366,0.118095 -0.80529,0.117307 -0.59606,-0.0013 -0.88855,-0.07224 -1.34103,-0.326624 -0.39126,-0.219968 -0.39195,-0.225193 -0.0755,-0.573907 l 0.27979,-0.30835 0.36507,0.183552 c 0.28702,0.144322 0.43619,0.187578 0.6978,0.20236 0.40603,0.02293 0.54343,-0.03752 0.54343,-0.239212 0,-0.182269 -0.10379,-0.239082 -0.76446,-0.418419 -0.59829,-0.162407 -0.80421,-0.26314 -1.00471,-0.491493 -0.1736,-0.197728 -0.23036,-0.419116 -0.19685,-0.767882 l 0.023,-0.239401 h -0.15926 c -0.0876,0 -0.20645,-0.02528 -0.26411,-0.05609 -0.094,-0.05029 -0.10483,-0.04319 -0.10483,0.06919 v 0.1253 h -0.96378 -0.96377 v 0.270697 0.27069 l 0.87728,0.01348 0.87728,0.01349 0.0144,0.383039 0.0144,0.383039 h -0.89171 -0.89172 v 0.321262 0.321256 h 0.98849 0.98849 v 0.420106 0.420113 h -1.48473 -1.48472 l 0.007,-1.925345 c 0.003,-1.058937 -0.009,-1.949656 -0.0271,-1.979376 -0.0205,-0.03322 -0.0555,-0.03681 -0.0908,-0.0093 -0.11198,0.08721 -0.3108,0.105385 -0.81569,0.07458 -0.41252,-0.02515 -0.54229,-0.05231 -0.67239,-0.140603 -0.12068,-0.08189 -0.18315,-0.09712 -0.24845,-0.06058 -0.0806,0.04514 -0.26346,0.03361 -0.64768,-0.04085 -0.14761,-0.0286 -0.15205,-0.02417 -0.14828,0.147742 0.004,0.168562 0.0123,0.177272 0.17688,0.178562 0.68285,0.0052 1.36498,0.432054 1.69701,1.061562 0.14814,0.280873 0.1564,0.325275 0.1564,0.840213 0,0.513746 -0.009,0.560032 -0.15551,0.841015 -0.19136,0.365899 -0.57092,0.728965 -0.94576,0.904647 -0.25284,0.118512 -0.33987,0.132466 -0.82628,0.132466 -0.5069,0 -0.5658,-0.01049 -0.87102,-0.155104 -0.42044,-0.199213 -0.68265,-0.438607 -0.87117,-0.795412 -0.39368,-0.745056 -0.30037,-1.568312 0.24544,-2.165515 0.13796,-0.150947 0.31355,-0.306884 0.39021,-0.346525 0.15933,-0.08239 0.14712,-0.179194 -0.0329,-0.261238 -0.0677,-0.03088 -0.12085,-0.0972 -0.12085,-0.150921 0,-0.234815 -0.0471,-0.251844 -0.26725,-0.09664 -0.22878,0.161259 -0.5141,0.221707 -0.79648,0.168732 -0.13096,-0.02456 -0.26697,-0.119613 -0.49671,-0.347099 -0.17399,-0.172295 -0.33816,-0.370609 -0.36481,-0.440705 -0.0266,-0.07009 -0.0704,-0.433742 -0.0971,-0.808103 -0.0268,-0.374369 -0.12742,-1.14773 -0.22367,-1.718582 -0.21592,-1.280631 -0.21108,-1.260326 -0.30025,-1.260326 -0.0442,0 -0.0732,-0.04671 -0.0732,-0.117795 0,-0.07492 -0.0348,-0.126902 -0.0957,-0.14281 -0.0638,-0.01668 -0.088,-0.05563 -0.0725,-0.116968 0.0169,-0.06739 -0.0296,-0.121775 -0.17434,-0.203578 -0.24389,-0.137866 -0.43767,-0.455786 -0.45915,-0.753303 -0.0173,-0.238841 -0.031,-0.244964 -0.37899,-0.16879 l -0.11805,0.02586 0.0192,2.92573 c 0.0106,1.609157 6.6e-4,2.99802 -0.0217,3.08637 l -0.041,0.160628 0.2387,0.0013 0.23869,0.0013 0.29654,0.491493 c 0.16311,0.270318 0.30785,0.492111 0.32167,0.492867 0.0138,6.51e-4 0.16711,-0.221031 0.34066,-0.492867 l 0.31554,-0.494242 h 0.56619 0.56618 l -0.0913,0.137371 c -0.0502,0.07555 -0.31766,0.472894 -0.59428,0.882974 l -0.50293,0.74561 0.61413,0.920419 c 0.33778,0.506235 0.61414,0.931813 0.61414,0.945728 0,0.01394 -0.2534,0.02528 -0.56312,0.02528 h -0.56312 l -0.33887,-0.543022 c -0.18638,-0.298664 -0.35362,-0.543315 -0.37164,-0.543667 -0.018,-3.45e-4 -0.18482,0.243153 -0.37068,0.541126 l -0.33792,0.541778 -0.55603,0.002 c -0.30581,0.0013 -0.55602,-0.0112 -0.55602,-0.0271 0,-0.01596 0.27855,-0.437833 0.61901,-0.937488 l 0.61901,-0.908471 -0.50781,-0.767238 c -0.49966,-0.754945 -0.51018,-0.76669 -0.65607,-0.733225 -0.0815,0.0187 -0.20944,0.03055 -0.2842,0.02632 -0.13262,-0.0076 -0.13591,-0.0013 -0.13591,0.262124 v 0.269843 h -0.96378 -0.96377 v 0.270697 0.27069 l 0.87728,0.01349 0.87729,0.01348 0.0144,0.383039 0.0144,0.383039 h -0.89172 -0.89172 v 0.321262 0.321255 h 0.98849 0.98849 v 0.420107 0.420106 h -1.48273 -1.48273 v -1.828702 -1.828702 h 0.91143 c 0.55431,0 0.9234,-0.01935 0.94198,-0.04945 0.0185,-0.0299 -0.05,-0.04944 -0.17313,-0.04944 -0.26126,0 -0.69719,-0.205474 -0.8704,-0.410263 -0.19401,-0.229369 -0.35079,-0.602825 -0.41865,-0.99729 -0.059,-0.34265 -0.0371,-2.875399 0.0356,-4.133425 l 0.0304,-0.524404 -0.12099,-0.03036 c -0.0665,-0.01668 -0.1987,-0.0831 -0.29368,-0.147553 -0.12499,-0.08483 -0.29978,-0.133489 -0.63282,-0.176204 -0.25308,-0.03244 -0.46738,-0.05179 -0.47621,-0.04293 -0.009,0.0089 0.0274,0.282175 0.0806,0.607411 0.26501,1.621574 0.38732,2.922499 0.41575,4.42173 0.0165,0.86945 0.0113,1.009616 -0.0236,0.642512 -0.21421,-2.250594 -0.33375,-3.220797 -0.57237,-4.645894 -0.1642,-0.980626 -0.21875,-1.186185 -0.31481,-1.186185 -0.0195,0 0.0154,0.246691 0.0776,0.548201 0.13966,0.676387 0.43569,2.729937 0.53727,3.727012 0.16195,1.589555 0.1988,2.436843 0.18537,4.262855 l -0.0136,1.841053 h -0.43788 -0.43788 l -0.7842,-1.005518 -0.78418,-1.005518 -0.0134,1.005518 -0.0134,1.005518 h -0.49324 -0.49325 v -1.828804 -1.828702 l 0.48189,0.002 0.48189,0.002 0.71666,0.934575 c 0.39416,0.514019 0.73333,0.9358 0.75372,0.937285 0.0204,0.0013 0.0371,-0.35528 0.0371,-0.792813 0,-0.662837 -0.0141,-0.819464 -0.0848,-0.939071 -0.0466,-0.07895 -0.0977,-0.14354 -0.11339,-0.14354 -0.0157,0 -0.1277,0.202321 -0.24882,0.449604 l -0.22022,0.449604 -0.0342,-0.190125 c -0.0188,-0.104571 -0.0355,-0.320103 -0.0371,-0.478958 l -0.003,-0.288827 -0.24311,0.03342 c -0.39371,0.05414 -0.77772,-0.165044 -1.04403,-0.595952 -0.0551,-0.08922 -0.15282,-0.39184 -0.21707,-0.672497 -0.0891,-0.389071 -0.17769,-0.61887 -0.37311,-0.967454 -0.14097,-0.251446 -0.26623,-0.457174 -0.27838,-0.457174 -0.0121,0 -0.007,0.562305 0.0117,1.249564 0.0365,1.353881 0.0296,1.40285 -0.22291,1.557914 -0.0751,0.04612 -0.20847,0.144713 -0.29641,0.219109 l -0.15987,0.135267 0.12461,0.163364 c 0.0685,0.08985 0.1863,0.295881 0.26171,0.457831 0.11769,0.252756 0.13719,0.35747 0.13764,0.739284 3.7e-4,0.395378 -0.0165,0.480783 -0.15257,0.768417 -0.2664,0.563067 -0.65182,0.897072 -1.22543,1.061953 -0.42716,0.122779 -1.0507,0.08425 -1.42594,-0.08812 -0.39551,-0.181683 -0.78267,-0.561947 -0.95751,-0.940471 -0.12701,-0.274957 -0.14189,-0.359893 -0.14051,-0.801778 0.001,-0.435799 0.0175,-0.527113 0.13655,-0.772208 0.19888,-0.409416 0.48458,-0.707115 0.85242,-0.888198 l 0.31808,-0.156589 -0.21296,-0.135059 c -0.23759,-0.150667 -0.42801,-0.367547 -0.42916,-0.488762 -3.7e-4,-0.04391 -0.0195,-0.109496 -0.0425,-0.145749 -0.0489,-0.07709 -0.31184,-0.0088 -1.52485,0.396029 -0.6884,0.229733 -0.87509,0.336336 -0.59124,0.3376 0.17989,6.52e-4 0.60783,0.226718 0.84691,0.44709 0.12383,0.114147 0.22514,0.224248 0.22514,0.244678 0,0.02046 -0.16585,0.161976 -0.36857,0.314552 l -0.36858,0.277413 -0.13802,-0.128127 c -0.21077,-0.195663 -0.39277,-0.271974 -0.65343,-0.273993 -0.52646,-0.0039 -0.89319,0.40797 -0.89319,1.003551 0,0.857124 0.87132,1.263316 1.51961,0.708405 l 0.20462,-0.175142 0.37794,0.271185 0.37795,0.271179 -0.24511,0.245107 c -0.39096,0.390968 -0.68072,0.512828 -1.27123,0.534632 -0.38622,0.01427 -0.54826,-0.0013 -0.74137,-0.07071 z m 4.90629,-0.88018 c 0.60237,-0.251687 0.79089,-0.999792 0.39511,-1.567986 -0.18438,-0.264729 -0.64249,-0.422503 -0.97037,-0.334213 -0.42057,0.113248 -0.69833,0.495213 -0.69833,0.960308 0,0.325028 0.0607,0.501251 0.23791,0.691005 0.27789,0.29751 0.68694,0.396602 1.03568,0.250886 z m 16.06541,-0.0847 c 0.25699,-0.170067 0.41807,-0.501036 0.41491,-0.852519 -0.007,-0.81807 -0.85427,-1.270006 -1.50786,-0.804611 -0.17743,0.126336 -0.37968,0.543993 -0.38034,0.785387 -0.002,0.802598 0.83196,1.296156 1.47329,0.871743 z m -21.54007,-2.334741 c 0.17371,-0.122329 0.30341,-0.222411 0.28821,-0.222411 -0.0152,0 -0.2364,0.07774 -0.49154,0.172744 -0.25514,0.09501 -0.49039,0.172856 -0.52277,0.172986 -0.0324,1.5e-4 -0.0726,0.02248 -0.0894,0.04964 -0.0189,0.03062 0.0704,0.04944 0.23456,0.04944 0.23445,0 0.30162,-0.02573 0.58095,-0.222412 z m 27.15048,0.151866 c 0.0222,-0.05791 10e-4,-0.06143 -0.11827,-0.01987 -0.1762,0.06143 -0.18488,0.09042 -0.0271,0.09042 0.0651,0 0.13046,-0.03179 0.14534,-0.07054 z m -21.36783,-0.624759 v -0.151645 l -0.15848,0.112851 -0.15848,0.11285 0.12141,0.03388 c 0.19219,0.05361 0.19555,0.05172 0.19555,-0.107926 z m 8.55042,0.07387 c 0,-0.04606 -0.0336,-0.07124 -0.0824,-0.06176 -0.12399,0.02404 -0.14102,0.13954 -0.0206,0.13954 0.0607,0 0.10297,-0.03192 0.10297,-0.07776 z m 1.31781,-0.371033 0.008,-0.416133 -0.0846,0.395397 c -0.0877,0.409957 -0.0858,0.487884 0.0111,0.455806 0.0365,-0.01205 0.0602,-0.17008 0.0653,-0.43507 z m -8.56925,-0.332767 c -0.0124,-0.723121 -0.0447,-0.965695 -0.12203,-0.917872 -0.0372,0.023 -0.0429,0.240001 -0.0188,0.705669 0.0191,0.36988 0.0339,0.737519 0.0328,0.816989 -0.001,0.114258 0.0106,0.131697 0.0584,0.08337 0.0425,-0.04293 0.0573,-0.247349 0.0497,-0.688152 z m -8.68793,0.389938 c 0.21747,-0.07875 0.69343,-0.267641 1.05769,-0.419767 1.18767,-0.495994 2.85535,-1.011238 3.93989,-1.217266 0.26594,-0.05055 0.32089,-0.08165 0.45718,-0.258977 0.13127,-0.170797 0.1548,-0.243563 0.15418,-0.476763 -0.001,-0.598147 -0.25565,-1.276195 -0.56724,-1.513857 -0.27408,-0.20905 -0.5099,-0.209909 -1.14633,-0.0039 -1.05753,0.341874 -3.42692,1.239786 -3.8808,1.470666 l -0.18312,0.09316 -0.0246,-0.160504 c -0.0136,-0.08828 -0.038,-0.300481 -0.0543,-0.471558 l -0.0298,-0.311054 0.55872,-0.264241 c 1.09841,-0.519465 2.22632,-0.878511 3.43301,-1.092819 0.40142,-0.07129 0.79151,-0.1615 0.86685,-0.20047 0.30183,-0.156074 0.37579,-0.583672 0.15104,-0.87315 -0.0748,-0.09629 -0.17271,-0.242007 -0.21769,-0.323816 -0.22272,-0.405234 -0.70939,-0.433181 -1.93259,-0.110987 -0.85942,0.226372 -1.10013,0.311112 -2.20588,0.776546 -0.41829,0.176068 -0.77745,0.302058 -0.79814,0.279974 -0.0207,-0.02208 -0.0529,-0.176725 -0.0716,-0.343646 l -0.0339,-0.303504 0.52168,-0.203969 c 0.74482,-0.29121 1.35239,-0.487772 2.90341,-0.939324 1.83919,-0.535445 1.64484,-0.435383 1.60818,-0.828024 -0.0168,-0.179637 -0.0661,-0.38102 -0.10971,-0.447507 -0.0877,-0.133768 -0.3335,-0.253706 -0.54916,-0.267908 -0.0771,-0.0052 -0.68507,0.125795 -1.35106,0.29082 -0.66599,0.165025 -1.52227,0.370805 -1.90284,0.457278 -0.38056,0.08647 -1.06497,0.280195 -1.52089,0.430497 -0.76037,0.250671 -0.84276,0.2894 -0.99572,0.468099 -0.2839,0.331679 -0.33331,0.75443 -0.12894,1.103372 0.0601,0.102636 0.11277,0.399306 0.1711,0.96378 0.21469,2.077836 0.33211,3.315087 0.34473,3.632688 0.0157,0.394466 0.10746,0.610662 0.32498,0.765544 0.082,0.05837 0.14902,0.141768 0.14902,0.18535 0,0.292872 0.44058,0.34076 1.06263,0.115502 z m -0.64251,-0.03896 c 0.0272,-0.02625 0.22735,-0.110186 0.44481,-0.186562 0.21747,-0.07638 0.53994,-0.192269 0.7166,-0.257531 0.40229,-0.148628 0.34308,-0.09008 -0.20791,0.205584 -0.3188,0.171077 -0.50459,0.238111 -0.71665,0.25858 -0.1845,0.01778 -0.26871,0.01062 -0.23685,-0.02006 z m 0.77106,-3.768985 c 0.094,-0.18036 0.13428,-0.206933 0.4568,-0.301452 0.19454,-0.057 0.63249,-0.190783 0.97321,-0.297269 1.01621,-0.317594 0.93412,-0.247765 -0.29589,0.251681 -0.45615,0.18522 -0.92113,0.38358 -1.03329,0.440797 l -0.20393,0.104036 z m 27.59853,3.809296 c 0.21747,-0.07756 0.69115,-0.265348 1.05262,-0.417305 1.13636,-0.477708 2.8453,-1.007114 3.93925,-1.220333 0.32109,-0.06261 0.53924,-0.235871 0.59957,-0.476275 0.095,-0.378524 -0.0993,-1.245818 -0.35381,-1.579542 -0.3186,-0.417696 -0.56701,-0.446445 -1.43194,-0.165716 -0.99595,0.323249 -3.42753,1.2486 -3.83587,1.459761 l -0.13683,0.07075 -0.0255,-0.209774 c -0.0141,-0.115378 -0.0386,-0.327652 -0.0545,-0.471727 l -0.0288,-0.261948 0.55805,-0.262937 c 1.1105,-0.523238 2.19023,-0.867235 3.42466,-1.091093 0.40776,-0.07394 0.80216,-0.165774 0.87645,-0.204073 0.30227,-0.15582 0.3815,-0.629234 0.14911,-0.890935 -0.0747,-0.08418 -0.17271,-0.220678 -0.21767,-0.303321 -0.22193,-0.407859 -0.70274,-0.434647 -1.94464,-0.108342 -0.75437,0.19821 -1.41743,0.438138 -2.44268,0.883892 -0.25613,0.111359 -0.4826,0.202471 -0.50327,0.202471 -0.048,0 -0.0785,-0.109639 -0.11871,-0.427188 l -0.0322,-0.254202 0.53523,-0.209382 c 0.69724,-0.272775 1.36061,-0.485499 3.09293,-0.991818 l 1.42096,-0.415312 -3e-4,-0.222574 c -3.5e-4,-0.298123 -0.0776,-0.558957 -0.19767,-0.667618 -0.0542,-0.04905 -0.20277,-0.115646 -0.33016,-0.14799 -0.21313,-0.05414 -0.28902,-0.04365 -0.95144,0.131306 -0.39592,0.104558 -1.17578,0.292449 -1.73304,0.417533 -1.80147,0.404374 -2.93963,0.772919 -3.17723,1.028814 -0.21907,0.235929 -0.30096,0.426374 -0.30237,0.703122 l -0.001,0.254437 -0.28878,-0.22688 c -0.15883,-0.124779 -0.32638,-0.29054 -0.37235,-0.368356 -0.085,-0.143931 -1.13157,-0.854955 -2.04975,-1.392609 -1.03085,-0.60362 -2.30688,-1.125645 -2.98413,-1.220802 -0.47154,-0.06626 -0.76203,-0.0039 -0.9577,0.205558 -0.097,0.103815 -0.14669,0.126772 -0.18708,0.08638 -0.0404,-0.04039 -0.0324,-0.07165 0.0298,-0.117652 0.0597,-0.0441 0.0693,-0.07834 0.0326,-0.115658 -0.0533,-0.05427 -0.41491,-0.03348 -1.82597,0.104994 -0.41026,0.04026 -1.43157,0.06339 -2.82541,0.06397 -1.20059,3.78e-4 -2.17776,0.0059 -2.17148,0.01238 0.0273,0.02736 1.58786,0.211063 1.79855,0.211747 0.12809,3.78e-4 0.26624,0.02228 0.30701,0.04866 0.10255,0.06627 -0.36558,0.06404 -1.41804,-0.0067 -0.9621,-0.06469 -1.08293,-0.04261 -1.25044,0.228405 -0.17267,0.279387 -0.12419,0.602766 0.12977,0.865632 0.0657,0.06796 0.18354,0.215135 0.26198,0.327054 0.26978,0.384973 0.74511,0.510449 1.9402,0.512182 0.37217,3.71e-4 0.68966,0.02202 0.70555,0.04769 0.0159,0.02573 -0.004,0.698484 -0.0435,1.495089 -0.12415,2.486007 -0.13213,2.814826 -0.084,3.458491 0.052,0.694868 0.13862,0.959265 0.39219,1.197135 0.11372,0.106681 0.21536,0.148999 0.40059,0.166797 0.23044,0.02215 0.26016,0.01186 0.41523,-0.143176 0.16136,-0.161357 0.25047,-0.449258 0.28993,-0.936699 0.005,-0.06574 0.022,0.114017 0.0371,0.399443 l 0.0274,0.518957 0.0989,-0.172986 c 0.0959,-0.167741 0.0988,-0.263595 0.0988,-3.161912 V 44.05282 l 0.98774,-0.167077 c 0.54475,-0.09215 1.08052,-0.210692 1.19462,-0.264326 0.2192,-0.103033 0.363,-0.321685 0.363,-0.551933 0,-0.06913 0.0535,-0.187891 0.11888,-0.263909 0.11743,-0.136505 0.12016,-0.137052 0.22241,-0.04449 0.13278,0.120166 0.13027,0.168445 -0.0168,0.322793 l -0.12029,0.126264 0.12057,0.568376 c 0.0663,0.312611 0.13199,0.618427 0.14594,0.679585 0.021,0.092 0.005,0.111209 -0.0959,0.111209 -0.2248,0 -0.37742,0.09296 -0.45417,0.276638 -0.13041,0.312129 -0.0153,0.538696 0.37587,0.739786 0.17202,0.08842 0.1723,0.0891 0.0494,0.121391 -0.11761,0.03088 -0.11479,0.03498 0.0586,0.08499 0.34475,0.09939 0.34925,0.111495 0.60176,1.619098 0.12748,0.761134 0.25185,1.668811 0.27638,2.017056 0.0435,0.617547 0.0905,0.775426 0.23077,0.775426 0.0375,0 0.0681,0.03335 0.0681,0.07413 0,0.229467 0.38126,0.348141 0.61867,0.192588 0.2427,-0.159018 0.32041,-0.363137 0.32016,-0.840936 -2.4e-4,-0.468209 -0.12636,-2.57239 -0.19004,-3.170746 -0.021,-0.197662 -0.0307,-0.366902 -0.0216,-0.376081 0.0498,-0.04977 0.98676,0.03857 1.05663,0.09959 0.12611,0.110141 0.55032,0.95993 0.95892,1.920915 0.44999,1.058357 0.82978,1.966751 0.91229,2.182087 0.0506,0.132095 0.0849,0.155684 0.22647,0.155684 0.0917,0 0.27962,0.0155 0.41748,0.03446 0.34143,0.04697 0.47013,-0.03902 0.51163,-0.34175 0.0898,-0.655253 -0.40448,-1.948907 -1.31876,-3.451449 -0.37909,-0.623 -0.4795,-0.563601 0.77904,-0.460802 0.90153,0.07364 1.00245,0.05993 1.14347,-0.155299 0.0429,-0.06544 0.0909,-0.273745 0.1068,-0.4629 0.0158,-0.189155 0.0349,-0.337887 0.0422,-0.330513 0.007,0.0074 0.0931,0.814051 0.19057,1.792619 0.0974,0.978574 0.19935,1.969767 0.22646,2.202666 0.0271,0.2329 0.0493,0.517583 0.0493,0.632622 0,0.263075 0.10507,0.469689 0.29629,0.582643 0.0845,0.04997 0.14853,0.129378 0.14853,0.184393 0,0.309288 0.42232,0.362668 1.06262,0.134309 z m -0.64251,-0.04078 c 0.0642,-0.06254 1.36109,-0.52258 1.39047,-0.493199 0.0123,0.01231 -0.18009,0.126967 -0.42757,0.254788 -0.32362,0.167142 -0.52891,0.240007 -0.73115,0.259491 -0.18304,0.01766 -0.26393,0.01029 -0.23175,-0.02104 z m 0.77865,-3.772464 c 0.0877,-0.177181 0.12655,-0.202933 0.44945,-0.297556 0.19441,-0.05694 0.63872,-0.19275 0.98735,-0.301725 0.34862,-0.108981 0.6464,-0.185604 0.66172,-0.170282 0.0153,0.01531 -0.0269,0.04866 -0.0938,0.07413 -0.48455,0.18423 -1.68767,0.682191 -1.87361,0.775485 l -0.22704,0.113906 z m -5.13061,-2.19578 c -0.39059,-0.05335 -0.47741,-0.08397 -0.68339,-0.241199 -0.12977,-0.09906 -0.2954,-0.193083 -0.36807,-0.208933 -0.0727,-0.01583 -0.15929,-0.03713 -0.1925,-0.04736 -0.10325,-0.0316 -0.35925,0.0818 -0.41353,0.183227 -0.0316,0.05896 -0.0919,0.09066 -0.15481,0.08129 -0.0862,-0.01283 -0.12021,-0.08825 -0.20757,-0.460177 -0.0883,-0.375879 -0.12077,-0.447161 -0.20959,-0.459929 -0.0692,-0.01 -0.11386,-0.06065 -0.1307,-0.14827 -0.0141,-0.07324 -0.021,-0.137821 -0.0155,-0.143508 0.0248,-0.02547 0.62387,0.154628 0.96487,0.290038 0.5168,0.20522 1.33037,0.628369 1.8335,0.953617 l 0.42011,0.271583 -0.19771,-0.0046 c -0.10873,-0.0026 -0.39903,-0.03218 -0.64512,-0.06575 z m -10.25229,-0.994893 c -0.25854,-0.06947 -0.52492,-0.20363 -0.48452,-0.244027 0.0104,-0.01042 0.12022,0.01153 0.24401,0.04879 0.12379,0.03726 0.45576,0.104408 0.73772,0.14924 0.28196,0.04482 0.52252,0.09137 0.53458,0.103437 0.0547,0.05472 -0.78925,0.0078 -1.03179,-0.05746 z m -5.52541,6.731455 c 0.0892,-0.07236 0.22546,-0.181461 0.30276,-0.242456 0.19538,-0.154152 0.22102,-0.357919 0.17596,-1.398309 -0.0211,-0.486411 -0.039,-1.584976 -0.0397,-2.441254 l -0.001,-1.556872 0.12175,0.148277 c 0.067,0.08155 0.63408,1.063334 1.26026,2.181735 1.07764,1.924732 1.14268,2.055556 1.21634,2.446511 0.1353,0.718131 0.36291,1.01469 0.73192,0.953617 0.23467,-0.03883 0.35597,-0.09479 0.51026,-0.235362 0.0988,-0.09002 0.10937,-0.136049 0.0866,-0.376864 -0.0143,-0.150875 -0.0604,-0.6969 -0.10257,-1.213382 -0.16632,-2.037401 -0.48415,-4.194114 -0.82603,-5.605198 -0.19561,-0.807406 -0.21765,-0.866063 -0.35732,-0.95124 -0.16917,-0.103163 -0.45873,-0.117306 -0.56896,-0.02782 -0.0408,0.03309 -0.15754,0.154797 -0.25948,0.270403 -0.22285,0.252736 -0.22829,0.334904 -0.0635,0.959233 0.20585,0.780038 0.6526,3.286899 0.59588,3.343621 -0.0117,0.01166 -0.0687,-0.0871 -0.12665,-0.219506 -0.37122,-0.847848 -1.39008,-2.6727 -1.90378,-3.409802 -0.46436,-0.666328 -0.9376,-1.056728 -1.28096,-1.056728 -0.15338,0 -0.4212,0.241544 -0.4212,0.379873 0,0.05003 -0.05,0.112889 -0.1112,0.139723 -0.0866,0.03798 -0.11796,0.103521 -0.14174,0.295907 -0.0444,0.359476 0.0505,3.854507 0.18523,6.820568 0.0175,0.385742 0.0558,0.722633 0.0866,0.761296 0.18415,0.231388 0.66585,0.248984 0.93093,0.03401 z m 0.19175,-0.796768 c -0.0691,-0.494137 -0.0573,-1.191174 0.0199,-1.173227 0.0673,0.01563 0.14315,1.313647 0.0866,1.483167 -0.0375,0.112486 -0.0542,0.06384 -0.10651,-0.30994 z m 15.99667,0.430041 c 0.0475,-0.03016 0.0242,-0.131872 -0.0988,-0.431708 l -0.16099,-0.392257 -0.0255,0.395397 c -0.0155,0.240827 -0.006,0.409585 0.0247,0.431702 0.0658,0.04762 0.18289,0.04619 0.2606,-0.0033 z m -11.70534,-1.360316 c -0.0711,-2.158225 -0.28183,-3.950062 -0.7174,-6.098873 -0.035,-0.17253 -0.19525,-0.227766 -0.24963,-0.08604 -0.0157,0.04104 0.0407,0.424686 0.12528,0.852571 0.37563,1.898792 0.58818,3.516926 0.82166,6.255403 0.0181,0.212698 0.0395,0.379502 0.0476,0.370687 0.008,-0.0088 -0.005,-0.591007 -0.0275,-1.293751 z m 11.31928,1.04295 c -0.005,-0.484183 -0.0845,-1.000039 -0.18848,-1.223252 l -0.10365,-0.222411 0.0299,0.790794 c 0.0293,0.774612 0.0594,0.914348 0.19679,0.914348 0.0495,0 0.0674,-0.07074 0.0654,-0.259479 z m -17.02603,-2.18924 c -0.0397,-1.031752 -0.0909,-2.532026 -0.11372,-3.333934 l -0.0414,-1.458021 -0.007,1.161475 c -0.01,1.593268 0.14885,5.592019 0.21886,5.522008 0.009,-0.0086 -0.0169,-0.85977 -0.0567,-1.891528 z m 15.67826,0.768293 c -0.0326,-0.731825 -0.16925,-1.943592 -0.23597,-2.093497 -0.0489,-0.109802 -0.0415,0.02938 0.0532,1.006157 0.025,0.258241 0.0616,0.825386 0.0813,1.260326 0.0285,0.630654 0.0452,0.755759 0.0824,0.617801 0.0256,-0.09514 0.0342,-0.450998 0.0191,-0.790787 z m 4.07369,-0.641137 c -0.0299,-0.274729 -0.0543,-0.52912 -0.0543,-0.565321 0,-0.04391 -0.10052,-0.07718 -0.30173,-0.09995 -0.16596,-0.01883 -0.31172,-0.02417 -0.3239,-0.01199 -0.0122,0.01218 0.0756,0.174797 0.19512,0.361365 0.1195,0.186575 0.2813,0.454764 0.35957,0.595972 0.0783,0.141214 0.1507,0.248352 0.16097,0.238091 0.0103,-0.01029 -0.006,-0.24344 -0.0357,-0.518169 z m -27.07841,-4.24591 c 0.59076,-0.233773 1.46693,-0.481688 2.90497,-0.82196 0.74755,-0.176888 1.38141,-0.330792 1.4086,-0.342004 0.14019,-0.05785 -0.38274,-0.0159 -0.92052,0.07388 -1.03224,0.172263 -2.38589,0.572989 -3.31763,0.982125 -0.42435,0.186334 -0.54146,0.25026 -0.45846,0.25026 0.0129,0 0.18525,-0.06404 0.38304,-0.142301 z m 27.67546,0.02365 c 0.42057,-0.185995 1.64438,-0.538507 2.83303,-0.816031 0.59804,-0.139625 1.19854,-0.284709 1.33446,-0.322402 0.24367,-0.06758 0.24462,-0.0686 0.068,-0.07296 -0.75944,-0.01876 -3.11607,0.613066 -4.20306,1.126812 -0.44577,0.210691 -0.47193,0.278957 -0.0324,0.08458 z"
       id="path1469"
       inkscape:power="50"
       inkscape:feed="50"
       inkscape:engrave="0" />
  </g>
  <g
     inkscape:groupmode="layer"
     id="layer2"
     inkscape:power="100"
     inkscape:feed="40"
     inkscape:engrave="0"
     inkscape:label="CONTORNO"
     style="display:none">
    <path
       style="fill:none;fill-rule:evenodd;stroke:#000000;stroke-width:0.429912;stroke-linecap:round;stroke-linejoin:round"
       d="M 64.659924,54.019932 C 59.547294,-7.161448 36.797724,99.246438 30.820034,74.696964 26.314064,49.259881 6.2796945,53.854597 0.04035449,84.178708 V 114.33748 H 64.659924 Z"
       id="path44836"
       inkscape:power="50"
       inkscape:feed="50"
       inkscape:engrave="0"
       sodipodi:nodetypes="cccccc" />
    <path
       style="fill:none;fill-rule:evenodd;stroke:#000000;stroke-width:0.487263;stroke-linecap:round;stroke-linejoin:round"
       d="M 129.31994,77.963034 C 124.20731,156.55651 101.45774,19.865159 95.480055,51.401361 90.974085,84.077786 70.939715,78.175423 64.700375,39.221136 l 1e-5,-38.74189355 h 64.619555 z"
       id="path44836-2"
       inkscape:power="50"
       inkscape:feed="50"
       inkscape:engrave="0"
       sodipodi:nodetypes="cccccc" />
    <path
       style="fill:none;fill-rule:evenodd;stroke:#000000;stroke-width:0.349001;stroke-linecap:round;stroke-linejoin:round"
       d="M 0,39.700379 C 5.11903,79.969327 27.89705,9.9327647 33.88221,26.090972 38.39382,42.833395 58.45325,39.809201 64.70038,19.850189 V 0 H 0 Z"
       id="path44836-8"
       inkscape:power="50"
       inkscape:feed="50"
       inkscape:engrave="0"
       sodipodi:nodetypes="cccccc" />
  </g>
</svg>
